<svg xmlns="http://www.w3.org/2000/svg" width="455" height="581" fill="none"><path fill="#686374" d="M344.295 116.057a48 48 0 0 0-.444 5.774q-.013.656-.001 1.306c.011.244.012.486.028.738q.06 1.49.189 2.981a100 100 0 0 0 1.726 11.325c.189.921.379 1.841.579 2.763.099.431.189.86.284 1.284l.023.036.206.916q.697 3.088 1.385 6.163a322 322 0 0 1 2.103 10.364 34.4 34.4 0 0 1 1.494 8.743 285 285 0 0 1 3.444 41.627c.119 16.833-1.534 33.617-4.915 49.883-3.6 16.85-8.62 33.136-14.969 48.561a338 338 0 0 1-14.388 31.107c-1.395 2.693-2.219 5.818-2.387 9.054-.066 1.204-.151 2.391-.201 3.59-.219 3.003.313 6.014 1.517 8.584 1.56 3.222 3.695 6.042 5.581 8.943q3.145 4.724 6.285 9.453l7.122 10.735c.217.321.371.706.45 1.122s.079.851.002 1.268a3 3 0 0 1-.448 1.129c-.216.324-.49.576-.796.734a245 245 0 0 1 5.45 8.387c.537.88.788 2.001.698 3.122s-.514 2.153-1.18 2.876a3.14 3.14 0 0 1-1.478.844 2.7 2.7 0 0 1-1.609-.119c-.19.669-.52 1.256-.953 1.693a3.1 3.1 0 0 1-1.22.789 2.6 2.6 0 0 1-1.359.089 2.9 2.9 0 0 1-1.271-.626 3.9 3.9 0 0 1-.97-1.236l-3.47-2.355a2.5 2.5 0 0 1-1.583-.254c-.502-.26-.945-.682-1.285-1.227l-1.319-2.113c-.173.814-.543 1.535-1.054 2.056a3.1 3.1 0 0 1-1.377.802 3.5 3.5 0 0 1-.717 1.078c-.611.6-1.357.919-2.12.907a1.4 1.4 0 0 1-.26.41c-.228.229-.514.336-.799.298-.286-.037-.549-.216-.736-.5-4.734-6.232-9.63-12.317-14.782-17.984-2.26-2.651-4.782-4.897-7.5-6.677-2.595-1.522-5.382-2.42-8.227-2.651a52 52 0 0 0-9.572.204c-8.793 3.89-17.859 6.63-27.063 8.18-18.408 3.197-37.113 2.576-55.578.762-9.057-.881-18.119-1.951-27.141-3.319a145 145 0 0 1-24.086-6.156c-5.007-1.675-9.974-3.54-14.936-5.398-.339.165-.7.236-1.061.211a10.8 10.8 0 0 0-4.847.629l-4.079 1.632-.428.173-1.129.478c-.739.32-1.507.684-2.25 1.058a79 79 0 0 0-4.413 2.437 84 84 0 0 0-8.271 5.795l-.441.346-.101.108-.908.743q-1.095.905-2.184 1.841a180 180 0 0 0-3.935 3.489c-2.961 2.702-5.859 5.507-8.757 8.324-.68.699-1.54 1.027-2.4.914s-1.649-.658-2.203-1.519c-.534-.882-.782-2.001-.692-3.121.09-1.119.511-2.151 1.174-2.876 10.283-10.003 21.012-20.344 33.325-25.588a178 178 0 0 0-3.847-1.26c-.191-.065-.383-.117-.57-.175l-.161-.049-1.298-.379c-.882-.284-1.729-.483-2.594-.712a93 93 0 0 0-5.154-1.202 66 66 0 0 0-10.206-1.308 51 51 0 0 0-2.311-.048c-.388-.004-.776.005-1.159.009-.166.005-.96.042-.093.001l-.695.03a56 56 0 0 0-5.097.529c-1.71.253-3.402.657-5.084 1.136-.803.218-1.622.501-2.435.778l-.97.358-1.12.445c-3.519 1.507-6.925 3.433-10.174 5.754a75 75 0 0 0-2.475 1.856l-.085.09-.096.102-.47.389a71 71 0 0 0-1.427 1.221c-1.421 1.227-3.479 1.361-4.602-.605-.974-1.711-1.04-4.676.482-5.998 6.583-5.839 13.919-10.079 21.653-12.515 6.805-1.956 13.8-2.516 20.729-1.659 14.585 1.6 28.631 7.858 42.635 12.965a235 235 0 0 0 11.086 3.788c.483.158.968.302 1.447.452a.3.3 0 0 0 .085.032l.793.232q1.468.442 2.941.831 2.978.816 5.969 1.485c8.631 1.929 17.408 2.813 26.123 3.824 9.296 1.115 18.581 1.925 27.899 2.247q6.794.233 13.593.056l.182-.01 1.026-.04 1.727-.076q1.723-.083 3.449-.206c2.287-.171 4.573-.376 6.853-.648 8.9-1.026 21.576-.936 27.927-9.159.658-.856-10.957-5.265-23.39-10.307a70 70 0 0 1-6.769-3.173 311 311 0 0 0-12.76-4.95 337 337 0 0 0-11.684-4.068 378 378 0 0 0-5.79-1.846l-1.568-.482-.479-.15-.278-.084-3.145-.932a356 356 0 0 0-47.69-10.384 333 333 0 0 0-27.006-2.876c-.861-.123-1.649-.681-2.195-1.555-.546-.875-.805-1.995-.721-3.119.108-1.114.543-2.131 1.212-2.841.67-.71 1.522-1.057 2.381-.969a349 349 0 0 1 48.421 6.694 366 366 0 0 1 41.298 11.275c-5.51-6.677-9.97-14.591-14.114-22.826-5.031-10.002-9.753-20.442-16.181-29.072a73 73 0 0 0-1.16-1.513c.032.051-.306-.37-.429-.521-.122-.151-.405-.484-.372-.446a42 42 0 0 0-2.813-3.003 45 45 0 0 0-4.647-4.046q-.474-.357-.956-.705l-.412-.283-.476-.311a42.3 42.3 0 0 0-7.946-4.021c-.836-.333-1.668-.597-2.509-.862l-.023-.037-.784-.218c-.44-.118-.881-.223-1.322-.328a45 45 0 0 0-5.633-.976 53 53 0 0 0-5.736-.33c-.465-.007-.931.012-1.375.007l-.555.015-.113-.001-.156.006c-.966.062-1.937.116-2.901.212a72.5 72.5 0 0 0-11.445 2.031 84 84 0 0 0-5.553 1.633c-.887.295-1.78.608-2.669.929l-.655.244-.085.029-1.575.622c-17.675 7.125-34.249 18.24-52.155 24.452a95 95 0 0 1-6.365 1.958 2.4 2.4 0 0 1-1.266.029 2.8 2.8 0 0 1-1.17-.624 3.8 3.8 0 0 1-.885-1.178 4.9 4.9 0 0 1-.454-1.538 5.7 5.7 0 0 1 .02-1.713 5.2 5.2 0 0 1 .524-1.574c.253-.475.575-.881.947-1.194a3 3 0 0 1 1.225-.631 98 98 0 0 0 6.746-2.083l1.587-.572.77-.269.119-.052.17-.059a361 361 0 0 0 3.467-1.409c4.296-1.813 8.533-3.855 12.745-5.982 7.134-3.615 14.148-7.42 21.327-10.888-3.775.346-7.572.581-11.366.655-14.054.274-28.359-2.442-40.558-11.999-6.896-5.309-12.578-12.915-16.467-22.038a5.5 5.5 0 0 1-.044-3.257c.316-1.053.938-1.901 1.731-2.36a2.64 2.64 0 0 1 2.493-.041c.802.404 1.454 1.195 1.819 2.211.194.476.405.935.605 1.406l.147.235c.05.08.15.316.226.467a50 50 0 0 0 4.555 7.495c.29.388.574.769.87 1.138l.276.353c.05.08.138.22.198.241a70 70 0 0 0 1.977 2.22 50 50 0 0 0 4.001 3.779c.644.536 1.3 1.06 1.939 1.601.36.277.721.54 1.082.803l.402.281c.041.066.25.175.357.243a56 56 0 0 0 4.507 2.707c1.554.79 3.198 1.558 4.826 2.197.747.293 1.495.56 2.25.82l1.052.348.171.049.839.245a72 72 0 0 0 19.822 2.411l2.505-.035.622-.026h.103l1.232-.087q2.517-.12 5.024-.33c3.669-.305 7.33-.713 10.986-1.128 8.325-.953 16.651-1.906 25.013-1.911.499.01.982.215 1.39.587a54.3 54.3 0 0 1 16.587 1.002c7.74 1.592 15.099 5.434 21.531 11.241 7.624 7.07 13.247 16.968 18.328 27.051 5.082 10.083 9.75 20.421 16.104 29.129.344.476.695.933 1.046 1.39.201.323.449.584.675.87q.048.07.091.146a60 60 0 0 0 2.471 2.817 66 66 0 0 0 5.181 4.991 68 68 0 0 0 2.6 2.12l1.339 1.018c.181.125.361.263.542.388l.504.355a68 68 0 0 0 5.913 3.593l.16.075a594 594 0 0 1 10.188 4.289q.177.095.344.22c.443.152.87.296 1.323.45l.575.183c.096.019.343.099.419.116.505.147 1.005.287 1.512.421 1.105.266 2.177.556 3.264.793a87 87 0 0 0 6.763 1.192c2.56.357 5.132.58 7.704.73a76 76 0 0 1-5.702-3.585c-9.928-6.881-18.734-16.087-26.568-26.579-9.41-12.611-17.376-26.864-25.255-41.1-7.457-13.452-14.887-26.982-23.477-39.256a184 184 0 0 0-6.3-8.486l-.811-1.029-.353-.43-.055-.088c-.537-.65-1.103-1.331-1.665-1.99a137 137 0 0 0-3.403-3.828c-4.633-5.045-9.63-9.495-14.922-13.289l-.156-.115c-.108-.068-.328-.225-.368-.244-.333-.232-.667-.451-1.001-.67-.678-.439-1.352-.858-2.031-1.284-1.531-.949-2.662-3.273-1.906-5.477.64-1.983 2.567-3.514 4.217-2.509 6.299 3.895 12.24 8.697 17.714 14.316a66.3 66.3 0 0 1 .011-11.643c.486-5.6 1.481-11.092 2.272-16.625.391-2.744.742-5.506.931-8.303.107-1.332.152-2.599.174-3.903l.011-.779s-.006-.506-.006-.702c-.015-.581-.045-1.171-.067-1.732a50 50 0 0 0-.476-4.629c-.099-.626-.219-1.254-.335-1.876l-.039-.214c-.023-.036-.027-.118-.051-.202l-.28-1.08a41 41 0 0 0-1.324-3.791l-.1-.161a1 1 0 0 1-.078-.125c-.188-.301-.327-.629-.498-.948l-1.085-1.738a4.5 4.5 0 0 1-.636-1.393 5.27 5.27 0 0 1 .152-3.177c.187-.49.446-.927.764-1.286a3.3 3.3 0 0 1 1.147-.872c.423-.188.87-.264 1.315-.224s.88.197 1.277.459c.398.262.75.626 1.038 1.069 5.777 8.504 6.435 20.693 5.262 31.482-.609 5.584-1.628 11.066-2.359 16.621a97 97 0 0 0-.774 8.343c-.026.649-.062 1.285-.05 1.967-.005.262 0 .525-.001.794l-.002.209a.4.4 0 0 0 .003.094c.059 1.389.128 2.778.276 4.158q.242 2.115.65 4.187l.06.095c.11.432.209.863.335 1.29q.277.999.616 1.98c.249.7.526 1.369.812 2.053l.028.044-.028-.044a.2.2 0 0 0 .032.051q.072.132.156.25c.123.198.247.396.327.629q.518.932 1.112 1.783c.488.616.965 1.244 1.441 1.873 8.806 11.643 16.361 24.711 23.68 37.943 7.855 14.091 15.514 28.425 24.41 41.461a189 189 0 0 0 6.792 9.378 111 111 0 0 0 1.441 1.813l.267.338.023.036c.278.34.543.644.839 1.013a138 138 0 0 0 3.019 3.454c4.079 4.55 8.437 8.659 13.029 12.286a63 63 0 0 0 3.484 2.573c.161.108.588.4.416.29l.712.464q.956.63 1.922 1.229a66 66 0 0 0 7.326 3.947q1.858.857 3.783 1.547c.587.219 1.197.414 1.774.631l.921.303c-8.485-9.082-14.206-22.522-17.594-36.046a164 164 0 0 1-1.331-5.757 123 123 0 0 0-5.144-9.748 49 49 0 0 0-3.16-4.672c-.119-.191-.242-.389-.412-.526a1 1 0 0 0-.078-.124c-.27-.312-.554-.632-.829-.937a30 30 0 0 0-2.008-1.968c-.304-.262-.633-.548-.93-.769-.05-.081-.689-.488-.76-.571a19 19 0 0 0-2.163-1.254c-1.511-.751-3.071-1.34-4.633-1.902-3.065-1.09-6.18-2.079-9.012-4-3.652-2.467-6.975-6.015-8.429-11.203-.591-2.091-.036-4.753 1.683-5.625 1.572-.789 3.706-.078 4.31 2.184q.206.742.473 1.449c.063.177.143.349.211.519l1.374 2.201.055.088c.162.17.314.338.476.507.276.293.588.596.863.841s.604.517.91.766l.536.407c.041.066.102.075.136.099 2.795 1.364 5.604 2.69 8.494 3.696 3.442 1.079 6.731 2.852 9.749 5.255a31.7 31.7 0 0 1 4.492 4.745c-.27-1.712-.551-3.426-.826-5.146a550 550 0 0 0-2.716-15.408 183 183 0 0 0-3.907-16.07 120 120 0 0 0-5.373-14.869q-.343-.771-.694-1.532l-.114-.184q-.26-.548-.528-1.086a75 75 0 0 0-1.858-3.504 72 72 0 0 0-4.409-6.93c-.541-.879-.794-2.001-.704-3.123s.517-2.156 1.186-2.875c.682-.689 1.541-1.011 2.398-.898s1.646.651 2.205 1.503c11.322 15.705 16.469 36.922 19.963 57.564 1.745 10.17 3.136 20.448 5.285 30.495l.181.832.044.221s.041.067.043.175c.136.624.282 1.249.429 1.861q.44 1.862.928 3.698c.65 2.456 1.359 4.885 2.15 7.266a92 92 0 0 0 2.452 6.592c.399.955.814 1.892 1.246 2.824q.028.055.064.103l.39.805c.271.554.553 1.096.835 1.638a65 65 0 0 0 3.791 6.331 50 50 0 0 0 2.062 2.823l.427.548c-.52-.667.179.212.232.266.367.439.742.859 1.113 1.258a57 57 0 0 0 2.575 2.621c-3.703-11.154-4.901-23.575-4.868-35.814.051-16.647 2.576-33.078 3.162-49.682a170 170 0 0 0 .079-8.96l-.002-.29-.022-.817-.081-1.634a127 127 0 0 0-1.118-12.323q-.417-2.97-.965-5.925c-.198-1.009-.375-1.956-.581-2.932l-.289-1.365-.036-.058c-.082-.327-.15-.646-.232-.974a145 145 0 0 0-3.191-11.416 156 156 0 0 0-2.722-7.672 5.7 5.7 0 0 1-.686-1.174c-.227-.515-.45-1.022-.683-1.531-.087-.14-.191-.396-.222-.46l-.431-.872a73 73 0 0 0-1.979-3.668 69 69 0 0 0-5.988-8.767c-.087-.139-.264-.318-.311-.378-.165-.264-.392-.462-.59-.69a64 64 0 0 0-6.5-6.518 69 69 0 0 0-2.697-2.2c-.385-.286-.765-.579-1.156-.859a16 16 0 0 0-.689-.488 1 1 0 0 0-.132-.091l-.29-.193a55 55 0 0 0-5.804-3.403 51 51 0 0 0-6.052-2.567c-.447-.16-.882-.284-1.339-.446l-.424-.123c-.257-.081-.516-.148-.774-.216a44 44 0 0 0-3.136-.722 42.7 42.7 0 0 0-7.123-.761 30 30 0 0 0-1.871.01l-.119.004h-.104l-1.065.069a43 43 0 0 0-3.705.442c-.855.159-1.723-.123-2.418-.786-.696-.662-1.165-1.653-1.307-2.761-.118-1.115.102-2.247.613-3.158.511-.91 1.273-1.528 2.125-1.722 9.246-1.454 18.617-.088 27.371 3.989a56 56 0 0 1 9.148 5.345c-4.612-6.863-9.532-13.362-14.615-19.627a23 23 0 0 1-.531-.655c.096.154.366.452-.119-.191a363 363 0 0 0-3.006-3.628 710 710 0 0 0-3.966-4.67 854 854 0 0 0-8.174-9.351 1839 1839 0 0 0-4.037-4.557c-1.283-1.455-1.939-4.04-.756-5.952 1.008-1.679 3.183-2.572 4.562-1.01 11.079 12.487 22.191 25.026 32.166 39.039 9.12 12.809 17.223 26.966 23.153 42.696 3.812 10.034 6.526 20.718 8.064 31.742.061-.955.141-1.894.191-2.837.288-5.181.429-10.402.402-15.605l-.015-1.8-.01-.587-.005-.324c-.037-1.338-.07-2.669-.127-4.01a229 229 0 0 0-.423-7.208c-.358-4.798-.901-9.57-1.627-14.295q-.547-3.54-1.233-7.031c-.119-.582-.237-1.163-.362-1.738a18 18 0 0 0-.214-.992 1 1 0 0 1-.042-.187c-.256-1.118-.518-2.23-.796-3.337a132 132 0 0 0-4.711-15.072 123 123 0 0 0-2.929-6.964l-.078-.125a.3.3 0 0 1-.041-.066c-.156-.249-.271-.554-.385-.811a144 144 0 0 0-.832-1.666 83 83 0 0 0-1.929-3.587c-1.008-1.796-.985-4.587.482-5.997 1.368-1.329 3.532-1.307 4.603.605 9.146 16.294 14.226 35.838 16.173 55.779 2.015 20.711.697 41.738-1.894 62.26-1.496 11.731-3.397 23.354-5.357 34.942a7 7 0 0 1-.162.733 283 283 0 0 0-.44 7.269 200 200 0 0 0-.201 6.102c-.007.922-.02 1.849-.021 2.765l.007 1.591.004.592.002.23.027.044c.083 4.01.341 8.01.774 11.981.245 1.898.513 3.832.791 5.781.21 1.24.443 2.456.707 3.676 2.214-10.626 5.806-20.787 9.761-30.517 1.651-4.08 3.373-8.137 5.065-12.15l2.317-5.48 1.103-2.67.148-.351.141-.345.678-1.682a358 358 0 0 0 2.052-5.273l.029-.104a37 37 0 0 0 .968-3.685l.038-.15.1-.606c.11-.726.221-1.452.281-2.199.117-1.354.177-2.716.177-4.078l.006-.262a.4.4 0 0 1-.006-.115c-.044-.868-.083-1.742-.151-2.62-.122-1.699-.351-3.359-.615-5.016a89 89 0 0 0-.926-4.884c-.075-.346-.17-1.416-.062-.311a8 8 0 0 0-.25-1.077c-.183-.805-.378-1.598-.561-2.403-.766-3.138-1.559-6.259-2.24-9.426a40.6 40.6 0 0 1-1.024-7.449c-.134-4.563.581-9.15 1.332-13.604a220 220 0 0 1 2.089-10.567 347 347 0 0 0 2.096-10.062l.063-.335c.037-.198.073-.395.1-.594l.271-1.506q.262-1.656.468-3.312c.303-2.426.494-4.872.573-7.326.02-.57.029-1.128.033-1.693.004-.249-.002-.499-.002-.755q.006-.098 0-.195l-.008-.21a58 58 0 0 0-.23-3.707 45 45 0 0 0-.461-3.448c-.082-.462-.174-.925-.266-1.389l-.085-.361c-.069-.292-.145-.578-.22-.864a35 35 0 0 0-1.089-3.355 37 37 0 0 0-.646-1.547c-.179-.286-.318-.614-.479-.918-.97-1.825-1.009-4.55.482-5.998 1.344-1.291 3.566-1.342 4.603.605 4.264 7.962 5.373 17.637 4.756 27.18s-3.061 18.851-4.957 28.165c-.201 1.017-.402 2.034-.587 3.061q-.012.12-.04.237c-.058.329-.115.658-.162.989a88 88 0 0 0-.943 7.095c-.053.532-.081 1.074-.119 1.614a41 41 0 0 0-.094 1.611l.003.486.008.283c.024.34.049.68.083 1.022q.193 1.922.552 3.803c.128.657.261 1.321.419 1.995l.046.073.279 1.215c.359 1.522.738 3.033 1.108 4.543.803 3.258 1.58 6.518 2.206 9.853.16-.706.32-1.412.459-2.121l.349-1.773.161-.901c.208-1.172.356-2.304.51-3.455.305-2.311.529-4.645.655-6.986.058-1.11.106-2.222.124-3.337.008-.619.016-1.237.01-1.864l-.004-.472-.022-.683c-.07-2.218.886-4.598 2.743-4.872 1.6-.234 3.654 1.16 3.725 3.547.542 17.567-4.014 34.188-10.009 49.738-3.042 7.884-6.407 15.536-9.635 23.287l-.559 1.362-.287.682-.161.39-.136.339-.277.684-.686 1.715c-1.49 3.751-2.921 7.536-4.233 11.39a22.8 22.8 0 0 0-1.186 5.623c-.897 11.667 10.375-5.748 17.424-22.271.413-.962.929-3.265 1.328-4.236l.538-1.29.109-.262.394-.978a370 370 0 0 0 2.304-5.906 338 338 0 0 0 4.253-11.947 270 270 0 0 0 6.872-24.223q.705-3.038 1.339-6.101c.216-1.022.412-2.046.609-3.084l.266-1.441c.025-.124.037-.21.059-.282l.161-.914a234 234 0 0 0 1.822-12.442 234 234 0 0 0 1.547-24.061q.027-2.966.03-5.969l-.019-1.37-.02-.905c-.023-1.06-.052-2.115-.097-3.165a257 257 0 0 0-.705-12.066c-.532-6.751-1.348-13.505-2.368-20.178a4 4 0 0 1-.175-1.033l-.004-.142c-.133-.846-.256-1.704-.394-2.557-.27-1.591-.551-3.171-.837-4.757a41 41 0 0 0-1.293-3.396l-.092-.146-.078-.125c-.119-.191-.208-.425-.316-.628a44 44 0 0 0-1.096-1.996c-.64-1.027-1.286-2.062-1.966-3.047a73 73 0 0 0-1.114-1.513l-.526-.662-.027-.044c-.115-.183-.27-.311-.397-.469a71 71 0 0 0-5.548-5.686c-7.687-7.173-15.913-13.689-20.501-24.892-2.229-5.452-3.352-11.93-2.45-18.067.321-2.194 1.746-4.168 3.593-3.811 1.666.306 3.322 2.403 2.891 4.798a13.5 13.5 0 0 0-.263 2.315l-.009 1.387c.025.279.022.562.046.841.049.68.114 1.355.205 2.027s.191 1.224.317 1.833c.028.044.039.166.062.264.066.271.132.543.203.808a34 34 0 0 0 1.16 3.513c.202.518.413 1.037.636 1.544.059.096.332.684.288.598.1.161.168.345.258.518a39 39 0 0 0 1.785 3.117c.6.961 1.241 1.867 1.909 2.743l.468.614.109.176a.8.8 0 0 0 .171.197c.496.584.997 1.162 1.505 1.72 5.003 5.46 10.728 9.788 15.753 15.176-1.51-6.933-2.689-14.072-2.539-21.399.038-1.876.187-3.745.445-5.592.3-2.196 1.76-4.159 3.593-3.81 1.966.231 3.537 2.222 3.215 4.564M237.764 348.669c-.141-.106-.146-.113.036.012zm-46.711-119.636c-.038-.167-.062-.312 0 0m50.26 50.098c-.091-.147-.169-.272 0 0m20.871 22.098c.083.132.19.214 0 0m58.882-126.06c.137.22.078.125 0 0m22.801-51.99c.003.728.006.176 0 0"/><path stroke="#000" stroke-linecap="round" stroke-linejoin="round" d="M192.789 234.507a40 40 0 0 1-.812-2.053 33 33 0 0 1-.616-1.98c-.126-.427-.225-.858-.335-1.29l-.06-.095a53 53 0 0 1-.65-4.187c-.148-1.38-.217-2.769-.276-4.158a.4.4 0 0 1-.003-.094l.002-.209c.001-.269-.004-.532.001-.794-.012-.682.024-1.318.05-1.967.138-2.798.396-5.583.774-8.343.731-5.555 1.75-11.037 2.359-16.621 1.173-10.789.515-22.978-5.262-31.482a3.65 3.65 0 0 0-1.038-1.069 2.8 2.8 0 0 0-1.277-.459 2.64 2.64 0 0 0-1.315.224 3.3 3.3 0 0 0-1.147.872 4.2 4.2 0 0 0-.764 1.286 5.27 5.27 0 0 0-.152 3.177c.139.515.355.988.636 1.393l1.085 1.738c.171.319.31.647.498.948a1 1 0 0 0 .078.125l.1.161a41 41 0 0 1 1.324 3.791l.28 1.08c.024.084.028.166.051.202l.039.214c.116.622.236 1.25.335 1.876q.345 2.295.476 4.629c.022.561.052 1.151.067 1.732 0 .196.006.702.006.702l-.011.779a61 61 0 0 1-.174 3.903c-.189 2.797-.54 5.559-.931 8.303-.791 5.533-1.786 11.025-2.272 16.625a66.3 66.3 0 0 0-.011 11.643c-5.474-5.619-11.415-10.421-17.714-14.316-1.65-1.005-3.577.526-4.217 2.509-.756 2.204.375 4.528 1.906 5.477.679.426 1.353.845 2.031 1.284.334.219.668.438 1.001.67.04.019.26.176.368.244l.156.115c5.292 3.794 10.289 8.244 14.922 13.289a137 137 0 0 1 3.403 3.828c.562.659 1.128 1.34 1.665 1.99l.055.088.353.43.811 1.029a184 184 0 0 1 6.3 8.486c8.59 12.274 16.02 25.804 23.477 39.256 7.879 14.236 15.845 28.489 25.255 41.1 7.834 10.492 16.64 19.698 26.568 26.579a76 76 0 0 0 5.702 3.585c-2.572-.15-5.144-.373-7.704-.73a87 87 0 0 1-6.763-1.192c-1.087-.237-2.159-.527-3.264-.793a63 63 0 0 1-1.512-.421c-.076-.017-.323-.097-.419-.116l-.575-.183c-.453-.154-.88-.298-1.323-.45a3 3 0 0 0-.344-.22 594 594 0 0 0-10.188-4.289l-.16-.075a68 68 0 0 1-5.913-3.593l-.504-.355c-.181-.125-.361-.263-.542-.388l-1.339-1.018a68 68 0 0 1-2.6-2.12 66 66 0 0 1-5.181-4.991 60 60 0 0 1-2.471-2.817 2 2 0 0 0-.091-.146c-.226-.286-.474-.547-.675-.87-.351-.457-.702-.914-1.046-1.39-6.354-8.708-11.022-19.046-16.104-29.129s-10.704-19.981-18.328-27.051c-6.432-5.807-13.791-9.649-21.531-11.241a54.3 54.3 0 0 0-16.587-1.002c-.408-.372-.891-.577-1.39-.587-8.362.005-16.688.958-25.013 1.911-3.656.415-7.317.823-10.986 1.128q-2.508.21-5.024.33l-1.232.087h-.103l-.622.026-2.505.035a72 72 0 0 1-19.822-2.411l-.839-.245-.171-.049-1.053-.348a57 57 0 0 1-2.249-.82c-1.628-.639-3.272-1.407-4.826-2.197a56 56 0 0 1-4.507-2.707c-.108-.068-.316-.177-.357-.243l-.401-.281a51 51 0 0 1-1.084-.803c-.638-.541-1.294-1.065-1.938-1.601a50 50 0 0 1-4.001-3.779 70 70 0 0 1-1.977-2.22c-.06-.021-.147-.161-.198-.241l-.276-.353c-.296-.369-.58-.75-.87-1.138a50 50 0 0 1-4.555-7.495c-.076-.151-.176-.387-.227-.467l-.146-.235c-.2-.471-.411-.93-.605-1.406-.365-1.016-1.017-1.807-1.82-2.211a2.64 2.64 0 0 0-2.492.041c-.793.459-1.415 1.307-1.731 2.36a5.5 5.5 0 0 0 .044 3.257c3.889 9.123 9.571 16.729 16.467 22.038 12.2 9.557 26.504 12.273 40.558 11.999 3.794-.074 7.591-.309 11.366-.655-7.179 3.468-14.193 7.273-21.327 10.888-4.212 2.127-8.449 4.169-12.745 5.982a354 354 0 0 1-3.467 1.409l-.17.059-.118.052-.771.269-1.587.572a98 98 0 0 1-6.746 2.083 3 3 0 0 0-1.225.631 4 4 0 0 0-.947 1.194 5.2 5.2 0 0 0-.524 1.574 5.7 5.7 0 0 0-.02 1.713c.07.548.224 1.071.454 1.538s.53.868.884 1.178c.353.309.752.522 1.17.624.42.103.85.093 1.267-.029a95 95 0 0 0 6.365-1.958c17.906-6.212 34.48-17.327 52.155-24.452l1.575-.622.085-.029.655-.244c.889-.321 1.782-.634 2.669-.929a84 84 0 0 1 5.553-1.633 72.5 72.5 0 0 1 11.445-2.031c.964-.096 1.935-.15 2.901-.212l.156-.006.113.001.555-.015c.444.005.91-.014 1.375-.007a53 53 0 0 1 5.736.33c1.89.214 3.762.521 5.633.976.441.105.882.21 1.322.328l.784.218.023.037c.841.265 1.673.529 2.509.862a42.3 42.3 0 0 1 7.946 4.021l.476.311.412.283a45 45 0 0 1 5.603 4.751c.983.944 1.91 1.948 2.813 3.003-.033-.038.25.295.372.446.123.151.461.572.429.521.394.496.777 1.005 1.16 1.513 6.428 8.63 11.15 19.07 16.181 29.072 4.144 8.235 8.604 16.149 14.114 22.826a366 366 0 0 0-41.298-11.275 349 349 0 0 0-48.421-6.694c-.859-.088-1.711.259-2.381.969s-1.104 1.727-1.212 2.841c-.084 1.124.175 2.244.721 3.119.546.874 1.334 1.432 2.195 1.555a333 333 0 0 1 27.006 2.876 356 356 0 0 1 47.69 10.384l3.145.932.278.084.479.15 1.568.482c1.931.598 3.866 1.216 5.79 1.846a337 337 0 0 1 11.684 4.068 311 311 0 0 1 12.76 4.95 70 70 0 0 0 6.769 3.173c12.433 5.042 24.048 9.451 23.39 10.307-6.352 8.223-19.027 8.133-27.927 9.159-2.28.272-4.566.477-6.853.648q-1.726.123-3.449.206l-1.727.076-1.026.04-.182.01q-6.8.178-13.593-.056c-9.318-.322-18.603-1.132-27.899-2.247-8.715-1.011-17.492-1.895-26.123-3.824a130 130 0 0 1-5.969-1.485 88 88 0 0 1-2.941-.831l-.793-.232a.3.3 0 0 1-.085-.032c-.479-.15-.964-.294-1.447-.452a235 235 0 0 1-11.086-3.788c-14.004-5.107-28.05-11.365-42.635-12.965-6.93-.857-13.924-.297-20.73 1.659-7.733 2.436-15.07 6.676-21.652 12.515-1.523 1.322-1.456 4.287-.483 5.998 1.124 1.966 3.182 1.832 4.603.605a71 71 0 0 1 1.427-1.221l.47-.389.096-.102.085-.09a75 75 0 0 1 2.475-1.856c3.25-2.321 6.655-4.247 10.174-5.754l1.12-.445.97-.358c.813-.277 1.632-.56 2.435-.778 1.682-.479 3.373-.883 5.084-1.136 1.71-.254 3.4-.435 5.097-.529l.695-.03c-.866.041-.073.004.093-.001.383-.003.771-.013 1.159-.009.77 0 1.538.013 2.311.048a66 66 0 0 1 10.206 1.308c1.723.354 3.443.748 5.154 1.202.865.229 1.712.428 2.594.712l1.298.379.161.049c.187.058.379.11.57.175 1.281.398 2.564.829 3.847 1.26-12.313 5.244-23.042 15.585-33.325 25.588-.663.725-1.084 1.757-1.174 2.876-.09 1.12.158 2.239.692 3.121.554.861 1.344 1.406 2.204 1.519.859.113 1.72-.215 2.399-.914 2.898-2.817 5.796-5.622 8.757-8.324a180 180 0 0 1 3.935-3.489q1.089-.936 2.184-1.841l.908-.743.101-.108.441-.346a84 84 0 0 1 8.271-5.795 79 79 0 0 1 4.413-2.437 44 44 0 0 1 2.25-1.058l1.129-.478.428-.173 4.079-1.632a10.8 10.8 0 0 1 4.847-.629c.361.025.722-.046 1.061-.211 4.962 1.858 9.929 3.723 14.936 5.398a145 145 0 0 0 24.086 6.156c9.022 1.368 18.084 2.438 27.141 3.319 18.465 1.814 37.17 2.435 55.578-.762 9.204-1.55 18.27-4.29 27.063-8.18a52 52 0 0 1 9.572-.204c2.845.231 5.632 1.129 8.227 2.651 2.718 1.78 5.24 4.026 7.5 6.677 5.152 5.667 10.048 11.752 14.782 17.984.187.284.45.463.736.5.285.038.571-.069.799-.298q.16-.173.26-.41c.763.012 1.509-.307 2.12-.907a3.5 3.5 0 0 0 .717-1.078c.499-.13.969-.404 1.377-.802.511-.521.881-1.242 1.054-2.056l1.319 2.113c.34.545.783.967 1.285 1.227a2.5 2.5 0 0 0 1.583.254l3.47 2.355c.254.495.585.916.97 1.236.386.321.819.534 1.271.626.453.093.915.062 1.359-.089s.859-.42 1.22-.789c.433-.437.763-1.024.953-1.693a2.7 2.7 0 0 0 1.609.119 3.14 3.14 0 0 0 1.478-.844c.666-.723 1.09-1.755 1.18-2.876s-.161-2.242-.698-3.122a245 245 0 0 0-5.45-8.387c.306-.158.58-.41.796-.734.217-.325.37-.712.448-1.129a3.5 3.5 0 0 0-.002-1.268 3 3 0 0 0-.45-1.122l-7.122-10.735a7746 7746 0 0 0-6.285-9.453c-1.886-2.901-4.021-5.721-5.581-8.943-1.204-2.57-1.736-5.581-1.517-8.584.05-1.199.135-2.386.201-3.59.168-3.236.992-6.361 2.387-9.054a338 338 0 0 0 14.388-31.107c6.349-15.425 11.369-31.711 14.969-48.561 3.381-16.266 5.034-33.05 4.915-49.883a285 285 0 0 0-3.444-41.627 34.4 34.4 0 0 0-1.494-8.743 322 322 0 0 0-2.103-10.364q-.688-3.075-1.385-6.163l-.206-.916-.023-.036c-.095-.424-.185-.853-.284-1.284-.2-.922-.39-1.842-.579-2.763a100 100 0 0 1-1.726-11.325 65 65 0 0 1-.189-2.981c-.016-.252-.017-.494-.028-.738-.007-.432-.008-.87.001-1.306.033-1.936.181-3.867.444-5.774.322-2.342-1.249-4.333-3.215-4.564-1.833-.349-3.293 1.614-3.593 3.81a47 47 0 0 0-.445 5.592c-.15 7.327 1.029 14.466 2.539 21.399-5.025-5.388-10.75-9.716-15.753-15.176a67 67 0 0 1-1.505-1.72.8.8 0 0 1-.171-.197l-.109-.176-.468-.614a36 36 0 0 1-1.909-2.743 39 39 0 0 1-1.785-3.117c-.09-.173-.158-.357-.258-.518.044.086-.229-.502-.288-.598a39 39 0 0 1-.636-1.544 34 34 0 0 1-1.16-3.513c-.071-.265-.137-.537-.203-.808-.023-.098-.034-.22-.062-.264a25 25 0 0 1-.317-1.833 33 33 0 0 1-.205-2.027c-.024-.279-.021-.562-.046-.841l.009-1.387c.021-.782.11-1.558.263-2.315.431-2.395-1.225-4.492-2.891-4.798-1.847-.358-3.272 1.617-3.593 3.811-.902 6.137.221 12.615 2.45 18.067 4.588 11.203 12.814 17.719 20.501 24.892a71 71 0 0 1 5.548 5.686c.127.158.282.286.397.469l.027.044.526.662q.562.742 1.114 1.513c.68.985 1.325 2.02 1.966 3.047.382.656.747 1.318 1.096 1.996.108.203.197.437.316.628l.078.125.092.146a41 41 0 0 1 1.293 3.396c.286 1.586.567 3.166.837 4.757.138.853.261 1.711.394 2.557l.004.142c.015.355.074.703.175 1.033 1.02 6.673 1.836 13.427 2.368 20.178q.494 6.011.705 12.066c.045 1.05.074 2.105.097 3.165l.02.905.019 1.37a737 737 0 0 1-.03 5.969 234 234 0 0 1-1.547 24.061 234 234 0 0 1-1.822 12.442l-.161.914c-.022.072-.034.158-.059.282l-.266 1.441a152 152 0 0 1-.609 3.084 264 264 0 0 1-1.339 6.101 270 270 0 0 1-6.872 24.223 338 338 0 0 1-4.253 11.947 370 370 0 0 1-2.304 5.906l-.394.978-.109.262-.538 1.29c-.399.971-.915 3.274-1.328 4.236-7.049 16.523-18.321 33.938-17.424 22.271a22.8 22.8 0 0 1 1.186-5.623c1.312-3.854 2.743-7.639 4.233-11.39l.686-1.715.277-.684.136-.339.161-.39.287-.682.559-1.362c3.228-7.751 6.593-15.403 9.635-23.287 5.995-15.55 10.551-32.171 10.009-49.738-.071-2.387-2.125-3.781-3.725-3.547-1.857.274-2.813 2.654-2.743 4.872l.022.683.004.472c.006.627-.002 1.245-.01 1.864a93 93 0 0 1-.124 3.337 91 91 0 0 1-.655 6.986c-.154 1.151-.302 2.283-.51 3.455l-.161.901-.349 1.773a74 74 0 0 1-.459 2.121c-.626-3.335-1.403-6.595-2.206-9.853-.37-1.51-.749-3.021-1.108-4.543l-.279-1.215-.046-.073a54 54 0 0 1-.419-1.995 43 43 0 0 1-.552-3.803 36 36 0 0 1-.083-1.022l-.008-.283-.003-.486c.018-.543.055-1.07.094-1.611.038-.54.066-1.082.119-1.614.226-2.422.531-4.745.943-7.095.047-.331.104-.66.162-.989q.027-.117.04-.237c.185-1.027.386-2.044.587-3.061 1.896-9.314 4.34-18.623 4.957-28.165.617-9.543-.492-19.218-4.756-27.18-1.037-1.947-3.259-1.896-4.603-.605-1.491 1.448-1.452 4.173-.482 5.998.161.304.3.632.479.918.227.515.445 1.028.646 1.547a35 35 0 0 1 1.089 3.355c.075.286.151.572.22.864l.085.361c.092.464.184.927.266 1.389.197 1.144.343 2.22.461 3.448.119 1.228.19 2.469.23 3.707l.008.21q.006.097 0 .195c0 .256.006.506.002.755a60 60 0 0 1-.033 1.693c-.079 2.454-.27 4.9-.573 7.326a102 102 0 0 1-.468 3.312l-.271 1.506c-.027.199-.063.396-.1.594l-.063.335a347 347 0 0 1-2.096 10.062 220 220 0 0 0-2.089 10.567c-.751 4.454-1.466 9.041-1.332 13.604a40.6 40.6 0 0 0 1.024 7.449c.681 3.167 1.474 6.288 2.24 9.426.183.805.378 1.598.561 2.403q.16.525.25 1.077c-.108-1.105-.013-.035.062.311a89 89 0 0 1 .926 4.884c.264 1.657.493 3.317.615 5.016.068.878.107 1.752.151 2.62a.4.4 0 0 0 .006.115l-.006.262q0 2.045-.177 4.078c-.06.747-.171 1.473-.281 2.199l-.1.606-.038.15a37 37 0 0 1-.968 3.685l-.029.104a358 358 0 0 1-2.052 5.273l-.678 1.682-.141.345-.148.351-1.103 2.67-2.317 5.48c-1.692 4.013-3.414 8.07-5.065 12.15-3.955 9.73-7.547 19.891-9.761 30.517a82 82 0 0 1-.707-3.676 440 440 0 0 1-.791-5.781 137 137 0 0 1-.774-11.981l-.027-.044-.002-.23-.004-.592-.007-1.591c.001-.916.014-1.843.021-2.765.034-2.036.105-4.074.201-6.102.112-2.423.265-4.841.44-7.269q.099-.359.162-.733c1.96-11.588 3.861-23.211 5.357-34.942 2.591-20.522 3.909-41.549 1.894-62.26-1.947-19.941-7.027-39.485-16.173-55.779-1.071-1.912-3.235-1.934-4.603-.605-1.467 1.41-1.49 4.201-.482 5.997a83 83 0 0 1 1.929 3.587c.281.556.557 1.104.832 1.666.114.257.229.562.385.811a.3.3 0 0 0 .041.066l.078.125a123 123 0 0 1 2.929 6.964 132 132 0 0 1 4.711 15.072c.278 1.107.54 2.219.796 3.337q.014.096.042.187c.085.348.153.667.214.992.125.575.243 1.156.362 1.738q.686 3.49 1.233 7.031a185 185 0 0 1 1.627 14.295q.268 3.605.423 7.208c.057 1.341.09 2.672.127 4.01l.005.324.01.587.015 1.8a258 258 0 0 1-.402 15.605c-.05.943-.13 1.882-.191 2.837-1.538-11.024-4.252-21.708-8.064-31.742-5.93-15.73-14.033-29.887-23.153-42.696-9.975-14.013-21.087-26.552-32.166-39.039-1.379-1.562-3.554-.669-4.562 1.01-1.183 1.912-.527 4.497.756 5.952a1839 1839 0 0 1 4.037 4.557c2.739 3.095 5.466 6.2 8.174 9.351a710 710 0 0 1 3.966 4.67 363 363 0 0 1 3.006 3.628c.485.643.215.345.119.191.183.233.352.443.531.655 5.084 6.265 10.003 12.764 14.615 19.627a56 56 0 0 0-9.148-5.345c-8.754-4.077-18.125-5.443-27.371-3.989-.852.194-1.614.812-2.125 1.722-.511.911-.731 2.043-.613 3.158.142 1.108.611 2.099 1.307 2.761.695.663 1.563.945 2.418.786a43 43 0 0 1 3.705-.442l1.065-.069h.104l.119-.004a30 30 0 0 1 1.871-.01c2.385.053 4.765.307 7.123.761a44 44 0 0 1 3.136.722c.258.068.517.135.774.216l.424.123c.457.162.892.286 1.339.446a51 51 0 0 1 6.052 2.567 55 55 0 0 1 5.804 3.403l.29.193q.067.04.132.091c.226.151.46.317.689.488.391.28.771.573 1.156.859.91.706 1.808 1.436 2.697 2.2a64 64 0 0 1 6.5 6.518c.198.228.425.426.59.69.047.06.224.239.311.378a69 69 0 0 1 5.988 8.767 73 73 0 0 1 1.979 3.668l.431.872c.031.064.135.32.222.46.233.509.456 1.016.683 1.531.188.429.418.824.686 1.174a156 156 0 0 1 2.722 7.672 145 145 0 0 1 3.191 11.416c.082.328.15.647.232.974l.036.058.289 1.365c.206.976.383 1.923.581 2.932q.548 2.954.965 5.925c.571 4.072.944 8.188 1.118 12.323l.081 1.634.022.817.002.29a170 170 0 0 1-.079 8.96c-.586 16.604-3.111 33.035-3.162 49.682-.033 12.239 1.165 24.66 4.868 35.814a57 57 0 0 1-2.575-2.621 32 32 0 0 1-1.113-1.258c-.053-.054-.752-.933-.232-.266l-.427-.548a50 50 0 0 1-2.062-2.823 65 65 0 0 1-3.791-6.331c-.282-.542-.564-1.084-.835-1.638l-.39-.805a1 1 0 0 1-.064-.103 81 81 0 0 1-1.246-2.824 92 92 0 0 1-2.452-6.592c-.791-2.381-1.5-4.81-2.15-7.266a134 134 0 0 1-.928-3.698 91 91 0 0 1-.429-1.861c-.002-.108-.043-.175-.043-.175l-.044-.221-.181-.832c-2.149-10.047-3.54-20.325-5.285-30.495-3.494-20.642-8.641-41.859-19.963-57.564-.559-.852-1.348-1.39-2.205-1.503s-1.716.209-2.398.898c-.669.719-1.095 1.752-1.186 2.875s.163 2.244.704 3.123a72 72 0 0 1 4.409 6.93 75 75 0 0 1 1.858 3.504q.268.538.528 1.086l.114.184q.35.76.694 1.532a120 120 0 0 1 5.373 14.869 183 183 0 0 1 3.907 16.07 550 550 0 0 1 2.716 15.408c.275 1.72.556 3.434.826 5.146a31.7 31.7 0 0 0-4.492-4.745c-3.018-2.403-6.307-4.176-9.749-5.255-2.89-1.006-5.699-2.332-8.494-3.696-.034-.024-.095-.033-.136-.099l-.536-.407a28 28 0 0 1-.91-.766 14 14 0 0 1-.863-.841c-.162-.169-.314-.337-.476-.507l-.055-.088-1.374-2.201c-.068-.17-.148-.342-.211-.519a17 17 0 0 1-.473-1.449c-.604-2.262-2.738-2.973-4.31-2.184-1.719.872-2.274 3.534-1.683 5.625 1.454 5.188 4.777 8.736 8.429 11.203 2.832 1.921 5.947 2.91 9.012 4 1.562.562 3.122 1.151 4.633 1.902.716.35 1.456.784 2.163 1.254.071.083.71.49.76.571.297.221.626.507.93.769a30 30 0 0 1 2.008 1.968c.275.305.559.625.829.937q.042.059.078.124c.17.137.293.335.412.526a49 49 0 0 1 3.16 4.672 123 123 0 0 1 5.144 9.748c.414 1.926.845 3.834 1.331 5.757 3.388 13.524 9.109 26.964 17.594 36.046l-.921-.303c-.577-.217-1.187-.412-1.774-.631a47 47 0 0 1-3.783-1.547 66 66 0 0 1-7.326-3.947 84 84 0 0 1-1.922-1.229l-.712-.464c.172.11-.255-.182-.416-.29a63 63 0 0 1-3.484-2.573c-4.592-3.627-8.95-7.736-13.029-12.286a138 138 0 0 1-3.019-3.454c-.296-.369-.561-.673-.839-1.013l-.023-.036-.267-.338a111 111 0 0 1-1.441-1.813 189 189 0 0 1-6.792-9.378c-8.896-13.036-16.555-27.37-24.41-41.461-7.319-13.232-14.874-26.3-23.68-37.943-.476-.629-.953-1.257-1.441-1.873a21 21 0 0 1-1.112-1.783c-.08-.233-.204-.431-.327-.629a3 3 0 0 1-.156-.25.2.2 0 0 1-.032-.051m0 0 .028.044zm44.975 114.162c-.141-.106-.146-.113.036.012zm-46.711-119.636c-.063-.312-.038-.167 0 0m50.26 50.098c-.169-.272-.091-.147 0 0m20.871 22.098c.083.132.19.214 0 0m58.882-126.06c.078.125.137.22 0 0m22.801-51.99c.003.728.006.176 0 0"/></svg>