<svg width="193" height="169" viewBox="0 0 193 169" fill="none" xmlns="http://www.w3.org/2000/svg">
<path d="M99.7285 1.33496C99.8502 2.12043 99.9433 3.27086 99.8193 4.70996C99.5718 7.58409 98.459 11.63 94.9561 16.2354L95.6104 16.8584L95.6113 16.8574C95.6122 16.8567 95.6136 16.8559 95.6152 16.8545C95.6189 16.8514 95.6247 16.8468 95.6318 16.8408C95.6464 16.8286 95.668 16.8098 95.6963 16.7861C95.753 16.7388 95.8367 16.669 95.9434 16.5801C96.1568 16.4022 96.4639 16.1472 96.8369 15.8389C97.5834 15.222 98.5955 14.392 99.6562 13.5391C100.718 12.6856 101.826 11.811 102.767 11.1045C103.317 10.6914 103.796 10.3488 104.169 10.0996C104.169 10.2046 104.171 10.3188 104.17 10.4414C104.162 11.145 104.132 12.122 104.04 13.2148C103.854 15.4185 103.424 18.0254 102.475 19.8291L101.973 20.7832L103.007 20.4775L103.009 20.4766C103.011 20.4759 103.014 20.4749 103.019 20.4736C103.028 20.471 103.042 20.4671 103.061 20.4619C103.097 20.4515 103.152 20.4354 103.221 20.417C103.358 20.3801 103.551 20.3306 103.774 20.2793C104.134 20.1968 104.556 20.1154 104.943 20.0732C104.986 20.1654 105.038 20.2801 105.093 20.417C105.251 20.8135 105.441 21.3858 105.568 22.0811C105.823 23.4705 105.822 25.3391 104.811 27.291L104.548 27.7979L105.1 27.9404L105.101 27.9414C105.101 27.9416 105.103 27.9418 105.105 27.9424C105.11 27.9435 105.117 27.9448 105.126 27.9473C105.144 27.9522 105.172 27.9604 105.208 27.9707C105.28 27.9914 105.387 28.0225 105.52 28.0645C105.786 28.1487 106.157 28.2757 106.572 28.4443C107.355 28.7621 108.259 29.2173 108.933 29.7939C108.931 29.8696 108.928 29.9649 108.922 30.0762C108.904 30.3809 108.865 30.8023 108.782 31.2686C108.613 32.2202 108.272 33.2767 107.623 33.9473L107.256 34.3262L107.685 34.6328V34.6338C107.685 34.6343 107.687 34.6355 107.688 34.6367C107.692 34.6394 107.698 34.6437 107.706 34.6494C107.722 34.6609 107.745 34.6787 107.776 34.7021C107.839 34.7492 107.931 34.8198 108.046 34.9121C108.277 35.0968 108.601 35.3674 108.971 35.71C109.69 36.3763 110.57 37.3042 111.276 38.3838C111.277 38.4433 111.279 38.5244 111.275 38.623C111.267 38.8538 111.243 39.1783 111.176 39.5469C111.041 40.2919 110.741 41.1787 110.104 41.8604L109.859 42.1221L110.057 42.4209V42.4219C110.057 42.4228 110.058 42.4248 110.06 42.4268C110.062 42.4308 110.067 42.4371 110.072 42.4453C110.083 42.4618 110.099 42.4865 110.119 42.5186C110.161 42.5834 110.221 42.6786 110.294 42.7979C110.44 43.0366 110.637 43.3713 110.844 43.7539C111.256 44.5176 111.675 45.4253 111.818 46.1396C111.818 46.1466 111.819 46.1546 111.818 46.1631C111.815 46.2129 111.808 46.2893 111.794 46.3877C111.766 46.5851 111.71 46.8689 111.597 47.2012C111.37 47.8643 110.915 48.721 109.997 49.4785L109.689 49.7324L109.901 50.0703L109.902 50.0723C109.904 50.0746 109.907 50.0786 109.91 50.084C109.917 50.0947 109.926 50.1116 109.939 50.1338C109.966 50.1782 110.005 50.2449 110.054 50.332C110.152 50.5068 110.288 50.7631 110.442 51.083C110.734 51.6884 111.082 52.5177 111.342 53.457C111.307 53.5231 111.261 53.6097 111.204 53.7109C111.062 53.9631 110.854 54.3083 110.597 54.6797C110.071 55.4375 109.377 56.2433 108.632 56.6377L108.158 56.8887L108.482 57.3154L108.483 57.3164C108.484 57.3175 108.486 57.3191 108.487 57.3213C108.491 57.3261 108.497 57.334 108.504 57.3438C108.519 57.3633 108.54 57.3926 108.568 57.4307C108.625 57.5072 108.706 57.6192 108.806 57.7598C109.004 58.0412 109.274 58.436 109.557 58.8877C110.104 59.7616 110.668 60.8036 110.899 61.6475C110.893 61.6627 110.888 61.6797 110.881 61.6973C110.835 61.8094 110.763 61.9658 110.666 62.1387C110.467 62.4921 110.177 62.8787 109.795 63.1201L109.375 63.3857L109.676 63.7803L109.678 63.7822C109.679 63.7842 109.681 63.7877 109.685 63.792C109.691 63.8007 109.701 63.8142 109.714 63.832C109.74 63.8681 109.778 63.922 109.825 63.9902C109.919 64.127 110.046 64.3206 110.177 64.5479C110.435 64.9954 110.682 65.529 110.761 65.9961V65.9971C110.75 66.0364 110.728 66.0988 110.684 66.1709C110.6 66.3069 110.416 66.5132 109.993 66.6543L109.444 66.8369L109.752 67.3271L109.755 67.3311C109.757 67.3347 109.761 67.3408 109.766 67.3486C109.775 67.3645 109.79 67.3892 109.809 67.4209C109.846 67.4842 109.9 67.578 109.964 67.6953C110.093 67.9309 110.264 68.2605 110.427 68.6387C110.742 69.3704 110.996 70.2061 110.953 70.877C110.924 70.906 110.883 70.9442 110.827 70.9863C110.661 71.1113 110.363 71.286 109.868 71.4209L109.365 71.5576L109.569 72.0381L109.571 72.042C109.573 72.0457 109.576 72.0517 109.579 72.0596C109.586 72.0756 109.596 72.1009 109.608 72.1328C109.634 72.1967 109.671 72.2908 109.715 72.4092C109.803 72.6469 109.918 72.9815 110.029 73.3662C110.241 74.0982 110.419 74.9674 110.387 75.6973C110.349 75.7314 110.3 75.7747 110.234 75.8213C110.045 75.9556 109.727 76.1295 109.24 76.2402L108.785 76.3438L108.9 76.7969L108.901 76.8008C108.902 76.8043 108.904 76.8099 108.906 76.8174C108.91 76.8323 108.915 76.8551 108.922 76.8848C108.936 76.9441 108.956 77.0316 108.98 77.1426C109.029 77.3649 109.093 77.6808 109.153 78.0508C109.27 78.763 109.37 79.6569 109.338 80.4736C109.318 80.4991 109.292 80.5315 109.257 80.5645C109.158 80.6558 108.982 80.7707 108.688 80.8076L108.249 80.8623L108.292 81.3027C108.292 81.3042 108.292 81.3072 108.292 81.3115C108.293 81.3201 108.294 81.3342 108.295 81.3535C108.297 81.3927 108.3 81.4537 108.301 81.5332C108.302 81.6926 108.296 81.928 108.267 82.2207C108.21 82.7878 108.064 83.566 107.713 84.4268L107.711 84.4287C107.664 84.4701 107.594 84.5275 107.509 84.5889C107.332 84.7158 107.113 84.8407 106.894 84.8955L106.394 85.0215L106.58 85.502L106.582 85.5068C106.584 85.5112 106.586 85.5183 106.59 85.5273C106.597 85.5458 106.607 85.5743 106.62 85.6104C106.646 85.6825 106.683 85.7871 106.725 85.915C106.809 86.1724 106.913 86.5197 106.993 86.8848C107.074 87.254 107.127 87.621 107.121 87.9238C107.114 88.245 107.043 88.3868 106.993 88.4346C106.99 88.437 106.987 88.4404 106.982 88.4443C106.97 88.4553 106.951 88.4722 106.927 88.4932C106.878 88.5351 106.808 88.5956 106.721 88.668C106.546 88.8134 106.306 89.0063 106.045 89.1982C105.782 89.3915 105.506 89.5765 105.259 89.7119C104.99 89.859 104.827 89.9053 104.766 89.9053H103.922L104.386 90.6084V90.6104C104.387 90.6116 104.388 90.6137 104.391 90.6172C104.395 90.6243 104.403 90.6357 104.412 90.6514C104.431 90.6828 104.457 90.7304 104.488 90.79C104.551 90.9109 104.627 91.0759 104.683 91.2578C104.777 91.567 104.787 91.8345 104.695 92.0391C104.572 92.043 104.409 92.0484 104.231 92.0498C103.836 92.0529 103.405 92.0425 103.15 92L102.668 91.9189L102.623 92.4062C102.623 92.4068 102.622 92.4078 102.622 92.4092C102.622 92.412 102.622 92.4167 102.621 92.4229C102.62 92.4355 102.617 92.4552 102.614 92.4805C102.608 92.5313 102.6 92.6061 102.587 92.6992C102.561 92.8857 102.52 93.1443 102.459 93.4316C102.345 93.9698 102.172 94.5559 101.933 94.9707C101.905 94.9794 101.871 94.9921 101.828 95.0039C101.61 95.0641 101.202 95.1584 100.465 95.2812L100.023 95.3545L100.089 95.7969V95.7959L100.09 95.7988C100.09 95.8035 100.092 95.8121 100.093 95.8242C100.095 95.8486 100.097 95.8876 100.1 95.9385C100.104 96.0406 100.104 96.1903 100.086 96.3711C100.054 96.6882 99.966 97.0919 99.7539 97.502C99.6899 97.5127 99.6113 97.526 99.5166 97.5439C99.1833 97.6072 98.644 97.7206 97.8096 97.9238L97.6484 97.9629L97.5498 98.0977L91.0947 106.945L90.7744 107.384L91.2627 107.622C91.7568 107.863 92.0038 108.172 92.1299 108.402C92.1839 108.501 92.2162 108.589 92.2363 108.654C91.9995 109.055 91.7164 109.339 91.4834 109.526C91.3539 109.63 91.2416 109.704 91.1641 109.75C91.1254 109.773 91.0957 109.789 91.0771 109.799C91.0681 109.803 91.062 109.807 91.0586 109.809H91.0566L91.0557 109.81L90.1963 110.201L91.042 110.628C91.4659 110.842 91.6129 111.122 91.6699 111.33C91.6971 111.429 91.7034 111.519 91.7041 111.587C91.5917 111.691 91.4319 111.795 91.2246 111.89C90.9623 112.01 90.6595 112.103 90.3643 112.174C90.0704 112.244 89.7943 112.29 89.5918 112.318C89.4912 112.332 89.4094 112.342 89.3535 112.348C89.3257 112.351 89.3041 112.352 89.29 112.354C89.283 112.354 89.2776 112.355 89.2744 112.355C89.2729 112.356 89.2711 112.355 89.2705 112.355L88.3838 112.426L88.9609 113.104C89.3259 113.532 89.4657 114.074 89.5059 114.539C89.5256 114.768 89.5199 114.969 89.5098 115.111C89.5075 115.143 89.5034 115.171 89.501 115.196C89.1261 115.585 88.5671 115.844 88.04 116.003C87.7639 116.086 87.5133 116.139 87.332 116.17C87.2417 116.186 87.1688 116.196 87.1201 116.202C87.0962 116.205 87.078 116.207 87.0664 116.208C87.0606 116.209 87.0561 116.21 87.0537 116.21H87.0518L86.2412 116.284L86.7295 116.936C86.9907 117.284 87.0904 117.773 87.1104 118.225C87.1199 118.443 87.1107 118.636 87.0986 118.774C87.0946 118.82 87.0888 118.86 87.085 118.892C86.8305 119.256 86.4642 119.465 86.126 119.584C85.948 119.646 85.7865 119.681 85.6709 119.699C85.6136 119.708 85.5683 119.714 85.5391 119.717C85.5245 119.718 85.5138 119.719 85.5078 119.72H85.5039L84.7969 119.75L85.1182 120.381C85.4321 120.996 85.511 121.625 85.5078 122.108C85.5062 122.349 85.4838 122.55 85.4629 122.688C85.4597 122.709 85.4552 122.728 85.4521 122.746C84.9004 123.172 84.1268 123.44 83.4297 123.597C83.0644 123.679 82.7362 123.728 82.5 123.756C82.3823 123.77 82.2876 123.779 82.2236 123.784C82.1919 123.787 82.1672 123.788 82.1514 123.789C82.1439 123.79 82.1383 123.79 82.1348 123.79C82.133 123.79 82.1315 123.791 82.1309 123.791L81.667 123.815L81.7012 124.278C81.7527 124.967 81.6239 125.496 81.4883 125.845C81.4203 126.02 81.3503 126.151 81.2998 126.234C81.2892 126.252 81.2782 126.267 81.2695 126.28C80.7405 126.58 80.1456 126.783 79.6631 126.91C79.4117 126.976 79.1956 127.022 79.0439 127.05C78.9683 127.064 78.9089 127.074 78.8691 127.08C78.8495 127.083 78.8348 127.086 78.8252 127.087C78.8204 127.088 78.8165 127.088 78.8145 127.088C78.8135 127.088 78.8128 127.089 78.8125 127.089L78.3691 127.147L78.4209 127.592C78.4477 127.826 78.3499 128.139 78.1982 128.442C78.1272 128.584 78.0533 128.707 77.9971 128.794C77.9914 128.803 77.9848 128.81 77.9795 128.818C77.4257 129.022 76.9196 129.125 76.5439 129.176C76.3424 129.203 76.1796 129.215 76.0693 129.221C76.0143 129.223 75.9723 129.225 75.9453 129.226H75.9111L75.1768 129.213L75.4922 129.876C75.5777 130.055 75.5925 130.347 75.5586 130.655C75.5508 130.726 75.5406 130.794 75.5303 130.854C75.0632 130.896 74.6094 130.931 74.25 130.954C74.0287 130.968 73.8433 130.978 73.7139 130.985C73.6495 130.989 73.5989 130.991 73.5645 130.993C73.5472 130.994 73.5332 130.995 73.5244 130.995C73.5202 130.995 73.5168 130.996 73.5146 130.996H73.5117L73.0781 131.017V131.45C73.0781 132.015 72.9336 132.488 72.7881 132.82C72.722 132.971 72.6561 133.091 72.6055 133.176C71.7531 133.318 70.8925 133.382 70.2256 133.408C69.8686 133.422 69.5695 133.425 69.3604 133.425C69.2558 133.425 69.1735 133.424 69.1182 133.423C69.0905 133.422 69.0695 133.422 69.0557 133.422H69.0361L68.666 133.411L68.5801 133.771C68.5309 133.976 68.3988 134.193 68.2549 134.376C68.1965 134.45 68.1393 134.511 68.0947 134.559C66.9678 134.712 65.358 134.675 63.9795 134.59C63.2671 134.546 62.6274 134.49 62.166 134.445C61.9356 134.423 61.7499 134.404 61.6221 134.39C61.5584 134.383 61.5089 134.377 61.4756 134.373C61.4589 134.371 61.4459 134.37 61.4375 134.369C61.4333 134.369 61.4298 134.367 61.4277 134.367H61.4258L61.042 134.321L60.9346 134.692C60.8157 135.103 60.4311 135.552 60.0088 135.929C59.8071 136.109 59.6139 136.258 59.4707 136.362C59.4397 136.385 59.4103 136.404 59.3848 136.422C58.7538 136.31 58.1165 136.145 57.6191 135.999C57.3486 135.92 57.1215 135.847 56.9629 135.795C56.8836 135.769 56.8213 135.748 56.7793 135.733C56.7583 135.726 56.7419 135.72 56.7314 135.717C56.7267 135.715 56.7231 135.714 56.7207 135.713C56.7196 135.712 56.7183 135.712 56.7178 135.712H56.7168L56.0537 135.475L56.1104 136.177C56.1237 136.341 56.0613 136.56 55.8955 136.829C55.7335 137.092 55.5003 137.357 55.25 137.601C55.0016 137.842 54.7481 138.051 54.5557 138.199C54.47 138.265 54.3966 138.318 54.3428 138.356C54.093 138.364 53.7364 138.334 53.3096 138.267C52.8265 138.191 52.2899 138.078 51.7861 137.96C51.2834 137.842 50.8183 137.719 50.4785 137.627C50.309 137.581 50.1706 137.543 50.0752 137.516C50.0275 137.502 49.9898 137.491 49.9648 137.483C49.9525 137.48 49.9427 137.477 49.9365 137.476C49.9335 137.475 49.9312 137.474 49.9297 137.474L49.9287 137.473H49.9277L49.6396 137.388L49.4482 137.62C48.7711 138.442 48.0449 138.892 47.4951 139.136C47.2198 139.258 46.988 139.328 46.8291 139.368C46.7629 139.385 46.7094 139.395 46.6709 139.402C45.8357 139.21 44.8797 138.804 44.1084 138.427C43.7146 138.234 43.3764 138.053 43.1367 137.921C43.017 137.855 42.9219 137.801 42.8574 137.764C42.8253 137.745 42.8005 137.731 42.7842 137.722C42.776 137.717 42.7696 137.713 42.7656 137.711C42.7638 137.71 42.7626 137.709 42.7617 137.708H42.7607L42.4297 137.511L42.1807 137.805C41.2753 138.875 39.6358 139.278 38.1064 139.382C37.3583 139.433 36.67 139.41 36.168 139.374C35.9946 139.362 35.8441 139.345 35.7217 139.332L35.5889 137.51L35.5146 136.505L34.8096 137.226C33.5262 138.537 31.5433 139.05 29.8076 139.217C28.95 139.299 28.1755 139.296 27.6152 139.271C27.4189 139.263 27.2492 139.25 27.1123 139.239L27.0654 136.077L27.0508 135.111L26.3154 135.738C24.7883 137.04 22.5754 137.91 20.7051 138.456C19.7769 138.727 18.9466 138.914 18.3486 139.033C18.1733 139.068 18.0173 139.094 17.8857 139.118C17.8781 138.103 18.121 136.958 18.3994 135.994C18.5595 135.44 18.7269 134.959 18.8545 134.617C18.9182 134.446 18.9724 134.31 19.0098 134.218C19.0283 134.172 19.043 134.137 19.0527 134.113C19.0576 134.102 19.0611 134.093 19.0635 134.087C19.0646 134.084 19.0659 134.082 19.0664 134.081V134.079L19.7324 132.532L18.3789 133.534C16.2179 135.133 13.8305 135.677 11.9697 135.816C11.0408 135.886 10.2485 135.854 9.69043 135.806C9.64902 135.802 9.60908 135.797 9.57031 135.793L13.3369 130.844L12.7549 130.17C12.3199 130.412 11.6639 130.507 10.8623 130.474C10.0735 130.441 9.20375 130.288 8.38574 130.095C7.64652 129.92 6.96062 129.714 6.43066 129.541C7.06178 129.215 7.78907 128.798 8.43652 128.415C8.97731 128.095 9.47664 127.791 9.83984 127.566C10.0212 127.454 10.1689 127.362 10.2715 127.298C10.3228 127.266 10.3634 127.241 10.3906 127.224C10.4042 127.215 10.4148 127.209 10.4219 127.204C10.4254 127.202 10.4279 127.199 10.4297 127.198L10.4316 127.197H10.4326L10.0205 126.391C8.00058 127.198 5.75486 127.205 3.98828 126.997C3.4707 126.936 2.99824 126.855 2.58887 126.774C2.93939 126.636 3.31586 126.475 3.71191 126.292C4.86611 125.76 6.23968 125.037 7.74219 124.191C10.748 122.5 14.2949 120.304 17.6846 118.131C21.0755 115.957 24.3144 113.801 26.7051 112.19C27.9005 111.385 28.8845 110.716 29.5693 110.247C29.9118 110.013 30.1801 109.829 30.3623 109.703C30.4364 109.652 30.496 109.61 30.541 109.579C30.576 109.576 30.6185 109.572 30.668 109.567C30.8291 109.551 31.066 109.527 31.3711 109.49C31.9813 109.417 32.8655 109.298 33.9648 109.112C36.163 108.742 39.2252 108.106 42.6865 107.049C49.602 104.936 58.1505 101.124 64.5664 94.3223C67.8157 90.8774 69.811 85.997 70.9922 80.6641C72.1746 75.3254 72.5498 69.4904 72.5283 64.0928C72.5068 58.6928 72.0874 53.716 71.6738 50.0908C71.467 48.278 71.2614 46.802 71.1074 45.7783C71.0304 45.2664 70.9668 44.867 70.9219 44.5957C70.8994 44.4602 70.8812 44.3562 70.8691 44.2861C70.8689 44.2848 70.8684 44.2835 70.8682 44.2822C70.8693 44.2781 70.8709 44.2739 70.8721 44.2695C70.8926 44.1958 70.9231 44.0855 70.9629 43.9424C71.0425 43.6562 71.1595 43.2359 71.3096 42.6992C71.6099 41.6253 72.0423 40.0852 72.5693 38.2217C73.6235 34.4943 75.0578 29.4724 76.5771 24.2949C78.0966 19.1169 79.7011 13.7854 81.0957 9.4375C81.793 7.26351 82.4371 5.33847 82.9912 3.80273C83.3096 2.92049 83.5952 2.17547 83.8418 1.58887C83.9896 2.1302 84.1629 2.84334 84.3086 3.67188C84.6451 5.58653 84.835 8.08639 84.2822 10.4902L85.1406 10.7783V10.7773L85.1416 10.7764C85.1421 10.7753 85.1427 10.7734 85.1436 10.7715C85.1454 10.7673 85.1478 10.761 85.1514 10.7529C85.1589 10.7363 85.1709 10.7113 85.1855 10.6787C85.2149 10.6137 85.2578 10.5179 85.3135 10.3955C85.4253 10.1499 85.5873 9.79627 85.7871 9.36719C86.1869 8.50876 86.738 7.34717 87.3447 6.13379C87.9519 4.91939 88.6127 3.65797 89.2305 2.59766C89.6237 1.92276 89.9875 1.34908 90.3018 0.923828C90.319 0.984445 90.34 1.04738 90.3584 1.11426C90.5275 1.72893 90.7386 2.60034 90.9033 3.62207C91.2342 5.67466 91.3722 8.29307 90.6553 10.6592L91.459 11.0586L91.46 11.0576C91.4607 11.0566 91.4624 11.0548 91.4639 11.0527C91.4668 11.0487 91.4707 11.0422 91.4766 11.0342C91.4885 11.0178 91.507 10.9929 91.5303 10.9609C91.5769 10.8971 91.6452 10.8029 91.7334 10.6826C91.9104 10.4413 92.1667 10.0941 92.4814 9.6709C93.1112 8.82404 93.9766 7.67322 94.9189 6.45801C96.5582 4.34422 98.3973 2.07874 99.6406 0.850586C99.6695 0.991956 99.7004 1.15375 99.7285 1.33496Z" fill="#0056A4" stroke="black" stroke-width="0.909567"/>
<path d="M75.6611 34.9023C87.4418 43.6825 93.6478 59.6546 93.4531 75.2695C93.2565 91.0346 86.5415 106.299 72.6299 113.354C59.4113 120.059 46.313 121.183 36.5117 120.629C31.612 120.352 27.5401 119.656 24.6953 119.029C23.2731 118.716 22.1573 118.42 21.3994 118.203C21.2119 118.149 21.0473 118.098 20.9043 118.055C20.9449 118.009 20.9875 117.961 21.0332 117.91C21.4161 117.487 21.9774 116.885 22.6885 116.171C24.112 114.742 26.1322 112.872 28.5186 111.101C30.5222 109.611 33.3135 108 36.3594 106.288C39.9998 104.242 43.9936 102.056 47.3467 99.7949C50.681 97.5468 53.4749 95.166 54.624 92.6982C56.9212 87.769 57.3615 84.5274 61.6748 80.0654C63.747 77.9223 65.6427 76.125 67.0352 72.4766C68.3322 69.0781 69.1882 64.0957 69.4375 55.7266L69.4785 54.0068C69.4988 52.9652 69.5103 51.8725 69.5127 50.7295C69.5203 46.4427 71.114 42.4068 72.7256 39.4248C73.5295 37.9373 74.3337 36.7199 74.9355 35.876C75.2362 35.4545 75.4861 35.126 75.6602 34.9043L75.6611 34.9023Z" fill="#2176B0" stroke="black" stroke-width="0.909567"/>
<path d="M76.7842 51.751C77.1487 52.1752 77.6116 52.7384 78.1348 53.4346C79.4334 55.1626 81.1058 57.7041 82.5967 60.9502C85.484 67.2368 87.6881 76.1632 85.1758 86.9609L84.918 88.0117C82.9462 95.6432 79.0823 100.723 74.4082 104.067C69.7255 107.417 64.2035 109.043 58.8994 109.715C53.5964 110.386 48.5337 110.1 44.793 109.645C42.9589 109.421 41.4456 109.157 40.3809 108.946C40.8648 108.794 41.4404 108.608 42.0908 108.38C44.2008 107.64 47.1123 106.487 50.3223 104.836C56.7345 101.538 64.3777 96.2309 69.1748 88.2109C73.9599 80.2102 75.835 70.7599 76.5195 63.335C76.8622 59.6182 76.9078 56.3984 76.8672 54.1074C76.8502 53.1495 76.8157 52.3536 76.7842 51.751Z" fill="#55B459" stroke="black" stroke-width="0.909567"/>
<path d="M76.8115 48.4629C76.7851 48.5961 76.753 48.7435 76.7109 48.8945C76.6365 49.1617 76.5393 49.4274 76.416 49.6475C76.2905 49.8714 76.1569 50.0129 76.0283 50.083L75.5303 50.3555L75.9043 50.7822C75.9046 50.7826 75.9055 50.7833 75.9062 50.7842C75.9082 50.7865 75.9114 50.7904 75.916 50.7959C75.9254 50.8071 75.9401 50.8251 75.96 50.8496C75.9998 50.8989 76.0601 50.9749 76.1367 51.0781C76.2899 51.2845 76.5097 51.5992 76.7686 52.0234C77.2862 52.8718 77.96 54.1589 78.5703 55.8965C79.7901 59.3696 80.7607 64.6552 79.708 71.8545C78.6561 79.0479 75.5605 86.0857 71.5732 91.8975C67.7072 97.5324 63.0269 101.98 58.6055 104.302L58.1787 104.52C53.6064 106.785 48.7045 107.796 44.9346 108.238C43.0517 108.459 41.4561 108.538 40.333 108.562C39.7719 108.573 39.329 108.571 39.0273 108.566C38.8766 108.564 38.7608 108.56 38.6836 108.558C38.645 108.556 38.6158 108.555 38.5967 108.555C38.5872 108.554 38.5797 108.554 38.5752 108.554H38.5693L38.0928 108.53V109.008C38.0923 109.028 38.0815 109.338 37.8857 109.71C37.7148 110.035 37.3895 110.428 36.752 110.722C36.7515 110.721 36.7514 110.719 36.751 110.718L36.75 110.717C36.4977 110.063 36.0785 108.506 36.543 106.186C39.6668 104.429 43.0392 102.573 46.0322 100.657C48.8866 98.8306 51.4375 96.9255 53.1143 94.9697L53.4375 94.5781C53.78 94.1475 54.0759 93.7146 54.3281 93.2744L54.3311 93.2676C54.4343 93.0807 54.5333 92.8887 54.6221 92.7012L54.623 92.6992C55.184 91.5012 55.6349 90.3946 56.0586 89.3447L56.0596 89.3438C56.0603 89.342 56.0607 89.3397 56.0635 89.333C56.0657 89.3277 56.0699 89.3177 56.0742 89.3066C56.0791 89.294 56.082 89.2769 56.0879 89.2578C57.3198 86.2132 58.3608 83.6343 61.2559 80.5137L61.2637 80.5049L61.2715 80.4951C61.3102 80.4487 61.3379 80.4233 61.4082 80.3467L61.418 80.335C61.4922 80.2483 61.5704 80.1711 61.6748 80.0615L61.6738 80.0605C63.7334 77.9307 65.6204 76.1423 67.0107 72.5342C68.3928 68.9474 69.2784 63.5888 69.4717 54.3047H69.4727V54.2949C69.4727 54.2518 69.4734 54.2075 69.4746 54.1572C69.4747 54.1527 69.4745 54.1482 69.4746 54.1436C70.1442 53.1691 71.1846 51.8311 72.5117 50.6865C73.7459 49.6221 75.2006 48.7494 76.8115 48.4629Z" fill="#F31E23" stroke="black" stroke-width="0.909567"/>
<path d="M40.8125 77.8955C42.3022 77.7565 43.8912 77.9224 45.1914 78.0938H45.1924C45.868 78.1811 46.5418 78.3058 47.209 78.4541H47.21C48.2973 78.6916 49.3719 78.9824 50.4658 79.2686C51.5546 79.5534 52.6591 79.8324 53.7852 80.0381V80.0391C56.1818 80.4813 58.6597 80.7175 61.1152 80.4912L61.1143 80.4902C61.4483 80.4601 61.7823 80.42 62.1152 80.3711C62.1132 80.3863 62.1124 80.4022 62.1104 80.418C62.0564 80.8236 61.9679 81.4041 61.8301 82.0996C61.5539 83.4933 61.0812 85.338 60.2979 87.1582V87.1592C58.9346 90.3307 56.6933 93.2997 53.0166 93.8438C52.8791 93.8621 52.7407 93.8809 52.6064 93.8994C50.5475 94.1562 48.5952 94.0275 46.7979 93.5713C44.6419 93.0243 42.7164 91.9949 41.1191 90.5752H41.1182C39.3669 89.0241 38.008 86.9966 37.1855 84.6025L37.1846 84.6006L37.0059 84.0518C36.8366 83.4957 36.6959 82.9169 36.5859 82.3193V82.3184L36.5264 81.9189C36.4313 81.0583 36.5621 80.2348 37.043 79.5879L37.1602 79.4424C38.001 78.4752 39.3169 78.0351 40.8125 77.8955Z" fill="#F31E23" stroke="black" stroke-width="0.909567"/>
<path d="M40.8125 77.8955C42.2527 77.7611 43.7854 77.9122 45.0605 78.0771L45.0586 78.1533C44.5823 78.1256 44.1037 78.1307 43.6279 78.1738L43.5117 79.0098C42.5617 79.1348 41.631 79.4525 40.7266 79.9746L41.0947 80.7998C41.5259 80.6584 41.9785 80.5791 42.4336 80.5596L42.6016 81.2891L42.3721 81.9639C42.7095 82.1832 43.0466 82.4038 43.3838 82.624L43.0156 83.2432C43.6122 83.6321 44.1538 84.1051 44.6221 84.6426C43.797 84.7016 42.997 85.1362 42.4619 85.709C41.6523 86.5712 41.2866 87.7232 41.0049 88.7422L41.0039 88.7441C40.8748 89.2187 40.7579 89.6717 40.6201 90.1074C39.1093 88.6245 37.928 86.7638 37.1855 84.6025L37.1846 84.6006L37.0059 84.0518C36.8366 83.4957 36.6959 82.9169 36.5859 82.3193V82.3184L36.5264 81.9189C36.4313 81.0583 36.5621 80.2348 37.043 79.5879L37.1602 79.4424C38.001 78.4752 39.3169 78.0351 40.8125 77.8955Z" fill="#D80F19" stroke="black" stroke-width="0.909567"/>
<path d="M45.2285 93.0713C41.5272 91.6494 38.6515 88.7175 37.2432 84.7705C37.3071 84.6237 37.3682 84.4846 37.4238 84.3584L45.2285 93.0713Z" fill="#303030" stroke="black" stroke-width="0.909567"/>
<path d="M35.959 82.2549C36.1779 82.7144 36.4554 83.1189 36.7363 83.4736C36.9825 83.7845 37.2396 84.069 37.458 84.3174C37.6269 84.5094 37.77 84.6764 37.8838 84.8281L37.9873 84.9756C38.0746 85.109 38.1578 85.3759 38.2158 85.7676C38.2714 86.1428 38.2967 86.5749 38.3037 86.9912C38.3107 87.4057 38.2996 87.795 38.2871 88.0811C38.2856 88.1166 38.2828 88.1505 38.2812 88.1826C37.9182 88.2846 37.6348 88.5113 37.4248 88.7891C37.1491 89.154 36.9893 89.6146 36.8926 90.0312C36.8553 90.1921 36.8265 90.3524 36.8037 90.5059C35.2846 88.3771 35.1084 86.2268 35.3467 84.5322C35.4761 83.6124 35.7294 82.8266 35.959 82.2549Z" fill="white" stroke="black" stroke-width="0.909567"/>
<path d="M39.9023 82.5908C40.4826 82.508 41.2816 82.6241 42.1943 82.8809C43.0952 83.1344 44.059 83.5101 44.9492 83.9023C45.838 84.294 46.6446 84.6983 47.2295 85.0049C47.3509 85.0685 47.4617 85.1295 47.5625 85.1836C47.3193 85.3848 47.0268 85.6494 46.748 85.96C46.1213 86.6583 45.4184 87.7555 45.8447 88.9258C46.0294 89.4325 46.34 89.9376 46.625 90.3945C46.9217 90.8703 47.1923 91.297 47.3604 91.7051C47.5267 92.1091 47.5624 92.4244 47.4697 92.6904C47.3935 92.9091 47.2041 93.1639 46.7744 93.4336L38.7158 84.5771C38.6986 84.5243 38.6755 84.4459 38.6543 84.3506C38.611 84.156 38.5801 83.9082 38.6084 83.6631C38.6362 83.4222 38.719 83.2007 38.8906 83.0225C39.0617 82.8448 39.3618 82.668 39.9023 82.5908Z" fill="white" stroke="black" stroke-width="0.909567"/>
<path d="M42.2891 84.3867C42.5421 84.3867 42.6894 84.5691 42.6895 84.7256C42.6895 84.882 42.5421 85.0645 42.2891 85.0645C42.0361 85.0644 41.8896 84.882 41.8896 84.7256C41.8897 84.5692 42.0361 84.3868 42.2891 84.3867Z" fill="#C1C1BD" stroke="black" stroke-width="0.909567"/>
<path d="M42.3154 84.6602C42.371 84.6602 42.3955 84.7007 42.3955 84.7256C42.3955 84.7504 42.371 84.791 42.3154 84.791C42.2591 84.791 42.2354 84.7502 42.2354 84.7256C42.2354 84.701 42.2591 84.6602 42.3154 84.6602Z" fill="#303030" stroke="black" stroke-width="0.909567"/>
<path d="M42.4756 84.7256C42.5507 84.7256 42.615 84.6814 42.6426 84.6182L42.6572 84.5498C42.6572 84.4524 42.5758 84.373 42.4756 84.373M42.4756 84.7256V84.373M42.4756 84.7256C42.4004 84.7256 42.3362 84.6814 42.3086 84.6182L42.2939 84.5498C42.2939 84.4524 42.3754 84.3731 42.4756 84.373M42.4756 84.7256V84.373" fill="white" stroke="black" stroke-width="0.909567"/>
<path d="M42.165 85.0225C42.2091 85.0225 42.2474 84.9963 42.2637 84.959L42.2725 84.9189C42.2725 84.8615 42.2239 84.8145 42.165 84.8145M42.165 85.0225V84.8145M42.165 85.0225C42.1208 85.0223 42.0835 84.9961 42.0674 84.959L42.0586 84.9189C42.0586 84.8617 42.1064 84.8147 42.165 84.8145M42.165 85.0225V84.8145" fill="white" stroke="black" stroke-width="0.909567"/>
<path d="M99.1289 96.9824C109.885 96.0974 117.838 96.7211 123.098 97.5635C125.736 97.9861 127.698 98.4635 128.995 98.834C129.451 98.9642 129.824 99.083 130.117 99.1797C127.86 100.719 125.327 101.456 123.273 101.8C122.144 101.989 121.168 102.058 120.476 102.08C120.13 102.091 119.855 102.091 119.668 102.088C119.575 102.086 119.503 102.084 119.456 102.082C119.433 102.081 119.415 102.081 119.403 102.08C119.398 102.08 119.394 102.079 119.392 102.079C119.39 102.079 119.389 102.079 119.389 102.079L119.267 102.978C130.377 105.343 136.505 107.784 139.843 109.615C141.51 110.53 142.475 111.291 143.017 111.808C143.164 111.949 143.28 112.073 143.37 112.176C142.547 112.539 141.497 112.791 140.332 112.949C138.943 113.138 137.431 113.195 136.026 113.186C134.623 113.176 133.336 113.102 132.398 113.029C131.93 112.993 131.55 112.956 131.287 112.93C131.156 112.916 131.054 112.905 130.985 112.897C130.951 112.894 130.925 112.891 130.907 112.889C130.899 112.888 130.893 112.887 130.889 112.887C130.887 112.886 130.885 112.886 130.884 112.886H130.882V112.889L130.672 113.765C137.482 116.247 143.08 119.525 146.977 122.184C148.924 123.512 150.444 124.686 151.477 125.525C151.911 125.878 152.258 126.173 152.515 126.395C152.138 126.517 151.688 126.613 151.189 126.686C150.387 126.802 149.499 126.853 148.667 126.866C147.836 126.88 147.069 126.857 146.509 126.831C146.229 126.818 146.002 126.805 145.845 126.794C145.766 126.789 145.705 126.784 145.664 126.781C145.644 126.78 145.627 126.778 145.617 126.777C145.612 126.777 145.609 126.777 145.606 126.776C145.605 126.776 145.603 126.776 145.603 126.776L145.37 127.641C151.007 130.304 155.553 133.507 158.688 136.045C160.256 137.313 161.469 138.415 162.29 139.197C162.473 139.372 162.636 139.531 162.779 139.672C162.191 139.63 161.529 139.53 160.827 139.388C159.674 139.154 158.446 138.815 157.317 138.464C156.19 138.113 155.168 137.752 154.427 137.479C154.056 137.343 153.756 137.229 153.55 137.149C153.447 137.109 153.366 137.078 153.312 137.057C153.286 137.046 153.266 137.038 153.252 137.032C153.245 137.03 153.24 137.028 153.236 137.026C153.235 137.026 153.233 137.025 153.232 137.024H153.231L152.858 137.853C157.152 139.999 163.442 144.476 168.682 148.438C171.296 150.415 173.64 152.258 175.331 153.605C176.176 154.279 176.859 154.829 177.329 155.211C177.369 155.243 177.407 155.275 177.443 155.305C177.323 155.334 177.217 155.354 177.128 155.364C177.01 155.378 176.92 155.378 176.864 155.376C176.837 155.375 176.817 155.374 176.807 155.373C176.802 155.373 176.798 155.371 176.798 155.371L176.799 155.372H176.803L176.801 155.379L176.551 156.239C180.389 157.877 184.429 160.348 187.519 162.419C189.061 163.453 190.363 164.383 191.278 165.056C191.668 165.342 191.986 165.582 192.225 165.762C191.976 165.897 191.724 165.992 191.5 166.055C191.316 166.106 191.157 166.136 191.047 166.152C190.992 166.161 190.949 166.166 190.921 166.169C190.907 166.17 190.897 166.171 190.892 166.172H190.887L189.96 166.229L190.573 166.926C190.898 167.295 191.158 167.67 191.353 167.979C185.825 167.549 179.132 165.034 173.689 162.541C170.84 161.236 168.349 159.945 166.57 158.979C165.681 158.497 164.971 158.096 164.483 157.816C164.239 157.677 164.051 157.567 163.924 157.492C163.86 157.455 163.812 157.426 163.78 157.407C163.764 157.398 163.752 157.39 163.744 157.386C163.74 157.383 163.737 157.382 163.735 157.381C163.734 157.38 163.734 157.379 163.733 157.379H163.732L163.206 158.117C165.853 160.347 167.545 162.469 168.574 164.025C169.062 164.763 169.4 165.375 169.62 165.811C164.998 164.967 159.627 161.821 155.281 158.753C152.99 157.135 151.003 155.555 149.59 154.379C148.883 153.791 148.32 153.304 147.935 152.965C147.742 152.795 147.593 152.662 147.493 152.572C147.443 152.527 147.405 152.494 147.38 152.471C147.367 152.459 147.358 152.45 147.352 152.444C147.349 152.442 147.346 152.44 147.345 152.438C147.344 152.438 147.343 152.437 147.343 152.437L147.034 152.771L147.342 152.437L146.713 153.093C148.143 154.522 149.117 156.345 149.734 157.829C150.042 158.568 150.258 159.216 150.397 159.678C150.402 159.692 150.405 159.706 150.409 159.72C148.267 159.25 145.953 158.19 143.647 156.812C141.093 155.284 138.575 153.387 136.352 151.531C134.129 149.676 132.205 147.868 130.837 146.523C130.153 145.851 129.608 145.295 129.235 144.908C129.049 144.715 128.905 144.563 128.809 144.46C128.76 144.409 128.724 144.37 128.699 144.344C128.687 144.331 128.678 144.32 128.672 144.313L128.663 144.305L127.815 143.385L127.874 144.634C127.887 144.912 127.889 145.178 127.888 145.401C124.17 143.967 121.139 141.777 119.005 139.899C117.883 138.912 117.012 138.014 116.423 137.365C116.128 137.041 115.904 136.778 115.754 136.598C115.679 136.508 115.623 136.438 115.586 136.392C115.568 136.369 115.554 136.351 115.545 136.34C115.54 136.334 115.537 136.33 115.535 136.327L115.533 136.324L114.718 135.263V136.602C114.718 136.885 114.668 137.186 114.612 137.434C104.925 133.639 99.5742 124.506 96.6406 116.17C95.1538 111.945 94.2972 107.95 93.8125 105.01C93.5703 103.54 93.4205 102.336 93.332 101.5C93.2878 101.082 93.2592 100.756 93.2412 100.536C93.2396 100.516 93.2378 100.497 93.2363 100.479L99.1289 96.9824Z" fill="#0056A4" stroke="black" stroke-width="0.909567"/>
<path d="M104.179 104.429C113.576 106.341 120.378 109.655 124.834 112.494C127.079 113.925 128.729 115.235 129.814 116.185C130.197 116.519 130.508 116.811 130.752 117.046C130.07 117.052 129.292 116.963 128.583 116.841C128.068 116.752 127.609 116.652 127.277 116.573C127.112 116.534 126.979 116.5 126.888 116.477C126.842 116.465 126.807 116.456 126.783 116.449C126.772 116.446 126.763 116.444 126.758 116.442C126.755 116.442 126.752 116.441 126.751 116.44L126.75 116.439L126.473 117.306C130.847 118.895 135.715 122.694 139.518 126.138C141.412 127.853 143.029 129.468 144.173 130.654C144.686 131.187 145.103 131.634 145.407 131.963C145.217 131.963 145.005 131.953 144.773 131.93C144.168 131.869 143.49 131.736 142.85 131.582C142.522 131.503 142.207 131.419 141.919 131.339C141.411 131.154 140.918 131.001 140.443 130.887L140.188 131.759L140.191 131.76C140.194 131.761 140.198 131.762 140.202 131.764C140.211 131.767 140.224 131.771 140.241 131.776C140.275 131.788 140.325 131.804 140.388 131.825C140.514 131.867 140.696 131.926 140.919 131.994C141.125 132.057 141.367 132.128 141.633 132.203C144.629 133.299 148.232 135.614 151.273 137.824C153.029 139.101 154.58 140.328 155.691 141.236C156.247 141.69 156.693 142.064 156.999 142.324C157.004 142.328 157.009 142.333 157.014 142.337C156.51 142.574 155.953 142.599 155.45 142.536C155.123 142.495 154.835 142.418 154.629 142.351C154.527 142.317 154.446 142.287 154.392 142.266C154.372 142.258 154.356 142.251 154.344 142.246C154.331 142.241 154.318 142.235 154.306 142.229L153.938 143.062L153.939 143.062C153.94 143.063 153.941 143.063 153.942 143.063C153.944 143.064 153.946 143.065 153.949 143.066C153.955 143.069 153.964 143.072 153.974 143.076C159.884 145.586 164.743 149.318 168.131 152.432C169.825 153.989 171.149 155.388 172.047 156.397C172.279 156.659 172.484 156.894 172.658 157.099C165.715 155.829 156.917 151.545 149.667 147.438C145.844 145.273 142.47 143.168 140.051 141.604C138.842 140.823 137.871 140.177 137.204 139.727C136.888 139.513 136.64 139.344 136.467 139.225C136.367 139.155 136.267 139.084 136.165 139.017L135.652 139.769L135.913 139.396L135.653 139.769H135.654C135.655 139.769 135.656 139.77 135.657 139.771C135.66 139.774 135.665 139.776 135.671 139.78C135.682 139.788 135.699 139.801 135.722 139.816C135.767 139.848 135.835 139.894 135.923 139.954C139.049 142.103 141.461 144.92 143.104 147.236C143.948 148.425 144.586 149.477 145.013 150.23C145.047 150.29 145.078 150.349 145.109 150.405C142.794 149.479 140.175 147.908 137.491 146.004C134.383 143.799 131.216 141.169 128.371 138.641C125.528 136.113 123.011 133.69 121.206 131.898C120.761 131.457 120.36 131.053 120.007 130.696C119.488 130.079 118.915 129.481 118.28 128.923L117.649 129.576H117.65V129.577L117.663 129.59C117.672 129.599 117.684 129.613 117.701 129.631C117.735 129.667 117.786 129.719 117.852 129.788C117.983 129.926 118.178 130.128 118.429 130.387C118.676 130.642 118.98 130.951 119.332 131.308C120.709 132.954 121.681 134.755 122.343 136.295C122.792 137.34 123.097 138.257 123.289 138.912C121.277 137.619 118.942 135.395 116.515 132.682C113.717 129.554 110.834 125.82 108.231 122.228C105.629 118.636 103.311 115.191 101.644 112.644C100.81 111.37 100.139 110.322 99.6768 109.592C99.4579 109.246 99.2855 108.972 99.165 108.779L104.179 104.429Z" fill="#F31E23" stroke="black" stroke-width="0.909567"/>
<path d="M77.7217 97.3262L77.7227 97.3203L78.0088 96.4766C75.5172 95.1523 73.7031 93.2777 72.5098 91.7256C71.9142 90.9509 71.4761 90.26 71.1875 89.7646C71.1519 89.7035 71.1189 89.6447 71.0879 89.5898C71.583 89.57 72.0437 89.5635 72.417 89.5635C72.6896 89.5635 72.9148 89.5662 73.0713 89.5693C73.1495 89.5709 73.2107 89.573 73.252 89.5742C73.2726 89.5748 73.2884 89.5749 73.2988 89.5752C73.3039 89.5754 73.3081 89.5761 73.3105 89.5762H73.3135L75.0537 89.6377L73.5664 88.7324C72.381 88.0113 71.4817 87.0812 70.877 86.3252C70.6941 86.0965 70.5403 85.8837 70.4131 85.7002C80.0527 85.9258 87.5699 89.0387 92.7158 92.1377C95.3629 93.7319 97.3818 95.3217 98.7363 96.5107C99.4133 97.105 99.9244 97.5986 100.265 97.9424C100.435 98.1143 100.562 98.2492 100.646 98.3398C100.688 98.3849 100.72 98.4188 100.74 98.4414C100.75 98.4527 100.758 98.4614 100.763 98.4668C100.765 98.4694 100.767 98.4715 100.768 98.4727L100.769 98.4736L100.861 98.5791L100.996 98.6143C105.052 99.6678 108.895 102.34 111.744 104.78C113.164 105.996 114.326 107.145 115.134 107.99C115.37 108.237 115.575 108.459 115.747 108.647C114.344 108.661 113.364 108.551 112.719 108.428C112.327 108.353 112.057 108.274 111.893 108.217L111.721 108.15C111.703 108.142 111.686 108.133 111.669 108.125L111.258 108.937H111.259L111.26 108.938C111.261 108.938 111.262 108.939 111.263 108.939C111.265 108.94 111.267 108.941 111.27 108.942C111.272 108.944 111.275 108.945 111.278 108.946V108.947C117.292 111.807 123.426 116.887 128.071 121.275C130.39 123.466 132.33 125.477 133.69 126.94C134.307 127.603 134.803 128.154 135.162 128.557C131.203 128.375 126.428 126.013 122.575 123.626C120.642 122.428 118.963 121.238 117.767 120.348C117.169 119.903 116.693 119.533 116.366 119.274C116.203 119.145 116.077 119.044 115.992 118.976C115.95 118.941 115.918 118.915 115.896 118.897L115.867 118.873L115.866 118.872H115.865L115.239 119.529C116.887 121.331 117.591 123.504 117.879 125.247C118.023 126.116 118.062 126.87 118.065 127.406C118.066 127.508 118.063 127.602 118.062 127.688C116.04 127.007 114.239 125.432 112.892 123.925C112.165 123.112 111.582 122.334 111.182 121.76C110.982 121.473 110.827 121.238 110.724 121.075C110.672 120.994 110.633 120.931 110.607 120.889C110.595 120.868 110.584 120.851 110.578 120.841C110.575 120.836 110.573 120.831 110.571 120.829C110.571 120.828 110.57 120.828 110.569 120.827V120.826L109.733 121.152C109.869 121.785 109.725 122.36 109.534 122.79C109.46 122.958 109.377 123.1 109.308 123.21C106.085 121.99 102.7 118.94 99.6406 115.715C98.0689 114.058 96.6012 112.375 95.2988 110.899C94.0041 109.433 92.8595 108.155 91.9551 107.341C90.0603 105.635 85.8925 103.067 82.2432 100.945C80.4092 99.8793 78.6915 98.9174 77.4326 98.2227C76.9616 97.9627 76.5544 97.7404 76.2295 97.5635C76.6112 97.4403 76.9244 97.3782 77.1631 97.3477C77.3646 97.3219 77.5146 97.318 77.6084 97.3203C77.6551 97.3215 77.6881 97.3243 77.707 97.3262C77.7134 97.3268 77.7186 97.3258 77.7217 97.3262Z" fill="#2176B0" stroke="black" stroke-width="0.909567"/>
<path d="M38.7451 104.948C37.6697 106.045 36.8576 107.389 36.3564 108.839C36.3031 108.117 36.3342 107.229 36.543 106.186C37.2665 105.779 38.0028 105.365 38.7451 104.948ZM58.5342 87.0605L59.3281 88.4121C59.3211 88.4953 59.313 88.5785 59.3008 88.6611L60.1162 88.998C60.184 88.9064 60.247 88.8113 60.3076 88.7148C60.2324 91.0961 59.3023 93.4585 57.6846 95.2051L58.2158 95.9238C58.81 95.6373 59.3662 95.2753 59.873 94.8545C59.2607 95.9208 58.4312 96.8828 57.4756 97.6973L57.1475 97.9678C55.3703 99.3757 53.2461 100.316 51.0566 101.086L51.2041 101.536C48.3267 102.799 45.5262 104.236 42.8223 105.838C43.1763 105.2 43.6016 104.603 44.0928 104.066L43.4951 103.389C42.2601 104.264 41.0278 105.142 39.7969 106.021C39.9214 105.56 40.1034 105.116 40.3428 104.704L39.8838 104.304C41.9778 103.119 44.0862 101.902 46.0322 100.656C49.0765 98.7081 51.7761 96.6712 53.4375 94.5781L54.1377 93.6953L53.96 93.7188C54.0721 93.5928 54.1821 93.4642 54.2881 93.332L54.2891 93.3311C54.9213 92.5372 55.4282 91.6294 55.7627 90.5938L55.8633 90.624L55.8525 91.6543L56.6357 90.8936C57.7096 89.8504 58.3433 88.4017 58.4502 86.918C58.4781 86.9655 58.5062 87.013 58.5342 87.0605Z" fill="#D80F19" stroke="black" stroke-width="0.909567"/>
<path d="M70.543 63.5381C70.3172 65.2093 69.8633 66.8507 69.1895 68.3975L69.958 68.8682C70.3136 68.4351 70.6409 67.9795 70.9404 67.5068C70.328 69.5054 69.4082 71.4103 68.2119 73.124L68.873 73.7363C69.5468 73.1854 70.1791 72.584 70.7656 71.9404L70.9521 72.0518C68.8274 75.008 65.956 77.4313 62.6816 79.0195C64.3446 77.2873 65.8518 75.5445 67.0117 72.5342C67.6893 70.7756 68.2452 68.5908 68.6611 65.7266L69.4287 66.0479C69.7995 65.211 70.1716 64.3747 70.543 63.5381ZM69.3779 57.3223C69.8528 60.0106 69.6442 62.817 68.7109 65.376C69.0212 63.1358 69.2469 60.4896 69.3779 57.3223Z" fill="#D80F19" stroke="black" stroke-width="0.909567"/>
</svg>