<svg display="block" role="presentation" viewBox="0 0 835 835" xmlns="http://www.w3.org/2000/svg"><g d="M 329.595 431.454 C 330.108 431.069 330.596 430.633 331.058 430.222 L 331.725 429.631 C 332.16 429.2 332.564 428.736 332.932 428.246 C 333.137 428.015 333.368 427.783 333.548 427.552 C 333.728 427.321 334.086 426.654 334.369 426.217 C 334.651 425.781 334.805 425.525 334.985 425.191 C 335.17 424.806 335.333 424.412 335.474 424.01 C 335.696 423.551 335.894 423.079 336.064 422.598 C 336.174 422.236 336.259 421.867 336.32 421.494 C 336.449 420.981 336.603 420.493 336.68 420.005 C 336.705 419.543 336.705 419.081 336.68 418.619 C 336.705 418.157 336.705 417.694 336.68 417.232 C 336.706 416.762 336.706 416.291 336.68 415.821 C 336.705 415.368 336.705 414.913 336.68 414.461 C 336.587 413.958 336.467 413.461 336.32 412.971 C 336.259 412.598 336.174 412.23 336.064 411.867 C 336.077 411.826 336.077 411.781 336.064 411.739 C 335.894 411.249 335.696 410.769 335.474 410.301 C 335.337 409.906 335.174 409.52 334.985 409.146 C 334.805 408.786 334.549 408.427 334.344 408.068 C 334.138 407.709 333.83 407.196 333.548 406.785 L 332.906 406.04 C 332.54 405.563 332.146 405.109 331.725 404.68 C 331.52 404.474 331.263 404.295 331.032 404.089 C 330.577 403.66 330.096 403.256 329.595 402.882 L 55.735 208.552 L 360.964 348.537 C 361.504 348.768 362.043 348.948 362.581 349.127 L 363.609 349.487 C 364.096 349.615 364.584 349.666 365.098 349.768 C 365.611 349.872 365.919 349.948 366.33 350 C 366.74 350.026 367.152 350.026 367.562 350 C 368.075 350 368.589 350 369.102 350 L 370.155 350 C 370.745 350 371.31 349.872 371.874 349.768 C 372.209 349.768 372.516 349.563 372.85 349.461 C 373.388 349.334 373.919 349.18 374.442 348.999 C 374.845 348.832 375.239 348.643 375.623 348.434 C 376.071 348.247 376.509 348.033 376.932 347.793 C 377.343 347.562 377.702 347.279 378.087 347.023 L 379.242 346.227 C 379.627 345.893 379.961 345.559 380.321 345.2 C 380.68 344.84 380.911 344.686 381.168 344.404 C 381.168 344.404 381.424 344.122 381.168 344.404 L 382.066 343.223 C 382.323 342.889 382.631 342.529 382.862 342.17 L 383.375 341.247 C 383.658 340.733 383.94 340.245 384.171 339.732 C 384.403 339.218 384.325 339.269 384.428 339.038 C 384.658 338.397 384.915 337.755 385.095 337.113 C 385.095 336.882 385.095 336.651 385.223 336.42 C 385.381 335.733 385.501 335.039 385.583 334.34 L 416.953 0 L 448.297 334.213 C 448.396 335.138 448.558 336.056 448.785 336.959 C 448.785 336.959 448.785 337.138 448.785 337.216 C 448.997 338.023 449.272 338.813 449.607 339.578 L 449.761 339.963 C 450.094 340.713 450.489 341.434 450.942 342.118 L 451.096 342.35 C 451.529 343.025 452.009 343.668 452.533 344.275 L 452.687 344.455 L 452.687 344.583 L 453.561 345.379 C 453.92 345.738 454.253 346.073 454.638 346.406 C 455.023 346.74 455.408 346.945 455.793 347.202 C 456.178 347.458 456.537 347.741 456.922 347.972 C 457.355 348.211 457.801 348.426 458.257 348.613 C 458.638 348.828 459.033 349.016 459.439 349.178 C 459.952 349.359 460.475 349.514 461.005 349.641 C 461.338 349.641 461.647 349.872 462.007 349.948 C 462.571 349.948 463.162 350.103 463.726 350.18 L 464.778 350.18 C 465.291 350.18 465.806 350.18 466.319 350.18 C 466.729 350.206 467.141 350.206 467.551 350.18 C 467.987 350.18 468.398 350.026 468.809 349.948 C 469.22 349.872 469.81 349.795 470.298 349.667 L 471.299 349.307 C 471.838 349.127 472.403 348.948 472.916 348.717 L 778.119 208.731 L 504.286 403.062 L 503.798 403.447 C 503.311 403.832 502.823 404.243 502.361 404.68 L 501.771 405.296 C 501.386 405.706 501 406.168 500.641 406.631 L 500.153 407.246 C 499.676 407.926 499.248 408.638 498.87 409.377 L 498.87 409.531 C 498.517 410.253 498.217 411 497.971 411.765 C 497.961 411.85 497.961 411.936 497.971 412.021 C 497.971 412.175 497.971 412.33 497.971 412.458 C 497.816 413.048 497.663 413.639 497.561 414.255 C 497.548 414.486 497.548 414.717 497.561 414.948 C 497.444 415.799 497.384 416.656 497.381 417.515 C 497.389 418.322 497.45 419.128 497.561 419.928 C 497.561 420.159 497.561 420.39 497.561 420.647 C 497.561 420.904 497.816 421.827 497.971 422.418 C 497.971 422.572 497.971 422.701 497.971 422.855 C 497.961 422.949 497.961 423.043 497.971 423.137 C 498.217 423.901 498.517 424.648 498.87 425.371 C 499.241 426.119 499.68 426.831 500.179 427.501 C 500.31 427.716 500.455 427.922 500.615 428.117 C 501 428.579 501.386 429.041 501.796 429.477 L 502.361 430.068 C 502.823 430.505 503.311 430.915 503.798 431.3 L 504.286 431.686 L 778.145 626.041 L 472.916 486.031 C 472.392 485.796 471.851 485.599 471.299 485.44 C 470.974 485.298 470.64 485.178 470.298 485.081 C 469.799 484.952 469.293 484.849 468.783 484.773 C 468.372 484.773 467.987 484.594 467.576 484.568 C 467.166 484.542 466.73 484.568 466.319 484.568 C 465.908 484.568 465.291 484.568 464.778 484.568 C 464.425 484.587 464.073 484.629 463.726 484.696 C 463.148 484.735 462.574 484.813 462.007 484.927 C 461.647 484.927 461.338 485.132 461.005 485.235 C 460.671 485.338 459.952 485.518 459.439 485.724 C 458.926 485.929 458.642 486.083 458.257 486.262 L 456.922 486.904 C 456.537 487.135 456.152 487.418 455.793 487.674 C 455.434 487.931 454.997 488.187 454.638 488.495 C 454.279 488.804 453.92 489.163 453.561 489.497 C 453.201 489.83 452.97 490.01 452.687 490.318 L 452.533 490.498 C 452.01 491.096 451.53 491.731 451.096 492.398 L 450.942 492.629 C 450.503 493.331 450.109 494.059 449.761 494.81 L 449.607 495.196 C 449.283 495.956 449.009 496.736 448.785 497.532 C 448.785 497.532 448.785 497.712 448.785 497.814 C 448.555 498.707 448.4 499.617 448.323 500.535 L 416.953 834.77 L 385.583 500.433 C 385.583 499.765 385.378 499.124 385.249 498.482 C 385.183 498.211 385.132 497.937 385.095 497.66 C 384.915 497.069 384.684 496.479 384.479 495.889 C 384.273 495.299 384.299 495.324 384.171 495.042 C 384.043 494.759 383.683 494.117 383.427 493.629 C 383.17 493.142 383.068 492.937 382.862 492.603 C 382.657 492.269 382.323 491.909 382.066 491.576 C 381.778 491.166 381.47 490.773 381.143 490.395 L 381.143 490.267 C 380.885 489.984 380.578 489.754 380.295 489.471 C 380.013 489.189 379.576 488.778 379.191 488.469 C 378.832 488.173 378.454 487.899 378.061 487.649 C 377.676 487.392 377.317 487.109 376.906 486.879 C 376.495 486.647 376.034 486.442 375.597 486.237 L 374.416 485.698 C 373.894 485.508 373.363 485.344 372.824 485.209 C 372.49 485.209 372.183 484.979 371.849 484.902 C 371.282 484.785 370.707 484.708 370.129 484.67 C 369.77 484.67 369.436 484.542 369.076 484.516 C 368.717 484.49 368.05 484.516 367.536 484.516 C 367.023 484.516 366.715 484.516 366.304 484.516 C 365.889 484.559 365.479 484.629 365.072 484.722 C 364.584 484.722 364.071 484.876 363.583 485.03 C 363.232 485.123 362.888 485.243 362.556 485.389 C 362.017 485.569 361.478 485.723 360.939 485.954 L 55.735 625.939 Z M 431.712 504.717 C 431.33 504.197 430.918 503.699 430.479 503.228 C 430.299 503.023 430.12 502.792 429.914 502.586 C 429.709 502.381 428.99 501.765 428.528 501.379 C 428.066 500.994 428.066 500.944 427.809 500.764 C 427.383 500.46 426.937 500.185 426.474 499.942 C 426.141 499.737 425.807 499.48 425.447 499.3 C 425.087 499.12 424.677 498.993 424.292 498.813 L 422.855 498.222 L 421.725 497.966 C 421.237 497.966 420.75 497.709 420.262 497.632 C 419.774 497.555 419.338 497.632 418.876 497.504 C 418.413 497.375 417.952 497.504 417.463 497.504 C 416.976 497.504 416.539 497.504 416.078 497.504 C 415.615 497.504 415.153 497.504 414.691 497.632 C 414.229 497.76 413.716 497.864 413.228 497.966 L 412.098 498.222 L 411.97 498.222 L 410.558 498.813 C 410.173 498.993 409.762 499.12 409.403 499.3 C 409.043 499.48 408.684 499.737 408.324 499.968 C 407.882 500.209 407.453 500.474 407.041 500.764 C 406.758 500.969 406.528 501.2 406.271 501.405 C 406.014 501.611 405.347 502.15 404.936 502.56 L 404.345 503.254 C 403.909 503.741 403.498 504.204 403.113 504.717 L 208.758 778.577 L 348.768 473.347 L 348.768 473.219 C 348.999 472.705 349.153 472.166 349.358 471.602 C 349.564 471.037 349.615 470.934 349.692 470.6 C 349.769 470.266 349.897 469.599 350 469.111 C 350.103 468.624 350.18 468.29 350.231 467.879 C 350.283 467.468 350.231 467.058 350.231 466.647 C 350.231 466.236 350.231 465.62 350.231 465.107 C 350.231 464.594 350.231 464.388 350.077 464.054 C 350.038 463.468 349.96 462.885 349.846 462.309 C 349.846 461.975 349.641 461.641 349.538 461.308 C 349.435 460.974 349.256 460.255 349.05 459.741 C 348.845 459.228 348.69 458.945 348.511 458.56 C 348.331 458.175 348.1 457.662 347.869 457.225 C 347.638 456.79 347.356 456.481 347.099 456.096 C 346.843 455.711 346.586 455.326 346.278 454.941 C 345.969 454.556 345.61 454.222 345.276 453.863 C 344.943 453.503 344.764 453.273 344.481 452.99 L 344.353 452.99 C 343.993 452.656 343.583 452.4 343.197 452.091 C 342.812 451.784 342.504 451.526 342.144 451.295 C 341.785 451.065 341.503 450.962 341.195 450.782 C 340.712 450.476 340.205 450.21 339.68 449.986 L 339.013 449.73 C 338.376 449.47 337.725 449.246 337.062 449.062 L 336.395 448.934 C 335.71 448.765 335.015 448.644 334.315 448.574 L 0 417.204 L 334.213 385.834 C 335.131 385.757 336.041 385.603 336.933 385.372 L 337.216 385.372 C 338.012 385.142 338.781 384.859 339.552 384.551 L 339.937 384.372 C 340.69 384.037 341.419 383.651 342.119 383.216 L 342.35 383.062 C 343.015 382.627 343.649 382.146 344.249 381.624 L 344.429 381.47 L 344.583 381.47 C 344.865 381.188 345.097 380.88 345.379 380.597 C 345.661 380.315 346.073 379.904 346.38 379.519 C 346.689 379.134 346.944 378.749 347.202 378.364 C 347.459 377.979 347.741 377.62 347.972 377.235 C 348.203 376.85 348.409 376.337 348.614 375.9 C 348.819 375.463 348.999 375.13 349.153 374.719 C 349.307 374.308 349.487 373.667 349.641 373.152 C 349.794 372.639 349.872 372.486 349.949 372.152 C 350.064 371.576 350.141 370.992 350.179 370.406 C 350.179 370.072 350.309 369.713 350.334 369.353 C 350.359 368.994 350.334 368.327 350.334 367.813 C 350.334 367.3 350.334 366.992 350.334 366.581 C 350.334 366.17 350.154 365.759 350.103 365.349 C 350.051 364.938 349.949 364.347 349.794 363.86 C 349.64 363.372 349.564 363.192 349.461 362.858 C 349.359 362.525 349.102 361.755 348.87 361.216 L 208.886 55.986 L 403.216 329.845 C 403.216 329.999 403.473 330.154 403.602 330.308 C 403.984 330.818 404.396 331.307 404.833 331.771 L 405.424 332.336 C 405.86 332.747 406.323 333.132 406.785 333.491 L 407.401 333.953 C 408.077 334.443 408.788 334.881 409.531 335.263 L 409.659 335.263 C 410.383 335.618 411.129 335.928 411.893 336.187 L 412.175 336.314 L 412.612 336.314 C 413.193 336.496 413.784 336.643 414.383 336.752 L 415.103 336.88 C 415.902 336.991 416.708 337.05 417.515 337.059 C 418.331 337.05 419.145 336.991 419.953 336.88 L 420.647 336.752 C 421.255 336.645 421.855 336.499 422.443 336.314 L 422.88 336.314 L 423.137 336.187 C 423.911 335.932 424.666 335.623 425.397 335.263 C 426.136 334.875 426.847 334.438 427.527 333.953 L 428.142 333.491 C 428.605 333.132 429.067 332.747 429.503 332.336 L 430.093 331.771 C 430.532 331.307 430.943 330.818 431.326 330.308 L 431.712 329.845 L 625.99 55.473 L 486.006 360.702 C 485.774 361.241 485.595 361.781 485.415 362.32 C 485.236 362.859 485.159 363.012 485.056 363.347 C 484.953 363.68 484.876 364.347 484.773 364.836 C 484.671 365.323 484.593 365.657 484.542 366.067 C 484.491 366.478 484.542 366.915 484.542 367.326 C 484.516 367.83 484.516 368.336 484.542 368.84 C 484.542 369.2 484.542 369.559 484.671 369.892 C 484.799 370.227 484.671 371.047 484.901 371.612 C 484.901 371.946 485.106 372.28 485.21 372.614 C 485.312 372.947 485.492 373.666 485.672 374.179 C 485.851 374.692 486.057 374.976 486.236 375.361 C 486.425 375.809 486.639 376.247 486.878 376.67 C 487.11 377.081 487.392 377.44 487.649 377.825 L 488.444 378.98 C 488.778 379.365 489.137 379.699 489.471 380.058 C 489.805 380.417 489.984 380.649 490.266 380.906 L 490.421 380.906 L 490.601 381.06 C 491.201 381.582 491.836 382.062 492.501 382.497 L 492.731 382.651 C 493.431 383.087 494.16 383.472 494.913 383.806 L 495.273 383.986 C 496.042 384.301 496.831 384.567 497.635 384.782 L 497.891 384.782 C 498.792 385.012 499.711 385.167 500.638 385.244 L 834.854 416.614 L 500.535 447.984 C 499.879 448.055 499.227 448.167 498.585 448.318 C 498.308 448.355 498.034 448.405 497.763 448.472 C 497.161 448.643 496.57 448.849 495.991 449.088 C 495.71 449.088 495.427 449.267 495.145 449.395 C 494.661 449.619 494.19 449.867 493.732 450.14 L 492.706 450.705 C 492.346 450.936 492.012 451.219 491.653 451.501 C 491.293 451.784 490.857 452.066 490.472 452.4 C 490.087 452.734 490.472 452.4 490.472 452.4 C 490.472 452.4 489.933 452.964 489.676 453.246 C 489.42 453.529 488.983 453.94 488.65 454.325 L 487.854 455.48 C 487.597 455.865 487.315 456.225 487.083 456.635 C 486.844 457.059 486.63 457.495 486.441 457.945 C 486.227 458.325 486.039 458.72 485.877 459.125 C 485.697 459.639 485.543 460.178 485.415 460.691 C 485.286 461.205 485.184 461.359 485.107 461.692 C 485.117 461.735 485.117 461.779 485.107 461.821 C 485.107 462.385 484.953 462.95 484.876 463.54 C 484.799 464.131 484.876 464.235 484.747 464.594 C 484.722 465.098 484.722 465.603 484.747 466.108 C 484.721 466.527 484.721 466.947 484.747 467.365 C 484.747 467.776 484.901 468.187 484.979 468.598 C 485.056 469.009 485.132 469.6 485.261 470.087 C 485.389 470.575 485.518 470.754 485.621 471.114 C 485.723 471.473 485.98 472.192 486.211 472.731 L 626.196 777.934 Z" fill="transparent" height="834.769750061665px" id="ZJqWZAVgP" width="834.854190089914px"><path d="M 273.859 431.454 C 274.372 431.069 274.861 430.633 275.322 430.222 L 275.99 429.631 C 276.425 429.2 276.828 428.736 277.197 428.246 C 277.402 428.015 277.632 427.783 277.812 427.552 C 277.992 427.321 278.351 426.654 278.633 426.217 C 278.916 425.781 279.07 425.525 279.25 425.191 C 279.434 424.806 279.597 424.412 279.738 424.01 C 279.961 423.551 280.158 423.079 280.328 422.598 C 280.438 422.236 280.523 421.867 280.585 421.494 C 280.713 420.981 280.867 420.493 280.944 420.005 C 280.97 419.543 280.97 419.081 280.944 418.619 C 280.97 418.157 280.97 417.694 280.944 417.232 C 280.971 416.762 280.971 416.291 280.944 415.821 C 280.97 415.368 280.97 414.913 280.944 414.461 C 280.852 413.958 280.732 413.461 280.585 412.971 C 280.523 412.598 280.438 412.23 280.328 411.867 C 280.342 411.826 280.342 411.781 280.328 411.739 C 280.158 411.249 279.961 410.769 279.738 410.301 C 279.602 409.906 279.438 409.52 279.25 409.146 C 279.07 408.786 278.813 408.427 278.608 408.068 C 278.402 407.709 278.095 407.196 277.812 406.785 L 277.171 406.04 C 276.805 405.563 276.411 405.109 275.99 404.68 C 275.785 404.474 275.527 404.295 275.297 404.089 C 274.842 403.66 274.361 403.256 273.859 402.882 L 0 208.552 L 305.229 348.537 C 305.768 348.768 306.307 348.948 306.846 349.127 L 307.873 349.487 C 308.361 349.615 308.849 349.666 309.362 349.768 C 309.876 349.872 310.184 349.948 310.595 350 C 311.005 350.026 311.416 350.026 311.826 350 C 312.34 350 312.853 350 313.366 350 L 314.42 350 C 315.01 350 315.575 349.872 316.139 349.768 C 316.473 349.768 316.781 349.563 317.115 349.461 C 317.652 349.334 318.184 349.18 318.706 348.999 C 319.11 348.832 319.504 348.643 319.887 348.434 C 320.336 348.247 320.773 348.033 321.196 347.793 C 321.607 347.562 321.966 347.279 322.351 347.023 L 323.506 346.227 C 323.891 345.893 324.226 345.559 324.586 345.2 C 324.945 344.84 325.176 344.686 325.432 344.404 C 325.432 344.404 325.689 344.122 325.432 344.404 L 326.331 343.223 C 326.587 342.889 326.896 342.529 327.126 342.17 L 327.64 341.247 C 327.922 340.733 328.205 340.245 328.436 339.732 C 328.667 339.218 328.59 339.269 328.692 339.038 C 328.923 338.397 329.18 337.755 329.36 337.113 C 329.36 336.882 329.36 336.651 329.488 336.42 C 329.646 335.733 329.766 335.039 329.848 334.34 L 361.218 0 L 392.562 334.213 C 392.66 335.138 392.823 336.056 393.049 336.959 C 393.049 336.959 393.049 337.138 393.049 337.216 C 393.262 338.023 393.537 338.813 393.871 339.578 L 394.025 339.963 C 394.359 340.713 394.754 341.434 395.206 342.118 L 395.36 342.35 C 395.794 343.025 396.274 343.668 396.798 344.275 L 396.952 344.455 L 396.952 344.583 L 397.825 345.379 C 398.184 345.738 398.518 346.073 398.903 346.406 C 399.288 346.74 399.673 346.945 400.058 347.202 C 400.443 347.458 400.802 347.741 401.187 347.972 C 401.619 348.211 402.065 348.426 402.522 348.613 C 402.903 348.828 403.298 349.016 403.704 349.178 C 404.217 349.359 404.739 349.514 405.269 349.641 C 405.603 349.641 405.911 349.872 406.271 349.948 C 406.835 349.948 407.426 350.103 407.99 350.18 L 409.043 350.18 C 409.556 350.18 410.07 350.18 410.584 350.18 C 410.994 350.206 411.405 350.206 411.815 350.18 C 412.252 350.18 412.663 350.026 413.074 349.948 C 413.484 349.872 414.074 349.795 414.563 349.667 L 415.564 349.307 C 416.103 349.127 416.668 348.948 417.181 348.717 L 722.384 208.731 L 448.551 403.062 L 448.063 403.447 C 447.575 403.832 447.088 404.243 446.626 404.68 L 446.035 405.296 C 445.65 405.706 445.264 406.168 444.905 406.631 L 444.418 407.246 C 443.941 407.926 443.513 408.638 443.134 409.377 L 443.134 409.531 C 442.782 410.253 442.482 411 442.235 411.765 C 442.226 411.85 442.226 411.936 442.235 412.021 C 442.235 412.175 442.235 412.33 442.235 412.458 C 442.081 413.048 441.928 413.639 441.825 414.255 C 441.813 414.486 441.813 414.717 441.825 414.948 C 441.708 415.799 441.648 416.656 441.645 417.515 C 441.653 418.322 441.714 419.128 441.825 419.928 C 441.825 420.159 441.825 420.39 441.825 420.647 C 441.825 420.904 442.081 421.827 442.235 422.418 C 442.235 422.572 442.235 422.701 442.235 422.855 C 442.226 422.949 442.226 423.043 442.235 423.137 C 442.482 423.901 442.782 424.648 443.134 425.371 C 443.506 426.119 443.944 426.831 444.443 427.501 C 444.574 427.716 444.719 427.922 444.879 428.117 C 445.264 428.579 445.65 429.041 446.061 429.477 L 446.626 430.068 C 447.088 430.505 447.575 430.915 448.063 431.3 L 448.551 431.686 L 722.41 626.041 L 417.181 486.031 C 416.657 485.796 416.116 485.599 415.564 485.44 C 415.239 485.298 414.904 485.178 414.563 485.081 C 414.064 484.952 413.558 484.849 413.048 484.773 C 412.637 484.773 412.252 484.594 411.841 484.568 C 411.43 484.542 410.994 484.568 410.584 484.568 C 410.173 484.568 409.556 484.568 409.043 484.568 C 408.689 484.587 408.338 484.629 407.99 484.696 C 407.413 484.735 406.839 484.813 406.271 484.927 C 405.911 484.927 405.603 485.132 405.269 485.235 C 404.935 485.338 404.217 485.518 403.704 485.724 C 403.19 485.929 402.907 486.083 402.522 486.262 L 401.187 486.904 C 400.802 487.135 400.417 487.418 400.058 487.674 C 399.699 487.931 399.262 488.187 398.903 488.495 C 398.544 488.804 398.184 489.163 397.825 489.497 C 397.465 489.83 397.234 490.01 396.952 490.318 L 396.798 490.498 C 396.274 491.096 395.794 491.731 395.36 492.398 L 395.206 492.629 C 394.768 493.331 394.374 494.059 394.025 494.81 L 393.871 495.196 C 393.548 495.956 393.274 496.736 393.049 497.532 C 393.049 497.532 393.049 497.712 393.049 497.814 C 392.819 498.707 392.664 499.617 392.588 500.535 L 361.218 834.77 L 329.848 500.433 C 329.848 499.765 329.642 499.124 329.514 498.482 C 329.448 498.211 329.396 497.937 329.36 497.66 C 329.18 497.069 328.949 496.479 328.744 495.889 C 328.538 495.299 328.564 495.324 328.436 495.042 C 328.307 494.759 327.948 494.117 327.691 493.629 C 327.435 493.142 327.332 492.937 327.126 492.603 C 326.921 492.269 326.587 491.909 326.331 491.576 C 326.043 491.166 325.735 490.773 325.407 490.395 L 325.407 490.267 C 325.15 489.984 324.842 489.754 324.56 489.471 C 324.277 489.189 323.841 488.778 323.456 488.469 C 323.096 488.173 322.719 487.899 322.326 487.649 C 321.941 487.392 321.581 487.109 321.171 486.879 C 320.76 486.647 320.298 486.442 319.861 486.237 L 318.681 485.698 C 318.159 485.508 317.627 485.344 317.089 485.209 C 316.755 485.209 316.447 484.979 316.114 484.902 C 315.546 484.785 314.971 484.708 314.394 484.67 C 314.035 484.67 313.701 484.542 313.341 484.516 C 312.981 484.49 312.315 484.516 311.801 484.516 C 311.287 484.516 310.98 484.516 310.569 484.516 C 310.154 484.559 309.743 484.629 309.336 484.722 C 308.849 484.722 308.336 484.876 307.847 485.03 C 307.496 485.123 307.152 485.243 306.821 485.389 C 306.281 485.569 305.742 485.723 305.203 485.954 L 0 625.939 Z" fill="rgb(255, 238, 168)" height="834.769750061665px" id="M08bRYsMn" stroke-dasharray="" stroke-linecap="butt" stroke-linejoin="miter" stroke-miterlimit="10" stroke-width="1" stroke="var(--token-99f9e771-2fec-4300-a67b-b3ef1835a154, rgb(0, 0, 0))" transform="translate(55.735 0)" width="722.4097856590229px"/><path d="M 431.712 449.244 C 431.33 448.724 430.918 448.226 430.479 447.755 C 430.299 447.55 430.12 447.319 429.914 447.113 C 429.709 446.908 428.99 446.292 428.528 445.906 C 428.066 445.521 428.066 445.471 427.809 445.291 C 427.383 444.987 426.937 444.712 426.474 444.469 C 426.141 444.264 425.807 444.007 425.447 443.827 C 425.087 443.647 424.677 443.52 424.292 443.34 L 422.855 442.749 L 421.725 442.493 C 421.237 442.493 420.75 442.236 420.262 442.159 C 419.774 442.082 419.338 442.159 418.876 442.031 C 418.413 441.902 417.952 442.031 417.463 442.031 C 416.976 442.031 416.539 442.031 416.078 442.031 C 415.615 442.031 415.153 442.031 414.691 442.159 C 414.229 442.287 413.716 442.391 413.228 442.493 L 412.098 442.749 L 411.97 442.749 L 410.558 443.34 C 410.173 443.52 409.762 443.647 409.403 443.827 C 409.043 444.007 408.684 444.264 408.324 444.495 C 407.882 444.736 407.453 445.001 407.041 445.291 C 406.758 445.496 406.528 445.727 406.271 445.932 C 406.014 446.138 405.347 446.677 404.936 447.087 L 404.345 447.781 C 403.909 448.268 403.498 448.731 403.113 449.244 L 208.758 723.104 L 348.768 417.874 L 348.768 417.746 C 348.999 417.232 349.153 416.693 349.358 416.129 C 349.564 415.564 349.615 415.461 349.692 415.127 C 349.769 414.793 349.897 414.126 350 413.638 C 350.103 413.151 350.18 412.817 350.231 412.406 C 350.283 411.995 350.231 411.585 350.231 411.174 C 350.231 410.763 350.231 410.147 350.231 409.634 C 350.231 409.121 350.231 408.915 350.077 408.581 C 350.038 407.995 349.96 407.412 349.846 406.836 C 349.846 406.502 349.641 406.168 349.538 405.835 C 349.435 405.501 349.256 404.782 349.05 404.268 C 348.845 403.755 348.69 403.472 348.511 403.087 C 348.331 402.702 348.1 402.189 347.869 401.752 C 347.638 401.317 347.356 401.008 347.099 400.623 C 346.843 400.238 346.586 399.853 346.278 399.468 C 345.969 399.083 345.61 398.749 345.276 398.39 C 344.943 398.03 344.764 397.8 344.481 397.517 L 344.353 397.517 C 343.993 397.183 343.583 396.927 343.197 396.618 C 342.812 396.311 342.504 396.053 342.144 395.822 C 341.785 395.592 341.503 395.489 341.195 395.309 C 340.712 395.003 340.205 394.737 339.68 394.513 L 339.013 394.257 C 338.376 393.997 337.725 393.773 337.062 393.589 L 336.395 393.461 C 335.71 393.292 335.015 393.171 334.315 393.101 L 0 361.731 L 334.213 330.361 C 335.131 330.284 336.041 330.13 336.933 329.899 L 337.216 329.899 C 338.012 329.669 338.781 329.386 339.552 329.078 L 339.937 328.899 C 340.69 328.564 341.419 328.178 342.119 327.743 L 342.35 327.589 C 343.015 327.154 343.649 326.673 344.249 326.151 L 344.429 325.997 L 344.583 325.997 C 344.865 325.715 345.097 325.407 345.379 325.124 C 345.661 324.842 346.073 324.431 346.38 324.046 C 346.689 323.661 346.944 323.276 347.202 322.891 C 347.459 322.506 347.741 322.147 347.972 321.762 C 348.203 321.377 348.409 320.864 348.614 320.427 C 348.819 319.99 348.999 319.657 349.153 319.246 C 349.307 318.835 349.487 318.194 349.641 317.679 C 349.794 317.166 349.872 317.013 349.949 316.679 C 350.064 316.103 350.141 315.519 350.179 314.933 C 350.179 314.599 350.309 314.24 350.334 313.88 C 350.359 313.521 350.334 312.854 350.334 312.34 C 350.334 311.827 350.334 311.519 350.334 311.108 C 350.334 310.697 350.154 310.286 350.103 309.876 C 350.051 309.465 349.949 308.874 349.794 308.387 C 349.64 307.899 349.564 307.719 349.461 307.385 C 349.359 307.052 349.102 306.282 348.87 305.743 L 208.886 0.513 L 403.216 274.372 C 403.216 274.526 403.473 274.681 403.602 274.835 C 403.984 275.345 404.396 275.834 404.833 276.298 L 405.424 276.863 C 405.86 277.274 406.323 277.659 406.785 278.018 L 407.401 278.48 C 408.077 278.97 408.788 279.408 409.531 279.79 L 409.659 279.79 C 410.383 280.145 411.129 280.455 411.893 280.714 L 412.175 280.841 L 412.612 280.841 C 413.193 281.023 413.784 281.17 414.383 281.279 L 415.103 281.407 C 415.902 281.518 416.708 281.577 417.515 281.586 C 418.331 281.577 419.145 281.518 419.953 281.407 L 420.647 281.279 C 421.255 281.172 421.855 281.026 422.443 280.841 L 422.88 280.841 L 423.137 280.714 C 423.911 280.459 424.666 280.15 425.397 279.79 C 426.136 279.402 426.847 278.965 427.527 278.48 L 428.142 278.018 C 428.605 277.659 429.067 277.274 429.503 276.863 L 430.093 276.298 C 430.532 275.834 430.943 275.345 431.326 274.835 L 431.712 274.372 L 625.99 0 L 486.006 305.229 C 485.774 305.768 485.595 306.308 485.415 306.847 C 485.236 307.386 485.159 307.539 485.056 307.874 C 484.953 308.207 484.876 308.874 484.773 309.363 C 484.671 309.85 484.593 310.184 484.542 310.594 C 484.491 311.005 484.542 311.442 484.542 311.853 C 484.516 312.357 484.516 312.863 484.542 313.367 C 484.542 313.727 484.542 314.086 484.671 314.419 C 484.799 314.754 484.671 315.574 484.901 316.139 C 484.901 316.473 485.106 316.807 485.21 317.141 C 485.312 317.474 485.492 318.193 485.672 318.706 C 485.851 319.219 486.057 319.503 486.236 319.888 C 486.425 320.336 486.639 320.774 486.878 321.197 C 487.11 321.608 487.392 321.967 487.649 322.352 L 488.444 323.507 C 488.778 323.892 489.137 324.226 489.471 324.585 C 489.805 324.944 489.984 325.176 490.266 325.433 L 490.421 325.433 L 490.601 325.587 C 491.201 326.109 491.836 326.589 492.501 327.024 L 492.731 327.178 C 493.431 327.614 494.16 327.999 494.913 328.333 L 495.273 328.513 C 496.042 328.828 496.831 329.094 497.635 329.309 L 497.891 329.309 C 498.792 329.539 499.711 329.694 500.638 329.771 L 834.854 361.141 L 500.535 392.511 C 499.879 392.582 499.227 392.694 498.585 392.845 C 498.308 392.882 498.034 392.932 497.763 392.999 C 497.161 393.17 496.57 393.376 495.991 393.615 C 495.71 393.615 495.427 393.794 495.145 393.922 C 494.661 394.146 494.19 394.394 493.732 394.667 L 492.706 395.232 C 492.346 395.463 492.012 395.746 491.653 396.028 C 491.293 396.311 490.857 396.593 490.472 396.927 C 490.087 397.261 490.472 396.927 490.472 396.927 C 490.472 396.927 489.933 397.491 489.676 397.773 C 489.42 398.056 488.983 398.467 488.65 398.852 L 487.854 400.007 C 487.597 400.392 487.315 400.752 487.083 401.162 C 486.844 401.586 486.63 402.022 486.441 402.472 C 486.227 402.852 486.039 403.247 485.877 403.652 C 485.697 404.166 485.543 404.705 485.415 405.218 C 485.286 405.732 485.184 405.886 485.107 406.219 C 485.117 406.262 485.117 406.306 485.107 406.348 C 485.107 406.912 484.953 407.477 484.876 408.067 C 484.799 408.658 484.876 408.762 484.747 409.121 C 484.722 409.625 484.722 410.13 484.747 410.635 C 484.721 411.054 484.721 411.474 484.747 411.892 C 484.747 412.303 484.901 412.714 484.979 413.125 C 485.056 413.536 485.132 414.127 485.261 414.614 C 485.389 415.102 485.518 415.281 485.621 415.641 C 485.723 416 485.98 416.719 486.211 417.258 L 626.196 722.461 Z" fill="var(--token-6ddd531c-2f8c-48cc-80b2-71d390ab4861, rgb(255, 204, 0))" height="723.1036162253242px" id="oJhoV084A" stroke-dasharray="" stroke-linecap="butt" stroke-linejoin="miter" stroke-miterlimit="10" stroke-width="1" stroke="var(--token-99f9e771-2fec-4300-a67b-b3ef1835a154, rgb(0, 0, 0))" transform="translate(0 55.473)" width="834.854190089914px"/></g></svg>