<svg display="block" role="presentation" viewBox="0 0 425 425" xmlns="http://www.w3.org/2000/svg"><g d="M 425.002 212.506 C 425.002 215.932 424.913 219.356 424.751 222.739 C 424.476 228.689 423.952 234.576 423.183 240.399 C 422.682 244.231 422.082 248.033 421.37 251.807 L 421.37 251.824 C 402.923 350.398 316.438 424.997 212.508 424.997 C 95.137 424.997 0 329.862 0 212.506 C 0 167.007 14.297 124.855 38.65 90.275 C 49.061 75.5 61.301 62.103 75.08 50.405 C 75.331 50.187 75.601 49.954 75.861 49.752 C 77.154 48.665 78.446 47.591 79.768 46.531 C 84.804 42.509 90.018 38.716 95.413 35.152 C 102.6 30.385 110.074 26.066 117.791 22.219 C 121.246 20.493 124.752 18.868 128.309 17.343 C 154.898 5.864 183.558 -0.038 212.518 0 L 212.691 0 C 219.812 -0.002 226.928 0.356 234.013 1.075 C 251.331 2.808 268.37 6.677 284.738 12.595 C 319.074 25.038 349.632 46.103 373.477 73.766 C 376.294 77.022 378.987 80.355 381.591 83.783 C 382.812 85.366 384.002 86.972 385.163 88.601 C 409.012 121.744 422.754 161.082 424.731 201.865 C 424.803 203.475 424.873 205.089 424.903 206.714 C 424.969 208.654 425.002 210.584 425.002 212.506 Z M 220.797 315.435 C 212.802 318.325 209.528 315.813 206.225 324.884 C 204.427 329.847 202.719 333.797 198.359 336.975 C 193.308 340.674 190.094 345.913 186.778 351.095 C 185.296 353.418 176.894 366.581 175.342 368.467 C 173.643 370.543 170.393 370.22 168.738 372.329 C 164.428 377.838 174.368 378.59 177.273 379.395 C 180.996 380.46 178.875 383.653 176.426 384.76 C 176.077 384.914 175.787 385.177 175.6 385.509 C 175.414 385.843 175.342 386.228 175.394 386.606 C 175.697 388.569 176.273 390.52 175.602 392.444 C 174.5 395.609 171.074 396.072 170.843 399.586 C 170.683 402.14 172.744 409.173 173.832 412.661 C 173.913 412.928 173.931 413.209 173.882 413.484 C 173.833 413.759 173.72 414.018 173.551 414.239 C 173.382 414.462 173.163 414.64 172.911 414.76 C 172.659 414.88 172.383 414.939 172.103 414.93 C 171.733 414.923 171.366 414.853 171.019 414.722 C 168.144 413.488 166.083 409.889 164.508 407.364 C 160.399 400.803 157.554 393.56 155.029 386.275 C 151.69 376.624 151.254 366.741 150.356 356.681 C 149.564 348.067 149.754 339.39 150.922 330.819 C 151.809 324.13 153.519 313.143 148.034 307.831 C 145.204 305.117 140.807 304.696 138.643 301.183 C 135.059 295.393 136.452 288.16 131.052 283.187 C 127.932 280.312 128.149 277.677 129.457 273.841 C 130.053 272.07 130.662 270.314 130.749 268.441 C 130.807 267.046 130.486 265.581 130.834 264.219 C 131.691 260.893 135.695 260.154 138.207 258.514 C 139.978 257.367 140.676 255.088 140.879 253.087 C 141.052 251.459 141.328 248.354 139.702 247.327 C 139.463 247.176 139.189 247.089 138.906 247.077 C 137.063 246.932 135.117 247.119 133.259 247.107 C 131.939 247.107 130.429 247.324 129.136 247.107 C 119.805 245.554 120.765 235.206 110.371 233.608 C 102.055 232.331 96.525 230.908 88.501 228.312 C 85.03 227.194 73.943 219.208 73.202 213.867 C 71.91 204.709 72.042 176.572 56.571 177.892 C 52.796 178.209 55.381 188.282 59.168 198.763 C 63.828 211.635 56.296 213.376 53.826 203.115 C 51.956 195.352 51.665 189.474 48.747 181.911 C 45.626 173.842 47.863 166.325 47.6 157.98 C 47.325 149.715 47.716 141.464 47.5 133.25 C 47.297 125.453 42.897 118.922 42.158 111.189 C 41.407 103.292 41.752 96.558 38.652 90.275 C 49.604 71.432 78.449 47.591 79.77 46.532 C 80.119 47.197 80.41 47.852 80.685 48.315 C 82.891 52.001 105.343 56.241 110.336 57.581 C 115.996 59.103 118.52 63.558 125.197 63.022 C 131.059 62.557 135.733 57.929 141.61 60.268 C 147.606 62.647 145.908 65.885 153.178 63.897 C 158.608 62.429 159.264 62.599 160.669 65.595 C 162.104 71.355 158.853 73.649 155.109 76.654 C 150.814 80.092 147.881 80.934 142.838 82.123 C 136.219 83.706 136.684 83.897 133.056 89.786 C 131.605 92.138 130.138 94.545 128.991 97.049 C 127.571 100.17 126.164 104.77 127.832 108.068 C 128.791 109.954 130.719 111.101 132.504 112.076 C 134.245 113.032 136.684 113.265 137.847 115.066 C 138.761 116.488 138.019 118.098 137.832 119.636 C 137.681 121.126 137.646 122.626 137.729 124.121 C 137.804 126.458 138.179 129.52 140.269 130.97 C 147.28 135.776 145.61 125.601 147.781 122.956 C 150.609 119.531 154.022 123.437 157.315 120.452 C 159.819 118.198 158.695 109.859 159.129 106.578 C 159.913 100.568 165.369 84.926 171.102 97.086 C 173.093 101.344 170.115 105.056 175.342 107.726 C 179.013 109.611 184.543 105.972 187.938 108.785 C 191.945 112.081 188.259 114.923 188.287 118.711 C 188.317 123.603 188.432 122.398 192.043 125.809 C 193.596 127.289 195.033 129.132 196.28 130.86 C 198.066 133.312 200.388 137.537 197.718 140.206 C 195.832 142.107 192.857 141.905 190.475 141.396 C 186.383 140.555 183.133 138.42 179.456 136.548 C 176.523 135.045 171.943 133.066 169.266 136.127 C 167.453 138.218 168.134 141.411 170.153 143.094 C 173.158 145.598 177.059 144.531 180.588 144.429 C 184.012 144.341 187.946 144.707 190.413 147.361 C 192.749 149.865 192.547 154.08 190.325 156.68 C 189.196 157.997 187.684 158.93 186 159.35 C 180.007 160.715 174.578 155.824 168.6 156.505 C 166.203 156.755 165.479 159.031 165.232 161.105 C 164.981 163.269 164.099 164.386 161.793 163.993 C 159.819 163.645 157.699 163.094 155.683 163.587 C 152.895 164.285 151.779 167.128 151.067 169.64 C 149.266 175.954 149.121 182.106 142.803 186.244 C 136.835 190.148 134.355 187.679 134.994 196.474 C 135.212 199.509 136.417 212.848 129.735 205.619 C 125.655 201.222 132.955 192.584 122.974 192.324 C 116.37 192.136 118.01 198.144 111.509 196.952 C 105.776 195.88 101.551 190.481 97.271 199.219 C 96.182 201.44 96.69 204.689 95.789 207.143 C 94.787 209.842 91.8 211.845 92.177 215.036 C 92.393 216.789 92.929 219.043 94.018 220.48 C 98.04 225.777 107.401 218.549 111.118 216.271 C 112.67 215.314 115.007 212.89 116.993 213.586 C 120.304 214.748 117.008 219.161 115.703 220.641 C 113.321 223.323 108.824 226.401 112.568 230.029 C 113.76 231.192 115.398 231.783 117.023 231.933 C 120.043 232.183 123.061 231.467 126.094 231.683 C 127.807 231.798 130.869 232.378 129.562 234.615 C 128.154 237.037 122.613 239.722 126.254 242.989 C 128.954 245.396 130.043 241.653 132.568 241.843 C 133.295 241.913 134.009 242.088 134.686 242.363 C 135.718 242.757 136.487 243.568 137.661 243.453 C 138.133 243.387 138.584 243.218 138.983 242.958 C 139.381 242.698 139.719 242.354 139.97 241.95 C 140.594 241.036 140.797 239.877 141.405 238.945 C 142.339 237.57 143.602 236.45 145.079 235.689 C 147.21 234.558 149.664 234.47 152.016 234.438 C 152.669 234.438 153.917 234.104 154.425 234.655 C 155.019 235.293 154.25 237.077 153.989 237.745 C 153.626 238.689 153.003 239.531 152.669 240.488 C 152.379 241.344 152.146 242.391 152.828 243.13 C 153.596 243.971 154.774 243.631 155.527 242.969 C 156.097 242.427 156.559 241.782 156.892 241.068 C 157.644 239.661 157.761 237.745 159.607 237.34 C 162.304 236.743 163.638 241.417 165.018 242.824 C 166.411 244.277 168.212 245.351 169.909 246.41 C 174.032 249.008 178.925 250.212 183.611 251.359 C 192.639 253.58 192.203 257.252 197.635 263.811 C 205.431 273.202 233.252 265.538 233.122 283.274 C 233.077 289.079 226.923 293.217 226.342 299.457 C 225.674 306.921 229.287 312.37 220.797 315.435 Z M 425.001 212.506 C 425.001 215.932 424.912 219.356 424.75 222.739 C 424.62 222.809 424.474 222.882 424.344 222.969 C 420.876 225.088 418.597 228.702 414.635 230.197 C 397.555 236.578 398.224 207.926 384.082 202.749 C 383.792 202.647 383.481 202.623 383.178 202.679 C 382.876 202.734 382.594 202.869 382.36 203.068 C 382.126 203.268 381.949 203.524 381.846 203.814 C 381.743 204.104 381.718 204.415 381.773 204.718 C 382.712 209.628 386.762 213.118 389.233 217.543 C 392.356 223.129 395.562 228.632 398.392 234.362 C 401.57 240.778 403.268 243.608 410.831 242.376 C 413.733 241.895 419.814 238.659 423.18 240.399 C 422.679 244.231 422.078 248.033 421.367 251.807 L 421.367 251.824 C 415.562 257.772 405.141 263.332 401.833 265.451 C 397.726 268.107 391.936 270.138 391.53 275.756 C 391.109 281.443 396.942 285.522 396.929 291.603 C 396.899 300.398 390.992 297.511 387.495 303.591 C 383.999 309.672 384.099 323.779 380.834 327.453 C 378.758 329.76 375.217 331.357 373.619 333.896 C 372.066 336.363 373.604 339.12 371.313 341.41 C 368.219 344.5 365.84 342.209 362.429 342.932 C 353.184 344.893 353.954 347.345 349.454 339.536 C 347.424 336.01 332.563 301.032 337.872 288.26 C 341.661 279.177 340.892 280.584 336.161 271.962 C 333.199 266.577 335.66 261.353 329.485 257.687 C 324.225 254.567 316.77 256.092 311.008 257.297 C 303.432 258.864 298.366 259.575 290.56 256.092 C 284.404 253.337 282.316 247.197 277.976 242.593 C 270.996 235.193 276.002 233.858 278.511 225.496 C 279.513 222.158 278.775 218.008 279.979 214.873 C 280.981 212.233 283.551 210.953 284.61 208.472 C 285.784 205.717 285.031 202.712 286.22 199.894 C 287.236 197.53 296.292 189.376 299.949 187.734 C 303.011 186.369 308.213 186.922 311.646 186.093 C 315.856 185.064 322.8 184.695 325.265 184.388 C 333.53 183.359 341.205 192.069 350.964 194.069 C 351.654 194.209 352.369 194.107 352.994 193.782 C 353.617 193.457 354.11 192.929 354.39 192.284 C 357.103 186.023 362.715 191.688 369.367 191.928 C 373.509 192.081 378.673 191.738 383.421 191.349 C 383.943 191.309 384.451 191.161 384.912 190.914 C 385.373 190.666 385.778 190.324 386.099 189.912 C 386.421 189.499 386.653 189.023 386.78 188.514 C 386.907 188.007 386.926 187.478 386.837 186.962 C 386.623 185.755 386.491 184.525 386.316 183.31 C 386.234 182.732 386.029 182.178 385.714 181.685 C 385.398 181.194 384.981 180.775 384.489 180.459 C 383.998 180.144 383.443 179.938 382.865 179.856 C 382.286 179.774 381.697 179.818 381.137 179.984 C 378.618 180.736 376.424 181.934 373.301 180.824 C 370.634 179.867 368.628 177.535 366.694 175.482 C 366.567 175.348 366.412 175.244 366.239 175.177 C 366.067 175.11 365.882 175.083 365.698 175.096 C 365.514 175.109 365.334 175.163 365.174 175.254 C 365.012 175.344 364.873 175.469 364.766 175.619 L 364.714 175.693 C 364.292 176.297 363.692 176.755 362.997 177.003 C 362.303 177.249 361.549 177.274 360.839 177.072 C 354.328 175.161 357.796 169.794 354.954 164.032 C 353.171 160.419 346.439 156.717 342.663 155.385 C 336.612 153.234 334.225 155.065 339.074 161.623 C 341.944 165.504 343.832 166.154 345.77 169.719 C 345.904 169.962 345.954 170.241 345.911 170.514 C 345.869 170.788 345.738 171.039 345.538 171.23 C 345.337 171.42 345.079 171.539 344.804 171.569 C 344.529 171.598 344.253 171.534 344.018 171.39 C 339.217 168.419 334.349 161.16 327.519 159.535 C 320.827 157.937 316.603 167.849 313.627 172.234 C 309 179.041 303.061 180.984 295.226 178.244 C 290.217 176.491 280.786 174.064 285.126 166.577 C 288.97 159.913 293.31 159.537 303.585 149.622 C 306.182 147.118 310.289 143.847 313.397 141.48 C 315.951 139.55 320.77 137.316 323.83 136.692 C 328.751 135.69 331.343 137.258 335.76 134.456 C 337.707 133.224 338.17 131.148 340.506 130.089 C 342.467 129.205 345.107 130.54 347.344 129.362 C 351.669 127.07 351.19 123.064 354.048 119.611 C 356.864 116.2 361.393 116.315 363.844 112.746 C 359.477 110.567 351.595 108.073 348.969 104.414 C 349.868 100.657 356.893 86.606 350.972 84.777 C 342.219 82.078 343.279 99.768 342.77 103.325 C 342.032 108.436 340.479 120.001 335.11 121.829 C 331.218 123.151 328.709 120.059 325.428 118.999 C 322.205 117.955 318.636 118.696 315.631 117.747 C 305.24 114.409 313.31 107.311 318.926 103.683 C 327.795 97.951 329.593 92.844 334.571 84.787 C 336.733 81.282 344.035 71.915 347.519 69.854 C 354.368 65.79 362.843 72.624 369.592 73.468 C 370.391 73.568 371.799 73.641 373.466 73.758 C 376.284 77.014 378.976 80.347 381.58 83.776 C 377.183 85.749 375.412 99.511 381.856 93.776 C 383.641 92.193 383.874 90.352 385.151 88.594 C 409.001 121.736 422.743 161.075 424.72 201.858 C 422.413 200.29 420.806 197.69 418.389 196.24 C 416.498 195.106 414.427 197.405 415.757 199.163 C 417.493 201.464 419.185 203.896 421.252 205.284 C 422.717 206.27 423.833 206.619 424.892 206.706 C 424.964 208.651 425.001 210.584 425.001 212.506 Z M 68.49 83.65 L 350.535 248.177 M 212.497 38.21 L 212.497 379.8 M 284.351 18.037 C 283.32 20.14 280.49 19.79 279.531 21.49 C 278.296 23.667 277.106 33.624 277.236 35.555 C 277.557 40.763 280.532 43.231 278.196 48.577 C 277.445 50.26 275.163 50.972 274.482 52.857 C 273.843 54.61 273.481 64.687 271.274 67.733 C 269.271 70.507 261.084 71.319 257.936 71.782 C 253.247 82.669 237.37 81.262 231.665 92.581 C 229.489 96.921 232.292 107.587 226.862 109.648 C 221.232 111.796 219.259 104.321 217.516 100.971 C 215.179 96.486 211.217 91.942 211.608 86.588 C 211.928 82.146 215.485 77.545 216.95 73.315 C 218.372 69.208 222.043 63.14 222.209 58.917 C 222.397 54.159 218.783 47.813 217.782 43.025 C 214.893 29.309 208.986 19.484 213.442 16.639 C 215.946 15.014 217.636 10.296 220.203 8.124 C 222.77 5.953 224.876 5.179 227.823 3.727 C 229.836 2.727 231.899 1.836 234.007 1.058 C 251.326 2.79 268.364 6.659 284.732 12.578 C 284.857 14.551 284.988 16.714 284.351 18.037 Z M 139.924 41.781 C 139.155 47.352 139.692 50.431 132.842 51.047 C 133.133 52.237 94.614 52.86 95.412 35.154 C 102.6 30.388 110.073 26.069 117.791 22.222 C 121.245 25.242 121.523 30.669 125.305 34.937 C 129.892 40.09 129.426 36.577 134.738 35.154 C 136.829 34.588 139.919 32.845 141.778 35.327 C 144.239 38.658 140.305 39.123 139.924 41.781 Z M 175.968 68.829 C 180.09 74.367 178.337 77.617 173.694 78.812 C 170.576 79.613 170.356 83.923 173.378 85.032 C 174.48 85.438 175.583 85.944 176.514 86.848 C 179.467 89.718 178.179 95.112 182.795 96.171 C 198.092 99.66 176.604 76.082 189.348 78.642 C 193.698 79.51 193.508 87.048 198.908 85.743 C 203.631 84.599 203.743 78.075 201.868 74.84 C 199.614 70.948 192.016 70.65 190.932 66.275 C 189.679 61.226 195.424 61.447 191.565 57.114 C 189.993 55.361 186.353 56.21 184.553 53.788 C 181.047 49.09 184.898 49.03 179.221 46.095 C 176.076 44.472 149.82 43.628 156.264 53.215 C 158.608 56.698 164.29 57.082 167.561 59.496 C 170.832 61.91 173.566 65.608 175.968 68.829 Z M 212.684 0.01 C 206.646 1.764 200.413 3.085 198.925 4.35 C 194.73 7.891 194.585 12.752 189.491 15.96 C 184.673 18.993 182.191 34.625 172.133 32.592 C 168.404 31.84 164.906 32.128 161.132 31.59 C 157.896 31.124 153.832 27.28 150.539 26.118 C 146.517 24.695 142.482 24.42 138.287 23.839 C 133.441 23.17 126.88 22.126 128.303 17.365 C 154.891 5.887 183.551 -0.016 212.511 0.023 Z M 328.617 116.753 C 330.856 116.753 332.671 114.938 332.671 112.699 C 332.671 110.46 330.856 108.644 328.617 108.644 C 326.378 108.644 324.563 110.46 324.563 112.699 C 324.563 114.938 326.378 116.753 328.617 116.753 Z M 358.739 227.713 L 358.739 83.042 L 212.645 36.558 L 66.551 83.042 L 66.551 227.713 C 66.549 239.118 69.025 250.388 73.806 260.742 C 78.588 271.095 85.561 280.287 94.245 287.678 L 212.645 388.46 L 331.045 287.666 C 339.727 280.276 346.7 271.087 351.482 260.735 C 356.264 250.383 358.74 239.116 358.739 227.713 Z M 358.694 87.514 C 360.933 87.514 362.748 85.699 362.748 83.46 C 362.748 81.221 360.933 79.405 358.694 79.405 C 356.454 79.405 354.639 81.221 354.639 83.46 C 354.639 85.699 356.454 87.514 358.694 87.514 Z M 166.331 352.808 C 168.57 352.808 170.385 350.993 170.385 348.754 C 170.385 346.515 168.57 344.7 166.331 344.7 C 164.092 344.7 162.276 346.515 162.276 348.754 C 162.276 350.993 164.092 352.808 166.331 352.808 Z M 66.504 87.514 C 68.743 87.514 70.558 85.699 70.558 83.46 C 70.558 81.221 68.743 79.405 66.504 79.405 C 64.265 79.405 62.449 81.221 62.449 83.46 C 62.449 85.699 64.265 87.514 66.504 87.514 Z M 355.046 255.717 C 357.285 255.717 359.101 253.902 359.101 251.663 C 359.101 249.423 357.285 247.608 355.046 247.608 C 352.807 247.608 350.991 249.423 350.991 251.663 C 350.991 253.902 352.807 255.717 355.046 255.717 Z M 212.827 392.466 C 215.066 392.466 216.881 390.651 216.881 388.412 C 216.881 386.173 215.066 384.358 212.827 384.358 C 210.588 384.358 208.772 386.173 208.772 388.412 C 208.772 390.651 210.588 392.466 212.827 392.466 Z M 211.998 40.564 C 214.237 40.564 216.052 38.749 216.052 36.51 C 216.052 34.271 214.237 32.455 211.998 32.455 C 209.759 32.455 207.943 34.271 207.943 36.51 C 207.943 38.749 209.759 40.564 211.998 40.564 Z M 211.998 173.211 C 214.237 173.211 216.052 171.396 216.052 169.157 C 216.052 166.918 214.237 165.102 211.998 165.102 C 209.759 165.102 207.943 166.918 207.943 169.157 C 207.943 171.396 209.759 173.211 211.998 173.211 Z" fill="transparent" height="424.996823946106px" id="J3pBSsCXp" width="425.0016384047858px"><path d="M 425.002 212.506 C 425.002 215.932 424.913 219.356 424.751 222.739 C 424.476 228.689 423.952 234.576 423.183 240.399 C 422.682 244.231 422.082 248.033 421.37 251.807 L 421.37 251.824 C 402.923 350.398 316.438 424.997 212.508 424.997 C 95.137 424.997 0 329.862 0 212.506 C 0 167.007 14.297 124.855 38.65 90.275 C 49.061 75.5 61.301 62.103 75.08 50.405 C 75.331 50.187 75.601 49.954 75.861 49.752 C 77.154 48.665 78.446 47.591 79.768 46.531 C 84.804 42.509 90.018 38.716 95.413 35.152 C 102.6 30.385 110.074 26.066 117.791 22.219 C 121.246 20.493 124.752 18.868 128.309 17.343 C 154.898 5.864 183.558 -0.038 212.518 0 L 212.691 0 C 219.812 -0.002 226.928 0.356 234.013 1.075 C 251.331 2.808 268.37 6.677 284.738 12.595 C 319.074 25.038 349.632 46.103 373.477 73.766 C 376.294 77.022 378.987 80.355 381.591 83.783 C 382.812 85.366 384.002 86.972 385.163 88.601 C 409.012 121.744 422.754 161.082 424.731 201.865 C 424.803 203.475 424.873 205.089 424.903 206.714 C 424.969 208.654 425.002 210.584 425.002 212.506 Z" fill="var(--token-823c0352-1769-4f91-b1be-d7ce588338b9, rgb(2, 226, 172))" height="424.99682394610613px" id="AyeN8A65M" stroke-dasharray="" stroke-linecap="butt" stroke-linejoin="miter" stroke-miterlimit="10" stroke-width="0.83" stroke="var(--token-99f9e771-2fec-4300-a67b-b3ef1835a154, rgb(0, 0, 0))" transform="translate(0 0)" width="425.00163840478575px"/><path d="M 182.145 268.903 C 174.149 271.793 170.876 269.281 167.573 278.352 C 165.774 283.316 164.067 287.266 159.707 290.443 C 154.655 294.142 151.442 299.381 148.126 304.563 C 146.644 306.886 138.242 320.05 136.689 321.935 C 134.991 324.011 131.74 323.688 130.085 325.797 C 125.775 331.306 135.715 332.058 138.62 332.864 C 142.344 333.929 140.223 337.121 137.774 338.229 C 137.424 338.382 137.134 338.645 136.948 338.978 C 136.762 339.311 136.689 339.696 136.742 340.074 C 137.044 342.038 137.621 343.989 136.949 345.912 C 135.848 349.077 132.422 349.54 132.191 353.054 C 132.031 355.609 134.092 362.641 135.179 366.129 C 135.261 366.396 135.279 366.678 135.229 366.953 C 135.181 367.227 135.068 367.486 134.899 367.708 C 134.729 367.93 134.51 368.109 134.259 368.229 C 134.007 368.349 133.73 368.407 133.451 368.399 C 133.08 368.391 132.714 368.321 132.367 368.19 C 129.492 366.956 127.43 363.357 125.855 360.833 C 121.746 354.271 118.901 347.029 116.376 339.744 C 113.038 330.092 112.602 320.21 111.704 310.15 C 110.911 301.535 111.101 292.859 112.27 284.287 C 113.156 277.598 114.866 266.611 109.382 261.3 C 106.552 258.586 102.155 258.165 99.99 254.651 C 96.407 248.862 97.8 241.628 92.4 236.655 C 89.28 233.78 89.497 231.146 90.805 227.309 C 91.4 225.538 92.01 223.782 92.097 221.909 C 92.155 220.514 91.834 219.049 92.182 217.687 C 93.039 214.362 97.043 213.622 99.555 211.982 C 101.325 210.835 102.024 208.557 102.227 206.555 C 102.4 204.928 102.675 201.823 101.05 200.795 C 100.81 200.644 100.536 200.558 100.254 200.545 C 98.41 200.4 96.465 200.588 94.606 200.575 C 93.286 200.575 91.776 200.793 90.484 200.575 C 81.153 199.023 82.112 188.674 71.719 187.077 C 63.402 185.799 57.872 184.377 49.849 181.78 C 46.378 180.663 35.291 172.677 34.55 167.335 C 33.257 158.177 33.39 130.04 17.918 131.36 C 14.144 131.678 16.729 141.75 20.516 152.231 C 25.176 165.104 17.643 166.844 15.174 156.584 C 13.303 148.82 13.012 142.943 10.095 135.379 C 6.974 127.31 9.211 119.793 8.947 111.448 C 8.672 103.184 9.063 94.932 8.847 86.718 C 8.645 78.921 4.245 72.391 3.506 64.657 C 2.755 56.761 3.1 50.026 0 43.743 C 10.952 24.901 39.797 1.059 41.118 0 C 41.467 0.666 41.757 1.32 42.032 1.783 C 44.239 5.469 66.691 9.709 71.684 11.049 C 77.344 12.572 79.868 17.027 86.545 16.491 C 92.407 16.025 97.08 11.397 102.958 13.737 C 108.954 16.116 107.255 19.353 114.525 17.365 C 119.955 15.897 120.611 16.067 122.016 19.063 C 123.451 24.823 120.2 27.117 116.456 30.122 C 112.162 33.561 109.229 34.402 104.185 35.592 C 97.566 37.174 98.032 37.365 94.404 43.255 C 92.953 45.606 91.485 48.013 90.339 50.517 C 88.919 53.638 87.511 58.238 89.18 61.536 C 90.139 63.422 92.067 64.57 93.852 65.544 C 95.593 66.501 98.032 66.733 99.195 68.534 C 100.109 69.956 99.367 71.566 99.18 73.104 C 99.029 74.595 98.994 76.094 99.076 77.59 C 99.151 79.926 99.527 82.989 101.616 84.439 C 108.628 89.245 106.958 79.07 109.129 76.425 C 111.956 72.999 115.37 76.906 118.663 73.921 C 121.167 71.666 120.043 63.327 120.476 60.046 C 121.26 54.036 126.717 38.394 132.449 50.555 C 134.44 54.812 131.463 58.524 136.689 61.194 C 140.36 63.079 145.89 59.441 149.286 62.253 C 153.293 65.549 149.607 68.391 149.634 72.18 C 149.664 77.071 149.779 75.866 153.39 79.277 C 154.944 80.757 156.381 82.601 157.628 84.329 C 159.414 86.78 161.735 91.005 159.065 93.675 C 157.179 95.575 154.204 95.373 151.823 94.865 C 147.731 94.023 144.48 91.889 140.804 90.016 C 137.871 88.513 133.291 86.535 130.614 89.595 C 128.8 91.686 129.482 94.88 131.5 96.562 C 134.505 99.066 138.407 98 141.936 97.897 C 145.359 97.81 149.294 98.175 151.76 100.83 C 154.097 103.334 153.894 107.549 151.673 110.149 C 150.544 111.465 149.032 112.399 147.348 112.818 C 141.354 114.183 135.925 109.292 129.948 109.973 C 127.551 110.224 126.827 112.5 126.579 114.574 C 126.329 116.737 125.447 117.855 123.14 117.461 C 121.167 117.113 119.046 116.562 117.03 117.055 C 114.243 117.754 113.126 120.596 112.415 123.109 C 110.614 129.422 110.469 135.574 104.15 139.712 C 98.183 143.616 95.703 141.147 96.342 149.942 C 96.56 152.978 97.765 166.316 91.083 159.088 C 87.003 154.69 94.303 146.053 84.321 145.793 C 77.717 145.604 79.357 151.613 72.856 150.42 C 67.124 149.349 62.899 143.949 58.619 152.687 C 57.53 154.909 58.038 158.157 57.136 160.611 C 56.135 163.31 53.147 165.314 53.525 168.504 C 53.741 170.258 54.276 172.511 55.366 173.948 C 59.388 179.245 68.749 172.018 72.466 169.739 C 74.018 168.783 76.355 166.359 78.341 167.054 C 81.651 168.217 78.356 172.629 77.051 174.109 C 74.669 176.791 70.171 179.869 73.916 183.498 C 75.107 184.66 76.746 185.251 78.371 185.401 C 81.391 185.652 84.409 184.935 87.441 185.151 C 89.155 185.266 92.217 185.847 90.91 188.083 C 89.502 190.505 83.96 193.19 87.601 196.458 C 90.301 198.864 91.39 195.121 93.915 195.311 C 94.643 195.381 95.356 195.557 96.034 195.832 C 97.065 196.225 97.835 197.037 99.009 196.921 C 99.48 196.855 99.931 196.686 100.33 196.426 C 100.729 196.167 101.066 195.823 101.318 195.418 C 101.941 194.504 102.145 193.345 102.753 192.413 C 103.686 191.038 104.95 189.918 106.427 189.158 C 108.558 188.026 111.012 187.938 113.364 187.906 C 114.017 187.906 115.265 187.573 115.773 188.123 C 116.366 188.762 115.598 190.545 115.337 191.213 C 114.974 192.158 114.35 192.999 114.017 193.956 C 113.727 194.813 113.494 195.859 114.175 196.598 C 114.944 197.439 116.121 197.099 116.875 196.438 C 117.445 195.895 117.907 195.25 118.24 194.537 C 118.991 193.129 119.109 191.213 120.955 190.808 C 123.651 190.212 124.986 194.885 126.366 196.293 C 127.759 197.745 129.559 198.819 131.257 199.878 C 135.379 202.476 140.273 203.68 144.959 204.828 C 153.987 207.048 153.551 210.72 158.983 217.279 C 166.779 226.67 194.599 219.007 194.469 236.742 C 194.424 242.547 188.271 246.685 187.69 252.926 C 187.022 260.389 190.635 265.838 182.145 268.903 Z" fill="var(--token-6ddd531c-2f8c-48cc-80b2-71d390ab4861, rgb(255, 204, 0))" height="368.3993132794717px" id="l991E77WH" stroke-dasharray="" stroke-linecap="butt" stroke-linejoin="miter" stroke-miterlimit="10" stroke-width="0.83" stroke="var(--token-99f9e771-2fec-4300-a67b-b3ef1835a154, rgb(0, 0, 0))" transform="translate(38.652 46.532)" width="194.46967852487688px"/><path d="M 150.585 143.932 C 150.585 147.358 150.496 150.782 150.334 154.166 C 150.204 154.236 150.058 154.308 149.928 154.396 C 146.46 156.515 144.181 160.128 140.219 161.623 C 123.139 168.004 123.808 139.352 109.666 134.176 C 109.376 134.073 109.065 134.049 108.762 134.105 C 108.46 134.161 108.178 134.295 107.944 134.494 C 107.71 134.694 107.532 134.951 107.43 135.241 C 107.327 135.53 107.302 135.842 107.357 136.144 C 108.296 141.055 112.346 144.544 114.817 148.969 C 117.94 154.556 121.146 160.058 123.976 165.788 C 127.154 172.204 128.852 175.034 136.415 173.802 C 139.317 173.321 145.398 170.086 148.764 171.826 C 148.263 175.657 147.661 179.459 146.951 183.233 L 146.951 183.251 C 141.146 189.199 130.725 194.758 127.417 196.877 C 123.31 199.534 117.52 201.565 117.114 207.182 C 116.693 212.87 122.526 216.949 122.513 223.03 C 122.483 231.825 116.576 228.937 113.079 235.018 C 109.583 241.099 109.683 255.205 106.417 258.879 C 104.342 261.186 100.801 262.784 99.202 265.323 C 97.65 267.789 99.187 270.547 96.897 272.836 C 93.803 275.926 91.424 273.635 88.013 274.359 C 78.768 276.319 79.538 278.771 75.038 270.963 C 73.008 267.437 58.147 232.459 63.456 219.686 C 67.245 210.603 66.476 212.011 61.745 203.388 C 58.783 198.004 61.244 192.78 55.068 189.113 C 49.809 185.993 42.354 187.518 36.592 188.723 C 29.016 190.291 23.95 191.001 16.144 187.518 C 9.988 184.763 7.899 178.623 3.56 174.02 C -3.42 166.62 1.586 165.285 4.095 156.922 C 5.097 153.584 4.359 149.435 5.563 146.299 C 6.564 143.66 9.134 142.38 10.194 139.898 C 11.368 137.143 10.614 134.138 11.804 131.321 C 12.82 128.957 21.876 120.803 25.533 119.16 C 28.595 117.795 33.797 118.348 37.23 117.519 C 41.44 116.49 48.384 116.122 50.849 115.814 C 59.113 114.785 66.789 123.495 76.548 125.496 C 77.238 125.635 77.953 125.533 78.578 125.208 C 79.201 124.883 79.694 124.355 79.974 123.71 C 82.687 117.449 88.299 123.114 94.951 123.354 C 99.092 123.508 104.257 123.164 109.005 122.776 C 109.527 122.736 110.035 122.588 110.496 122.34 C 110.957 122.093 111.362 121.751 111.683 121.338 C 112.005 120.925 112.237 120.449 112.364 119.941 C 112.491 119.433 112.51 118.904 112.421 118.388 C 112.207 117.182 112.075 115.952 111.9 114.737 C 111.818 114.158 111.613 113.604 111.298 113.112 C 110.982 112.62 110.565 112.202 110.073 111.886 C 109.582 111.57 109.027 111.364 108.449 111.283 C 107.87 111.201 107.281 111.244 106.721 111.411 C 104.202 112.163 102.007 113.36 98.885 112.25 C 96.217 111.293 94.212 108.962 92.278 106.908 C 92.151 106.774 91.996 106.671 91.823 106.603 C 91.651 106.537 91.466 106.509 91.282 106.523 C 91.097 106.536 90.918 106.589 90.757 106.68 C 90.596 106.77 90.457 106.896 90.35 107.046 L 90.297 107.119 C 89.876 107.723 89.276 108.182 88.581 108.429 C 87.887 108.676 87.133 108.701 86.423 108.498 C 79.912 106.588 83.38 101.221 80.538 95.458 C 78.755 91.845 72.023 88.144 68.247 86.811 C 62.196 84.66 59.809 86.491 64.658 93.049 C 67.528 96.931 69.416 97.58 71.354 101.146 C 71.488 101.388 71.538 101.668 71.495 101.941 C 71.453 102.214 71.322 102.466 71.122 102.657 C 70.921 102.847 70.663 102.966 70.388 102.995 C 70.113 103.024 69.837 102.961 69.602 102.817 C 64.801 99.846 59.933 92.586 53.103 90.961 C 46.411 89.363 42.187 99.275 39.211 103.66 C 34.584 110.468 28.645 112.411 20.809 109.671 C 15.801 107.918 6.369 105.491 10.709 98.003 C 14.554 91.339 18.894 90.963 29.169 81.049 C 31.766 78.544 35.873 75.274 38.981 72.907 C 41.535 70.976 46.354 68.743 49.414 68.119 C 54.335 67.117 56.927 68.684 61.344 65.883 C 63.291 64.65 63.753 62.574 66.09 61.515 C 68.051 60.631 70.691 61.966 72.928 60.789 C 77.253 58.497 76.774 54.49 79.632 51.037 C 82.448 47.626 86.977 47.741 89.428 44.172 C 85.061 41.994 77.179 39.5 74.553 35.84 C 75.452 32.084 82.477 18.032 76.556 16.204 C 67.803 13.505 68.863 31.195 68.354 34.751 C 67.616 39.862 66.063 51.428 60.693 53.255 C 56.802 54.578 54.293 51.485 51.012 50.425 C 47.788 49.381 44.22 50.123 41.215 49.174 C 30.824 45.835 38.894 38.738 44.51 35.11 C 53.378 29.377 55.177 24.27 60.155 16.214 C 62.317 12.708 69.619 3.341 73.103 1.281 C 79.952 -2.784 88.427 4.051 95.176 4.895 C 95.975 4.995 97.382 5.067 99.05 5.185 C 101.867 8.44 104.56 11.774 107.164 15.202 C 102.767 17.175 100.996 30.937 107.44 25.202 C 109.225 23.62 109.458 21.779 110.735 20.02 C 134.585 53.163 148.327 92.501 150.304 133.284 C 147.997 131.717 146.39 129.117 143.973 127.667 C 142.082 126.533 140.011 128.832 141.341 130.589 C 143.076 132.891 144.769 135.322 146.836 136.71 C 148.301 137.697 149.417 138.045 150.476 138.132 C 150.548 140.077 150.585 142.011 150.585 143.932 Z" fill="var(--token-6ddd531c-2f8c-48cc-80b2-71d390ab4861, rgb(255, 204, 0))" height="276.33281857083335px" id="LzU2QV4Lh" stroke-dasharray="" stroke-linecap="butt" stroke-linejoin="miter" stroke-miterlimit="10" stroke-width="0.83" stroke="var(--token-99f9e771-2fec-4300-a67b-b3ef1835a154, rgb(0, 0, 0))" transform="translate(274.416 68.574)" width="150.58475379247085px"/><path d="M 0 0 L 282.046 164.527" fill="transparent" height="164.52684385842474px" id="iedlii9y0" stroke-dasharray="9.11, 9.11" stroke-linecap="butt" stroke-linejoin="miter" stroke-miterlimit="10" stroke-width="0.83" stroke="var(--token-99f9e771-2fec-4300-a67b-b3ef1835a154, rgb(0, 0, 0))" transform="translate(68.49 83.65)" width="282.0455418544367px"/><path d="M 0 0 L 0 341.589" fill="transparent" height="341.58947105682955px" id="LEoThTteD" stroke-dasharray="9.11, 9.11" stroke-linecap="butt" stroke-linejoin="miter" stroke-miterlimit="10" stroke-width="0.83" stroke="var(--token-99f9e771-2fec-4300-a67b-b3ef1835a154, rgb(0, 0, 0))" transform="translate(212.497 38.21)" width="1px"/><path d="M 72.77 16.979 C 71.738 19.082 68.908 18.732 67.949 20.432 C 66.715 22.609 65.525 32.567 65.655 34.497 C 65.976 39.706 68.951 42.173 66.614 47.52 C 65.863 49.202 63.582 49.914 62.901 51.8 C 62.262 53.552 61.899 63.63 59.692 66.676 C 57.689 69.45 49.503 70.261 46.354 70.725 C 41.666 81.611 25.788 80.204 20.083 91.523 C 17.908 95.863 20.71 106.53 15.28 108.59 C 9.651 110.739 7.678 103.264 5.934 99.913 C 3.598 95.428 -0.364 90.885 0.027 85.53 C 0.347 81.088 3.904 76.487 5.369 72.257 C 6.791 68.151 10.462 62.082 10.628 57.86 C 10.815 53.101 7.202 46.756 6.2 41.967 C 3.312 28.252 -2.596 18.427 1.86 15.582 C 4.364 13.957 6.054 9.238 8.622 7.067 C 11.189 4.896 13.294 4.122 16.242 2.669 C 18.254 1.669 20.318 0.778 22.425 0 C 39.744 1.732 56.782 5.602 73.151 11.52 C 73.276 13.493 73.407 15.657 72.77 16.979 Z" fill="var(--token-6ddd531c-2f8c-48cc-80b2-71d390ab4861, rgb(255, 204, 0))" height="108.97195326563224px" id="HL0d0Y1AS" stroke-dasharray="" stroke-linecap="butt" stroke-linejoin="miter" stroke-miterlimit="10" stroke-width="0.83" stroke="var(--token-99f9e771-2fec-4300-a67b-b3ef1835a154, rgb(0, 0, 0))" transform="translate(211.581 1.058)" width="73.25415634825902px"/><path d="M 44.525 19.559 C 43.755 25.131 44.292 28.209 37.442 28.825 C 37.733 30.015 -0.786 30.638 0.012 12.932 C 7.2 8.166 14.673 3.847 22.391 0 C 25.845 3.02 26.123 8.447 29.905 12.715 C 34.492 17.868 34.026 14.355 39.338 12.932 C 41.43 12.367 44.52 10.623 46.378 13.105 C 48.84 16.436 44.905 16.902 44.525 19.559 Z" fill="var(--token-6ddd531c-2f8c-48cc-80b2-71d390ab4861, rgb(255, 204, 0))" height="29.339953790909334px" id="yYsXKpcpU" stroke-dasharray="" stroke-linecap="butt" stroke-linejoin="miter" stroke-miterlimit="10" stroke-width="0.83" stroke="var(--token-99f9e771-2fec-4300-a67b-b3ef1835a154, rgb(0, 0, 0))" transform="translate(95.4 22.222)" width="47.1828547744999px"/><path d="M 20.718 23.74 C 24.84 29.278 23.087 32.528 18.445 33.723 C 15.326 34.524 15.106 38.834 18.129 39.943 C 19.23 40.349 20.333 40.855 21.265 41.759 C 24.217 44.629 22.93 50.023 27.545 51.083 C 42.842 54.571 21.355 30.993 34.099 33.553 C 38.449 34.421 38.259 41.959 43.658 40.654 C 48.381 39.51 48.494 32.986 46.618 29.751 C 44.364 25.859 36.766 25.561 35.682 21.186 C 34.429 16.137 40.174 16.358 36.315 12.025 C 34.743 10.272 31.104 11.121 29.303 8.699 C 25.797 4.001 29.649 3.941 23.971 1.006 C 20.826 -0.617 -5.43 -1.461 1.014 8.126 C 3.358 11.609 9.04 11.993 12.311 14.407 C 15.582 16.821 18.316 20.519 20.718 23.74 Z" fill="var(--token-6ddd531c-2f8c-48cc-80b2-71d390ab4861, rgb(255, 204, 0))" height="51.43553998482531px" id="syObLnPu1" stroke-dasharray="" stroke-linecap="butt" stroke-linejoin="miter" stroke-miterlimit="10" stroke-width="0.83" stroke="var(--token-99f9e771-2fec-4300-a67b-b3ef1835a154, rgb(0, 0, 0))" transform="translate(155.25 45.089)" width="47.75099043128614px"/><path d="M 84.579 0 C 78.541 1.753 72.307 3.075 70.82 4.34 C 66.625 7.881 66.48 12.742 61.386 15.95 C 56.567 18.982 54.086 34.615 44.028 32.582 C 40.299 31.83 36.801 32.118 33.027 31.58 C 29.791 31.114 25.727 27.27 22.433 26.107 C 18.412 24.685 14.377 24.41 10.182 23.829 C 5.336 23.16 -1.225 22.116 0.198 17.355 C 26.786 5.877 55.446 -0.026 84.406 0.012 Z" fill="var(--token-6ddd531c-2f8c-48cc-80b2-71d390ab4861, rgb(255, 204, 0))" height="32.76330615785429px" id="olNASr5h4" stroke-dasharray="" stroke-linecap="butt" stroke-linejoin="miter" stroke-miterlimit="10" stroke-width="0.83" stroke="var(--token-99f9e771-2fec-4300-a67b-b3ef1835a154, rgb(0, 0, 0))" transform="translate(128.105 0.01)" width="84.57891313832243px"/><path d="M 4.054 8.109 C 6.293 8.109 8.108 6.294 8.108 4.055 C 8.108 1.816 6.293 0 4.054 0 C 1.815 0 0 1.816 0 4.055 C 0 6.294 1.815 8.109 4.054 8.109 Z" fill="var(--token-823c0352-1769-4f91-b1be-d7ce588338b9, rgb(2, 226, 172))" height="8.10913432701875px" id="H4dfstIJ6" stroke-dasharray="" stroke-linecap="butt" stroke-linejoin="miter" stroke-miterlimit="10" stroke-width="0.83" stroke="var(--token-99f9e771-2fec-4300-a67b-b3ef1835a154, rgb(0, 0, 0))" transform="translate(324.563 108.644)" width="8.108300997008882px"/><path d="M 292.189 191.155 L 292.189 46.484 L 146.094 0 L 0 46.484 L 0 191.155 C -0.002 202.561 2.474 213.83 7.256 224.184 C 12.037 234.537 19.011 243.729 27.694 251.121 L 146.094 351.903 L 264.495 251.108 C 273.176 243.718 280.15 234.529 284.931 224.177 C 289.713 213.826 292.19 202.558 292.189 191.155 Z" fill="transparent" height="351.9027632602192px" id="OG6xNomwE" stroke-dasharray="9.11, 9.11" stroke-linecap="butt" stroke-linejoin="miter" stroke-miterlimit="10" stroke-width="0.83" stroke="var(--token-99f9e771-2fec-4300-a67b-b3ef1835a154, rgb(0, 0, 0))" transform="translate(66.551 36.558)" width="292.1888357869224px"/><path d="M 4.055 8.109 C 6.294 8.109 8.109 6.294 8.109 4.055 C 8.109 1.816 6.294 0 4.055 0 C 1.816 0 0 1.816 0 4.055 C 0 6.294 1.816 8.109 4.055 8.109 Z" fill="var(--token-823c0352-1769-4f91-b1be-d7ce588338b9, rgb(2, 226, 172))" height="8.10913432701875px" id="I21r44Fl1" stroke-dasharray="" stroke-linecap="butt" stroke-linejoin="miter" stroke-miterlimit="10" stroke-width="0.83" stroke="var(--token-99f9e771-2fec-4300-a67b-b3ef1835a154, rgb(0, 0, 0))" transform="translate(354.639 79.405)" width="8.109134327018978px"/><path d="M 4.055 8.108 C 6.294 8.108 8.109 6.293 8.109 4.054 C 8.109 1.815 6.294 0 4.055 0 C 1.816 0 0 1.815 0 4.054 C 0 6.293 1.816 8.108 4.055 8.108 Z" fill="var(--token-823c0352-1769-4f91-b1be-d7ce588338b9, rgb(2, 226, 172))" height="8.108300997008996px" id="GDUvm13JN" stroke-dasharray="" stroke-linecap="butt" stroke-linejoin="miter" stroke-miterlimit="10" stroke-width="0.83" stroke="var(--token-99f9e771-2fec-4300-a67b-b3ef1835a154, rgb(0, 0, 0))" transform="translate(162.276 344.7)" width="8.109134327018978px"/><path d="M 4.055 8.109 C 6.294 8.109 8.109 6.294 8.109 4.055 C 8.109 1.816 6.294 0 4.055 0 C 1.816 0 0 1.816 0 4.055 C 0 6.294 1.816 8.109 4.055 8.109 Z" fill="var(--token-823c0352-1769-4f91-b1be-d7ce588338b9, rgb(2, 226, 172))" height="8.10913432701875px" id="D_UWM1x1d" stroke-dasharray="" stroke-linecap="butt" stroke-linejoin="miter" stroke-miterlimit="10" stroke-width="0.83" stroke="var(--token-99f9e771-2fec-4300-a67b-b3ef1835a154, rgb(0, 0, 0))" transform="translate(62.449 79.405)" width="8.109134327018921px"/><path d="M 4.055 8.109 C 6.294 8.109 8.11 6.294 8.11 4.054 C 8.11 1.815 6.294 0 4.055 0 C 1.816 0 0 1.815 0 4.054 C 0 6.294 1.816 8.109 4.055 8.109 Z" fill="var(--token-823c0352-1769-4f91-b1be-d7ce588338b9, rgb(2, 226, 172))" height="8.10913432701875px" id="mM9OLzw0F" stroke-dasharray="" stroke-linecap="butt" stroke-linejoin="miter" stroke-miterlimit="10" stroke-width="0.83" stroke="var(--token-99f9e771-2fec-4300-a67b-b3ef1835a154, rgb(0, 0, 0))" transform="translate(350.991 247.608)" width="8.10996765702896px"/><path d="M 4.055 8.108 C 6.294 8.108 8.109 6.293 8.109 4.054 C 8.109 1.815 6.294 0 4.055 0 C 1.816 0 0 1.815 0 4.054 C 0 6.293 1.816 8.108 4.055 8.108 Z" fill="var(--token-823c0352-1769-4f91-b1be-d7ce588338b9, rgb(2, 226, 172))" height="8.108300997008996px" id="IlK4NgOjP" stroke-dasharray="" stroke-linecap="butt" stroke-linejoin="miter" stroke-miterlimit="10" stroke-width="0.83" stroke="var(--token-99f9e771-2fec-4300-a67b-b3ef1835a154, rgb(0, 0, 0))" transform="translate(208.772 384.358)" width="8.109134327018921px"/><path d="M 4.055 8.109 C 6.294 8.109 8.109 6.294 8.109 4.055 C 8.109 1.816 6.294 0 4.055 0 C 1.816 0 0 1.816 0 4.055 C 0 6.294 1.816 8.109 4.055 8.109 Z" fill="var(--token-823c0352-1769-4f91-b1be-d7ce588338b9, rgb(2, 226, 172))" height="8.10913432701875px" id="QD3qb0r8N" stroke-dasharray="" stroke-linecap="butt" stroke-linejoin="miter" stroke-miterlimit="10" stroke-width="0.83" stroke="var(--token-99f9e771-2fec-4300-a67b-b3ef1835a154, rgb(0, 0, 0))" transform="translate(207.943 32.455)" width="8.109134327018921px"/><path d="M 4.055 8.109 C 6.294 8.109 8.109 6.294 8.109 4.055 C 8.109 1.816 6.294 0 4.055 0 C 1.816 0 0 1.816 0 4.055 C 0 6.294 1.816 8.109 4.055 8.109 Z" fill="var(--token-823c0352-1769-4f91-b1be-d7ce588338b9, rgb(2, 226, 172))" height="8.10913432701875px" id="KCNgMsj31" stroke-dasharray="" stroke-linecap="butt" stroke-linejoin="miter" stroke-miterlimit="10" stroke-width="0.83" stroke="var(--token-99f9e771-2fec-4300-a67b-b3ef1835a154, rgb(0, 0, 0))" transform="translate(207.943 165.102)" width="8.109134327018921px"/></g></svg>