<svg xmlns="http://www.w3.org/2000/svg" width="224" height="258" fill="none"><path fill="#02E2AC" stroke="#0E0333" stroke-linecap="round" stroke-linejoin="round" stroke-width=".853" d="m111.875 256.809 34.601-57.36-34.601-20.433zm0-112.627v28.29l34.601 20.422z"/><path fill="#11BC92" stroke="#0E0333" stroke-linecap="round" stroke-linejoin="round" stroke-width=".853" d="m146.476 199.449-34.601-20.433v36.148z"/><path fill="#02E2AC" stroke="#0E0333" stroke-linecap="round" stroke-linejoin="round" stroke-width=".853" d="M111.877 215.164v-36.148l-34.605 20.433 34.605 57.36zm-34.605-22.27 34.605-20.422v-28.29z"/><path fill="#11BC92" stroke="#0E0333" stroke-linecap="round" stroke-linejoin="round" stroke-width=".853" d="M111.877 215.164v-36.148l-34.605 20.433z"/><path fill="#FFDB4C" stroke="#0E0333" stroke-linecap="round" stroke-linejoin="round" stroke-width=".853" d="m1 192.851 67.024 1.26.413-40.157-31.334 18.074z"/><path fill="#FC0" stroke="#0E0333" stroke-linecap="round" stroke-linejoin="round" stroke-width=".853" d="m98.633 136.537-24.527 14.145-.401 40.15z"/><path fill="#E1B815" stroke="#0E0333" stroke-linecap="round" stroke-linejoin="round" stroke-width=".853" d="m68.023 194.118.413-40.153-31.334 18.07 30.92 22.083Z"/><path fill="#FFDB4C" stroke="#0E0333" stroke-linecap="round" stroke-linejoin="round" stroke-width=".853" d="m37.103 172.033 31.334-18.07-35.014-19.724L1 192.855z"/><path fill="#FC0" stroke="#0E0333" stroke-linecap="round" stroke-linejoin="round" stroke-width=".853" d="m39.1 130.962 35.007 19.723 24.527-14.145z"/><path fill="#E1B815" stroke="#0E0333" stroke-linecap="round" stroke-linejoin="round" stroke-width=".853" d="m37.105 172.033 31.334-18.074-35.014-19.72z"/><path fill="#02E2AC" stroke="#0E0333" stroke-linecap="round" stroke-linejoin="round" stroke-width=".853" d="m1 64.952 32.423 58.62 35.014-19.723-31.334-18.074zm97.634 56.312-24.527-14.145L39.1 126.846z"/><path fill="#11BC92" stroke="#0E0333" stroke-linecap="round" stroke-linejoin="round" stroke-width=".853" d="m33.425 123.575 35.014-19.724-31.334-18.074z"/><path fill="#02E2AC" stroke="#0E0333" stroke-linecap="round" stroke-linejoin="round" stroke-width=".853" d="m37.103 85.772 31.334 18.074-.413-40.153L1 64.95zM73.705 66.97l.4 40.15 24.528 14.145-24.928-54.294Z"/><path fill="#11BC92" stroke="#0E0333" stroke-linecap="round" stroke-linejoin="round" stroke-width=".853" d="m37.102 85.772 31.334 18.074-.413-40.153z"/><path fill="#FFDB4C" stroke="#0E0333" stroke-linecap="round" stroke-linejoin="round" stroke-width=".853" d="M111.877 1 77.272 58.36l34.605 20.433z"/><path fill="#FC0" stroke="#0E0333" stroke-linecap="round" stroke-linejoin="round" stroke-width=".853" d="M111.877 113.625V85.334L77.272 64.912z"/><path fill="#E1B815" stroke="#0E0333" stroke-linecap="round" stroke-linejoin="round" stroke-width=".853" d="m77.272 58.364 34.605 20.43V42.648z"/><path fill="#FFDB4C" stroke="#0E0333" stroke-linecap="round" stroke-linejoin="round" stroke-width=".853" d="M111.875 42.646v36.147l34.601-20.433L111.875 1z"/><path fill="#FC0" stroke="#0E0333" stroke-linecap="round" stroke-linejoin="round" stroke-width=".853" d="m146.476 64.912-34.601 20.422v28.291z"/><path fill="#E1B815" stroke="#0E0333" stroke-linecap="round" stroke-linejoin="round" stroke-width=".853" d="M111.875 42.65v36.143l34.601-20.43z"/><path fill="#02E2AC" stroke="#0E0333" stroke-linecap="round" stroke-linejoin="round" stroke-width=".853" d="m222.755 64.95-67.024-1.257-.409 40.153 31.333-18.074zm-97.64 56.315 24.524-14.145.401-40.15z"/><path fill="#11BC92" stroke="#0E0333" stroke-linecap="round" stroke-linejoin="round" stroke-width=".853" d="m155.731 63.693-.409 40.153 31.333-18.074z"/><path fill="#02E2AC" stroke="#0E0333" stroke-linecap="round" stroke-linejoin="round" stroke-width=".853" d="m186.655 85.775-31.333 18.074 35.014 19.723 32.419-58.62zm-2.01 41.071-35.006-19.727-24.524 14.145z"/><path fill="#11BC92" stroke="#0E0333" stroke-linecap="round" stroke-linejoin="round" stroke-width=".853" d="m186.655 85.777-31.333 18.074 35.014 19.724z"/><path fill="#FFDB4C" stroke="#0E0333" stroke-linecap="round" stroke-linejoin="round" stroke-width=".853" d="m222.755 192.855-32.419-58.616-35.014 19.724 31.333 18.07z"/><path fill="#FC0" stroke="#0E0333" stroke-linecap="round" stroke-linejoin="round" stroke-width=".853" d="m125.115 136.54 24.524 14.145 35.006-19.723z"/><path fill="#E1B815" stroke="#0E0333" stroke-linecap="round" stroke-linejoin="round" stroke-width=".853" d="m190.336 134.239-35.014 19.724 31.333 18.07z"/><path fill="#FFDB4C" stroke="#0E0333" stroke-linecap="round" stroke-linejoin="round" stroke-width=".853" d="m186.655 172.028-31.333-18.074.409 40.157 67.024-1.26z"/><path fill="#FC0" stroke="#0E0333" stroke-linecap="round" stroke-linejoin="round" stroke-width=".853" d="m150.04 190.835-.401-40.153-24.524-14.145z"/><path fill="#E1B815" stroke="#0E0333" stroke-linecap="round" stroke-linejoin="round" stroke-width=".853" d="m186.655 172.035-31.333-18.07.409 40.153z"/></svg>