<svg xmlns="http://www.w3.org/2000/svg" width="149" height="215" fill="none"><g clip-path="url(#a)"><path fill="#FC0" d="M.689 124.242v27.509c0 34.272 32.881 62.053 73.453 62.053 40.571 0 73.474-27.781 73.474-62.053v-27.509"/><path stroke="#000" stroke-miterlimit="10" d="M.689 124.242v27.509c0 34.272 32.881 62.053 73.453 62.053 40.571 0 73.474-27.781 73.474-62.053v-27.509"/><path fill="#FFEEA8" stroke="#000" stroke-miterlimit="10" d="M74.163 190.754c40.578 0 73.473-27.782 73.473-62.053s-32.895-62.053-73.473-62.053C33.584 66.648.689 94.43.689 128.701s32.895 62.053 73.474 62.053Z"/><path fill="#5BF1CD" stroke="#000" stroke-linecap="round" stroke-linejoin="round" d="M106.792 60.054a32.6 32.6 0 0 1-9.261 23.596 32.66 32.66 0 0 1-23.378 9.848 32.65 32.65 0 0 1-30.397-20.71 32.6 32.6 0 0 1-2.243-12.734C41.513 42.03 74.142.242 74.142.242s32.65 41.787 32.65 59.812"/><path stroke="#000" stroke-linecap="round" stroke-linejoin="round" d="M74.163 94.828v38.249"/><path fill="#5BF1CD" stroke="#000" stroke-linecap="round" stroke-linejoin="round" d="M51.425 107.244a24.46 24.46 0 0 1-14.948 23.257 24.52 24.52 0 0 1-19.08 0 24.5 24.5 0 0 1-13.293-13.673 24.4 24.4 0 0 1-1.654-9.584c0-13.503 24.498-44.865 24.498-44.865s24.477 31.362 24.477 44.865"/><path stroke="#000" stroke-linecap="round" stroke-linejoin="round" d="M26.948 133.35v28.682"/><path fill="#5BF1CD" stroke="#000" stroke-linecap="round" stroke-linejoin="round" d="M131.815 125.017a20.92 20.92 0 0 1-6.138 14.803 20.97 20.97 0 0 1-29.637 0 20.93 20.93 0 0 1-6.14-14.803c0-11.557 20.958-38.355 20.958-38.355s20.957 26.798 20.957 38.355"/><path stroke="#000" stroke-linecap="round" stroke-linejoin="round" d="M110.878 147.314v24.537"/></g><defs><clipPath id="a"><path fill="#fff" d="M0 0h148.33v214.17H0z"/></clipPath></defs></svg>