<svg xmlns="http://www.w3.org/2000/svg" id="Camada_1" data-name="Camada 1" viewBox="0 0 767.923 767.923"><defs><style>.cls-1{fill:#ffcb00}.cls-2{fill:#1d1d1b}</style></defs><rect width="245.546" height="74.329" x="536.318" y="621.926" class="cls-1" rx="12.567" ry="12.567" transform="rotate(135 659.091 659.09)"/><path d="m554.08 710.381 156.301-156.3c5.097-5.096 13.39-5.096 18.487 0l35.232 35.232c5.097 5.097 5.097 13.39 0 18.487L607.8 764.1c-5.096 5.097-13.39 5.097-18.487 0l-35.232-35.232c-5.097-5.096-5.097-13.39 0-18.487ZM762.94 606.64c4.458-4.457 4.458-11.709 0-16.166l-35.232-35.233c-4.457-4.457-11.709-4.457-16.166 0l-156.3 156.3c-4.458 4.458-4.458 11.71 0 16.167l35.232 35.232c4.457 4.458 11.709 4.458 16.166 0z" class="cls-2"/><path d="m725.502 609.393-2.09-2.09 3.553-3.551-12.535-12.535 2.089-2.09 12.535 12.535 3.551-3.55 2.09 2.089zm-7.099-.423a5.314 5.314 0 0 1 0 7.522l-1.671 1.671a5.295 5.295 0 0 1-7.52-.001l-7.083-7.083c-2.068-2.067-2.11-5.45-.021-7.54l1.671-1.671c2.069-2.07 5.474-2.048 7.542.02l7.082 7.083Zm-14.186.021 7.083 7.083c.94.939 2.403.939 3.343 0l1.671-1.672c.94-.94.919-2.423 0-3.342l-7.083-7.083a2.37 2.37 0 0 0-3.342 0l-1.672 1.672a2.37 2.37 0 0 0 0 3.342m-9.207 1.646 14.623 14.625-2.089 2.09-6.268-6.269-.793.793 2.423 10.113-2.465 2.465-2.82-11.805-11.805-2.82 2.466-2.465 10.112 2.424.794-.793-6.269-6.268 2.09-2.09Zm-9.188 34.257 7.102-7.102-3.823-3.823-6.266 6.267-2.09-2.09 6.267-6.266-4.533-4.534-7.102 7.102-2.09-2.089 9.192-9.191 14.624 14.624-9.191 9.191-2.09-2.09Zm-10.442 14.621-14.624-14.624 3.03-3.03 15.187 7.04-11.114-11.113 2.09-2.09 14.624 14.625-3.029 3.028-15.189-7.04 11.115 11.115zm-12.53 12.529-2.089-2.089 3.551-3.551-10.445-10.446-3.551 3.551-2.09-2.089 9.192-9.191 2.09 2.09-3.552 3.55 10.446 10.446 3.55-3.551 2.09 2.09zm-12.53 12.532-2.09-2.09-3.74-17.152-6.706 6.707-2.09-2.09 9.193-9.192 2.09 2.09 3.718 17.172 6.727-6.727 2.09 2.09-9.193 9.192Zm-17.963-11.286 4.805 4.805 6.268 13.37-2.09 2.09-13.37-6.269-4.804-4.805 2.088-2.088 3.384 3.384 5.014-5.014-3.384-3.384zm-1.253 12.2 7.958 3.74.042-.042-3.739-7.959zm-4.174 18.297 1.67-1.671a2.35 2.35 0 0 0 0-3.343l-7.082-7.083a2.37 2.37 0 0 0-3.342 0l-1.672 1.672a2.37 2.37 0 0 0 0 3.342l1.15 1.15-2.089 2.09-1.15-1.15c-1.984-1.984-2.088-5.182-.27-7.292l-.418-.584-.188.188c-1.441 1.441-3.844 1.42-5.327-.064-1.442-1.44-1.462-3.843-.02-5.284l2.38-2.382 2.09 2.09-2.381 2.381c-.272.272-.274.815.019 1.107.334.334.858.355 1.15.062l1.587-1.587 2.59.793.607 1.19c2.067-1.9 5.368-1.817 7.374.189l7.082 7.083a5.314 5.314 0 0 1 0 7.52l-1.671 1.672a5.297 5.297 0 0 1-7.521 0l-1.15-1.149 2.09-2.09 1.15 1.15c.939.94 2.402.94 3.342 0m-19.634-5.437 4.805 4.806 6.268 13.37-2.089 2.09-13.37-6.269-4.805-4.805 2.088-2.088 3.384 3.384 5.014-5.014-3.384-3.384zm14.874 23.148-3.238 1.315c-.5.544-.48.857-.166 1.547l-2.632 1.295c-.983-2.027-.628-3.719 1.149-5.368l3.238-1.317c.5-.544.48-.857.165-1.546l2.634-1.296c.982 2.027.626 3.72-1.15 5.37m-16.127-10.947 7.958 3.74.042-.043-3.739-7.958zm-.413 11.194a5.314 5.314 0 0 1 0 7.52l-1.672 1.672a5.297 5.297 0 0 1-7.521 0l-7.083-7.083c-2.068-2.067-2.109-5.453-.02-7.541l1.671-1.671c2.069-2.07 5.474-2.048 7.542.02zm-14.187.02 7.083 7.083c.94.94 2.403.94 3.343 0l1.67-1.671a2.35 2.35 0 0 0 0-3.343l-7.082-7.083a2.37 2.37 0 0 0-3.342 0l-1.672 1.672a2.37 2.37 0 0 0 0 3.342" class="cls-2"/><rect width="245.546" height="74.329" x="-13.94" y="621.927" class="cls-1" rx="13.281" ry="13.281" transform="rotate(-135 108.832 659.091)"/><path d="m57.542 554.08 156.3 156.301c5.096 5.097 5.096 13.39 0 18.487L178.61 764.1c-5.097 5.097-13.39 5.097-18.487 0L3.823 607.8c-5.097-5.096-5.097-13.39 0-18.487l35.232-35.232c5.096-5.096 13.39-5.096 18.487 0Zm103.741 208.86c4.457 4.458 11.709 4.458 16.166 0l35.233-35.232c4.457-4.457 4.457-11.709 0-16.166l-156.3-156.3c-4.458-4.458-11.71-4.458-16.167 0L4.983 590.473c-4.458 4.457-4.458 11.709 0 16.166z" class="cls-2"/><path d="m117.805 678.514 7.083-7.083c2.068-2.067 5.474-2.088 7.542-.02l5.432 5.432-14.625 14.624-5.432-5.432a5.315 5.315 0 0 1 0-7.52Zm12.515-4.993a2.37 2.37 0 0 0-3.342 0l-7.083 7.083a2.353 2.353 0 0 0 0 3.342l3.342 3.342 10.425-10.425zm-4.989-9.209-4.805 4.806-13.37 6.268-2.09-2.09 6.268-13.37 4.806-4.805 2.088 2.088-3.384 3.385 5.013 5.014 3.385-3.385 2.09 2.09Zm-12.2-1.253-3.74 7.959.042.042 7.959-3.74-4.262-4.26Zm-11.194-.413a5.314 5.314 0 0 1-7.521 0l-1.672-1.672a5.297 5.297 0 0 1 0-7.52l7.083-7.083c2.068-2.068 5.454-2.11 7.542-.02l1.671 1.67c2.07 2.07 2.047 5.474-.02 7.542zm-.02-14.186-7.083 7.083a2.333 2.333 0 0 0 0 3.342l1.671 1.671c.94.94 2.424.92 3.343 0l7.082-7.082a2.37 2.37 0 0 0 0-3.343l-1.67-1.671a2.37 2.37 0 0 0-3.343 0m-8.457-6.576.835-.836a2.56 2.56 0 0 0 0-3.592l-1.4-1.4c-1.065-1.066-2.486-1.15-3.405-.23-2.883 2.883 3.385 10.404-.584 14.373-2.048 2.047-5.078 1.86-7.355-.418l-.981-.981c-2.152-2.152-2.172-5.642-.02-7.793l.626-.627 2.09 2.09-.627.626c-1.003 1.003-.983 2.612.02 3.614l.981.982c1.129 1.128 2.32 1.274 3.176.418 2.214-2.214-3.823-9.964.586-14.373 2.088-2.088 5.369-1.985 7.583.229l1.4 1.4a5.485 5.485 0 0 1-.001 7.772l-.835.835-2.09-2.09Z" class="cls-2"/><rect width="245.546" height="74.329" x="-13.941" y="71.668" class="cls-1" rx="11.946" ry="11.946" transform="rotate(-45 108.832 108.833)"/><path d="m213.841 57.541-156.3 156.3c-5.096 5.097-13.39 5.097-18.487 0l-35.231-35.23c-5.097-5.097-5.097-13.391 0-18.488l156.3-156.3c5.097-5.097 13.39-5.097 18.487 0l35.231 35.231c5.097 5.097 5.097 13.39 0 18.487M4.983 161.284c-4.457 4.457-4.457 11.709 0 16.166l35.231 35.231c4.458 4.458 11.71 4.458 16.167 0l156.3-156.3c4.458-4.458 4.458-11.71 0-16.167L177.45 4.984c-4.457-4.458-11.71-4.458-16.166 0z" class="cls-2"/><path d="m47.435 171.065-3.342 3.343 5.85 5.85-2.09 2.09-14.624-14.625 5.432-5.432a5.297 5.297 0 0 1 7.521 0l1.253 1.253a5.297 5.297 0 0 1 0 7.521m-2.089-2.09c.94-.939.94-2.401 0-3.342l-1.253-1.253a2.334 2.334 0 0 0-3.343 0l-3.342 3.343 4.595 4.595zm21.931-6.052-8.502-3.197-2.152 2.151 5.85 5.85-2.09 2.09-14.623-14.625 5.432-5.431a5.295 5.295 0 0 1 7.52 0l1.253 1.254a5.274 5.274 0 0 1 .878 6.35l8.732 3.26-2.297 2.298Zm-9.4-6.478a2.334 2.334 0 0 0 0-3.342l-1.254-1.253a2.334 2.334 0 0 0-3.342 0l-3.343 3.342 4.596 4.596zm9.606-22.975 2.089 2.089-3.552 3.552 10.445 10.445 3.552-3.552 2.09 2.09-9.193 9.192-2.089-2.09 3.551-3.55L63.93 141.2l-3.55 3.551-2.09-2.09 9.193-9.192Zm12.529-12.53 4.805 4.805 6.268 13.37-2.09 2.09-13.37-6.268-4.805-4.806 2.09-2.09 4.429 4.43 9.38 4.408.041-.042-4.407-9.38-4.43-4.429zm17.963 11.285-4.805-4.805-6.268-13.37 2.09-2.09 13.37 6.267 4.806 4.806-2.09 2.09-3.385-3.387-5.014 5.014 3.385 3.386zm1.253-12.2-7.96-3.74-.041.041 3.74 7.96 4.261-4.262Zm4.175-18.297-1.672 1.671a2.35 2.35 0 0 0 0 3.343l7.082 7.081c.92.92 2.425.92 3.343.001l1.672-1.67a2.37 2.37 0 0 0-.001-3.345l-1.15-1.148 2.089-2.089 1.149 1.15c2.069 2.068 2.112 5.452.023 7.54l-1.672 1.672c-2.069 2.07-5.474 2.048-7.542-.021l-7.082-7.082a5.314 5.314 0 0 1 0-7.521l1.671-1.671a5.295 5.295 0 0 1 7.52 0l1.15 1.15-2.089 2.088-1.149-1.15a2.334 2.334 0 0 0-3.342 0Zm14.201-18.381 2.09 2.09-3.552 3.552 10.445 10.446 3.552-3.553 2.09 2.09-9.193 9.192-2.09-2.089 3.552-3.551-10.446-10.446-3.55 3.551-2.09-2.089zm16.29-8.768 7.082 7.081c2.069 2.07 2.09 5.474.023 7.542l-5.432 5.432-14.625-14.624 5.432-5.432a5.314 5.314 0 0 1 7.52 0Zm4.995 12.513a2.37 2.37 0 0 0-.001-3.343l-7.082-7.082a2.353 2.353 0 0 0-3.343 0l-3.342 3.343 10.425 10.425zm9.208-4.989-4.805-4.805-6.268-13.37 2.089-2.09 13.371 6.268 4.806 4.805L155.2 75l-3.385-3.386-5.014 5.014 3.385 3.385-2.09 2.09Zm1.253-12.2-7.96-3.74-.041.041 3.74 7.96zm9.605-20.385 7.082 7.081c2.069 2.07 2.09 5.474.022 7.542l-5.432 5.432-14.624-14.624 5.432-5.432a5.314 5.314 0 0 1 7.52 0Zm4.995 12.513a2.37 2.37 0 0 0-.001-3.343l-7.082-7.082a2.353 2.353 0 0 0-3.343 0l-3.342 3.343 10.425 10.425zm5.865-26.716-7.103 7.103 3.823 3.823 6.267-6.267 2.09 2.09-6.267 6.266 4.533 4.534 7.103-7.103 2.09 2.09-9.193 9.192-14.624-14.625 9.192-9.192z" class="cls-2"/><rect width="245.546" height="74.329" x="536.318" y="71.668" class="cls-1" rx="12.013" ry="12.013" transform="rotate(45 659.09 108.832)"/><path d="m710.381 213.842-156.3-156.3c-5.096-5.097-5.096-13.39 0-18.487l35.232-35.232c5.097-5.097 13.39-5.097 18.487 0l156.3 156.3c5.097 5.096 5.097 13.39 0 18.487l-35.232 35.232c-5.096 5.096-13.39 5.096-18.487 0M606.64 4.982c-4.457-4.457-11.709-4.457-16.166 0L555.24 40.216c-4.457 4.457-4.457 11.709 0 16.166l156.3 156.3c4.458 4.458 11.71 4.458 16.167 0l35.232-35.232c4.458-4.457 4.458-11.709 0-16.166l-156.3-156.3Z" class="cls-2"/><path d="m640.944 93.4 6.665-5.661 4.179-4.179 2.089 2.09-4.805 4.805-11.073 8.563-1.67-1.671 4.575-7.918-7.918 4.575-1.672-1.67 8.565-11.072 4.805-4.805 2.09 2.09-4.179 4.178-5.662 6.663 7.73-5.432 1.713 1.714zm23.373 6.868-7.102-7.102-3.823 3.823 6.267 6.267-2.09 2.09-6.266-6.268-4.534 4.534 7.102 7.102-2.088 2.088-9.191-9.191 14.623-14.624 9.191 9.192-2.09 2.09Zm6.139 16.166a5.34 5.34 0 0 1-1.546 4.304l-.836.836a5.297 5.297 0 0 1-7.52-.001l-5.432-5.432 14.623-14.623 5.014 5.014a5.296 5.296 0 0 1 0 7.52l-.835.836c-.96.96-2.215 1.503-3.468 1.546m-1.964-3.636c.94.94 2.402.94 3.343 0l.835-.835c.94-.94.94-2.402 0-3.342l-2.924-2.925-4.178 4.178zm-5.85 6.687c.94.939 2.403.939 3.343 0l.836-.837c.94-.94.94-2.403 0-3.342l-3.343-3.343-4.178 4.18zm20.365 9.917c.02 1.4-.502 2.8-1.567 3.865l-.837.836a5.294 5.294 0 0 1-7.518 0l-1.672-1.671a5.314 5.314 0 0 1 0-7.52l.731-.732 2.09 2.09-.732.731a2.37 2.37 0 0 0 0 3.343l1.67 1.671c.94.94 2.404.94 3.343 0l.837-.836c.94-.94.939-2.403 0-3.343l-1.463-1.463 2.09-2.089 1.462 1.463c.94.94 2.402.94 3.342 0l.835-.835c.94-.94.94-2.403 0-3.343l-1.67-1.671a2.37 2.37 0 0 0-3.343 0l-.731.73-2.09-2.089.731-.73a5.314 5.314 0 0 1 7.522 0l1.67 1.67a5.295 5.295 0 0 1 0 7.521l-.835.835a5.33 5.33 0 0 1-3.865 1.567" class="cls-2"/></svg>