<svg xmlns="http://www.w3.org/2000/svg" width="336" height="272" fill="none"><path fill="#fff" d="m57.085 218.14-1.294-4.686 33.525-8.247 4.218-14.401 2.847-2.929 28.012 1.468-7.266 21.167-30.878 9.156z"/><path fill="#fff" d="m62.009 204.93-13.935 1.578.122 5.009-.706 6.12 8.2-2.264 13.672-3.901 1.495.848 1.514.464 1.535.08 1.94-.283 1.594-1.07 2.787-1.778 6.08 1.473 1.776-4.525 1.433-5.312-3.374-1.716-3.393-1.332-2.646-.908-1.575.687c-3.295 4.137-6.973 5.791-8.4 6.101l-3.494.586zm8.948-82.646c-.995 1.872-2.991 5.692-3.007 5.999l-1.232 1.475-.12 2.302.323 1.171.787-.343 1.596-1.071 1.695-2.989 1.736-3.757.161-3.07-1.454-1.616-.484 1.899Z"/><path fill="#FC0" d="m37.176 157.454-1.697-4.322-1.576.687-3.17 1.758-4.322 1.697-4.766 2.829-2.463 2.949-4.3 8.625-1.493 6.463-1.029 4.949-.543 10.361-.04.767-.1 1.919.303 1.555-.04.767-.06 1.152-.02.383-.081 1.535.263 2.323-.505 2.282.203 3.474.243 2.706.586 3.494.83 6.2.587 3.494.222 3.09 1.637 5.473 2.424-2.182 2.403-1.798 1.999-1.434 2.383-1.415 3.13-.99 4.281-.93 7.635 1.17 1.939-.283 4.301-1.314 3.595-2.505 5.21-3.96.464-1.515.08-1.535-8.603 2.628.928-3.03.141-2.686.08-1.535-.263-2.323.101-1.918 2.322-.263 2.707-.243 2.726-.627 4.241-.163 5.413-.486 1.535.081 2.322-.263 3.13-.99 2.404-1.799 2.847-2.929-.344-.787-.667-1.959-1.05-1.979-.647-2.343-.567-3.877-.263-2.323-1.273-5.069-1.213-6.22-.95-3.898-.667-1.959-1.01-2.746-1.375-3.151-1.434-1.999-1.475-1.232-8.665-3.532-.08 1.535-.485 1.899-1.252 1.858-2.019 1.818-3.917 1.334-1.535-.081-4.181-.988-2.97-2.08z"/><path fill="#fff" d="m65.201 121.982-1.677-4.705c-.478-.667-1.507-2.08-1.798-2.403s-1.805-2.275-2.526-3.211l-6.686-4.583-7.554-2.705-1.798-2.403-.627-2.726-4.524-1.776-5.372-.282-3.898.95-4.462 4.384-2.18 4.888 1.96 6.644-4.037 10.948-4.826 3.979-2.887 3.697-.585 3.817 2.808 5.15 2.021 5.493-1.877 6.443-2.522 11.412c-.437 1.003-1.316 3.086-1.332 3.393s-1.635 1.838-2.443 2.565l-1.513 6.847L8.18 182.1l2.141 3.19 1.475 1.232.08-1.535.08-1.535 1.313-3.009c.302-.882.912-2.723.928-3.03l.14-2.686.162-3.07 2.12-3.737.867-1.878 2.504-3.717 1.09-6.1c2.867-.876 8.68-2.623 8.986-2.607s3.737-.317 5.413-.486l1.697 4.322 1.414 2.382 1.819 2.02 2.242 1.272 2.646.908 3.453.181 3.13-.99 2.828-2.546 1.312-3.009.1-1.919-3.757-1.736-.383-.02.524-2.666 1.696-2.99 4.625-.142 1.959-.667 2.423-2.182 1.696-2.989.928-3.03.565-3.434-.022-6.927-.546-4.261z"/><path fill="#000" d="M122.704 187.298c-.168.007-.337-.01-.506-.01-3.466-.004-6.933-.031-10.399-.002-2.372.02-4.729-.296-7.113-.159-1.419.081-2.856-.003-4.288.087-1.13.071-2.27-.008-3.404-.071-1.091-.061-1.963.29-2.676 1.128-.98 1.154-1.557 2.521-2.047 3.912-.85 2.413-1.601 4.859-2.402 7.288-.143.434-.328.855-.495 1.288-.919-.49-1.721-.997-2.585-1.361-1.519-.639-3.043-1.299-4.624-1.747-1.406-.398-2.916-.749-4.221.466-.094-.145-.186-.246-.233-.364-.736-1.844-1.493-3.68-2.183-5.541-.266-.719-.422-1.488-.548-2.248-.253-1.525-.385-3.071-.684-4.586-.444-2.242-1.008-4.46-1.484-6.697-.47-2.204-.894-4.418-1.335-6.628-.69-3.455-1.89-6.719-3.54-9.838-1.004-1.896-2.544-3.097-4.469-3.874-2.119-.855-4.279-1.61-6.378-2.509-1.6-.685-3.131-1.527-4.722-2.314.116-.52.162-.924.297-1.296.341-.947.681-1.898 1.103-2.811.28-.606.747-.911 1.532-.871 1.101.056 2.215-.098 3.321-.185 1.434-.112 2.642-.725 3.673-1.712 1.316-1.258 2.146-2.824 2.845-4.471.253-.596.46-1.212.722-1.91.143.212.227.288.25.379.408 1.596 1.28 2.941 2.2 4.283.483.705.87 1.546 1.046 2.379.693 3.295.715 6.55-1.007 9.609-.15.268-.27.569.212.762.146-.152.347-.291.454-.483a14.7 14.7 0 0 0 1.734-5.336c.403-3.176-.144-6.253-.945-9.279-.684-2.583-.656-5.117-.093-7.683.093-.425.2-.855.367-1.255.683-1.635 1.725-3.001 2.992-4.251 1.68-1.658 2.828-3.692 3.425-5.977.543-2.079.513-4.213.115-6.313-.39-2.062-1.26-3.896-2.932-5.273-.91-.749-1.765-1.566-2.685-2.301a8.05 8.05 0 0 0-2.945-1.505c-2.26-.613-4.532-.524-6.816-.246-.14.018-.266.147-.434.245.098.176.14.309.227.398 1.53 1.582 2.608 3.43 3.19 5.547.172.631.528.93 1.116 1.135.966.338 1.683 1.001 2.037 1.973.678 1.862 1.018 3.773.605 5.748-.221 1.06-.792 1.923-1.609 2.768-.214-1.089-.324-2.03-.592-2.923-.394-1.318-.92-2.596-1.348-3.904-.13-.399-.266-.886-.152-1.258.428-1.397.122-2.7-.52-3.893-.873-1.627-1.883-3.183-2.882-4.74-.303-.473-.702-.935-1.162-1.248-1.33-.906-2.651-1.865-4.094-2.557-1.696-.813-3.541-1.267-5.424-1.521-1.623-.218-3.223-.027-4.865.209l-1.674-2.001c.306-.331.59-.616.85-.922 1.013-1.19 1.845-2.434 1.914-4.101.08-1.94-1.218-4.048-3.073-4.639-.8-.254-1.63-.42-2.455-.591-.324-.067-.694-.126-.999-.037-1.274.371-2.704.283-3.727 1.29-.535-.474-1.016-.887-1.484-1.316-.84-.77-1.807-.905-2.913-.756-1.513.203-2.582 1.08-3.555 2.124-.734.786-1.419 1.621-2.104 2.452a3.66 3.66 0 0 1-1.91 1.248c-2.332.645-4.172 1.92-5.428 4.056-1.2 2.043-2.348 4.105-2.756 6.459-.205 1.183-.187 2.409-.21 3.617-.048 2.577.499 5.006 1.836 7.244a26 26 0 0 1 1.433 2.776c.372.838.675 1.804.288 2.648-.572 1.242-1.329 2.385-2.58 3.147-2.06 1.254-3.799 2.88-5.127 4.907-1.465 2.235-1.863 4.608-.686 7.087.975 2.052 1.248 4.186.877 6.397-.212 1.26-.5 2.544-1.421 3.508-2.727 2.856-3.503 6.356-3.362 10.136a9 9 0 0 0 1.646 4.915c.552.786 1.022 1.661.813 2.633-.268 1.246-.723 2.433-1.644 3.401-1.123 1.181-2.065 2.523-2.462 4.112-.628 2.511-.553 4.999.642 7.379 1.347 2.685 2.666 5.385 5.63 6.937-.076 1.442-.16 2.915-.229 4.388-.042.907-.133 1.82-.077 2.722.146 2.371.484 4.73.177 7.118-.106.825-.012 1.675-.023 2.514-.003.231-.05.463-.085.694-.063.429-.211.862-.183 1.285.1 1.502.224 3.004.402 4.499.296 2.497.628 4.991.967 7.483.259 1.898.561 3.79.827 5.686.234 1.665.37 3.346.685 4.994.328 1.715.808 3.402 1.25 5.094.047.18.279.313.424.466l.81-.681c.4.842.79 1.587 1.117 2.359 1.153 2.733 2.745 5.171 4.846 7.269.736.735 1.438 1.521 2.258 2.15 1.381 1.06 3.05 1.577 4.687 2.071 1.866.563 3.77 1.015 5.678 1.417 1.345.284 2.72.48 4.09.576 1.408.097 2.827.043 4.24.019.804-.014 1.607-.094 2.409-.156 1.337-.102 2.657-.502 4.011-.274.863.146 1.717.338 2.572.527 1.376.305 2.78.524 4.116.958 3.426 1.111 6.822 2.312 10.224 3.497.872.303 1.686.692 1.665 1.846-.005.252.18.504.251.763.18.65.605 1.077 1.252 1.178.894.14 1.801.207 2.705.272.27.019.598-.089.524-.44-.031-.145-.336-.302-.532-.328a28 28 0 0 0-2.009-.178c-.564-.036-.945-.314-1.176-.817-.433-.942-.55-1.93-.434-2.955.075-.669.19-1.339.19-2.009-.001-1.983.587-3.852 1.053-5.744.152-.622.342-.726.846-.545a232 232 0 0 1 4.63 1.727c.834.321 1.306.908 1.271 1.853-.012.331.082.665.104 1 .113 1.717.208 3.431-.313 5.112a2.6 2.6 0 0 0-.11.994c.05.486.625.762.98.446.38-.339.877-.591.974-1.218.2-1.294.602-2.568.687-3.865.077-1.194-.108-2.415-.266-3.612-.1-.754-.325-.841-1.123-.83-.36.005-.781.057-1.068-.102-1.843-1.026-3.848-1.608-5.838-2.236-.741-.233-1.106-.096-1.319.635-.581 2-1.216 3.992-1.322 6.099-.043.861-.12 1.721-.186 2.659-.283-.073-.443-.101-.594-.154-2.792-.994-5.577-2.006-8.374-2.982-2.13-.742-4.255-1.51-6.525-1.741-.483-.05-.955-.209-1.663-.37.431-.183.626-.297.837-.349 1.278-.319 2.539-.672 3.613-1.492.152-.115.369-.15.56-.21 1.123-.354 2.26-.669 3.37-1.065 2.789-.995 5.56-2.043 8.352-3.034 1.045-.371 2.133-.618 3.187-.967 2.716-.899 5.436-1.785 8.129-2.748 2.628-.94 5.263-1.88 7.82-2.993 1.469-.639 2.846-1.54 4.16-2.471 1.151-.817 2.591-1.371 3.139-2.867.01-.028.044-.052.072-.07.939-.595 1.532-1.508 2.132-2.396.342-.507.75-.647 1.29-.526.689.154 1.371.341 2.058.509.247.06.498.104.974.203-.842-1.159-1.98-1.164-3.047-1.523 1.101-.425 2.186-.434 3.244-.429 1.051.004 2.1.189 3.116.291-.329-.608-.655-.852-1.554-.932-1.373-.122-2.752-.248-4.123.069-.238.056-.493.044-.844.072.813-2.169 1.478-4.247 1.32-6.537.364-.076.65-.162.941-.192 3.182-.328 6.366-.64 9.548-.97 1.135-.118 2.286-.151 3.365-.621.293-.128.673-.18.985-.121 2.507.48 4.211 1.501 4.711 4.031.228 1.154.447 2.315.557 3.484.095.999.19 2.045.003 3.017-.582 3.025-1.923 5.636-4.451 7.56-1.984 1.509-3.895 3.113-5.855 4.655a59 59 0 0 1-2.912 2.166c-2.161 1.495-4.344 2.958-6.521 4.43-.13.088-.283.142-.339.169-.608-.511-1.09-1.052-1.688-1.395-2.195-1.261-4.603-1.871-7.114-2.032-1.442-.092-2.893-.051-4.34-.056a41 41 0 0 0-1.914.052c-1.613.071-3.226.153-4.839.226-.74.033-1.481.054-2.222.084-.251.01-.531.078-.456.382.04.162.303.275.477.394.045.031.132.004.199.002 1.951-.084 3.902-.183 5.854-.248 1.447-.049 2.9.008 4.343-.091 3.16-.216 6.157.299 9.023 1.681a4.9 4.9 0 0 1 2.185 2.024c.52.904.986 1.877.797 2.967-.136.785-.39 1.551-.608 2.32a1.3 1.3 0 0 1-.242.442c-1.381 1.712-2.958 3.161-5.242 3.494-.995.145-2.013.128-3.019.209-.175.014-.34.152-.51.233l.07.249a8.5 8.5 0 0 0 4.702-.306c1.832-.645 3.251-1.901 4.44-3.394.901-1.131 1.339-2.456 1.13-3.917-.112-.79-.333-1.564-.546-2.534.226-.208.494-.516.818-.746 1.179-.84 2.372-1.662 3.57-2.476 1.561-1.06 3.261-1.959 4.665-3.195 1.978-1.74 4.038-3.363 6.15-4.921 2.248-1.659 3.843-3.753 4.647-6.423.251-.832.498-1.695.543-2.554.115-2.193-.163-4.362-.665-6.503-.416-1.77-1.455-2.992-3.145-3.669-.275-.11-.533-.262-.771-.381.509-.722 1.124-1.343 1.444-2.09 1.496-3.495 2.929-7.018 4.348-10.545.716-1.778 1.296-3.612 2.043-5.376 1.077-2.547 1.878-5.168 2.59-7.839.519-1.949-.634-4.006-3.008-3.907m-55.301-56.881c1.43-.878 2.272-2.247 3.067-3.662.772-1.372 1.053-2.894 1.408-4.395.022-.092.056-.182.109-.346.038 3.833-1.763 7.149-5.028 9.904-.157-.665-.111-1.161.444-1.501m11.391 68.091c.362-.365.741-.525 1.256-.488.81.057 1.584.151 2.348.505 1.005.466 2.067.813 3.12 1.171 1.285.436 2.457 1.073 3.661 1.941l-.84 2.091c-1.192-.642-2.329-1.209-3.417-1.857-.925-.55-1.927-.779-2.965-.905-.148-.018-.319.149-.558.27.482.481 1.065.404 1.54.595 1.719.692 3.349 1.549 4.86 2.624.274.195.25.23.05.9-1.983-.337-3.97-.666-5.953-1.018-.467-.083-.913-.188-1.46.284.316.134.522.267.745.308 1.69.315 3.384.606 5.074.917.457.084.906.211 1.464.344l-.827 2.428-5.407-1.639c-.224.467.015.627.268.725q.94.362 1.9.669c.703.225 1.431.38 2.12.641.87.33.904.494.476 1.35-.043.087-.119.158-.258.337-.868-.196-1.778-.404-2.69-.607-.98-.219-1.959-.45-2.946-.639a.96.96 0 0 0-.658.139c-.828.575-1.668 1.142-2.431 1.796-.61.523-1.246.892-2.05.987-1.917.227-3.74-.001-5.457-.959-.243-.136-.655-.064-.959.02-1.717.478-3.42 1.01-5.139 1.483-3.11.856-6.229 1.677-9.34 2.525-1.82.496-3.63 1.018-5.447 1.522-.279.077-.566.123-.958.207.703-3.486.503-6.907.523-10.404 1.34-.146 2.635-.29 3.93-.427 1.34-.142 2.688-.228 4.02-.423 3.505-.513 7.039-.637 10.567-.864 3.316-.213 6.324-1.289 8.8-3.591a104 104 0 0 0 3.038-2.958m7.1 12.947-2.048 6.806c-.493.029-1.055.099-1.615.088-3.771-.075-7.533-.296-11.294-.599-3.023-.243-6.057-.349-9.089-.458-1.24-.045-2.381-.426-3.529-.804-.418-.137-.884-.319-1.107-.905.298-.132.552-.285.827-.361 1.135-.313 2.28-.589 3.414-.903 1.165-.323 2.321-.676 3.482-1.014 1.226-.357 2.46-.69 3.675-1.078.553-.177 1.04-.163 1.55.11 1.651.884 3.428 1.001 5.206.621.828-.176 1.623-.622 2.364-1.061.746-.442 1.414-1.018 2.101-1.553.354-.276.716-.313 1.137-.199 1.587.432 3.178.847 4.926 1.31M19.63 200.799c-1.203-3.546-2.282-7.165-3.008-10.991.871.151 1.667.236 2.435.431 2.055.525 4.147.431 6.232.419 1.951-.012 3.902-.108 5.854-.17 1.14-.036 2.28-.079 3.554-.123.267 2.29.633 4.476 1.844 6.528-.872.642-1.739 1.209-2.696 1.599-2.716 1.105-5.48 2.049-8.433 2.298-.201.017-.408.023-.6.075-1.705.459-3.401.286-5.182-.066m.213 3.107c-2.684.058-5.185-.266-7.76-.525l.167-3.179c2.248.587 4.39 1.168 6.683.933zm-4.894-17.723.394 1.742c-.918.201-1.508.119-2.969-.386l.09-1.716zm-1.005-6.602.86 5.874-2.02-.332c-.141-.957.522-4.208 1.16-5.542m.731-1.882c6.769.585 13.465 1.073 20.176.58.236 1.472-.077 6.511-.448 7.294a21.5 21.5 0 0 1-5.486.472c-2.385-.106-4.768-.278-7.15-.434-1.379-.09-2.758-.18-4.131-.318-.665-.067-1.319-.245-2.02-.381-.764-2.425-.896-4.789-.94-7.213Zm.097-.882.148-2.815c6.5 1.709 12.992 1.621 19.56.918.374.853.536 1.672.395 2.538-3.511.604-17.154.17-20.103-.641m1.468 9.057c2.668.243 5.314.502 7.963.719 3.426.281 6.85.321 10.42-.295l-.167 3.189c-.761.293-1.637.278-2.494.306-1.478.048-2.959.034-4.438.044-2.085.014-4.177.137-6.252 0-1.461-.096-2.9-.538-4.346-.844-.472-.099-.746-.393-.795-.909a6.3 6.3 0 0 0-.247-1.181c-.136-.457.01-.783.356-1.029m46.565 9.484c-3.152.688-6.318 1.33-9.5 1.858-1.551.257-3.15.247-4.729.305-2.623.096-5.247.158-7.872.214a24 24 0 0 1-2.42-.076c-.228-.018-.532-.181-.646-.37-1.225-2.034-2.166-4.166-2.1-6.732.635-.067 1.289-.145 1.945-.2.435-.037.873-.039 1.31-.06 2.247-.112 4.5-.161 6.74-.356a133 133 0 0 0 7.513-.876c2.995-.434 5.98-.942 8.957-1.479 1.185-.214 2.339-.595 3.627-.93.776 2.466.805 4.906.74 7.396-1.073.748-2.336 1.037-3.565 1.306m3.588-.305.068 2.49c-.341.111-.615.251-.901.287-2.921.371-5.688 1.358-8.522 2.08-3.362.857-6.768 1.524-10.274 1.416-2.154-.067-4.31-.107-6.464-.171-.4-.012-.798-.082-1.205-.127l-.651-2.569c.299-.018.611-.046.925-.052 2.828-.057 5.657-.098 8.485-.17 1.48-.038 2.975-.009 4.434-.219a142 142 0 0 0 8.353-1.463c1.902-.391 3.764-.976 5.752-1.502m-1.928-8.721c-2.004.428-4.001.912-6.024 1.229-3.62.567-7.25 1.104-10.893 1.51-2.638.294-5.302.358-7.954.52-1.008.061-2.016.109-3.023.165-.364.02-.728.045-1.3.08l.04-4.143c.447-.012.794-.101 1.09-.015 1.608.467 3.21.136 4.813.017 2.55-.19 5.106-.335 7.647-.608 3.409-.366 6.808-.823 10.207-1.269 1.797-.236 3.586-.532 5.492-.818l.856 2.955c-.352.143-.64.31-.951.377m-1.056-3.838c-4.065.566-8.126 1.171-12.201 1.651-3.175.374-6.365.64-9.555.854-2.002.134-4.026.465-6.19-.256l.334-6.379c4.5.208 9.044.058 13.537-.4 4.465-.455 8.87-1.502 13.417-2.31l1.428 6.537c-.231.094-.492.264-.77.303m-1.232-7.589c-.25.146-.577.168-.874.224-3.633.679-7.259 1.401-10.904 2.008-1.386.231-2.817.207-4.228.283-1.61.086-3.22.181-4.833.221a128 128 0 0 1-4.642.007c-.289-.003-.576-.124-.897-.198-.12-.834-.23-1.611-.35-2.455 9.178-.293 18.102-.719 26.84-3.496.111 1.027.235 1.916.282 2.808.01.199-.204.487-.394.598m-25.26 22.718c.362.61.703 1.144 1 1.7.244.458.137.824-.359 1.078-.956.489-1.857 1.11-2.853 1.488-2.01.764-4.068 1.402-6.106 2.09-.191.065-.39.107-.58.175-2.352.835-4.763.598-7.237.466-.227-.738-.421-1.345-.599-1.956-.074-.255-.114-.519-.171-.788 6.024.133 11.685-1.046 16.905-4.253m-15.9 7.877c.237-.03.494-.088.752-.091 1.44-.015 2.885.037 4.322-.046.724-.041 1.449-.275 2.148-.501 2.173-.702 4.353-1.389 6.491-2.188 1.032-.386 1.975-1.01 2.958-1.528.168-.089.332-.187.499-.281l.193.229c-.617.647-1.23 1.299-1.854 1.942-1.24 1.279-2.49 2.55-3.725 3.834-.228.238-.48.504-.164.947.18-.137.375-.249.524-.403 1.24-1.284 2.469-2.575 3.703-3.863.347-.361.721-.62 1.346-.222-.153.403-.236.878-.486 1.238-1.093 1.574-2.146 3.189-3.379 4.651-2.329 2.761-5.124 4.951-8.512 6.314-.312.125-.634.225-.957.321-.122.037-.257.032-.424.05-.06-.178-.164-.336-.157-.488.065-1.521-.664-2.77-1.282-4.085-.84-1.791-1.633-3.614-2.038-5.57-.012-.059.02-.126.043-.26Zm3.433 11.331c.573-.218 1.174-.425 1.756-.673 2.912-1.242 5.478-2.954 7.662-5.286 1.718-1.833 2.988-3.971 4.46-5.971.215-.292.3-.676.48-.997.242-.427.607-.413.82.03.084.176.117.385.137.582a5.7 5.7 0 0 1-.673 3.375c-.9 1.681-2.262 2.906-3.636 4.144-.5.451-1.003.9-1.465 1.388-2.002 2.113-4.145 4.042-6.803 5.317-.212.102-.423.212-.645.288-.219.074-.451.111-.778.187-.42-.842-1.453-1.245-1.315-2.384m5.019 1.405c1.715-.975 3.132-2.296 4.484-3.708.765-.801 1.598-1.538 2.393-2.31.887-.863 1.767-1.734 2.731-2.68l-.596 2.806c.664-.233.8-.706.908-1.131.307-1.204.61-2.413.82-3.636.255-1.484.202-1.202 1.635-1.346.036.445.13.896.1 1.338-.228 3.228-.758 6.403-1.785 9.482-.255.765-.47 1.545-.769 2.292-.112.281-.39.678-.621.699-1.536.138-2.697 1.195-4.11 1.598-.966.275-1.968.718-2.925.653-1.54-.104-3.167-.273-4.32-1.58-.128-.145-.33-.222-.478-.354-.118-.107-.204-.248-.322-.395.98-.596 1.903-1.188 2.855-1.728m13.268-11.945c.192-.073.341-.152.5-.185.125-.025.261.008.502.02.008.368.034.725.02 1.08-.135 3.243-.804 6.397-1.649 9.517-.246.907-.586 1.789-.902 2.676-.186.524-.534.748-1.186.456 1.596-4.385 2.602-8.884 2.715-13.564m1.824-.283c.872-.03 1.633-.068 2.394-.078.387-.005.508.302.55.612.1.765.264 1.536.245 2.301-.053 2.149-.116 4.302-.317 6.44-.102 1.085-.503 2.143-.783 3.21-.118.445-.412.751-.836.945a6.63 6.63 0 0 1-3.975.535c1.565-4.552 2.672-9.099 2.722-13.965m2.499-.801c-1.58.081-3.157.174-4.737.239-.556.022-1.126.263-1.7-.063-.05-.396-.148-.796-.143-1.194.011-.819-.456-1.219-1.154-1.457-.316-.107-.632-.217-1.016-.349.24-.596.69-.589 1.16-.564 1.782.092 3.564.209 5.347.258 3.108.087 6.183-.233 9.233-.834 2.283-.45 4.517-1.063 6.75-1.713 1.61-.468 3.288-.697 4.938-1.023.188-.038.387-.017.614-.023.338 1.972-.11 3.85-.268 5.826-.343.06-.664.162-.986.166-2.73.039-5.441.291-8.149.624-2.67.328-5.344.629-8.017.943-.35.041-.658.043-.843-.355-.199-.426-.6-.503-1.03-.481Zm30.223-6.554c.065.186-.07.54-.231.691-1.744 1.634-3.499 3.273-5.737 4.221-1.337.566-2.784.669-4.3.826-.147-1.941.3-3.751.175-5.556 1.714-.185 3.282-.288 4.826-.541 1.542-.251 2.889-1.055 4.333-1.863.328.76.672 1.476.934 2.222m-1.183-2.991c-2.62 2.102-5.615 2.457-8.915 2.273l.022-2.649c2.784-.064 5.417-.502 8.036-1.616zm-1.944-6.911c.136 1.372.205 2.742.806 3.988-1.044 1.028-5.768 2.03-7.76 1.618-.047-2.662-.132-5.366-.874-7.99 1.296-.259 2.487-.442 3.647-.744 1.13-.296 2.23-.714 3.503-1.13.232 1.418.536 2.83.678 4.258m-.91-5.26c-.913 1.07-4.975 2.111-7.209 1.961l-.946-3.233c.427-.033.776-.049 1.122-.09 1.362-.158 2.737-.254 4.079-.515.77-.15 1.487-.574 2.3-.904zm-.905-3.624c-.617.721-1.497.912-2.324 1.133-1.67.447-3.381.535-5.19.381-.758-1.898-.68-3.999-1.45-6.008 2.696-.538 4.901-1.92 7.299-3.17.886 2.497 1.125 5.103 1.665 7.664m-1.91-8.903c.032.207-.12.566-.296.664-2.105 1.173-4.18 2.424-6.73 2.957l-.459-3.133 7.028-2.209c.18.647.373 1.176.457 1.721m-.662-2.463c-1.963.638-3.824 1.316-5.727 1.843-2.496.693-5.019 1.294-7.542 1.885-2.988.699-6.024 1.12-9.083 1.355-2.62.202-5.24.395-7.862.542-1.442.08-2.89.055-4.29.077l-.767-1.188c-.553.303-.103.712-.225 1.022-2.862.983-14.632.876-19.152-.834.016-.3-.016-.634.058-.944a18 18 0 0 1 1.932-4.851c.222-.384.473-.483.903-.422 1.534.217 3.072.401 4.61.584 2.575.308 5.15.637 7.73.892 1 .098 2.02-.021 3.028.027 3.813.182 7.622.087 11.36-.677 1.477-.302 2.907-.354 4.386-.361 1.132-.005 2.29-.193 3.387-.485 2.23-.593 4.49-1.027 6.748-1.475 2.775-.551 5.525-1.197 8.303-2.289.807 1.729 1.691 3.38 2.203 5.299m-11.348-11.044c1.056.04 5.253 1.646 6.085 2.354l-6.66 1.491zm-5.652-32.717c.288-.568.68-.842 1.37-.765.366.041.788-.128 1.136-.302.197-.099.414-.408.4-.606-.014-.184-.297-.398-.51-.506-.292-.149-.63-.212-1.031-.338.123-.304.214-.583.344-.842.869-1.738 1.985-3.277 3.574-4.441 1.669-1.223 3.146-1.109 4.606.335.516.511.89 1.065 1.095 1.774.233.806.59 1.574.871 2.367.13.366.21.75.35 1.268-.551-.079-.94-.15-1.332-.187a17 17 0 0 0-1.402-.079c-.342-.003-.633.179-.598.534.026.261.177.599.382.733.296.192.688.251 1.047.329.559.122 1.122.235 1.689.307.488.062.72.34.772.786.355 3.11.771 6.216.385 9.357-.099.801-.142 1.608-.21 2.412-.124 1.448-.4 2.864-.959 4.209-.438 1.053-.887 2.106-1.4 3.124-1.148 2.276-3.077 3.413-5.575 3.553-1.473.083-2.956-.036-4.431.019-1.307.05-2.61.204-3.911.344-.184.02-.349.22-.66.428 1.623.349 3.065-.188 4.611-.055-1.66 3.029-2.09 6.178-2.059 9.42l.208.047c.124-.592.26-1.181.368-1.776.114-.627.203-1.258.318-1.983.221.103.417.184.604.282.714.374 1.406.796 2.144 1.115.518.224.663.524.674 1.074a5.1 5.1 0 0 1-.785 2.873c-1.011 1.642-2.303 2.864-4.14 3.667-2.26.989-4.394.707-6.582.013-.575-.182-1.119-.464-1.672-.71-1.802-.804-2.978-2.279-4.03-3.854-1.182-1.772-2.018-3.715-2.625-5.718.634-.838 1.209-1.577 1.761-2.332 1.06-1.449 1.322-3.13 1.39-4.865.088-2.254.12-4.506-.164-6.752-.063-.496-.044-1.003-.058-1.374.582-.508 1.089-.931 1.563-1.388.061-.058-.043-.289-.09-.541-.243.141-.42.216-.564.331-1.394 1.107-2.678 1.145-4.127.1-1.288-.929-1.99-2.155-1.932-3.78.052-1.474 1.086-2.794 2.41-3.107.416-.099.71-.043.989.275.22.252.465.49.727.699 1.652 1.318 3.492 1.175 5.373.66.126-.035.242-.104.464-.201-.158.798-.608 1.273-1.097 1.778-.603.624-1.251.271-1.88.247-.262.286-.202.542.09.669.642.282 1.287.339 1.929-.07 1.013-.644 1.853-1.448 2.427-2.507.278-.513.546-.987 1.24-1.022 1.373-.068 2.47-.814 3.59-1.509a6.4 6.4 0 0 0 2.455-2.74c.13-.272.331-.51.468-.779m-19.56 14.523a8.5 8.5 0 0 1-2.27-1.464c-1.037-.953-1.996-2.013-2.507-3.374-.637-1.698-1.308-3.386-1.861-5.112-.417-1.299-.116-2.645.014-3.975.13 2.333.626 4.595 1.358 6.796.89 2.679 2.252 5.033 4.897 6.39 1.29.662 2.651.954 4.1.825.328-.029.657-.041.968-.06.252.49.233.817-.306.862-.5.042-1.026.106-1.503-.004-.98-.228-1.976-.476-2.89-.884m1.421 10.601.433-5.12c.1 1.727.353 3.465-.433 5.12m-2.994-8.805c.909 3.53 1.258 7.062.094 10.602.623-3.537.351-7.07-.094-10.602m-6.13 3.537c.048-2.34.06-4.697-.748-6.961a12 12 0 0 1-.516-2.049c-.058-.359.07-.748.113-1.124 2.527 3.446 2.573 12.912.24 16.145.013-.235-.005-.356.028-.461.577-1.805.846-3.675.884-5.55Zm.167-37.581c.196-.565.425-1.107 1.031-1.386.318-.396.654-.777 1.021-1.127.716-.684 1.678-1.378 2.725-1.202a.2.2 0 0 1 .124-.036.18.18 0 0 1 .175.153c.072.087.053.239-.047.301l.063.014-1.517.299c-.384.179-.74.43-1.069.72-.718.633-1.392 1.38-1.91 2.185a.18.18 0 0 1-.11.082l-.192.273c-.144.207-.473-.008-.328-.215l.04-.056zm4.274 17.272c-.139 2.342.615 4.464 1.637 6.59-1.475-1.203-2.375-4.833-1.637-6.59m10.15 1.128c.335.018.668.031 1.004.009.252-.016.228.376-.02.392-.336.022-.67.009-1.005-.009-.253-.013-.232-.405.02-.392Zm12.514-10.134c-2.356 1.332-3.94 3.316-4.886 5.821-.51 1.351-.972 2.719-1.46 4.079-.054.151-.133.293-.201.44l-.178-.056c.216-.865.418-1.733.65-2.593.484-1.785 1.004-3.554 2.022-5.135.633-.982 1.412-1.816 2.42-2.382.502-.283 1.123-.356 1.866-.575-.15.263-.172.366-.233.401m-3.933.14c.716-1.234 2.467-1.242 3.685-1.69.217-.08.388.211.226.325l.083.007-.054.055-.015.019-2.012.445q-.15.045-.297.096l-4.416 3.808c.045-.078.135-.293.274-.468.756-.956 1.537-1.89 2.526-2.597m-2.538-1.173c-1.293-.156-2.616-.189-3.87-.5-1.527-.378-2.643-1.408-3.37-2.82a.8.8 0 0 1-.07-.291c-.005-.061.023-.126.083-.41.92 1.281 1.569 2.627 3.01 3.187 1.36.529 2.789.658 4.216.834Zm-7.42-12.65c.84-.426 1.717-.309 2.56-.084 1.218.326 2.102 1.095 2.84 2.34-2.866.609-5.476 1.634-7.863 3.106-.118-.098-.203-.132-.208-.176-.169-1.453.764-4.219 2.67-5.186Zm-3.21 18.06c.387.933 1.025 1.635 1.845 2.165h.002l.133.016c.344.179.839.208 1.16.26.828.132 1.665.187 2.502.172q.022-.001.043-.005.01.015.018.033l.851-.082c-.43.878-1.752 1.021-3.253.413l-.297-.008a.76.76 0 0 0-.361-.06.2.2 0 0 1-.044-.071c-1.76-.271-2.863-1.74-3.065-4.161.176.509.299.927.465 1.328Zm-2.585 1.594c.394.622.895 1.169 1.364 1.734a.19.19 0 0 1 .04.173l1.067.957c-.833-.213-1.432-.68-1.823-1.373-.354-.421-.702-.846-.997-1.311-.135-.214.215-.392.35-.18Zm.04-12.004c-2.95 3.117-4.323 7.041-5.701 10.961.064-3.44 2.957-9.476 5.702-10.961Zm-7.116-6.508c1.175-1.812 3.455-2.658 5.38-3.43.163-.066.3.085.288.214l.055-.017.038.256-.942.19c-1.42.567-2.975 1.236-4.005 2.358.022.051.019.111-.029.169a2 2 0 0 1-.119.137l-.49.579q-.05.09-.095.183a.2.2 0 0 1-.067.079c-.052.222-.414.195-.386-.046.03-.27.188-.479.372-.672m-3.334 58.275c1.079-.744 2.215-1.409 3.357-2.055 2.108-1.193 4.237-2.349 6.36-3.514.203-.111.43-.179.726-.3 1.042 3.521 3.38 6.143 5.83 8.708-3.84.689-15.044.127-18.313-.928.525-.825 1.284-1.39 2.04-1.911m-2.079 2.698c.968.112 1.93.264 2.895.406 3.236.477 6.47.921 9.76.735 2.151-.121 4.309-.146 6.464-.175.299-.005.613.187.9.329.658.327 1.3.688 1.96 1.013.124.062.3.024.545-.129-.233-.212-.452-.443-.702-.632a30 30 0 0 0-1.477-1.058c-2.642-1.764-4.517-4.218-6.115-6.895-.458-.768-.687-1.674-1.063-2.621l1.473-1.223c.27.648.533 1.181.715 1.741.624 1.918 1.73 3.579 2.853 5.212 1.297 1.886 3.27 2.862 5.387 3.547.703.228 1.439.352 2.162.514 1.766.395 3.377-.139 5.003-.76 1.79-.684 3.055-1.928 4.066-3.482.65-.998 1.14-2.063 1.167-3.288.003-.126.08-.249.12-.37 1.028.174 1.212.325 1.097 1.183a92 92 0 0 1-.734 4.487c-.065.351-.302.67-.463 1.002q-.21.432-.424.862l.166.181c.206-.106.463-.168.606-.33.242-.273.508-.584.593-.923.245-.972.985-1.151 1.804-1.321 1.647-.343 3.285-.725 4.923-1.108.388-.091.76-.247 1.2-.394.904.515 1.52 1.305 1.849 2.384-3.016 1.186-6.128 1.89-9.28 2.442-.796.14-1.585.32-2.381.45-.351.057-.717.018-1.072.056-.258.029-.528.075-.764.179-2.086.92-4.262 1.174-6.511.909-.7-.082-1.4-.17-2.155-.261l-.333.853c-1.066.115-2.2.237-3.331.361-3.562.392-7.135.146-10.703.194-.53.007-1.062-.147-1.596-.202-2.714-.279-5.43-.536-8.143-.829-.994-.107-1.98-.288-3.151-.463.697-.891 1.287-1.693 1.939-2.442.132-.151.503-.163.751-.134m-1.86-15.128c.061-.169.202-.308.482-.38-.47 1.273-.907 2.559-1.418 3.815-.869 2.138-1.418 4.319-1.307 6.657.045.931-.103 1.874-.204 2.808-.15 1.396-.003 2.74.575 4.03.259.578.246.584-.187 1.192-.751-2.499-.956-4.954-.735-7.463.166-1.878.322-3.75.96-5.542a722 722 0 0 1 1.834-5.117m-8.91 22.913c-.082.408-.105.652-.18.877-.63 1.859-1.038 3.754-.985 5.73.034 1.268.315 2.455 1.08 3.5.344.469.709.938.85 1.678-2.686-2.683-3.652-8.399-.765-11.785m4.064-35.343c-.084.389-.16.78-.301 1.16-.327-1.111-.059-2.188.314-3.2.942-2.555 2.552-4.64 4.743-6.268a.9.9 0 0 1 .27-.124c.058-.018.127.002.338.013-.315.745-.878 1.146-1.394 1.534-1.045.784-1.804 1.8-2.576 2.822-.913 1.208-1.088 2.655-1.394 4.063m-1.56 63.17c-.338-3.679-.139-7.266.082-10.969l3.265.519 3.11 11.478c-2.252.227-4.35-.222-6.458-1.028Zm.034 12.49q-.03-1.105-.043-2.211c-.004-.334.034-.669.02-1.002-.05-1.234-.117-2.466-.17-3.699-.009-.231.022-.464.042-.84.78.041 1.507.046 2.226.124 1.268.136 2.53.334 3.798.467.396.042.805-.037 1.207-.067.425-.032.735.105.812.56.453 2.654 1.7 5.019 2.704 7.473.022.053-.004.126-.014.32-1.932.052-3.815.194-5.69.126-1.437-.053-2.864-.373-4.296-.567-.41-.055-.585-.301-.596-.684m.542 3.502c-.072-.687-.347-1.365-.098-2.194.69.106 1.35.171 1.994.314 1.934.427 3.882.335 5.834.235.705-.037 1.41-.041 2.116-.057.515-.011.843.214.88.751.039.591.055 1.183.085 1.834-.658.066-1.188.175-1.716.164-2.724-.054-5.447-.143-8.171-.209-.568-.014-.865-.275-.924-.838m.367 1.487 10.455.299c.377 1.461 1.586 2.423 2.57 3.717-3.996 1.334-7.474 3.741-11.76 4.203-.556-1.656-1.43-7.357-1.265-8.219m1.16 9.089c1.015-.272 1.923-.481 2.808-.761 1.151-.363 2.306-.73 3.422-1.188 2.083-.853 4.085-1.909 6.158-2.518l2.409 1.356c-5.086 1.603-9.743 3.801-14.021 6.857-.63-1.219-.364-2.473-.777-3.746Zm1.777 7.561a11.7 11.7 0 0 1-.81-2.724c-.042-.242.315-.652.59-.832a79 79 0 0 1 3.606-2.219c3.334-1.934 6.915-3.299 10.56-4.507a3 3 0 0 1 .886-.142c2.119-.049 4.122-.514 5.948-1.624 1.089-.663 2.322-.623 3.52-.699 1.108-.07 2.225.005 3.333-.07.627-.042 1.25-.232 1.862-.402.889-.247 1.573-.749 1.873-1.669.126-.385.404-.604.786-.711 2.228-.619 4.456-1.24 6.771-1.885.05.236.073.33.09.426.204 1.158-.312 1.899-1.246 2.574-2.343 1.692-4.388 3.799-6.983 5.135-2.455 1.263-5.034 2.063-7.864 1.697-2.037-.264-4.08-.471-6.122-.694a3.8 3.8 0 0 0-.807.007c-3.299.348-6.394 1.318-9.174 3.151-1.822 1.202-3.601 2.472-5.369 3.755-.507.368-.904.885-1.45 1.433m81.375-9.053c-.213.673-.481 1.329-.733 1.989a9.7 9.7 0 0 1-3.039 4.189c-.157.126-.4.253-.429.412-.215 1.164-1.266 1.555-2.056 2.083-1.784 1.193-3.588 2.389-5.634 3.122-2.06.739-4.12 1.478-6.187 2.194-2.48.86-4.968 1.699-7.455 2.537-.892.301-1.784.614-2.694.851-3.07.802-5.993 2.01-8.947 3.141-1.223.468-2.48.852-3.713 1.296-1.044.375-2.073.796-3.118 1.169-.855.304-1.71.624-2.59.838-1.99.484-3.983 1.018-6.047 1.069-2.994.073-5.997.205-8.962-.391-3.036-.611-6.022-1.402-8.89-2.597-1.466-.612-2.617-1.624-3.663-2.778-.407-.448-.773-.937-1.21-1.352-1.172-1.114-1.919-2.508-2.627-3.921-.784-1.563-1.504-3.158-2.266-4.769.495-.922 1.33-1.497 2.157-2.063 1.333-.912 2.703-1.77 4.044-2.671 1.931-1.297 4.1-2.001 6.32-2.595 1.384-.371 2.762-.433 4.191-.225 2.163.315 4.34.594 6.52.713.977.054 1.98-.305 2.967-.499.26-.051.497-.217.757-.277 3.134-.718 5.56-2.642 7.945-4.636.88-.734 1.75-1.477 2.646-2.191.67-.534.89-.588 1.52-.084 1.084.866 2.354 1.144 3.662 1.296 2.409.281 4.818.586 7.236.741 3.897.251 7.8.413 11.703.561 1.543.058 3.136.2 4.625-.1 1.544-.311 3.1-.514 4.648-.739 2.461-.357 4.948-.539 7.424-.803.534-.057 1.064-.151 1.597-.217.26-.033.524-.039.881-.064.293 1.739-.106 3.263-.583 4.771m25.007-34.129c-2.324-.048-4.648-.082-6.97-.158-1.884-.061-3.765-.206-5.649-.254a673 673 0 0 0-11.007-.196c-.696-.006-1.408.149-2.086.331-.756.203-1.181.792-1.558 1.475-.985 1.787-1.394 3.777-2.11 5.657-.347.909-.598 1.855-.961 2.757-.235.582-.595 1.113-.899 1.667.816-3.69 2.085-7.194 3.489-10.648.566-1.391 1.768-1.992 3.221-2.011 1.951-.025 3.904-.015 5.854.05 2.688.089 5.374.247 8.06.366.503.023 1.018.074 1.508-.005 1.817-.292 3.625-.066 5.435.024 1.333.067 2.664.184 3.995.294.207.017.408.118.659.194-.241.52-.625.465-.981.457"/><path fill="#000" d="M83.885 251.925c.21-.512.445-1.015.625-1.537.153-.444.225-.915.37-1.362.076-.238.228-.637.348-.637.255-.001.559.16.752.348.174.169.254.454.327.703.205.704.385 1.415.593 2.191.305-.598.431-1.469.46-2.647a3.8 3.8 0 0 1 .177-1.076c.1-.31.45-.426.641-.185.374.47.836.279 1.269.288.713.016.93.109 1.02.819.113.897.087 1.811.155 2.714a9.9 9.9 0 0 1-.385 3.592 5 5 0 0 1-.59 1.266c-.12.183-.423.306-.656.328-.086.008-.275-.344-.297-.544-.043-.385-.08-.801.02-1.166.536-1.968.409-3.92-.052-6.048-.256 1.49-.444 2.821-.725 4.131-.19.884-.494 1.745-.787 2.602-.065.19-.287.434-.456.45s-.474-.19-.523-.356c-.127-.439-.224-.915-.195-1.366.063-.953.021-1.882-.276-2.793-.037-.116-.104-.223-.233-.49-.33 1.771-1.078 3.189-1.928 4.553-.225.359-.561.659-.884.943-.29.256-.617.152-.933-.019-.347-.187-.325-.474-.254-.782.489-2.115.147-4.214-.12-6.314-.055-.433-.117-.866-.156-1.301-.07-.778.026-.94.577-1.046.508-.098 1.11.239 1.242.779.174.716.286 1.448.4 2.178.09.559.141 1.123.21 1.686zm5.383 5.15c.091.497-.174.649-.497.807-.753.368-1.56.446-2.364.402-1.983-.11-3.962-.343-5.946-.405-1.27-.04-2.548.143-3.823.213-.453.025-.908.01-1.324.013-.185-.583.156-.662.45-.696 1.6-.181 3.18-.483 4.818-.329 2.179.206 4.37.315 6.557.379.681.02 1.37-.239 2.129-.384M55.376 129.059c-.318.689-.595 1.401-.969 2.057-.244.428-.698.625-1.217.508-.468-.106-.57-.496-.697-.892-.283-.886-.132-1.721.232-2.536.307-.688.827-.956 1.534-.826.544.099.905.552.973 1.225.014.133.007.268.01.402zm5.814-2.342c.496.279.304.675.266 1.006-.113 1-.261 1.996-.388 2.995-.038.299-.034.604-.079.902-.09.608.167 1.039.649 1.369q.164.115.334.226c1.325.842 1.28.74.543 2.201-.382.758-.867 1.455-1.736 1.73-.18.057-.4-.011-.776-.031 1.015-.844 1.956-1.507 2.25-2.757-.475-.358-.947-.722-1.429-1.073-.443-.322-.72-.769-.65-1.293.218-1.625.494-3.242.763-4.859.023-.142.157-.265.252-.416Zm-9.26 10.371c.288.23.5.369.673.546a73 73 0 0 1 1.59 1.686c1.008 1.103 2.319 1.618 3.746 1.777 1.01.112 1.888-.404 2.678-1.004.448-.341.866-.722 1.464-1.225-.104.369-.103.578-.207.699a18 18 0 0 1-1.106 1.166c-1.12 1.089-2.488 1.341-3.931.946-1.163-.319-2.273-.824-3.11-1.764-.492-.552-1.007-1.086-1.482-1.651-.222-.264-.55-.519-.314-1.176Z"/><path fill="#000" d="M64.942 129.686c-.2.632-.359 1.281-.611 1.892-.34.82-1.363.554-1.694-.058-.381-.704-.093-2.689.488-3.277.346-.35.78-.375 1.224-.265.447.112.52.486.53.869.008.268-.023.537-.037.805zm-29.195 1.815c.319.195.612.276.637.407.144.757.803 1.024 1.292 1.452l.612.538c-1.52.229-2.425-.596-2.54-2.397Zm17.949-5.106-2.102 1.763c-.348-.362-.218-1.025.374-1.573.64-.592 1.277-.641 1.728-.19m8.571 2.161c-.085-.103-.198-.176-.198-.251-.006-.65.751-1.475 1.362-1.462.17.004.336.143.504.221-.095.147-.161.33-.29.436-.443.363-.907.699-1.378 1.056m-20.122 80.949.173-3.297.787-.344 1.151.06-.14 2.687-.565 3.433-1.009 4.565-1.352 3.777-1.151-.06-.364-.404.464-1.515.908-2.646.505-2.282zm-2.655-.752.545-3.05.04-.767.04-.768-.343-.787-.767-.041-.808.728-.868 1.878-2.475 3.177-2.452 2.722-4.786 3.212-3.534 1.354c-.053 1.023.223 3.09 1.758 3.17s5.419-3.05 7.169-4.626l4.462-4.384zM22.61 222.49l3.917-1.333 2.99 1.695-3.918 1.334-3.938 1.718-3.978 2.485-2.787 1.778-.323-1.171-.587-3.494 2.727-.627 3.514-.97zm1.21-8.402-.728-.807-6.16.062-4.585-.625-.02.383-.06 1.152.647 2.342 10.38.159.405-.363.424-.748-.304-1.555Zm-12.141-10.64.2-3.838 1.132.444 3.05.545 2.686.141.404-.364.707 1.191 5.009-.122 7.411-1.92 4.746-2.445.707 1.191 4.625-.142 9.25-.285 6.988-1.173 7.411-1.92.768.04 1.151.06 2.706-.242 1.94-.284 1.17-.323 1.192-.707.384.02.727.808.303 1.555-1.615 1.454-1.959.667-3.11.607-2.686-.141-.364-.404-2.726.627-5.07 1.273-7.007 1.557-4.645.526-8.059-.422-.363-.404-.344-.788-1.595 1.071-3.15 1.374-4.302 1.314-3.13.99-1.94.283-3.836-.201.04-.767-1.151-.06-3.07-.161-2.687-.141zm61.534-21.402-.667-1.959-.808.727-2.342.647-4.645.526-.04.767-11.23 1.336-15.47 1.498-2.282-.504-.808.727-3.494.586-2.302-.12-8.826-.463-4.989-.261-.02.383-3.05-.544-.14 2.686 3.453.181.727.808 4.565 1.008 5.756.302 7.715-.365.404-.364.364.404 4.625-.142 6.947-.406 8.139-1.112 6.988-1.173 3.897-.951.788-.343 2.706-.243 3.918-1.334.424-.747zm-11.757-10.621 8.987-2.607.627 2.726-.788.344-5.533 2.788-1.939.283-7.795 1.9-12.38 1.275-4.605-.241-2.687-.141-8.482.325-9.21-.482-3.07-.161.02-.384.181-3.454 5.716 1.07 3.838.201 6.927-.022 3.474-.203 4.241-.162 13.128-.852zm-37.506-3.89-6.483-1.109 2.483-3.333 1.899.484 6.887.746 8.463.059 2.322-.263 2.626 1.292c5.43 2.131 11.539.091 13.915-1.195l1.676-2.606 1.171-.323 3.11-.607 3.13-.99 1.839 1.635.687 1.576-5.857 1.617-6.624 1.576-5.816.85-6.2.829-7.715.366-5.01.122z"/><path fill="#fff" d="m197.894 21.964 9.089 2.786 1.597 6.24-.093 1.776 1.427 2.142-.187 3.568-2.417 2.067-.544 3.05-.505 2.282-.523 9.977-13.995 2.73-1.696 2.99-.081 1.535 18.382 16.354 7.538 17.711-.06 1.152 2.688 7.451 3.031 8.24-.161 3.07-23.826 28.765-4.08-2.908-1.091-1.211-.707-1.191 18.212-24.443-6.284-12.258-2.505-3.594-21.746 25.796-2.865 10.624-11.473-1.37-.868 1.878.687 1.575-.02.384-.848 1.495-1.231 1.474-2.403 1.798-6.929-7.289-6.95-6.906-15.736-15.447-1.737-3.554 1.351-3.777 2.141-4.12 6.399-11.979 9.771-17.573 18.519-8.264 2.867-3.313.424-.748 2.343-.647 1.595-1.07 2.986-12.927.464-1.515-3.756-1.736-1.374-3.15-.224-3.09 1.273-2.241 4.482-4.768 6.18-.446 3.573-9.433zm-47.645 79.464-4.563 6.302-.888 2.263 2.929 2.847 3.192 5.17 1.111.827 1.473-6.079-.891-12.36zm7.08 143.899 9.19.867-.423 8.058-9.209-.483zm25.327 1.327 9.977.523-.442 8.442-9.977-.523z"/><path fill="#000" d="M210.251 131.4c3.307-3.942 6.544-7.944 9.893-11.851 1.864-2.174 2.362-4.51 1.34-7.159-.88-2.281-1.835-4.534-2.72-6.814-.808-2.085-1.569-4.189-2.343-6.287-.067-.181-.076-.383-.109-.56.157-.108.251-.196.362-.244 2.492-1.087 2.048-1 1.306-3.095-1.176-3.319-2.471-6.593-3.988-9.788-1.649-3.477-3.055-7.073-4.461-10.659-.7-1.785-1.738-3.185-3.447-4.059a653 653 0 0 0-5.883-2.967c-.705-.351-1.465-.603-2.137-1.005-2.558-1.53-5.09-3.104-7.742-4.73l.556-1.796c1.053.16 1.964.245 2.851.44 2.828.626 5.557 1.608 8.473 1.942 2.782.32 5.14-1.177 5.396-3.952.144-1.564.099-3.147.096-4.722-.004-1.948-.08-3.896-.071-5.843.005-1.011-.106-1.97-.518-2.909-.149-.34-.175-.79-.101-1.16.188-.93.508-1.835.687-2.767.101-.52.286-.875.714-1.22.6-.484 1.313-1.025 1.572-1.697.696-1.805.823-3.64-.639-5.24-.203-.223-.424-.573-.394-.837.142-1.276-.186-2.466-.517-3.666-.14-.504-.232-1.02-.345-1.528.417-.23.704-.395.996-.549 2.353-1.238 4.05-3.068 5.26-5.447.936-1.841-.101-5.633-1.987-6.456-2.069-.902-4.167-1.335-6.396-.659-.863.262-1.742.469-2.81.753l1.558-1.928c.466-.58 1.162-1.029 1.173-2.102-1.224.895-2.24 1.802-3.403 2.444-1.163.643-2.368 1.302-3.832 1.542q.445-.652.939-1.265c.475-.503.976-.967 1.365-1.521q.386-.387.792-.753a1 1 0 0 1-.068-.167 1 1 0 0 1-.266-.104c-.395.287-.836.53-1.281.733q-.065.056-.139.105-.015.014-.031.032l-.078.086.095-.11-.005.003c-.172.186-.37.324-.584.399-1.261.918-2.707 1.475-4.249 1.7-2.374.347-4.783.472-7.181.63-1.168.076-2.268.266-3.352.754-1.317.593-2.118 1.42-1.962 2.945.006.06-.081.13-.2.307-.998-.052-2.069-.08-3.136-.172-.876-.076-1.644.23-2.369.626-.403.22-.856.527-.699 1.241l2.572.135c-.36.288-.775.342-1.111.535-1.863 1.065-3.471 2.43-4.469 4.359a24.6 24.6 0 0 0-1.484 3.538c-.77 2.319-.774 4.658.201 6.933.26.604.317 1.145.172 1.791-.364 1.617.016 3.12.886 4.515.988 1.582 2.397 2.599 4.273 3.089-.711 4.889-2.168 9.54-3.437 14.161-.775.253-1.449.45-2.106.69-2.685.984-5.35 2.024-8.051 2.962-3.65 1.268-7.23 2.71-10.67 4.458-1.345.684-2.787 1.491-3.705 2.629-1.946 2.41-3.618 5.048-5.324 7.643-1.866 2.838-3.638 5.737-5.464 8.601-.624.98-1.311 1.92-1.923 2.906-.224.362-.313.806-.443 1.157l1.8 1.408c-1.189 2.183-2.276 4.325-3.497 6.387-2.033 3.432-3.491 7.137-5.18 10.73-.638 1.359-.487 2.755.326 4.148 1.53 2.622 3.577 4.764 5.803 6.769 1.91 1.72 3.845 3.415 5.744 5.148.855.781 1.641 1.636 2.473 2.443 1.282 1.242 2.599 2.447 3.847 3.721.321.327.572.838.622 1.29.135 1.231.114 2.479.212 3.716a23.2 23.2 0 0 0 1.239 5.895l1.016-.58c.003.776-.018 1.467.014 2.155.097 2.098.251 4.193.313 6.292.046 1.57-.044 3.143-.025 4.715.022 1.74.062 3.482.161 5.22.16 2.811.439 5.618.548 8.431.098 2.528.025 5.061.047 7.592.014 1.616.071 3.231.098 4.846.029 1.781.007 3.564.077 5.343.075 1.906.224 3.809.354 5.713.176 2.564.364 5.127.55 7.691.105 1.448.23 2.894.324 4.342a1083 1083 0 0 1 .433 7.204c.128 2.235.278 4.47.356 6.707.079 2.275.061 4.553.126 6.828.079 2.777.233 5.553.293 8.331.083 3.81.105 7.622.159 11.433.015 1.017.372 1.392 1.41 1.522.324.041.65.075 1.049.121.143 1.197.089 2.306-.404 3.379-.202-.022-.328-.019-.444-.051-1.221-.342-1.866-.019-2.265 1.181-.131.392-.193.806-.278 1.212-.336 1.617-.669 3.235-.989 4.787-1.57.5-1.714.704-1.705 2.257.001.249-.006.498-.002.747.019 1.1.314 1.499 1.411 1.679 1.064.175 2.141.267 3.214.38 3.43.361 6.857.743 10.291 1.062 1.985.184 3.978.282 5.97.386 2.066.108 4.121.548 6.206.167.259-.047.57.189.857.293.691.248 1.365.588 2.078.718.935.172 1.899.203 2.853.248 2.737.128 5.476.22 8.213.35 3.15.148 6.297.371 9.448.459 1.276.036 2.571-.131 3.838-.332 1.129-.178 1.65-1.084 1.865-2.103.184-.869-.494-1.336-1.095-1.791-.195-.148-.406-.276-.597-.43-1.389-1.114-2.735-2.286-4.17-3.336-1.806-1.32-3.701-2.517-5.523-3.815-.907-.646-1.776-1.318-3.072-1.257l.258-4.914c.727-.019 1.504-.043 2.281-.058 1.069-.021 1.094-.044 1.226-1.105.317-2.554.657-5.105.955-7.661.403-3.461.859-6.918 1.135-10.39.25-3.139.25-6.296.428-9.442.16-2.816.406-5.628.624-8.441.15-1.945.364-3.885.462-5.832.117-2.318.122-4.641.212-6.96.066-1.701.183-3.4.289-5.098.295-4.72.577-9.441.903-14.159.173-2.521.472-5.032.63-7.553.193-3.059.306-6.122.436-9.185.153-3.604.249-7.212.441-10.814.141-2.647.388-5.289.608-7.931.075-.907.373-1.826.27-2.705-.076-.651.133-.996.488-1.409 2.028-2.357 4.066-4.707 6.064-7.09m-6.432-52.83c.506.115.398.523.391.847-.101 5.092-.158 10.186-.341 15.275-.107 2.97-.428 5.931-.622 8.898-.022.336.09.716.243 1.024 1.718 3.448 3.424 6.904 5.21 10.317.525 1.001.413 1.667-.318 2.532-1.654 1.96-3.165 4.039-4.732 6.072-.101.13-.18.277-.378.585-.481-1.453-.57-2.683-.601-3.9-.114-4.469-.225-8.94-.238-13.41-.006-2.108.226-4.216.329-6.325.169-3.474.344-6.947.472-10.422.092-2.512.074-5.029.177-7.54.054-1.314.265-2.622.408-3.953m-11.887 60.116.167.187-.636 1.124-.9-.874zm11.528-87.633c-.909.238-1.845.366-2.469.483-1.951-.334-3.612-.46-5.095-1.274a15 15 0 0 1-1.36-.85c-.097-.069-.171-.355-.117-.414.116-.127.349-.269.487-.232.353.096.671.312 1.019.434 1.281.45 2.546.973 3.86 1.294 1.086.265 2.211.204 3.246-.403.372-.219.932-.484 1.185.074.278.61-.367.787-.756.888m6.112-14.983c-.191 1.11-.053 2.288-1.144 3.133-1.357 1.051-3.003 1.136-4.456.039-1.3-.98-1.627-2.538-.863-4.105.94-1.93 1.684-2.393 3.623-2.257 1.868.13 2.932 1.325 2.84 3.19m-23.458-5.731c.56-.42 1.2-.736 1.804-1.1.39-.235.8-.444 1.162-.717 1.255-.945 1.609-2.096 1.124-3.61-.151-.473-.376-.923-.515-1.398-.106-.366-.128-.755-.233-1.42.495.279.755.369.937.542.268.255.482.568.716.859 1.527 1.9 3.449 3.207 5.803 3.866.755.211 1.498.495 2.266.625 2.522.428 5.027.364 7.488-.414.153-.048.316-.063.598-.116l.751 2.79c-1.176-.355-1.974-1.343-3.229-1.148-.22 1.09.694 1.252 1.256 1.586.593.354 1.293.53 2.034.819l.003.823c-2.121-.549-3.943-.198-5.454 1.447-.712-.937.397-1.67.125-2.473-.607-.041-.607-.041-1.311 1.327l-3.432 1.023c-.79-2.404-2.055-4.324-5.008-4.218l-1.184.432c-.524.462-1.077.894-1.563 1.392-.543.557-1.025 1.174-1.646 1.897-1.184.038-2.375-.532-3.632-.955-.046-.948.559-1.424 1.14-1.86Zm15.947 4.394-.04.755-.118-.006.04-.754zm-5.105 1.102c-.508 1.5-2.09 2.425-3.925 2.297-1.393-.049-2.45-.655-2.925-2.123-.499-1.541-.691-3 .795-4.156.456-.354.867-.775 1.352-1.08 1.011-.633 2.087-.587 3.029.088 1.696 1.217 2.419 2.773 1.674 4.974m-12.572-2.394c.035-.11.14-.199.249-.347l3.829.913c.212.616.49 1.182.6 1.78.63 3.432 4.815 4.348 7.375 2.108a4.5 4.5 0 0 0 1.408-2.289c.356-1.333 1.885-2.128 3.298-1.687-.014.266.002.475-.039.671-.427 2-.563 4.01-.355 6.055.118 1.167-.205 1.45-1.385 1.552-.647.056-1.293.13-2.255.226.37.362.535.66.699.66.742-.002 1.499-.014 2.222-.16 1.228-.248 1.758-1.035 1.689-2.37-.052-.988-.142-1.973-.119-2.999.691.887 1.008 2.016 2.022 2.633.984.599 2.04.845 3.394.724l-.863 3.239c-3.346-.663-6.492.088-9.639.476-2.166.267-4.282.932-6.42 1.418-.158.035-.32.052-.488.08-.613-.55-.631-1.107-.205-1.765.267-.413.444-.887.651-1.338.227-.496.208-.988-.174-1.39-.357-.374-.82-.346-1.276-.185q-1.29.454-2.576.914c-1.126.402-1.841.116-2.038-1.053-.445-2.638-.426-5.28.396-7.866m-9.546 25.518c.401-1.606.773-3.219 1.172-4.824.739-2.969 1.71-5.883 2.077-8.938.028-.24.027-.484.043-.79-.32-.116-.617-.258-.931-.331-2.645-.617-4.483-3.044-4.323-5.734a3 3 0 0 1 .097-.613c.335-1.282 1.013-2.418 2.363-2.613 1.273-.184 2.253.627 2.953 1.707.901 1.39 1.272 2.923 1.508 4.552.507 3.493-.007 6.95-.145 10.422-.045 1.146-.06 2.367.279 3.438.6 1.897 2.159 3.03 3.976 3.637 1.483.495 3.06.71 4.596 1.048.44.096.882.184 1.458.304-.137.473-.21.797-.324 1.104-.428 1.149-.791 1.415-2.035 1.44-2.836.058-5.635-.332-8.419-.8-1.408-.236-2.633-.978-3.826-1.744-.479-.308-.66-.7-.519-1.265m-4.179 2.45c.002-.029.048-.054.074-.081 1.529 3.127 4.315 4.429 7.516 4.961 2.158.36 4.359.553 6.546.612 1.511.04 3.031-.278 4.547-.43.116-.012.237.022.356.035l.052.183c-.56.17-1.109.425-1.682.499-3.337.432-6.669.578-10.008-.08-1.217-.24-2.44-.382-3.566-.966-1.893-.982-3.208-2.438-3.822-4.496a.7.7 0 0 1-.013-.237m12.531 84.503c-.43 1.206-1.251 2.101-2.527 2.836-.368-1.505-.166-2.94-.307-4.336-.144-1.418-.144-2.851-.211-4.364l3.361-.263c.075 2.086.397 4.128-.316 6.127m-10.337-13.639c-.056.255-.285.415-.587.159-.537-.453-1.091-.91-1.524-1.456-2.071-2.612-4.8-4.282-7.792-5.618-1.401-.625-2.745-1.374-4.315-1.528-.234-.023-.447-.264-.749-.453 1.62-.449 6.276 1.193 8.529 2.677 2.528 1.665 4.56 3.797 6.438 6.219m-7.191 5.723c-.67.205-.67.205-.896-.502zm-14.7-36.599c.316-.186.581-.459.835-.75.303-.431.632-.844.962-1.257a.2.2 0 0 1 .132-.074c2.244-2.98 4.501-5.95 6.72-8.949 1.381-1.867 2.112-3.976 2.454-6.293.454-3.074-.172-5.918-1.315-8.718-.099-.243-.127-.514-.214-.883.644.162.844.516 1.009.965.863 2.35 1.342 4.783 1.612 7.261.21 1.92-.283 3.606-1.296 5.296-2.492 4.155-5.841 7.636-8.725 11.478l-.014.015a.17.17 0 0 1-.04.114c-.227.284-.454.568-.672.857-.07 2.168-.126 4.336-.226 6.503-.104 2.237-.299 4.469-.388 6.706-.055 1.406.01 2.818.023 4.499-2.416-2.788-3.711-6.221-6.859-8.175.174-.307.32-.592.49-.862 1.083-1.72 2.163-3.441 3.261-5.151.62-.967 1.188-1.955 2.251-2.582m-.98 31.079c-2.141-2.025-4.227-4.107-6.38-6.117-2.335-2.178-4.772-4.247-7.067-6.466-1.841-1.779-3.538-3.707-5.291-5.577-.168-.179-.27-.418-.415-.619-1.535-2.133-1.434-4.307-.184-6.521.386-.684.788-1.366 1.086-2.089 1.142-2.771 2.739-5.295 4.211-7.888.594-1.046 1.145-2.116 1.732-3.166.321-.573.677-1.126 1.057-1.753l10.906 8.703c-.613.986-1.179 1.888-1.737 2.794-1.022 1.659-2.062 3.309-3.048 4.99-.407.694-.815.972-1.693.771-1.283-.293-2.63-.482-3.866.283-.133.083-.248.195-.568.452.434.065.681.157.91.125.765-.104 1.52-.336 2.286-.367 2.467-.1 4.12 1.212 5.422 3.175 2.339 3.523 4.756 6.994 7.087 10.522 2.814 4.256 5.572 8.548 8.356 12.823.587.901 1.186 1.795 1.805 2.732-1.089 1.751-2.563 2.872-4.143 4.078-.812-.876-1.61-1.652-2.311-2.508-2.479-3.028-5.321-5.697-8.155-8.377m1.381 14.293c-.015-1.861.007-3.723-.025-5.584-.011-.665.266-1.105.805-1.42.716-.418 1.421-.863 2.17-1.212.24-.112.738-.079.891.092 1.466 1.623 2.882 3.289 4.479 5.135-2.822 1.369-5.084 3.229-8.109 3.453-.084-.176-.21-.319-.211-.464m3.712 94.841c-.01-2.777-.056-5.555-.122-8.331-.054-2.319-.172-4.637-.228-6.956-.07-2.942-.062-5.887-.168-8.828-.094-2.61-.285-5.217-.458-7.823-.322-4.841-.69-9.679-.985-14.521-.237-3.89-.419-7.784-.572-11.679-.061-1.569.056-3.144.027-4.715-.044-2.361-.206-4.72-.209-7.08-.005-4.32-.383-8.615-.699-12.915-.069-.95-.033-1.908-.035-2.862-.007-2.524-.009-5.048-.013-7.535 5.939-2.186 11.312-4.75 14.763-10.153 4.249 1.048 8.508 1.842 12.921 1.818.083 1.791.138 3.444.239 5.093.314 5.131.697 10.259.947 15.392.131 2.686.133 5.386.016 8.072-.067 1.561-.52 3.101-.737 4.659-.274 1.97-.474 3.95-.725 5.923-.146 1.152-.354 2.296-.488 3.449-.283 2.429-.529 4.861-.803 7.29-.088.783-.21 1.562-.328 2.341-.472 3.112-.951 6.223-1.42 9.335-.346 2.295-.688 4.59-1.016 6.886-.358 2.505-.668 5.016-1.052 7.516-.617 4.017-1.307 8.022-1.912 12.04-.606 4.021-1.143 8.052-1.715 12.077-.099.698-.245 1.389-.332 2.087-.077.618-.437.84-1.011.863-3.734.146-7.455.032-11.162-.48-.61-.084-1.236-.068-1.855-.065-.623.002-.866-.239-.868-.898m1.654 3.613c-.492-.027-.98-.128-1.513-.201l.081-1.545c.59-.432 1.292-.27 1.914-.185 4.046.554 8.106.531 12.172.404.033-.001.067.041.246.156l-.275 2.138c-.437.004-.76.031-1.079.005-2.111-.168-4.219-.373-6.332-.517-1.735-.118-3.476-.159-5.214-.255m9.047 5.086c-.02.453-.265.682-.691.721-.533.049-1.078.151-1.601.088a99 99 0 0 1-4.649-.686c-.39-.066-.753-.296-1.139-.455-.011-.322-.034-.566-.023-.808.045-.987.1-1.973.156-3.037 2.74-.267 5.327.322 8.133.582-.068 1.296-.133 2.445-.186 3.595m12.941 10.293c-.176 1.509-.441 1.712-1.933 1.828-2.917.227-5.793-.228-8.675-.49-4.254-.387-8.497-.895-12.746-1.345-.784-.082-1.573-.124-2.359-.194-1.277-.114-1.484-.331-1.498-1.616-.003-.324.07-.648.124-1.117.418.041.711.031.982.102 2.022.531 4.089.663 6.164.775 2.445.132 4.885.349 7.33.48 2.692.144 5.388.213 8.081.354 1.117.058 2.231.203 3.342.339.396.049.779.189 1.181.291.005.271.025.434.007.593m-1.041-3.318c-1.193-1.106-2.306-2.145-3.428-3.175-.825-.757-1.631-1.539-2.499-2.245-1.301-1.059-2.723-1.768-4.478-1.198-.148.048-.324.013-.64.02.042-1.305.004-2.565.45-3.911.714.037 1.412.044 2.102.118.859.092.957.051 1.055-.719.153-1.193.276-2.389.454-3.577.745-4.961 1.51-9.918 2.26-14.877.718-4.755 1.457-9.507 2.133-14.267.589-4.146 1.095-8.304 1.659-12.454.087-.64.284-1.265.431-1.897l.241.013c.237 1.529.506 3.054.703 4.589.258 2.01.518 4.024.668 6.044.132 1.775.095 3.562.166 5.342.088 2.185.217 4.368.314 6.552.056 1.277.05 2.557.133 3.832.177 2.728.396 5.453.594 8.18.126 1.732.286 3.462.358 5.197.094 2.277.134 4.557.16 6.836.008.716.277 1.192.938 1.446.223.086.452.155.754.257l-.231 4.4-1.641-.086c-.534 1.993-1.502 3.753-2.656 5.58m16.085 4.833c1.451.105 2.911.245 4.359.18 2.064-.094 4.121-.354 6.179-.561.795-.079 1.6-.247 1.999.717-.512 1.36-1.255 1.749-2.986 1.868-3.033.208-6.046.005-9.066-.227-2.569-.198-5.145-.301-7.719-.433-1.737-.088-3.476-.15-5.214-.232a8 8 0 0 1-1.115-.107c-.95-.173-1.199-.584-.912-1.477.101-.315.235-.619.41-1.074 1.18.181 2.277.411 3.385.507 3.557.309 7.118.581 10.68.839m-10.928-10.79q.092-1.798.228-3.594c.014-.193.14-.378.253-.667l8.583.181-.28 5.343c-1.115.603-2.379.681-3.594.608-1.441-.086-2.874-.395-4.296-.678-.875-.174-.939-.32-.894-1.193m12.653-5.783c-.049.536-.343.815-.898.819-.827.005-1.655.047-2.482.038-2.901-.032-5.802-.086-8.703-.113-.566-.006-1.132.067-1.827.112l-.209-2.031c1.024-.307 12.783-.308 14.184-.016-.02.384-.028.789-.065 1.191m6.208-88.513c-.064 1.572-.085 3.146-.145 4.718-.132 3.477-.23 6.956-.435 10.428-.12 2.025-.463 4.035-.628 6.058a395 395 0 0 0-.583 8.566c-.264 4.432-.622 8.863-.715 13.299-.09 4.275-.501 8.522-.722 12.785-.196 3.768-.398 7.537-.66 11.301-.395 5.666-.771 11.335-1.768 16.938-.073.408-.098.825-.141 1.238-.073.696-.466 1.026-1.158 1.035-1.826.023-3.652.082-5.477.07-2.282-.016-4.564-.108-6.846-.13-1.07-.011-1.113.031-1.186-1.08-.143-2.189-.188-4.385-.361-6.571-.174-2.189-.499-4.366-.675-6.556-.156-1.936-.208-3.882-.288-5.824-.083-1.987-.141-3.976-.215-5.964-.023-.621-.082-1.242-.091-1.863-.038-2.399.026-4.804-.122-7.195-.104-1.689-.489-3.36-.75-5.038-.279-1.796-.569-3.589-.838-5.386-.316-2.117.005-4.203.311-6.293.269-1.841.511-3.687.739-5.534.189-1.521.315-3.05.512-4.57.433-3.33.811-6.67 1.37-9.98.374-2.217.621-4.43.59-6.671-.024-1.692-.12-3.384-.208-5.075q-.241-4.658-.521-9.313c-.027-.436.128-.697.474-.924.311-.203.592-.453.88-.69 2.354-1.935 2.643-4.555 2.438-7.34-.035-.487-.06-.975-.099-1.608 1.722-.27 3.271-.545 4.831-.724.267-.03.642.3.862.555.65.751 1.219 1.573 1.871 2.323 2.399 2.758 5.298 4.862 8.58 6.454.14.068.302.093.461.141.371-.506.32-.844-.235-1.105-.894-.42-1.774-.871-2.825-1.389 1.402-2.112 3.174-3.711 4.823-5.501.006.178.03.357.015.534-.249 3.016-.535 6.03-.744 9.049-.158 2.274-.23 4.554-.321 6.832m-2.583-13.61c-.557.662-1.167 1.279-1.861 2.036-1.803-1.192-3.491-2.428-4.844-4.08-.362-.443-.308-.826-.015-1.235 1.012-1.414 2.004-2.843 3.049-4.231 2.247-2.985 4.577-5.908 6.771-8.93 2.29-3.154 4.422-6.421 7.019-9.349 1.457-1.643 3.08-3.01 5.155-3.781.445-.165.766-.344.428-.967-1.791.567-3.251 1.736-4.897 2.771-.34-.718-.647-1.385-.97-2.044-1.098-2.234-2.167-4.482-3.319-6.688-.475-.909-1.207-1.687-1.342-2.757.814-1.041 7.263-3.542 11.222-5.037.443 1.039.93 2.074 1.33 3.14.859 2.289 1.665 4.597 2.512 6.891.444 1.206.887 2.416 1.403 3.592 1.088 2.481.433 4.565-1.257 6.528-3.327 3.863-6.604 7.768-9.891 11.665-3.503 4.154-6.989 8.323-10.493 12.476"/><path fill="#000" d="M191.813 29.865c-.526-.145-1.067.536-1.676-.056.148-.207.239-.48.417-.56a60 60 0 0 1 3.139-1.322c.208-.08.504-.033.722.052.156.06.334.274.348.434.014.155-.129.414-.27.477-.483.217-.995.367-1.496.543zm-16.781 6.855c.906.333 1.271 1.17 1.599 1.98.333.819.521 1.688.187 2.54l-.309.04c-.17-.764-.248-1.566-.536-2.283-.295-.733-.796-1.384-1.207-2.07zm19.012-3.53c-.142.659-.221 1.17-.376 1.656-.045.144-.325.328-.462.302-.207-.038-.467-.203-.555-.386-.372-.772.08-1.383 1.393-1.571Zm12.404 4.45c-.795-.795-.864-1.386-.252-2.054.145-.157.442-.31.62-.266.189.046.425.31.459.51.125.729-.01 1.387-.827 1.81"/><path fill="#fff" d="m263.869 233.211 1.529-29.164 5.432-.87 32.08 34.004.325 8.482.285 9.25.122 5.009-7.938-2.725-4.831-17.953.02-.384-14.302-13.448.488 12.724-.382 7.291-.402 7.675-.202 3.837-1.171.323-3.413-.948-3.374-1.716-.666-1.959-.93-4.281-.547-4.262-.586-3.494-.506-5.028zM253.846 27.976l27.086 11.809.303 1.555-3.855 7.494-3.674 11.35 10.12 5.149 3.353 2.1 3.474-.203 4.041 10.986 8.265 18.518-.806 8.038-.786 7.655-.525 2.666-1.655 2.222-1.939.283-1.939.284-1.939.283 1.619 13.168 3.839 7.512 10.663-5.213 7.512-3.839 2.041 5.109-14.356 16.948 1.274 5.069-3.635 3.273 6.952 21.528-5.952 25.469-40.654-83.322-.344-.788-1.05-1.979-1.051-1.979-1.615 1.455-1.212 1.091-1.171.323-2.969-2.079-5.252-2.584-1.131-.444-.728-.808.828-1.111-1.858-1.252.464-1.515-.747-.424-.707-1.191-.667-1.959-4.526-9.088-2.748-6.3-2.486-3.978-2.222-1.656-4.484-2.544-2.949-2.463-.323-1.171 5.655 2.22.02-.384-.707-1.191-1.838-1.636-1.798-2.403-1.758-3.17.788-.344 1.494.848 4.04 3.675.748.424.384.02.383.02.424-.747-.707-1.191-3.212-4.786-.727-.808.04-.767.384.02.383.02 1.131.444 1.455 1.615 1.111.828.384.02-1.374-3.15-.687-1.576.403-.363 1.131.444 3.617 4.422 1.778 2.787 1.434 2 .727.807 1.616-1.455.928-3.03 1.635-1.838.788-.343.364.404-.101 1.918-2.865 10.624.283 1.94 5.697 8.763 1.495.848 1.352-3.777 7.286-21.551-2-5.877-2.485-3.978-1.457-8.927-1.98-6.26-1.234-5.837.121-2.302-.546-4.262z"/><path fill="#FC0" d="m259.884 118.334.585-3.817 7.695.018 9.957.907 14.502 2.299.546 4.261-19.691 1.277-10.785.204-2.122-3.574zm1.929-44.15-2.566-2.443-3.574 2.121-2.907 4.08-1.857 6.06-1.937 7.594 1.454 1.615 3.434.565.303 1.555.687 1.575 1.758 3.171.727.808 1.879.868 2.868 3.998 12.704-.104 12.3.26 3.11-.607.362-6.907 11.613-1.315 1.958-.667.808-.728-.869-5.432-2.284-7.816-3.032-8.24-.99-3.13-5.191-3.735-5.373-.281-15.306 13.05-1.171.324z"/><path fill="#000" d="M324.239 234.191c-.747-1.961-1.129-4.007-1.366-6.097-.361-3.175-.863-6.331-1.799-9.402-.224-.735-.35-1.503-.483-2.263-.31-1.773-.499-3.574-.914-5.322-.805-3.393-1.719-6.761-2.61-10.134-1.163-4.401-2.37-8.791-3.514-13.197-.84-3.235-1.584-6.493-2.414-9.73-.985-3.841-2.081-7.655-3.007-11.51-.805-3.347-1.44-6.735-2.153-10.118-.327-.017-.562-.092-.75-.029-1.389.472-2.79.918-4.145 1.477-1.246.513-2.496.664-3.75.219-.868-.308-1.646-.827-1.937-1.81-.084-.281-.159-.572-.289-.832-2.081-4.165-3.013-8.736-4.631-13.064-.062-.164.083-.405.131-.61l.257.007c.11.525.171 1.066.339 1.572.613 1.845 1.227 3.691 1.905 5.512.947 2.546 1.948 5.073 2.938 7.603.187.477.39.939.973 1.112.993.296 1.957.527 3.009.2 1.577-.49 3.162-.895 4.619-1.747 1.579-.923 3.266-1.662 4.897-2.499a1737 1737 0 0 0 8.022-4.15c1.924-1 3.89-1.932 5.75-3.042 1.59-.95 2.032-2.243 1.505-3.627-.248-.651-.399-1.341-.67-1.982-.841-1.997-1.724-3.975-2.579-5.966-.825-1.923-1.589-3.874-2.463-5.775-1.034-2.248-1.902-2.577-4.302-1.818-.438.139-.881.259-1.323.389-.393-1.288-.733-2.449-1.102-3.6-.827-2.588-1.69-5.164-2.497-7.757-.675-2.173-1.191-4.401-1.953-6.541-1.373-3.851-2.248-7.832-3.306-11.766-.155-.579-.339-1.126.417-1.49.175-.083.25-.512.252-.783.005-.4-.08-.803-.157-1.199-.301-1.55-.574-3.107-.933-4.644-.508-2.18-1.032-4.358-1.644-6.51-.43-1.514-1.024-2.98-1.535-4.472-.63-1.837-1.245-3.678-2.217-5.377-.517-.905-.662-1.848-.136-2.827.19-.353.267-.765.434-1.133a43 43 0 0 0 2.672-7.684c.637-2.625.692-5.153-.326-7.676-.858-2.126-1.908-4.173-3.429-5.873-1.737-1.94-3.643-3.739-5.558-5.509-2.38-2.198-4.396-4.652-5.756-7.6-.891-1.933-1.677-3.913-2.56-5.85-1.086-2.382-2.432-4.62-4.127-6.619-2.584-3.048-5.897-4.39-9.892-4.022-.914.084-1.829.181-2.745.218-2.096.084-4.192.134-6.234.69-.07.019-.147.013-.219.027-3.11.635-6.153 1.43-8.808 3.3-2.139 1.508-4.022 3.227-4.989 5.732-.436 1.13-.837 2.28-1.144 3.45a29 29 0 0 0-.711 3.655c-.117.92.498 1.316 1.408 1.013.291-.097.562-.255.965-.442l.088 3.068c-1.627.86-1.961 1.46-1.715 3.227.137.98.337 1.959.592 2.916.36 1.357.885 1.737 2.329 1.864.065.006.126.066.284.152.066.24.143.555.242.864.4 1.258.643 2.602 1.262 3.742.546 1.003.393 1.803.007 2.7-.13.302-.263.613-.454.877-1.481 2.06-2.184 4.481-3.113 6.79-.475 1.18-.724 2.461-.99 3.715-.153.72-.047 1.448.707 2.059.33-.324.732-.57.921-.93.987-1.873 2.261-3.614 2.731-5.736.045-.203.204-.38.311-.57-.05.625-.261 1.17-.401 1.733-.298 1.21-.601 2.422-.818 3.647-.094.528-.025 1.1.063 1.638.04.248.297.641.465.647.267.008.616-.195.794-.418.244-.305.415-.697.52-1.078.233-.849.394-1.717.605-2.572.131-.53.298-1.052.449-1.577.216.201.275.37.301.542.134.903.181 1.826.405 2.704a22.5 22.5 0 0 0 1.419 3.92c.403.866.828 1.605 1.561 2.189.109.087.181.221.316.393-.331.273-.662.498-.932.78-.656.687-1.425 1.317-1.892 2.12a23.7 23.7 0 0 0-2.48 5.985c-.369 1.42-.729 2.849-1.219 4.228a31.7 31.7 0 0 0-1.48 5.973c.149.14.271.278.416.385.534.391.73.824.454 1.508-.299.742-.434 1.548-.671 2.317-.168.55-.706.703-1.103.28-.399-.425-.735-.917-1.054-1.41-1.239-1.91-2.292-3.973-3.736-5.713-1.485-1.79-1.53-3.535-.756-5.512.04-.103.059-.214.098-.317.953-2.556 1.587-5.198 2.077-7.875.119-.65.134-1.317.204-1.975.061-.574-.243-.89-.738-1.081-.504-.196-.863.083-1.178.396-1.01 1.008-1.66 2.236-2.012 3.603-.273 1.063-.607 2.038-1.874 2.492-.169-.209-.387-.434-.554-.693-.955-1.481-1.836-3.016-2.863-4.445-.984-1.37-2.097-2.649-3.192-3.935-.555-.652-1.266-1.092-2.097-1.156-.509.32-.642.714-.463 1.183.18.473.381.942.621 1.387.426.79.888 1.562 1.336 2.342l-.195.14c-.343-.405-.638-.87-1.041-1.203a25 25 0 0 0-2.472-1.806c-.202-.129-.691-.059-.879.109-.199.179-.28.588-.258.885.02.269.216.545.389.777a62 62 0 0 0 1.56 2c1.089 1.341 1.96 2.809 2.692 4.37-.498.5-.915.388-1.32.037-.443-.383-.87-.786-1.313-1.169-.689-.596-1.418-1.15-2.072-1.783-.775-.749-1.551-1.466-2.643-1.712-.678-.154-.991.118-.904.808.026.211.107.428.212.615 1.086 1.922 2.24 3.782 3.94 5.26.688.6 1.331 1.299 1.829 2.383-.53-.259-.843-.432-1.172-.568-1.084-.45-2.165-.91-3.267-1.313-.424-.156-.913-.328-1.33.078.014 1 .737 1.513 1.349 2.069 1.893 1.72 4.15 2.894 6.351 4.15.728.416 1.516.802 2.101 1.38 1.429 1.41 2.368 3.173 3.19 4.987.833 1.839 1.61 3.703 2.445 5.54a152 152 0 0 0 2.297 4.845q.179.355.386.696.405.815.83 1.62c.019.248.111.461.328.615q.189.348.38.695c.079.204.159.407.248.607.319.716.908 1.315.791 2.217-.031.239.303.546.51.786.159.183.382.31.556.447-.544 1.779-.44 1.986 1.405 2.809-.101.153-.218.288-.287.444-.266.605-.15 1.438.4 1.659.846.339.956.981 1.081 1.72.168.996.647 1.422 1.641 1.445.656.015 1.362.038 1.961-.179 1.055-.381 1.806-.102 2.565.638.518.505 1.148.918 1.784 1.271.763.424 1.577.35 2.296-.141.482-.329.906-.745 1.348-1.132.323-.283.633-.582.967-.89.667 1.097 1.286 2.081 1.86 3.091.113.199.099.505.06.748-.077.47-.201.934-.326 1.395-.618 2.268-1.279 4.525-1.856 6.803-.874 3.45-1.698 6.913-2.526 10.374-.341 1.426-.752 2.827-.873 4.312a153 153 0 0 1-.95 8.768c-.386 2.758-1.028 5.474-1.294 8.258-.315 3.287-.797 6.558-1.18 9.839-.51 4.375-1.067 8.747-1.469 13.133-.394 4.31-.708 8.631-.888 12.953-.12 2.858.099 5.728.093 8.592a200 200 0 0 1-.185 7.712c-.054 1.356-.33 2.706-.343 4.06-.034 3.524.037 7.05.024 10.574-.002.5.184.74.571.945a21.2 21.2 0 0 0 7.196 2.311c2.072.276 4.127.682 6.189 1.037l.008.003c.42 3.072.77 5.985 1.232 8.881.352 2.206.855 4.388 1.274 6.584.186.971.315 1.952.5 2.922.092.481.251.949.353 1.324-.954.324-1.781.599-2.603.888-.451.158-.919.293-1.334.521-1.576.864-3.167 1.709-4.689 2.663-1.272.799-2.413 1.809-3.69 2.601-1.432.889-2.401 1.941-2.438 3.756-.024 1.222.545 2.058 1.797 2.053 1.395-.006 2.79-.071 4.185-.108.367-.01.735-.033 1.101-.009 1.941.125 3.88.324 5.824.382 2.791.084 5.587.02 8.377.116 1.511.052 2.022-.655 2.183-2.019.043-.361-.012-.734.009-1.099.078-1.311.188-2.62.251-3.931.114-2.38-.301-4.75-.017-7.146.29-2.442.332-4.913.495-7.371.088-1.318.2-2.635.302-3.953l.223-2.893c.71.089 1.252.155 1.794.226.214.029.426.099.639.1.802.004 1.609-.075 2.405-.011 2.31.183 4.619.375 6.935.192.628-.05.978.143 1.136.744q.334 1.276.7 2.542c.591 2.047 1.206 4.087 1.784 6.137.476 1.692.909 3.396 1.366 5.093.227.843.465 1.684.679 2.455-.768.904-1.648 1.405-2.636 1.746-.242.084-.472.204-.704.314-3.348 1.599-6.257 3.841-9.071 6.216a3.4 3.4 0 0 0-1.168 2.178c-.07.558.186 1.15.23 1.732.05.648.379.871.995.908 1.832.111 3.66.286 5.492.393 2.946.172 5.881-.084 8.809-.343 1.934-.171 3.858-.472 5.779-.767.407-.062.885-.259 1.146-.556.533-.609.867-1.357.893-2.199.025-.843.029-1.687.067-2.53.034-.771.147-1.54.144-2.31-.003-.87.038-1.797-.98-2.239-.006-.25-.009-.469-.016-.688-.08-2.534-.157-5.068-.243-7.602-.069-2.018-.156-4.034-.223-6.051a228 228 0 0 1-.097-4.055c-.006-.429.041-.858.065-1.313.723-.055 1.343-.109 1.963-.148 1.036-.064 1.311-.295 1.124-1.277-.376-1.97-.202-3.957-.273-5.934-.137-3.819-.111-7.644-.717-11.435-.103-.644-.095-1.307-.138-1.961a87 87 0 0 1 1.563 7.65c.478 3.044.823 6.109 1.282 9.156.163 1.082.385 2.183 1.385 3.157 1.09-.136 2.322-.283 3.552-.444 1.784-.234 3.564-.504 5.352-.708 1.489-.17 2.992-.229 4.478-.421.38-.05.907-.337 1.039-.652.26-.617.416-1.288.136-2.022m-32.831-95.362-.217-.153c.213-.257.378-.592.648-.757.59-.361 1.222-.663 1.857-.941a20 20 0 0 1 2.746-.99zm9.372 4.67c-1.248.511-2.506.999-3.765 1.483-.509.195-1.023.385-1.55.518-.15.038-.353-.135-.532-.211.094-.178.185-.357.284-.531.015-.027.061-.047.094-.051 2.031-.235 3.762-1.35 5.676-1.924.099-.029.21-.019.382-.032.075.573-.318.637-.589.748m13.737-7.745c1.177-.96 2.053-2.173 2.408-3.691-.162 1.859-.635 3.591-2.314 4.7-1.065.703-2.19 1.319-3.307 1.94-.336.186-.736.257-1.106.381l-.136-.229c.436-.312.866-.633 1.308-.936 1.051-.72 2.164-1.363 3.147-2.165m-3.724-6.854-11.836 5.838c-.38-1.139-.768-2.265-1.13-3.4-.436-1.363-.805-2.749-1.287-4.095-.464-1.295-.694-2.618-.801-3.978-.113-1.427-.271-2.85-.401-4.276-.023-.253-.007-.509-.009-.824.721-.243 1.443-.31 2.167-.176 1.088.201 1.849-.378 2.483-1.089.766-.86 1.17-1.93 1.499-3.038.543-1.826.507-3.703.637-5.572.126-1.792.344-3.578.531-5.365.021-.204.105-.402.22-.818zm-21.735-60.213c.274-.953.411-1.07 1.384-1.065.661.004 1.322.067 1.982.12.179.015.39.044.522.148 1.783 1.398 3.773 2.593 4.801 4.752.915 1.923 1.772 3.864 2.4 5.91.57 1.858 1.356 3.652 1.889 5.52.614 2.15 1.083 4.343 1.558 6.53.326 1.503.569 3.025.823 4.543.123.736.015.933-.677 1.125a22 22 0 0 1-2.47.54c-1.559.243-3.127.438-4.692.644-1.305.172-2.609.43-3.918.47-1.418.043-2.842-.122-4.417-.205-.182-1.882-.425-3.734-.528-5.594-.162-2.947.261-5.863.603-8.781.111-.947.111-1.907.195-2.858q.092-1.041.272-2.07c.139-.8.329-1.582-.224-2.325-.141-.19-.182-.49-.183-.74-.005-2.245.053-4.485.68-6.664m-39.994-33.68c1.4-1.134 2.794-2.275 4.166-3.442.494-.42.919-.923 1.392-1.405.932.808 1.837 1.492 2.62 2.296a11.8 11.8 0 0 0 4.289 2.827c2.158.831 4.302 1.706 6.484 2.473 1.102.387 2.273.578 3.541.889l-7.448 1.35c.045.034-.047.003-.066-.053-.523-1.513-1.719-1.883-3.146-1.84-.916.028-1.833.062-2.745.14-.82.07-1.437.493-1.868 1.207-.122.203-.345.484-.528.489-1.08.029-1.895.706-2.781 1.09-.634-.6-1.145-1.373-1.856-1.676-.717-.305-1.633-.144-2.709-.2.287-.215.405-.369.551-.403a47 47 0 0 1 2.693-.57c.515-.09.916-.245 1.057-.8.192-.754-.069-1.28-.835-1.362-.567-.061-1.164.06-1.736.163-.466.084-.914.26-1.363.393-.457-.917-.425-.988.288-1.566m14.957 7.71c-.152 1.144-.431 1.538-1.518 1.802-.957.233-1.924.457-2.9.562-.9.097-1.522-.506-1.936-1.213-.689-1.175-.782-2.502-.715-3.829.03-.593.625-1.045 1.333-1.096.791-.057 1.584-.084 2.376-.124.22-.01.44-.04.659-.028 1.463.08 1.736.294 2.136 1.718.206.731.378 1.472.565 2.209Zm-16.497 2.831c-.301-1.089-.491-2.209-.702-3.321-.054-.282-.034-.584-.011-.874.038-.499.247-.902.706-1.152.288.396 1.221 4.99 1.284 6.29-.911.238-1.132-.418-1.277-.943m1.032-5.483c.357-.098.632-.194.915-.248 1.284-.247 2.416.397 2.677 1.673.158.77.172 1.616.041 2.392-.223 1.326-1.143 2.069-2.59 2.436-.454-2.132-.878-4.158-1.043-6.253m6.39 17.29c-1.768-2.034-2.918-4.4-4.059-6.774-.53-1.1-.73-2.358-1.081-3.553.505-.245.914-.404 1.28-.63 1.259-.777 1.878-1.974 1.877-3.4 0-1.052.459-1.556 1.392-1.796.492-.126.98-.266 1.576-.43.095.428.147.778.251 1.113.237.768.432 1.56.765 2.286.617 1.349 1.686 1.844 3.141 1.534.965-.205 1.959-.35 2.871-.7 1.146-.443 1.775-1.715 1.649-2.94-.118-1.142-.055-1.34 1.067-1.625 1.203-.307 2.443-.474 3.672-.674.942-.153 1.89-.269 2.837-.387.352-.044.709-.048 1.073-.07.023.559-.68.969-.012 1.574.358-.447.677-.877 1.027-1.279 1.363-1.565 3.924-1.227 4.793.64.498 1.07.206 2.114-.31 3.064-.75 1.38-1.805 2.492-3.255 3.188-.316.151-.59.39-1.061.71l1.124.396c.276.66.218 1.384.044 2.109-.317 1.32-.789 2.579-1.29 3.846-1.139 2.882-1.704 5.846-.519 8.902.271.701.686 1.233 1.311 1.56 1.689.882 3.389 1.751 5.126 2.534.537.242 1.204.23 1.816.266 1.027.061 2.058.05 3.085.11.309.017.612.163 1.053.29-.257.326-.421.551-.602.763-1.587 1.86-3.631 3.206-5.459 4.794-1.664 1.446-3.398 2.812-5.104 4.21a508 508 0 0 1-3.511 2.85c-.168.135-.378.22-.551.318-2.062-.895-10.233-6.781-11.167-8.451 1.766-1.249 3.532-2.493 5.291-3.746q.585-.416 1.128-.886c.813-.704 1.471-1.433 1.528-2.654.065-1.38.498-2.741.604-4.123.101-1.311.002-2.64-.044-3.958-.009-.272-.173-.538-.329-.99-.354.236-.601.334-.751.513-1.37 1.629-3.168 2.741-5.11 3.349-2.887.903-5.111.51-7.166-1.853m-5.561 34.311c.178-2.04.875-3.9 1.45-5.793.309-1.018.618-2.039.863-3.074.545-2.306 1.441-4.477 2.579-6.54.38-.688.95-1.312 1.549-1.832.855-.741 1.826-1.348 2.73-2.036.458-.348.812-.197 1.162.145.289.283.594.552.862.853 2.153 2.422 4.963 3.997 7.557 5.848.684.489 1.41.922 2.133 1.352.53.316.991.232 1.5-.182 3.993-3.243 8.022-6.444 12.013-9.69.871-.709 1.635-1.55 2.651-2.523-.109.613-.165.987-.242 1.356-.771 3.693-.593 7.39.042 11.069.151.876.671 1.685.984 2.538.117.32.198.685.173 1.02a109 109 0 0 1-.394 4.278c-.36 3.18.066 6.304.58 9.429.104.634.405.778.971.743.426-.026.857.036 1.383.063l-.353 6.74c-.192.06-.294.12-.396.12-3.306-.019-6.612-.02-9.917-.075-2.643-.044-5.285-.197-7.929-.221-1.43-.012-2.861.176-4.293.214-1.43.038-2.861-.018-4.291.006-.509.009-.692-.288-.901-.657a42 42 0 0 0-1.304-2.159 5.07 5.07 0 0 0-2.446-1.989c-.764-.297-1.052-.791-1.21-1.537a14 14 0 0 0-.748-2.401c-.325-.794-.906-1.344-1.899-1.262-.003-.227-.048-.38-.001-.498.47-1.194.378-2.494.733-3.714a43 43 0 0 0 .876-3.64c.331-1.654.556-3.33.908-4.978.253-1.18.641-2.332.968-3.498.161-.572.16-.573-.386-1.114-.108.198-.248.367-.3.56-.617 2.306-1.238 4.606-1.604 6.975-.268 1.735-.751 3.438-1.147 5.152-.189.817-.399 1.63-.614 2.504-1.661-.062-3.208-.185-4.292-1.552m4.04 2.44-.064 1.232-3.931.96.88-2.664c1.124-.02 2.13-.004 3.115.472m-5.802 5.942c.437.157.717 1.082.503 1.657-.252.677-.884 1.01-1.804.95-.755-.05-1.051-.389-.99-1.132.084-1.024 1.323-1.822 2.291-1.475m-10.241-4.946c-.55-1.492-1.295-2.955-2.338-4.22-.486-.591-.85-1.282-1.338-1.871-.911-1.1-2.202-1.686-3.389-2.416-1.846-1.133-3.774-2.15-5.378-3.64-.203-.19-.388-.397-.732-.752 2.033.314 3.506 1.625 5.412 1.814.176-.763-.121-1.285-.535-1.75-.732-.824-1.464-1.651-2.238-2.434-1.364-1.379-2.195-3.09-3.047-4.905.358.12.762.173 1.063.376.484.326.955.705 1.335 1.145 1.282 1.482 3.044 2.364 4.417 3.8.401-.411.718-.709 1.002-1.035.347-.398.244-.823-.01-1.22-.79-1.239-1.572-2.482-2.393-3.699-.452-.67-.988-1.282-1.461-1.938-.177-.246-.283-.544-.528-1.03.932.24 1.529.591 1.975 1.106 1.345 1.551 2.646 3.141 3.959 4.72.223.268.418.56.65.872.364-.402.221-.7.066-.99-1.143-2.132-2.293-4.26-3.428-6.397-.178-.334-.293-.7-.508-1.227.409.065.638.04.789.137.337.218.665.466.945.753 1.528 1.567 5.3 7.154 6.327 9.359a9.7 9.7 0 0 0-1.689 4.873c-.008.118.191.25.375.476.144-.29.263-.462.315-.651.195-.709.333-1.434.556-2.133.432-1.354 1.479-2.254 2.486-3.162.343-.31.571-.598.671-1.072a9.85 9.85 0 0 1 1.833-3.969c.295-.387.596-.728 1.229-.765.019.293.091.541.041.762-.583 2.577-1.16 5.155-1.792 7.72-.262 1.065-.618 2.11-.987 3.143-.547 1.527-.212 2.81.73 4.12 1.609 2.235 3.073 4.575 4.588 6.876.18.273.302.585.5.974-.502.207-.954.43-1.43.582-1.476.472-2.292 1.534-2.155 3.043.179 1.968.31 3.96 1.142 5.797.423.935-.224 1.342-.722 1.87a78 78 0 0 1-2.397-4.641c-.072-.151-.199-.199-.322-.18l-.025-.056c-1.245-2.697-2.531-5.368-3.564-8.165m20.744 25.524c-1.239 1.013-2.071.996-3.333.01-.338-.265-.653-.56-1.048-.902.902-.753 1.968-.534 2.869-.856.92-.33 1.871-.576 2.899-.885l.387.923c-.618.602-1.156 1.205-1.774 1.71m1-6.135c-1.577.335-3.158.653-4.731 1.005-1.361.305-2.704.695-4.072.96-.895.173-1.82.243-2.732.248-.293.002-.696-.29-.842-.56-.098-.18.095-.628.29-.828.236-.242.594-.422.929-.501.894-.211 1.807-.339 2.707-.529.389-.082.817-.193.624-.902-1.973.232-3.828 1.517-5.79.365-.02-1.053.317-1.549 1.26-1.601 1.502-.084 3.01-.066 4.515-.068.435-.001.84.036.778-.665-1.231-.353-2.501-.202-3.764-.139-.842.041-1.682.134-2.524.156-.482.012-.993-.074-1.166-.625-.123-.391.316-.835.974-1.028.242-.071.517-.138.755-.092 1.367.262 2.705.021 4.051-.166.614-.085 1.24-.094 1.86-.126.459-.023.657-.251.612-.838-.355.001-.708-.036-1.05.007-1.564.195-3.119.512-4.687.585-.895.042-1.807-.3-2.838-.493.329-.531.531-.816 1.052-.929 3.018-.657 6.088-.9 9.148-1.226 1.09-.116 2.186-.183 3.279-.277.628-.054.814-.309.661-.97-.238-1.032-.504-2.057-.751-3.087-.049-.204-.066-.416-.113-.723.889.161 1.485.657 1.954 1.229.551.674.973 1.455 1.438 2.198.174.278.301.585.469.867.251.419.601.525 1.111.509 3.332-.107 6.665-.22 9.998-.218 3.014.001 6.027.175 9.041.215 1.91.025 3.822-.095 5.732-.082 1.853.013 3.64.374 5.286 1.281.285.157.598.203.752-.146.172-.391-.188-.508-.445-.619-.742-.319-1.493-.615-2.237-.919-.163-.812.078-6.292.309-6.88 3.552-.476 7.115-.956 10.679-1.425.13-.017.274.07.457.12.028.19.087.368.074.54-.202 2.823-.413 5.645-.623 8.467-.055.733-.131 1.464-.169 2.198-.107 2.024-.359 4.026-.971 5.965-.606 1.919-1.525 2.539-3.508 2.459-.845-.035-1.696-.093-2.536-.03-.291.021-.556.027-.784-.054-.453.013-.906-.007-1.36-.031a.25.25 0 0 1-.197-.095c-.228.028-.463.002-.693-.024a106 106 0 0 1-3.716-.492c-2.324-.348-4.638-.77-6.968-1.067a592 592 0 0 0-11.497-1.332c-.835-.09-1.689.003-2.534-.002-1.608-.008-3.224.065-4.821-.074-.978-.085-1.791.301-2.676.489m8.462 135.876c-.385-1.794-.845-3.577-1.125-5.387-.51-3.296-.912-6.609-1.369-9.993.774-.162.964-.65 1.14-1.23.394-1.295.323-2.624.34-3.934.046-3.526-.054-7.055.006-10.582.037-2.202.259-4.401.398-6.602.056-.881.079-1.765.175-2.642.207-1.885.451-3.766.851-5.63.067 1.648.234 3.3.181 4.944-.09 2.826-.023 5.657-.372 8.479-.175 1.409-.02 2.857-.041 4.288q-.085 6.008-.196 12.017c-.021 1.164-.079 2.328-.124 3.592 1.871.202 3.61.38 5.347.58 1.059.123 2.113.289 3.171.419.5.061.698.336.691.815-.015.955.032 1.914-.04 2.865-.208 2.746-.489 5.488-.692 8.235-.148 2.004-.218 4.014-.332 6.175-.362-.019-.765.036-1.12-.071-1.72-.52-3.42-1.106-5.143-1.616-.536-.159-.811-.455-.922-.966-.274-1.252-.555-2.503-.824-3.756m2.373 5.7c.8.258 1.591.545 2.497.857-.237.177-.41.334-.608.449-1.045.608-2.101 1.199-3.144 1.811-.34.199-.638.327-.996.019-1.076-.926-2.168-1.835-3.22-2.723 1.686-1.389 3.572-1.026 5.471-.413m-5.391 1.587c.973.603 1.872 1.276 2.546 2.359l-1.764.831-3.841-2.946c1.296-1.096 1.65-1.118 3.059-.244m-4.51 1.107c.239-.122.63-.231.82-.12 1.253.736 2.584 1.396 3.439 2.796l-2.238 1.623-3.003-3.589c.33-.246.63-.529.982-.71m-1.864 1.454c1.443.968 2.74 2.557 3.142 3.828-.416.465-.942.182-1.422.176a57 57 0 0 1-1.841-.054c-1.098-.051-2.197-.095-3.292-.186-.259-.021-.504-.217-.854-.379 1.068-1.75 2.844-2.367 4.267-3.385m16.184 6.232c-1.32.056-2.646.014-3.968-.028-3.565-.112-7.129-.274-10.695-.359-1.614-.039-3.232.05-4.848.097-.954.028-1.156-.16-1.2-1.326.308-.008.619-.044.925-.018.618.052 1.233.184 1.851.201 1.615.046 3.232.035 4.847.07 3.235.072 6.469.197 9.704.222 1.124.009 2.248-.222 3.373-.325.35-.033.706-.006 1.051-.007.06 1.181-.073 1.432-1.04 1.473m13.406-144.625c-2.454.11-4.906.28-7.36.402-1.172.058-2.348.043-3.52.098-2.933.138-5.865.311-8.799.439-1.319.057-2.641.033-3.962.061-1.254.027-2.067-.563-2.546-1.703-.241-.575-.578-1.108-.83-1.679-.218-.491-.377-1.008-.53-1.427.11-.187.131-.273.185-.309.78-.52 1.426-1.062.749-2.121-.136-.212-.06-.56-.086-.915.601-.003 1.131-.018 1.66-.006 1.611.037 3.222.12 4.833.118 2.13-.002 4.238.196 6.34.515 3.197.486 6.396.959 9.593 1.441 2.285.344 4.568.709 6.856 1.034.643.092 1.302.077 2.1.119l.158 3.697c-.352.083-.558.171-.766.175-1.358.028-2.718 0-4.075.061m10.642 48.1c.104.329.23.654.307.989.803 3.494 1.62 6.985 2.385 10.487.289 1.321.489 2.664.661 4.005.077.599-.016 1.219-.031 1.829-.005.182-.032.369-.004.546.585 3.729 1.183 7.457 1.762 11.188.1.646.124 1.305.183 1.958l-.294.019c-.216-1.183-.466-2.36-.64-3.549-.441-3.01-.765-6.038-1.292-9.032-.484-2.747-.708-5.52-1.095-8.273-.274-1.946-.878-3.844-1.314-5.768-.291-1.286-.552-2.579-.814-3.872-.032-.157.011-.33.186-.527m-3.348 87.639 4.239 1.308-3.745 2.849-3.223-2.675zm-4.078 2.106c.214-.105.578-.05.813.061.802.379 2.157 1.657 2.943 2.752l-1.131 1.01-4.166-2.854c.521-.337 1.005-.706 1.541-.969m-2.458 1.423c1.422 1.046 3.17 1.521 4.156 3.173l-1.318 1.295-4.295-3.437zm-5.395 4.154c.76-.689 1.547-1.36 2.39-1.942.629-.434 1.345-.321 1.938.161 1.02.832 2.014 1.696 3.06 2.581-.717 1.046-1.477 1.403-2.621 1.302-1.58-.14-3.14-.31-4.663-.75-.205-.059-.394-.17-.716-.313.218-.383.341-.793.612-1.039m20.303 1.911c.14.473-.067.661-.379.714-.687.118-1.379.211-2.072.288-.692.077-1.399.065-2.081.191-4.737.875-9.507.833-14.286.546-.471-.029-.93-.226-1.403-.277-.624-.068-.81-.409-.726-1.078.367.019.674-.023.943.059 1.851.565 3.777.583 5.67.66 1.934.078 3.881-.156 5.821-.261 1.212-.066 2.426-.113 3.634-.229 1.202-.115 2.397-.308 3.596-.463.428-.055.856-.101 1.283-.15m-.299-12.254c.049 1.346.079 2.699-.125 4.212-.792-.236-1.445-.433-2.098-.625l-4.105-1.204c-.45-.132-.76-.386-.9-.864-.521-1.794-1.077-3.579-1.596-5.374a419 419 0 0 1-1.7-6.038c-.494-1.8-.959-3.608-1.469-5.534l11.488-.15c.064.746.184 1.561.191 2.377.015 1.723-.086 3.447-.037 5.168.075 2.679.255 5.354.351 8.032"/><path fill="#000" d="M262.73 47.99c-.068.598-.073 1.092-.187 1.559-.415 1.695-1.259 3.178-2.279 4.585-1.406 1.939-4.125 1.99-5.477-.003-.65-.959-1.117-2.041-1.747-3.215.396-.07.734-.19 1.067-.176 2.999.122 5.603-.98 8.062-2.55.115-.073.263-.096.561-.2m-.961 1.839-.201-.178-5.102 2.031c1.031.939 2.184 1.276 3.465 1.203.204-.012.479-.22.578-.41.448-.868.844-1.762 1.26-2.646m-7.833-2.286c-.369.293-.767.385-1.365.173.878-1.877.769-3.956 1.388-5.863l.227.011c.059.187.192.386.165.559-.194 1.228-.355 2.468-.664 3.67-.151.591-.11 1.03.265 1.47zm23.339-7.1c-.076.108-.118.233-.203.278-.863.455-1.388 1.164-1.637 2.098-.077.291-.211.623-.58.44-.135-.066-.2-.43-.171-.64.151-1.094.857-1.838 1.684-2.476.407-.313.743-.228.907.3"/><path fill="#000" d="M253.95 47.563c.49-.516 1.258-.774 2.079-.688.069.386-.074.629-.48.647-.537.024-1.077.015-1.615.02zm2.978-9.541c-.298-.157-.648-.283-.926-.5-.636-.499-.615-1.373.099-1.726 1.451-.717 2.989-.954 4.566-.445.294.095.564.347.777.587.381.43.308.872-.168 1.215-.175.125-.383.245-.591.28-1.228.207-2.46.388-3.757.589m1.742 2.053c.975.447 1.016 1.245.905 2.068-.077.567-.835.887-1.139.465-.317-.442-.463-1.04-.568-1.59-.098-.52.317-.764.802-.943m-7.575 4.107c-1.259-.49-1.627-1.264-1.119-2.286.113-.227.398-.528.589-.518.269.014.611.228.768.46.539.796.363 1.567-.238 2.344"/></svg>