<svg xmlns="http://www.w3.org/2000/svg" viewBox="0 0 100 40">
<path d="M79.7495 19.3359V36.8818H89.6921V39.8061H76.8252V19.3359H79.7495Z" fill="#002624"/>
<path d="M61.6309 19.3359H74.4978V22.2602H69.5265V36.8818H74.4978V39.8061H61.6309V36.8818H66.6022V22.2602H61.6309V19.3359Z" fill="#002624"/>
<path d="M46.4355 33.1972H49.3599V34.3669C49.3599 35.7413 50.5003 36.8818 51.8748 36.8818H53.834C55.3254 36.8818 56.3782 35.946 56.3782 34.6593C56.3782 30.6238 46.728 29.7465 46.728 24.1903C46.728 21.3245 48.9797 19.3359 52.1672 19.3359H53.5416C56.5536 19.3359 59.0101 21.7631 59.0101 24.7751V25.6524H56.0858V24.7751C56.0858 23.3715 54.9453 22.2602 53.5416 22.2602H52.1672C50.5881 22.2602 49.6523 22.9913 49.6523 24.1903C49.6523 27.2901 59.3025 28.489 59.3025 34.6593C59.3025 37.5836 56.9338 39.8061 53.834 39.8061H51.8748C48.8627 39.8061 46.4355 37.3789 46.4355 34.3669V33.1972Z" fill="#002624"/>
<path d="M34.1645 39.8061H31.2402V33.0802L36.2116 19.3359H39.1359L44.1072 33.0802V39.8061H41.1829V35.0687H34.1645V39.8061ZM34.6909 32.1444H40.6565L37.703 23.9563H37.6445L34.6909 32.1444Z" fill="#002624"/>
<path d="M28.9128 39.8061H25.6961L21.9822 31.618H18.9702V39.8061H16.0459V19.3359H23.6491C26.5734 19.3359 28.9128 21.6754 28.9128 24.5997V26.3543C28.9128 28.7814 27.3045 30.7992 25.082 31.4133L28.9128 39.8061ZM18.9702 28.6937H23.6491C24.965 28.6937 25.9885 27.6702 25.9885 26.3543V24.5997C25.9885 23.2838 24.965 22.2602 23.6491 22.2602H18.9702V28.6937Z" fill="#002624"/>
<path d="M13.1327 25.7694C13.1327 27.1146 12.6355 28.372 11.7875 29.2786C12.9572 30.2436 13.7175 31.7058 13.7175 33.3726V34.5423C13.7175 37.4666 11.3781 39.8061 8.45378 39.8061H0.850586V19.3359H7.86892C10.7932 19.3359 13.1327 21.6754 13.1327 24.5997V25.7694ZM3.77489 36.8818H8.45378C9.76972 36.8818 10.7932 35.8583 10.7932 34.5423V33.3726C10.7932 32.0567 9.76972 31.0332 8.45378 31.0332H3.77489V36.8818ZM3.77489 28.1089H7.86892C9.18486 28.1089 10.2084 27.0853 10.2084 25.7694V24.5997C10.2084 23.2838 9.18486 22.2602 7.86892 22.2602H3.77489V28.1089Z" fill="#002624"/>
<path d="M87.0254 0.194092H92.4221V1.49674H90.375V6.52123H89.0724V1.49674H87.0254V0.194092ZM93.3525 6.52123V0.194092H94.8413L96.5161 3.59958L98.1909 0.194092H99.6797V6.52123H98.377V2.48303L97.0185 5.21858H96.0136L94.6552 2.48303V6.52123H93.3525Z" fill="#002624"/>
<path d="M79.2174 0.194092V11.3596H85.5445V13.2205H77.3564V0.194092H79.2174Z" fill="#002624"/>
<path d="M69.5474 0.194092V11.3596H75.8746V13.2205H67.6865V0.194092H69.5474Z" fill="#002624"/>
<path d="M58.0166 0.194092H66.2047V2.05501H63.0411V11.3596H66.2047V13.2205H58.0166V11.3596H61.1802V2.05501H58.0166V0.194092Z" fill="#002624"/>
<path d="M56.5357 4.66031C56.5357 6.52123 55.047 8.00997 53.1861 8.00997H50.2086V13.2205H48.3477V0.194092H53.1861C55.047 0.194092 56.5357 1.68283 56.5357 3.54375V4.66031ZM50.2086 6.14904H53.1861C54.0235 6.14904 54.6748 5.49772 54.6748 4.66031V3.54375C54.6748 2.70634 54.0235 2.05501 53.1861 2.05501H50.2086V6.14904Z" fill="#002624"/>
<path d="M45.0049 0.194092H46.8658V13.2205H44.1675L40.5387 3.32044V13.2205H38.6777V0.194092H41.3761L45.0049 10.0942V0.194092Z" fill="#002624"/>
<path d="M37.1968 0.194092V2.05501H30.8697V5.4605H36.4525V7.32142H30.8697V11.3596H37.1968V13.2205H29.0088V0.194092H37.1968Z" fill="#002624"/>
<path d="M27.5269 0.194092V2.05501H21.1998V5.4605H26.7826V7.32142H21.1998V11.3596H27.5269V13.2205H19.3389V0.194092H27.5269Z" fill="#002624"/>
<path d="M17.857 13.2205H15.81L13.4466 8.00997H11.5299V13.2205H9.66895V0.194092H14.5073C16.3683 0.194092 17.857 1.68283 17.857 3.54375V4.66031C17.857 6.20487 16.8335 7.48891 15.4192 7.8797L17.857 13.2205ZM11.5299 6.14904H14.5073C15.3448 6.14904 15.9961 5.49772 15.9961 4.66031V3.54375C15.9961 2.70634 15.3448 2.05501 14.5073 2.05501H11.5299V6.14904Z" fill="#002624"/>
<path d="M3.53575 6.20463H8.18806V9.85203C8.18806 11.6943 6.69932 13.2203 4.8384 13.2203H3.34966C1.50735 13.2203 0 11.6943 0 9.85203V3.54351C0 1.68259 1.50735 0.193848 3.34966 0.193848H4.8384C6.69932 0.193848 8.18806 1.68259 8.18806 3.54351V4.56702H6.32714V3.54351C6.32714 2.70609 5.67581 2.05477 4.8384 2.05477H3.34966C2.51224 2.05477 1.86092 2.7247 1.86092 3.54351V9.85203C1.86092 10.6708 2.53085 11.3408 3.34966 11.3408H4.8384C5.6572 11.3408 6.32714 10.6708 6.32714 9.85203V8.06555H3.53575V6.20463Z" fill="#002624"/>
</svg>