<svg xmlns="http://www.w3.org/2000/svg" width="332" height="275" fill="none"><path stroke="#000" stroke-width=".794" d="M322.564 242.687q-.872.522-1.758.234c-.326-.104-.512-.358-.757-.562a8 8 0 0 1-.526-.468c-2.351-2.359-5.438-5.374-7.872-7.94q-21.943-23.137-37.576-50.462a.156.156 0 0 0-.182-.07c-10.169 2.975-20.146 6.102-30.115 9.713q-5.13 1.86-8.164 3.328c-5.085 2.463-10.001 5.128-14.159 8.666a17.5 17.5 0 0 0-2.8 2.996.52.52 0 0 0-.083.452q.085.31.462 1.809.196.784.656 1.741 1.4 2.912 2.639 5.395c.401.804.685 1.568 1.12 2.343q.226.402.818 1.6 3.531 7.143 7.887 15.61c.759 1.476 1.593 3.114 2.221 4.587a346 346 0 0 0 2.65 6.072 42 42 0 0 0 2.536 4.79q.424.69.444 1.07.03.564-.388 1.08m-143.28-4.543q-.966-.338-1.089-1.294-.08-.62.224-1a118 118 0 0 0 7.278-10.056 67 67 0 0 0 7.305-15.252q.819-2.461 1.141-4.717.078-.556.088-1.053c.019-.931.096-1.588.001-2.448q-.09-.795-.194-1.386-.056-.299-.282-.359m.004.001q-.506-.799-1.175-1.079l-2.642-1.093a1.3 1.3 0 0 0-.436-.094c-.701-.028-.893-.157-1.396-.588a.6.6 0 0 0-.17-.105l-.517-.222m-.004 0a1813 1813 0 0 0-9.598-3.703q-3.375-1.29-7.182-3.388m.006 0a68 68 0 0 1-6.258-3.674m-.002-.001q-3.145-2.313-5.686-3.721-3.303-1.829-7.684-2.738c-1.196-.248-2.431-.379-3.606-.701q-.616-.17-1.166-.29m-.002-.003a373 373 0 0 0-5.951-1.523 6.5 6.5 0 0 0-.95-.133 3.5 3.5 0 0 1-.939-.199m.001.002a15.5 15.5 0 0 0-5.584-.733.26.26 0 0 0-.164.073c-3.685 3.693-5.139 5.851-9.861 11.865-2.525 3.213-4.732 6.318-7.468 9.856-4.203 5.43-8.609 10.256-13.543 14.77q-1.11 1.018-2.256 1.432a1 1 0 0 0-.261.145c-2.336 1.801-4.262 3.133-6.183 4.28a16.4 16.4 0 0 0-2.47 1.804q-2.184 1.925-3.22 2.974-.73.742-1.56.833m101.59-27.228a269 269 0 0 0-14.24 16.925 407 407 0 0 0-15.978 22.248 787 787 0 0 0-10.828 16.623"/><path stroke="#000" stroke-width=".794" d="M110.812 212.564q-13.909 14.845-24.947 30.678-6.765 9.703-14.206 21.684m-8.361-73.76a68 68 0 0 0-8.405 9.818 45 45 0 0 0-2.712 4.334c-2.62 4.835-4.16 8.771-6.825 15.272-1.683 4.11-3.642 8.442-6.048 12.345q-2.409 3.91-6.1 8.17a86 86 0 0 1-7.132 7.323l-1.868 1.691c-.954.86-1.901 1.574-2.81 2.41-.45.412-1.286.972-1.86 1.57m68.16-51.806a13 13 0 0 1-.929.836q-4.252 3.47-7.67 7.067c-5.834 6.141-10.981 12.912-15.372 19.835-3.877 6.117-8.421 13.92-12.865 21.008q-3.45 5.497-7.232 10.781m37.809-63.203q-6.51 5.695-11.694 12.148-5.355 6.666-10.284 14.313a890 890 0 0 0-10.045 15.954 319 319 0 0 1-6.966 10.821 172 172 0 0 1-5.826 8.103m18.831-70.648q-5.394 5.518-8.849 11.983a102 102 0 0 0-4.06 8.529 3079 3079 0 0 0-4.027 9.592 64 64 0 0 1-9.536 15.9 83 83 0 0 1-8.924 9.314c-.62.551-1.544 1.433-2.436 2.17a504 504 0 0 1-4.473 3.656m251.954-67.738a35 35 0 0 0-.542-1.334q-4.728-10.201-6.298-13.713c-2.755-6.159-5.311-12.536-6.923-18.85a47 47 0 0 1-.924-4.628q-.546-3.657-.164-6.879.21-1.77.725-3.121.833-2.18 2.253-4.923 1.352-2.61 4.397-8.1a73 73 0 0 0 2.971-5.921q.7-1.585.753-2.713.066-1.428-.948-2.337c-2.996-2.682-7.637-.401-10.271 1.455-4.147 2.92-6.839 6.624-10.107 10.91-1.124 1.474-3.316 4.049-4.53 5.727q-1.81 2.504-3.985 6.561-.272.507-.488.683c-1.002.812-2.67.236-2.726-1.043q-.018-.422.405-1.238a53.5 53.5 0 0 1 6.972-10.33.78.78 0 0 0 .186-.633 40 40 0 0 1-.265-9.611 28.3 28.3 0 0 1 2.192-8.632c1.55-3.601 3.529-6.806 5.791-10.047a2032 2032 0 0 0 5.322-7.648 162 162 0 0 0 6.898-10.906q.639-1.107.72-1.65c.238-1.599-.795-3.437-2.03-4.507q-1.308-1.131-3.15-.588-2.45.723-4.816 2.408-2.042 1.452-3.191 2.461a83 83 0 0 0-8.92 9.155q-5.548 6.624-9.331 12.63-2.523 4.007-4.267 7.914-.432.97-.552 1.685a103 103 0 0 0-.793 5.902q-.162 1.52-1.674 1.518c-.691-.001-1.451-.447-1.536-1.051-.102-.721.048-1.486.129-2.205 1.172-10.194 3.738-20.328 8.349-29.486a96 96 0 0 1 6.731-11.38l2.716-3.948q1.18-1.716 1.472-3.453.25-1.5-.683-2.942c-.396-.614-1.103-1.099-1.837-1.142q-.801-.048-1.85.433-4.881 2.231-8.654 6.459c-2.598 2.913-4.561 5.908-6.484 9.444q-7.515 13.82-9.311 29.309-.171 1.483-1.527 1.549c-.789.038-1.384-.344-1.714-.97q-.18-.336-.099-1.46.063-.901.189-2.278c.876-9.75 3.856-19.086 7.571-28.213 2.137-5.253 3.529-8.5 4.593-11.523a38 38 0 0 0 .729-2.225 10.4 10.4 0 0 0 .376-2.056q.033-.5-.444-.865-1.164-.89-2.222-1.075a1 1 0 0 0-.21-.013 3.9 3.9 0 0 0-2.188.81c-1.973 1.488-3.449 3.56-4.69 5.59-2.567 4.204-4.557 8.382-6.681 13.093a49 49 0 0 0-1.95 4.998 479 479 0 0 0-2.392 7.52 1565 1565 0 0 0-6.814 22.918c-.572 1.976-3.73 1.228-3.169-.759a169 169 0 0 0 3.859-16.969 82 82 0 0 0 .963-7.775c.078-1.038.036-1.851-.005-2.852-.038-.946-.196-2.053-.714-2.872a.14.14 0 0 0-.073-.059.15.15 0 0 0-.096-.002 4.9 4.9 0 0 0-2.13 1.287c-1.651 1.687-2.656 3.79-3.523 6.013a55 55 0 0 0-1.878 5.717q-1.23 4.56-2.449 10.248-3.43 15.998-.019 32.237c4.26 20.26 15.784 38.831 30.169 54.421a147 147 0 0 0 13.18 12.598.27.27 0 0 0 .306.018q4.482-2.889 9.983-5.547 3.92-1.895 9.776-3.98 7.462-2.658 12.833-4.376 1.313-.42 8.666-2.724a.1.1 0 0 0 .058-.047.1.1 0 0 0 .01-.036.1.1 0 0 0-.006-.036Zm-206.459 4.115q1.386.317 5.834 1.486c1.74.459 3.543.687 5.218 1.076q5.847 1.362 10.428 4.514 4.432 3.05 5.386 3.608a108 108 0 0 0 6.791 3.653q2.353 1.159 6.102 2.564 1.79.67 7.822 3.035a.38.38 0 0 0 .381-.058 267 267 0 0 1 3.993-3.22 149 149 0 0 0 2.853-2.29 17.4 17.4 0 0 1 2.058-1.444c8.012-4.885 14.599-11.65 20.03-19.06 6.495-8.858 11.405-18.042 16.88-28.287 2.167-4.056 4.27-8.318 5.699-12.639q2.338-7.07 1.374-14.214c-.272-2.02-1.546-5.176-4.445-3.203q-.745.509-1.037.77c-3.201 2.887-5.335 6.233-7.182 9.961q-2.645 5.337-3.241 6.402-.065.118-.849 1.501c-.365.644-.91 1.095-1.66 1.008q-1.39-.16-1.544-1.493a.5.5 0 0 1 .013-.189q.213-.803.236-1.022.624-5.998 1.025-8.798a731 731 0 0 0 2.198-16.642q.017-.131.117-1.316c.101-1.164.221-2.117.304-3.287q.2-2.766.265-4.004.19-3.625-.012-8.601a72 72 0 0 0-.963-9.023 46 46 0 0 0-1.84-7.297c-.933-2.727-2.186-5.43-4.105-7.583q-1.095-1.226-2.451-1.81a.1.1 0 0 0-.032-.01l-1.032-.224a.2.2 0 0 0-.054-.005c-1.953.073-4.673 1.637-4.791 3.749q-.068 1.21.293 2.735.804 3.392 1.433 6.206 1.169 5.228 1.333 11.327.087 3.233-.131 5.067-.269 2.26-.944 5.336a100 100 0 0 1-3.835 13.168q-.902 2.447-1.48 3.474c-.501.891-.734 1.449-1.422 1.944a.44.44 0 0 1-.189.078c-2.003.34-2.496-1.302-2.685-2.722a40 40 0 0 1-.317-3.945 312 312 0 0 1-.162-9.456 6557 6557 0 0 0-.038-7.75q-.024-5.46-.833-10.466-.841-5.205-2.367-8.97c-.842-2.073-1.874-4.06-3.64-5.697-.789-.73-1.94-1.33-3.038-1.15-1.243.202-2.317.867-3.216 1.7-.848.784-1.021 2.328-1.051 3.305q-.042 1.41.266 3.997.297 2.477 1.046 6.368c.827 4.285 1.762 8.988 2.307 13.5q.519 4.316.39 8.407c-.031.932-.283 2.202-.243 3.157.119 2.869.074 5.524-.299 8.338q-.107.802-.415 1.121c-.796.821-2.247.583-2.735-.352q-.206-.39-.068-1.39.549-4.064.171-8.368a65.3 65.3 0 0 0-2.679-13.547 104 104 0 0 0-5.963-15.019c-.882-1.804-1.513-3.138-2.802-4.213q-.787-.656-1.707-.643a.8.8 0 0 0-.222.035q-.927.3-1.454 1.13a8.2 8.2 0 0 0-1.174 3.214q-.189 1.29-.197 1.734-.036 2.16.342 4.939c.594 4.374 1.914 9.364 2.675 13.759q.557 3.21.587 7.315a31.8 31.8 0 0 1-1.947 11.265q-1.05 2.865-2.827 6.327c-.574 1.118-.93 1.899-2.309 1.656-1.013-.181-1.17-.831-1.315-1.757a201 201 0 0 0-3.976-19.163c-.955-3.67-2.516-8.16-6.897-9.176q-1.218-.283-2.197-.095c-2.054.394-3.098 2.063-3.26 3.899a15.8 15.8 0 0 0 .048 3.405q.371 2.939.854 7.028a207 207 0 0 1 1.393 20.76 45 45 0 0 1-.03 2.002 45 45 0 0 0-.002 1.997q.02 1.389-.11 3.192-.054.727-.219 3.187a90.4 90.4 0 0 1-3.154 18.376q-.927 3.312-2.54 7.398-1.065 2.705-3.3 7.127a1458 1458 0 0 0-3.588 7.159.1.1 0 0 0 0 .085.1.1 0 0 0 .07.054Z"/><path fill="#000" d="M208.603 17.375a146 146 0 0 1-3.507 7.035q-.51.962-.963 1.188-.73.363-1.634-.012a1 1 0 0 1-.199-.111q-.548-.407-.603-1.195-.027-.379.456-1.265a118 118 0 0 0 3.434-6.861 117 117 0 0 0 3.006-7.036q.362-.936.676-1.177.654-.5 1.345-.404a1 1 0 0 1 .221.06q.914.36 1.128 1.106.132.465-.269 1.469a146 146 0 0 1-3.091 7.203m-60.507-3.852-.047.015c-.848.259-1.306 1.11-1.024 1.9l6.217 17.382c.282.79 1.198 1.22 2.046.962l.048-.015c.847-.259 1.305-1.11 1.023-1.9l-6.216-17.382c-.283-.79-1.199-1.22-2.047-.962M100.8 32.538q3.058 2.312 6.954 4.508c.685.386.875 1.394.468 2.016q-.427.653-1.321.726-.54.045-1.039-.235a63 63 0 0 1-7.126-4.644 62 62 0 0 1-6.346-5.54 1.52 1.52 0 0 1-.46-.9q-.108-.829.49-1.355c.568-.498 1.667-.533 2.214.013q3.108 3.1 6.166 5.41ZM322.567 242.69q-.871.52-1.758.234c-.326-.105-.511-.358-.756-.562a8 8 0 0 1-.527-.468c-2.351-2.359-5.437-5.375-7.872-7.941q-21.943-23.136-37.575-50.461a.15.15 0 0 0-.078-.066.16.16 0 0 0-.105-.005c-10.168 2.975-20.146 6.102-30.115 9.713q-5.13 1.86-8.163 3.329c-5.086 2.463-10.001 5.127-14.16 8.665a17.6 17.6 0 0 0-2.8 2.996.53.53 0 0 0-.083.452q.085.312.462 1.81.197.784.656 1.741a412 412 0 0 0 2.639 5.395c.402.804.685 1.568 1.12 2.343q.227.402.818 1.599 3.531 7.144 7.887 15.611c.759 1.476 1.593 3.113 2.221 4.586q1.404 3.295 2.651 6.073a42 42 0 0 0 2.535 4.789q.424.69.444 1.071.031.564-.388 1.079-1.377 1.054-2.571-.134a1 1 0 0 1-.098-.124 45 45 0 0 1-2.718-5.002q-.752-1.63-3.094-7.069a41 41 0 0 0-1.265-2.633 1024 1024 0 0 1-13.245-26.5q-.48-.995-.722-1.928a489 489 0 0 1-.697-2.713q-.094-.369.039-1.041a.5.5 0 0 1 .063-.167 16.1 16.1 0 0 1 3.371-3.97q.159-.136.312-.338a1 1 0 0 1 .176-.172q.84-.608 1.442-1.168.127-.117.222-.126.121-.014.121-.098a.2.2 0 0 0-.069-.144q-4.893-4.081-10.612-9.955a149 149 0 0 1-17.793-22.169q-6.897-10.501-11.252-21.737c-3.428-8.848-5.535-18.133-5.962-27.46a72 72 0 0 1-.058-1.417 40 40 0 0 0-.041-1.421 15 15 0 0 1 .048-1.709 1 1 0 0 0-.048-.347.5.5 0 0 1-.019-.155q.07-2.041.075-2.308.004-.403.108-1.181c.083-.615-.025-1.434.158-2.097.095-.348.008-.844.095-1.238q.024-.11.133-1.108.333-3.029.926-5.935 1.182-5.796 2.307-10.232a86 86 0 0 1 1.316-4.61c.832-2.638 1.881-5.239 3.352-7.622 1.421-2.304 3.518-4.424 6.393-4.766 1.722-.205 3.132 1.156 3.609 2.597a12.4 12.4 0 0 1 .612 4.021q-.002.015.008.028a.04.04 0 0 0 .026.016.05.05 0 0 0 .031-.007.04.04 0 0 0 .016-.025 103 103 0 0 1 1.489-4.711q.639-1.87 1.866-4.591 2.417-5.358 4.458-9.184c1.386-2.597 2.874-5.09 4.699-7.388q1.676-2.111 3.476-3.242a7.5 7.5 0 0 1 2.653-1.032q1.393-.261 2.859.198a8.34 8.34 0 0 1 3.529 2.144c.751.768.923 2.138.815 3.121q-.19 1.745-.862 3.752a76 76 0 0 1-2.207 5.752.04.04 0 0 0-.004.037.05.05 0 0 0 .026.029.06.06 0 0 0 .041.003.05.05 0 0 0 .031-.024 37.7 37.7 0 0 1 4.671-5.463 28.5 28.5 0 0 1 7.77-5.346c1.329-.622 2.831-.978 4.325-.745 2.215.346 3.926 2.106 4.599 4.027a7.35 7.35 0 0 1 .376 3.33q-.223 1.874-1.409 3.858-.992 1.665-2.541 3.797-1.375 1.89-3.995 6.196a77.5 77.5 0 0 0-7.838 17.334.03.03 0 0 0 .002.027.04.04 0 0 0 .021.02.04.04 0 0 0 .051-.016 114 114 0 0 1 7.185-9.766 111 111 0 0 1 5.596-6.35 73 73 0 0 1 6.238-5.797q2.513-2.073 5.049-3.443c2.723-1.472 6.361-2.442 9.136-.215q3.11 2.496 3.403 6.198.136 1.728-.897 3.514a173 173 0 0 1-7.722 12.156L246 96.177a67 67 0 0 0-3.736 6.041q-2.421 4.412-3.233 9.247a24 24 0 0 0-.281 2.905q-.108 2.488-.061 2.923c.058.538.015 1.054.084 1.508a.05.05 0 0 0 .014.029.05.05 0 0 0 .03.015.1.1 0 0 0 .034-.003.1.1 0 0 0 .025-.021q.686-1.092 3.434-4.28a31.9 31.9 0 0 1 6.931-6.048q1.568-1.008 3.784-1.831c3.664-1.361 7.881-.891 10.384 2.097.731.876 1.271 2.308 1.174 3.518-.044.556-.004 1.107-.142 1.7a15 15 0 0 1-.88 2.596 68 68 0 0 1-2.628 5.299 5510 5510 0 0 1-3.69 6.729 82 82 0 0 0-2.461 4.903c-.709 1.53-1.229 2.949-1.331 4.561q-.004.077-.096.749c-.08.599.025 1.115.012 1.656q-.014.553.017.895.315 3.708 1.349 7.501 1.52 5.587 4.05 11.713a232 232 0 0 0 4.133 9.478 919 919 0 0 1 5.366 11.717q.017.034.053.05a.1.1 0 0 0 .074.004l4.928-1.465a.2.2 0 0 1 .046-.007l.384-.006a.23.23 0 0 0 .144-.058.98.98 0 0 1 .587-.27q1.222-.119 1.798.891.198.344 1.66 2.852 17.397 29.843 42.275 54.365c.909.895 1.821 1.627 2.556 2.502q.403.48.35 1.123a.34.34 0 0 1-.056.157zm-57.459-59.977a36 36 0 0 0-.543-1.334q-4.728-10.201-6.297-13.713c-2.756-6.159-5.311-12.536-6.923-18.85a47 47 0 0 1-.924-4.628q-.547-3.657-.165-6.879.211-1.77.725-3.121.834-2.18 2.253-4.923 1.352-2.61 4.397-8.1a73 73 0 0 0 2.972-5.921q.699-1.585.753-2.713.065-1.428-.949-2.336c-2.996-2.683-7.636-.402-10.271 1.454-4.147 2.92-6.838 6.624-10.107 10.91-1.123 1.474-3.316 4.049-4.529 5.727q-1.811 2.504-3.985 6.561-.272.508-.488.683c-1.003.812-2.671.236-2.726-1.043q-.018-.422.405-1.238a53.4 53.4 0 0 1 6.972-10.33.8.8 0 0 0 .162-.298.8.8 0 0 0 .023-.335 40 40 0 0 1-.265-9.611 28.3 28.3 0 0 1 2.192-8.632c1.55-3.601 3.53-6.806 5.791-10.047q3.954-5.664 5.323-7.648a162 162 0 0 0 6.897-10.906q.639-1.106.72-1.65c.239-1.599-.794-3.437-2.029-4.507q-1.308-1.131-3.151-.588-2.449.723-4.816 2.408-2.04 1.452-3.191 2.461a83 83 0 0 0-8.919 9.155q-5.548 6.624-9.331 12.63-2.523 4.008-4.267 7.915-.434.97-.552 1.684-.443 2.647-.793 5.902-.164 1.52-1.674 1.518c-.691-.001-1.452-.446-1.537-1.051-.101-.721.049-1.486.129-2.205 1.173-10.194 3.739-20.328 8.349-29.486a95 95 0 0 1 6.732-11.38l2.715-3.948q1.18-1.716 1.472-3.453.251-1.5-.683-2.942c-.396-.614-1.103-1.099-1.837-1.142q-.8-.048-1.849.433-4.882 2.232-8.654 6.459c-2.599 2.913-4.561 5.908-6.485 9.444q-7.514 13.82-9.311 29.309-.171 1.483-1.527 1.549c-.788.038-1.383-.344-1.714-.97q-.178-.336-.099-1.46.065-.901.189-2.278c.876-9.75 3.857-19.086 7.571-28.213 2.138-5.253 3.53-8.5 4.594-11.523q.52-1.48.728-2.225a10.2 10.2 0 0 0 .376-2.056q.033-.5-.443-.865-1.164-.89-2.223-1.075a1 1 0 0 0-.209-.013 3.9 3.9 0 0 0-2.188.81c-1.974 1.489-3.449 3.56-4.691 5.591-2.566 4.203-4.557 8.38-6.681 13.092a49 49 0 0 0-1.949 4.998 467 467 0 0 0-2.392 7.52 1565 1565 0 0 0-6.815 22.918c-.571 1.976-3.729 1.228-3.169-.759a169 169 0 0 0 3.86-16.968 82 82 0 0 0 .962-7.776c.079-1.038.036-1.851-.004-2.852-.038-.946-.196-2.053-.714-2.872a.15.15 0 0 0-.169-.062 4.9 4.9 0 0 0-2.13 1.288c-1.651 1.687-2.656 3.79-3.523 6.013a55 55 0 0 0-1.879 5.717q-1.23 4.56-2.448 10.248-3.431 15.998-.019 32.237c4.259 20.26 15.783 38.831 30.168 54.421a147 147 0 0 0 13.181 12.598.25.25 0 0 0 .149.058.26.26 0 0 0 .156-.04q4.483-2.889 9.983-5.547 3.92-1.895 9.776-3.98 7.463-2.658 12.834-4.376 1.312-.42 8.666-2.724a.1.1 0 0 0 .058-.047.1.1 0 0 0 .01-.036.1.1 0 0 0-.006-.036"/><path fill="#fff" d="M265.04 182.83a2582 2582 0 0 0-8.666 2.724q-5.37 1.718-12.833 4.376-5.856 2.085-9.776 3.98-5.5 2.658-9.983 5.547a.26.26 0 0 1-.156.04.25.25 0 0 1-.15-.058 147 147 0 0 1-13.18-12.598c-14.385-15.59-25.909-34.161-30.168-54.421q-3.412-16.24.018-32.237 1.22-5.686 2.449-10.248a55 55 0 0 1 1.878-5.717c.867-2.224 1.872-4.326 3.523-6.013a4.9 4.9 0 0 1 2.13-1.287.15.15 0 0 1 .096.002.14.14 0 0 1 .073.06c.519.818.676 1.925.714 2.87.041 1.002.083 1.815.005 2.853a81 81 0 0 1-.963 7.775 169 169 0 0 1-3.859 16.969c-.561 1.987 2.597 2.735 3.169.759a1565 1565 0 0 1 6.814-22.919 478 478 0 0 1 2.392-7.52 49 49 0 0 1 1.95-4.997c2.124-4.711 4.114-8.89 6.681-13.092 1.241-2.031 2.717-4.103 4.69-5.59a3.9 3.9 0 0 1 2.188-.81 1 1 0 0 1 .21.012q1.058.186 2.222 1.075.477.364.444.865-.064.937-.376 2.056a38 38 0 0 1-.729 2.225c-1.064 3.022-2.456 6.27-4.593 11.523-3.715 9.127-6.695 18.462-7.571 28.213a110 110 0 0 0-.189 2.278q-.08 1.124.099 1.46c.33.626.925 1.008 1.714.97q1.356-.066 1.527-1.549 1.796-15.489 9.311-29.31c1.923-3.535 3.886-6.53 6.484-9.443q3.773-4.227 8.654-6.459 1.049-.48 1.85-.433c.734.043 1.441.528 1.837 1.142q.933 1.443.683 2.942-.292 1.737-1.472 3.453l-2.716 3.949a96 96 0 0 0-6.731 11.379c-4.611 9.158-7.177 19.292-8.349 29.486-.081.719-.231 1.484-.129 2.205.085.604.845 1.05 1.536 1.051q1.512.002 1.674-1.518.35-3.255.793-5.902.12-.714.552-1.685 1.744-3.907 4.267-7.914 3.783-6.006 9.331-12.63a83 83 0 0 1 8.92-9.155q1.15-1.01 3.191-2.46 2.367-1.687 4.816-2.409 1.842-.543 3.15.589c1.235 1.07 2.268 2.907 2.03 4.506q-.081.543-.72 1.65a162 162 0 0 1-6.898 10.906 2032 2032 0 0 1-5.322 7.648c-2.262 3.24-4.241 6.446-5.791 10.047a28.3 28.3 0 0 0-2.192 8.632 40 40 0 0 0 .265 9.611.78.78 0 0 1-.186.633 53.5 53.5 0 0 0-6.972 10.33q-.423.816-.405 1.238c.056 1.279 1.724 1.855 2.726 1.043q.216-.176.488-.683 2.175-4.058 3.985-6.561c1.214-1.678 3.406-4.253 4.53-5.727 3.268-4.286 5.96-7.99 10.107-10.91 2.634-1.856 7.275-4.137 10.271-1.455q1.014.909.948 2.337-.053 1.128-.753 2.713a73 73 0 0 1-2.971 5.921q-3.045 5.49-4.397 8.1-1.42 2.744-2.253 4.923-.515 1.351-.725 3.121-.382 3.222.164 6.879.362 2.42.924 4.628c1.612 6.314 4.168 12.691 6.923 18.85q1.57 3.512 6.298 13.713.123.267.542 1.334a.1.1 0 0 1 .006.036.1.1 0 0 1-.034.065.1.1 0 0 1-.034.018"/><path fill="#000" d="M96.34 250.126q-.966-.338-1.089-1.294-.08-.62.224-1.001a118 118 0 0 0 7.277-10.055 67 67 0 0 0 7.306-15.252q.819-2.461 1.14-4.717.08-.556.089-1.054c.019-.931.096-1.587.001-2.447a23 23 0 0 0-.194-1.386q-.056-.3-.282-.359-.506-.799-1.175-1.079l-2.642-1.093a1.3 1.3 0 0 0-.436-.094c-.701-.028-.893-.157-1.396-.588a.6.6 0 0 0-.17-.105l-.517-.222a1851 1851 0 0 0-9.599-3.703q-3.375-1.29-7.182-3.388a68 68 0 0 1-6.257-3.674q-3.145-2.314-5.686-3.721-3.303-1.83-7.684-2.738c-1.196-.248-2.431-.379-3.606-.701q-.616-.171-1.166-.29a373 373 0 0 0-5.951-1.523 6.4 6.4 0 0 0-.95-.133 3.5 3.5 0 0 1-.939-.2 15.5 15.5 0 0 0-5.584-.732.25.25 0 0 0-.164.073c-3.685 3.692-5.139 5.85-9.861 11.864-2.525 3.214-4.732 6.318-7.467 9.856-4.204 5.43-8.61 10.257-13.544 14.771q-1.11 1.018-2.256 1.431a1 1 0 0 0-.26.145c-2.337 1.801-4.263 3.133-6.184 4.281a16.4 16.4 0 0 0-2.47 1.804q-2.184 1.924-3.22 2.974-.73.742-1.56.832-.809-.098-1.073-.34-.81-.743-.587-1.606.126-.485 1.097-1.312.776-.663 1.441-1.31 1.826-1.78 3.339-2.825.538-.372 3.11-1.987a35.5 35.5 0 0 0 4.131-3.052q.461-.393 1.387-.616a.6.6 0 0 0 .253-.133 415 415 0 0 0 1.899-1.739 110.4 110.4 0 0 0 11.323-12.493q3.153-4.071 4.002-5.245a131 131 0 0 1 3.994-5.253q.192-.239 4.407-5.688a65 65 0 0 1 6.346-7.092c.335-.321.911-.455 1.442-.436q1.965.066 3.332.118.544.021 2.438.456a.12.12 0 0 0 .133-.06q3.87-7.746 5.315-10.676 2.525-5.125 4.383-11.734a80 80 0 0 0 2.66-14.47q.052-.576.107-.763a.6.6 0 0 0 .024-.185 6 6 0 0 1 .058-1.062c.144-.848.078-1.56.177-2.348.18-1.459.154-2.886.216-4.502q.03-.719-.008-1.582c-.035-.798.115-1.698-.007-2.564-.058-.407.031-.826.012-1.314l-.097-2.754q-.264-7.593-1.277-16.4a414 414 0 0 0-.848-6.866q-.196-1.493-.078-3.654c.09-1.629.691-3.482 1.86-4.752q1.945-2.118 4.892-2.266 3.545-.177 6.497 1.866c1.718 1.189 3.021 3.026 3.866 4.838 1.098 2.353 1.686 4.767 2.31 7.311a214 214 0 0 1 2.645 12.385q0 .009.007.015.007.007.017.007.01.001.017-.003a.03.03 0 0 0 .013-.013 41 41 0 0 0 1.213-3.31q.99-3.155 1.268-5.873.115-1.136.168-4.152a.4.4 0 0 0-.019-.135c-.098-.322-.016-.647-.042-1.058a51 51 0 0 0-.547-4.955q-.24-1.478-.886-4.445-.987-4.53-1.414-6.922a58 58 0 0 1-.608-4.521c-.146-1.5-.041-3.063.026-4.546q.02-.454.258-1.535c.529-2.416 1.936-5.282 4.731-5.942q2.597-.614 4.835 1.074c1.566 1.181 2.557 2.733 3.496 4.638a113 113 0 0 1 4.081 9.311.05.05 0 0 0 .059.027l.047-.012a.02.02 0 0 0 .011-.01.02.02 0 0 0 .003-.013c-.759-3.681-1.406-6.993-1.742-10.482a24 24 0 0 1-.027-4.077c.111-1.466.561-3.056 1.624-4.183q.816-.862 2.226-1.714c.903-.545 2.172-1.051 3.262-1.077.49-.012.796-.13 1.2-.01q.069.018.732.091.336.04.714.167a8.9 8.9 0 0 1 3.895 2.588 18.1 18.1 0 0 1 3.071 4.882 39.3 39.3 0 0 1 2.341 7.33 65 65 0 0 1 1.301 9.076q.25 3.576.201 8.413-.01.766.035 1.467c.04.631-.086 1.301-.006 1.943.085.693-.04 1.478.009 2.32q.03.541-.029 1.226-.014.18.016.354c.113.627-.07 1.409.056 2.059.093.474-.086 1.177.041 1.744.07.307-.032.733.004 1.149q.05.553-.021 1.149v.006l.003.006.005.004.007.002.088.021.013.001q.007-.001.012-.005l.01-.008a57.6 57.6 0 0 0 4.288-16.472q.057-.405.066-.99 0-.08.017-.156.195-.942.059-1.872a.5.5 0 0 1-.005-.13q.055-.69.031-1.771a60 60 0 0 0-1.016-9.83c-.264-1.404-.851-3.955-1.42-6.226q-.607-2.414-.67-4.142-.12-3.228 2.528-5.238c1.924-1.463 3.91-2.27 6.339-1.984 4.237.497 7.03 4.76 8.557 8.06q1.851 4.002 2.843 8.597a71.7 71.7 0 0 1 1.621 15.16.4.4 0 0 0 .01.098q.063.3.044.53a16 16 0 0 0-.056 1.761c.04 1.392-.044 2.904-.069 3.833-.004.115-.091.253-.095.373-.025.712.003 1.983-.156 2.961-.098.597.003 1.185-.149 1.749-.113.413.005 1.05-.15 1.535-.069.215-.039.626-.076 1.003a205 205 0 0 1-.807 6.751q-.916 6.815-1.542 11.282 0 .01.006.018.007.008.016.011a.03.03 0 0 0 .02-.001.03.03 0 0 0 .016-.012 49 49 0 0 1 2.53-4.492 28.4 28.4 0 0 1 5.861-6.648q.595-.49 1.658-1.004.975-.473 1.862-.607a5.4 5.4 0 0 1 2.606.243c2.574.884 3.75 3.585 4.129 5.908q.393 2.415.371 5.133a32 32 0 0 1-.458 5.12c-1.43 8.309-5.605 15.578-9.658 23.158a386 386 0 0 1-6.203 11.127q-4.464 7.719-9.473 14.34a91 91 0 0 1-5.269 6.317 79 79 0 0 1-4.937 4.931q-4.368 4.017-9.76 7.327-1.017.625-1.976 1.407a485 485 0 0 1-5.421 4.349.1.1 0 0 0-.038.051.11.11 0 0 0 .024.118.13.13 0 0 0 .055.035q2.835.894 4.185 3.361a.8.8 0 0 1 .084.234q.44 2.304.404 3.372a509 509 0 0 1-.08 2.426.4.4 0 0 1-.041.162c-.122.246-.057.544-.108.842a34 34 0 0 1-1.79 6.451c-.901 2.36-1.912 4.953-3.138 7.389-3.076 6.106-7.056 11.789-11.428 17.249q-.171.216-.719.36a.4.4 0 0 1-.127.016zm-37.694-63.3q1.385.317 5.833 1.487c1.74.458 3.544.686 5.218 1.076q5.847 1.362 10.429 4.513 4.432 3.05 5.386 3.608a108 108 0 0 0 6.791 3.654q2.352 1.159 6.102 2.563 1.79.672 7.821 3.036a.39.39 0 0 0 .382-.058 261 261 0 0 1 3.993-3.22 152 152 0 0 0 2.852-2.29 17 17 0 0 1 2.059-1.444c8.011-4.885 14.599-11.651 20.03-19.061 6.495-8.857 11.405-18.041 16.88-28.287 2.167-4.055 4.27-8.317 5.699-12.639q2.337-7.07 1.374-14.214c-.272-2.019-1.546-5.175-4.445-3.202q-.745.507-1.038.77c-3.2 2.887-5.334 6.232-7.182 9.96q-2.644 5.338-3.24 6.403l-.849 1.5c-.365.645-.911 1.095-1.66 1.008q-1.39-.16-1.544-1.492a.5.5 0 0 1 .012-.19q.213-.802.236-1.022.625-5.997 1.026-8.798a731 731 0 0 0 2.198-16.641q.017-.132.117-1.316c.1-1.165.22-2.117.303-3.288q.2-2.766.265-4.003.19-3.625-.011-8.602a72 72 0 0 0-.963-9.023 46 46 0 0 0-1.84-7.296c-.933-2.727-2.186-5.43-4.105-7.584q-1.095-1.225-2.451-1.809a.1.1 0 0 0-.033-.01l-1.031-.224a.2.2 0 0 0-.054-.005c-1.953.073-4.674 1.637-4.792 3.748q-.067 1.211.294 2.736a535 535 0 0 1 1.433 6.205q1.168 5.229 1.333 11.328.087 3.232-.131 5.067-.27 2.258-.945 5.336a100 100 0 0 1-3.834 13.168q-.902 2.445-1.481 3.474c-.501.89-.734 1.448-1.421 1.944a.45.45 0 0 1-.189.077c-2.003.341-2.496-1.301-2.685-2.721a40 40 0 0 1-.317-3.946 312 312 0 0 1-.162-9.455q-.006-1.546-.038-7.75-.025-5.46-.834-10.466-.84-5.207-2.366-8.97c-.842-2.074-1.874-4.06-3.64-5.697-.789-.73-1.94-1.33-3.038-1.15-1.243.201-2.317.866-3.217 1.7-.847.784-1.02 2.327-1.051 3.305q-.041 1.41.267 3.997.296 2.477 1.046 6.367c.827 4.286 1.762 8.989 2.307 13.501a56 56 0 0 1 .39 8.406c-.031.933-.283 2.203-.244 3.158.12 2.868.075 5.523-.298 8.337q-.108.802-.415 1.122c-.797.821-2.248.582-2.735-.352q-.206-.39-.069-1.391.55-4.064.171-8.367a65.3 65.3 0 0 0-2.678-13.548 104 104 0 0 0-5.963-15.018c-.883-1.805-1.514-3.138-2.803-4.213q-.787-.657-1.706-.644a.8.8 0 0 0-.222.036 2.63 2.63 0 0 0-1.455 1.13 8.2 8.2 0 0 0-1.173 3.214q-.19 1.288-.197 1.734-.036 2.16.341 4.939c.595 4.373 1.914 9.364 2.675 13.758q.558 3.21.588 7.316a31.8 31.8 0 0 1-1.947 11.265q-1.05 2.865-2.828 6.327c-.574 1.117-.93 1.899-2.308 1.655-1.014-.18-1.17-.831-1.315-1.757a201 201 0 0 0-3.976-19.162c-.956-3.67-2.516-8.16-6.897-9.177q-1.219-.282-2.197-.094c-2.054.394-3.098 2.063-3.26 3.899a15.8 15.8 0 0 0 .048 3.405q.37 2.938.854 7.027a207 207 0 0 1 1.392 20.76q.012.726-.03 2.002a45 45 0 0 0-.001 1.998q.02 1.389-.11 3.192-.054.728-.22 3.186a90.4 90.4 0 0 1-3.153 18.376q-.928 3.314-2.54 7.398-1.065 2.706-3.3 7.128-1.746 3.457-3.588 7.159a.1.1 0 0 0-.01.042.1.1 0 0 0 .038.077.1.1 0 0 0 .042.019m46.085-94.46q-.019.078.017.126a.03.03 0 0 0 .013.01.04.04 0 0 0 .018.003.03.03 0 0 0 .016-.006.03.03 0 0 0 .011-.014q.014-.046.002-.116a.04.04 0 0 0-.011-.026.04.04 0 0 0-.027-.011q-.016 0-.027.01a.03.03 0 0 0-.012.024"/><path fill="#fff" d="M58.645 186.825a.1.1 0 0 1-.07-.054.1.1 0 0 1 0-.085q1.843-3.7 3.588-7.158 2.235-4.423 3.3-7.128 1.613-4.086 2.54-7.398a90.4 90.4 0 0 0 3.154-18.376q.165-2.46.22-3.187.13-1.803.109-3.192a45 45 0 0 1 .002-1.997 45 45 0 0 0 .03-2.002 207 207 0 0 0-1.393-20.76 899 899 0 0 0-.854-7.027 15.8 15.8 0 0 1-.048-3.406c.162-1.836 1.206-3.505 3.26-3.899q.98-.188 2.197.095c4.381 1.016 5.942 5.506 6.897 9.176a201 201 0 0 1 3.976 19.163c.145.926.302 1.576 1.316 1.757 1.377.243 1.734-.538 2.308-1.656q1.778-3.461 2.827-6.327a31.8 31.8 0 0 0 1.947-11.265q-.03-4.105-.587-7.315c-.761-4.394-2.081-9.385-2.675-13.759q-.378-2.78-.342-4.939.008-.446.198-1.734a8.2 8.2 0 0 1 1.172-3.214q.528-.83 1.455-1.13a.8.8 0 0 1 .222-.035q.92-.013 1.707.644c1.289 1.075 1.92 2.408 2.802 4.212a104 104 0 0 1 5.963 15.019 65.3 65.3 0 0 1 2.679 13.547q.378 4.305-.171 8.368-.138 1 .068 1.391c.488.934 1.939 1.173 2.735.351q.308-.318.415-1.121c.373-2.814.418-5.469.299-8.338-.04-.954.212-2.225.243-3.157a56 56 0 0 0-.39-8.407c-.545-4.512-1.48-9.215-2.307-13.5q-.749-3.89-1.046-6.368-.308-2.587-.266-3.997c.03-.977.203-2.52 1.051-3.304.899-.834 1.973-1.499 3.216-1.701 1.098-.18 2.249.42 3.038 1.15 1.766 1.637 2.798 3.624 3.64 5.697q1.525 3.765 2.367 8.97.809 5.007.833 10.467.033 6.203.038 7.749.023 5.474.162 9.456.075 2.154.317 3.945c.189 1.42.682 3.062 2.685 2.722a.44.44 0 0 0 .189-.078c.688-.495.921-1.053 1.422-1.944q.578-1.028 1.48-3.474a100 100 0 0 0 3.835-13.168q.675-3.077.944-5.336.218-1.834.131-5.067-.164-6.099-1.333-11.327-.63-2.814-1.433-6.206-.361-1.524-.293-2.735c.118-2.112 2.838-3.676 4.791-3.749q.027 0 .054.006l1.032.224a.1.1 0 0 1 .032.01q1.356.582 2.451 1.809c1.919 2.154 3.172 4.856 4.105 7.583a46 46 0 0 1 1.84 7.297q.786 4.677.963 9.023.202 4.977.012 8.601-.065 1.238-.265 4.004c-.083 1.17-.203 2.123-.304 3.287q-.1 1.185-.117 1.317a731 731 0 0 1-2.198 16.641q-.4 2.8-1.025 8.798-.024.22-.236 1.022a.5.5 0 0 0-.013.189q.154 1.333 1.544 1.493c.75.087 1.295-.364 1.66-1.008q.785-1.383.849-1.501.596-1.064 3.241-6.402c1.847-3.728 3.981-7.073 7.182-9.961q.292-.261 1.037-.77c2.899-1.973 4.173 1.183 4.445 3.203q.964 7.145-1.374 14.214c-1.429 4.321-3.532 8.583-5.699 12.639-5.475 10.246-10.385 19.429-16.88 28.287-5.431 7.41-12.018 14.175-20.03 19.061q-1.221.746-2.058 1.443-.825.69-2.853 2.29a267 267 0 0 0-3.993 3.22.38.38 0 0 1-.381.058 755 755 0 0 0-7.822-3.035q-3.75-1.405-6.102-2.564a108 108 0 0 1-6.791-3.653q-.954-.558-5.386-3.608-4.581-3.152-10.428-4.513c-1.675-.39-3.479-.618-5.218-1.077q-4.448-1.169-5.834-1.486"/><path fill="#FC0" d="M322.562 242.683c-.832 1.996-2.43 3.801-4.159 5.136-2.889 2.236-6.156 3.567-9.667 4.704-11.719 3.794-23.899 6.869-35.725 8.686q-6.344.975-12.12 1.243-3.277.153-7.311-.069a.5.5 0 0 1-.134-.035.4.4 0 0 0-.133-.028c-4.216-.299-8.897-1.309-11.899-4.308a.5.5 0 0 1-.094-.124l-1.705-3.221q.418-.516.388-1.079-.02-.381-.444-1.071a42 42 0 0 1-2.535-4.79 339 339 0 0 1-2.651-6.072c-.628-1.473-1.462-3.111-2.221-4.587a1087 1087 0 0 1-7.887-15.61 41 41 0 0 0-.818-1.6c-.435-.775-.719-1.539-1.12-2.343a406 406 0 0 1-2.639-5.395 9.3 9.3 0 0 1-.656-1.741 130 130 0 0 0-.462-1.809.52.52 0 0 1 .083-.452 17.6 17.6 0 0 1 2.8-2.996c4.158-3.538 9.074-6.203 14.159-8.666q3.034-1.468 8.164-3.328c9.969-3.611 19.946-6.738 30.115-9.713a.156.156 0 0 1 .182.07q15.633 27.326 37.576 50.462c2.434 2.566 5.521 5.581 7.872 7.94q.173.175.526.469c.246.203.431.457.757.562q.887.287 1.758-.235M55.456 189.307q-5.394 5.517-8.849 11.982a102 102 0 0 0-4.06 8.529 3180 3180 0 0 0-4.026 9.593 64 64 0 0 1-9.536 15.899 83 83 0 0 1-8.925 9.314c-.62.552-1.544 1.433-2.436 2.17a523 523 0 0 1-4.473 3.657q-4.86-3.155-7.893-7.766a15.7 15.7 0 0 1-2.371-6.079q.828-.091 1.56-.832 1.035-1.05 3.22-2.975a16.4 16.4 0 0 1 2.47-1.803c1.92-1.148 3.845-2.48 6.182-4.281a1 1 0 0 1 .261-.145q1.145-.414 2.256-1.432c4.934-4.514 9.34-9.34 13.543-14.77 2.736-3.538 4.943-6.642 7.468-9.856 4.722-6.014 6.176-8.172 9.86-11.865a.26.26 0 0 1 .165-.073 15.5 15.5 0 0 1 5.584.733"/><path fill="#FFEEA8" d="M63.294 191.161a68 68 0 0 0-8.405 9.818 45 45 0 0 0-2.712 4.333c-2.619 4.835-4.16 8.771-6.824 15.273-1.684 4.11-3.643 8.441-6.049 12.345q-2.407 3.909-6.099 8.169a86 86 0 0 1-7.132 7.324l-1.869 1.69c-.954.861-1.901 1.575-2.81 2.41-.45.413-1.285.973-1.859 1.571a42 42 0 0 1-6.385-3.645 504 504 0 0 0 4.473-3.656c.892-.737 1.816-1.619 2.436-2.17a83 83 0 0 0 8.924-9.314 64 64 0 0 0 9.536-15.9q1.843-4.41 4.028-9.592a102 102 0 0 1 4.06-8.529q3.454-6.465 8.848-11.983.404.154.938.2.622.052.95.133 2.917.72 5.951 1.523"/><path fill="#FC0" d="M81.44 198.615q-6.51 5.694-11.694 12.148-5.355 6.665-10.283 14.313a885 885 0 0 0-10.046 15.953 319 319 0 0 1-6.966 10.821 172 172 0 0 1-5.825 8.104q-3.34-.927-6.52-1.86a74 74 0 0 1-10.567-3.997c.573-.598 1.409-1.158 1.858-1.57.91-.836 1.857-1.55 2.81-2.41l1.87-1.691a86 86 0 0 0 7.132-7.323q3.69-4.26 6.099-8.17c2.406-3.903 4.365-8.235 6.048-12.345 2.665-6.501 4.206-10.437 6.825-15.272a45 45 0 0 1 2.712-4.334 68 68 0 0 1 8.405-9.818q.55.12 1.166.29c1.175.322 2.41.453 3.606.701q4.381.909 7.684 2.739 2.54 1.407 5.686 3.721"/><path fill="#FFEEA8" d="M81.439 198.613a68 68 0 0 0 6.257 3.675q-.459.453-.928.836-4.253 3.47-7.67 7.067c-5.834 6.141-10.982 12.912-15.372 19.835-3.877 6.117-8.421 13.92-12.866 21.008q-3.45 5.497-7.232 10.781l-7.004-1.862a172 172 0 0 0 5.826-8.104 319 319 0 0 0 6.965-10.821 886 886 0 0 1 10.047-15.953q4.927-7.648 10.283-14.314 5.184-6.452 11.694-12.148"/><path fill="#FC0" d="M104.478 209.381a269 269 0 0 0-14.24 16.924 407 407 0 0 0-15.978 22.248 792 792 0 0 0-10.828 16.623q-.835.014-2.229-.133c-5.976-.628-11.767-1.78-17.573-3.226a213 213 0 0 0 7.232-10.781c4.444-7.088 8.988-14.891 12.865-21.007 4.39-6.924 9.538-13.695 15.372-19.836q3.418-3.596 7.67-7.067.47-.383.929-.836 3.805 2.098 7.181 3.387 4.803 1.838 9.599 3.704"/><path fill="#FFEEA8" d="M110.808 212.56q-13.91 14.845-24.947 30.679-6.766 9.702-14.206 21.684-2.427.277-3.759.304a3.4 3.4 0 0 0-.54.044c-.11.021-.2.032-.252.03l-3.678-.126a787 787 0 0 1 10.828-16.623 407 407 0 0 1 15.977-22.248 269 269 0 0 1 14.241-16.925l.517.223a.6.6 0 0 1 .17.104c.503.431.695.56 1.396.588.15.005.298.037.436.094q2.051.848 2.642 1.094.67.28 1.175 1.078"/><path fill="#FC0" d="M96.34 250.126q-4.039 5.522-9.464 9.257-6.676 4.598-15.217 5.54 7.44-11.98 14.206-21.684 11.038-15.833 24.947-30.678.227.06.282.359.105.591.194 1.386c.095.86.019 1.516 0 2.447a9 9 0 0 1-.089 1.054q-.322 2.255-1.141 4.717a67 67 0 0 1-7.305 15.251 118 118 0 0 1-7.278 10.056q-.304.38-.224 1.001.123.955 1.09 1.294Z"/></svg>