<svg xmlns="http://www.w3.org/2000/svg" width="1066" height="1033" fill="none"><g filter="url(#a)"><g clip-path="url(#b)"><rect width="182.127" height="43.127" x="327.917" y="1031" fill="#FC0" rx="8.564" transform="rotate(-150 327.917 1031)"/><path fill="#000" d="M318.506 1002.77a4.58 4.58 0 0 1 5.137-2.17l.772-8.068 2.447 1.413-.771 7.865 2.292 1.32 3.597-6.23 2.224 1.284-8.991 15.576-2.225-1.29-3.56-2.05a4.61 4.61 0 0 1-1.693-6.32zm2.225 1.28-.771 1.34c-.578 1-.249 2.23.752 2.8l3.56 2.06 2.826-4.9-3.56-2.05a2.027 2.027 0 0 0-2.807.75m-16.919-5.614 7.565 4.364 2.35-4.068-6.674-3.853 1.284-2.225 6.675 3.853 2.787-4.828-7.564-4.367 1.284-2.225 9.79 5.652-4.072 7.053-3.635 6.298-1.285 2.22-9.79-5.65zm-11.162-10.449 2.225 1.285-.706 1.224a2.03 2.03 0 0 0 .752 2.807l1.78 1.028a2.046 2.046 0 0 0 2.808-.753l4.354-7.542a2.06 2.06 0 0 0-.752-2.807l-1.78-1.028a2.06 2.06 0 0 0-2.808.752l-.706 1.224-.527.912 3.338 1.927-1.285 2.225-5.562-3.212 1.811-3.137.707-1.223c1.271-2.203 4.104-3 6.329-1.715l1.78 1.027c2.203 1.272 2.952 4.137 1.68 6.34l-4.355 7.542a4.62 4.62 0 0 1-6.317 1.693l-1.779-1.028a4.605 4.605 0 0 1-1.693-6.317zm-14.629-4.441 7.564 4.367 2.351-4.071-6.675-3.854 1.285-2.225 6.675 3.854 2.787-4.828-7.565-4.368 1.285-2.225 9.789 5.652-4.072 7.053-3.635 6.297-1.284 2.225-9.79-5.652zm-11.956-3.936-2.225-1.285 8.992-15.574 3.226 1.863-2.495 14.341 6.834-11.837 2.225 1.285-8.992 15.574-3.226-1.862 2.495-14.342zm-13.836-10.955 7.565 4.367 2.351-4.071-6.675-3.854 1.284-2.225 6.675 3.854 2.788-4.828-7.565-4.367 1.285-2.225 9.789 5.652-4.072 7.053-3.635 6.296-1.285 2.225-9.789-5.652zm-11.097-10.56a4.584 4.584 0 0 1 5.137-2.166l.772-8.069 2.447 1.413-.771 7.861 2.292 1.323 3.596-6.229 2.225 1.284-8.991 15.575-2.225-1.285-3.56-2.055a4.606 4.606 0 0 1-1.693-6.317zm2.225 1.284-.771 1.335a2.03 2.03 0 0 0 .752 2.808l3.56 2.055 2.826-4.895-3.56-2.055a2.03 2.03 0 0 0-2.807.752m-14.421-1.206 2.255-12.641 2.954-5.117 2.225 1.285-2.081 3.604 5.34 3.083 2.081-3.605 2.225 1.285-2.955 5.117-9.819 8.273zm3.164-2.86 5.844-4.933-4.539-2.62-1.35 7.527zm-16.824-11.998 2.225 1.285-.706 1.224a2.03 2.03 0 0 0 .752 2.807l1.78 1.028a2.044 2.044 0 0 0 2.807-.752l4.355-7.543a2.06 2.06 0 0 0-.752-2.807l-1.78-1.028a2.06 2.06 0 0 0-2.808.752l-.706 1.224-2.225-1.285.706-1.223a4.676 4.676 0 0 1 6.063-1.869l.398-.483-.201-.116c-1.535-.886-2.058-2.908-1.146-4.488.886-1.535 2.9-2.094 4.435-1.207l2.536 1.464-1.284 2.225-2.537-1.464c-.289-.167-.745-.045-.925.266-.206.356-.106.8.206.98l1.691.976-.084 2.354-.864.777c2.062 1.31 2.735 4.101 1.502 6.237l-4.355 7.542a4.62 4.62 0 0 1-6.317 1.693l-1.78-1.028a4.605 4.605 0 0 1-1.692-6.317zm-11.476 3.609c.57.299.828.211 1.337-.207l1.68 1.919c-1.481 1.281-2.982 1.364-4.768.243l-1.835-2.423c-.569-.299-.827-.211-1.336.207l-1.68-1.919c1.481-1.281 2.982-1.363 4.768-.243zm1.569-2.357-2.225-1.285 2.255-12.64 2.955-5.118 2.225 1.285-2.081 3.604 5.339 3.083 2.081-3.604 2.225 1.284-2.954 5.118zm.94-4.145 5.843-4.932-4.538-2.621-1.35 7.527zm-6.846-20.031 1.78 1.028c2.202 1.272 2.951 4.136 1.68 6.339l-4.355 7.542a4.62 4.62 0 0 1-6.317 1.693l-1.78-1.028a4.604 4.604 0 0 1-1.692-6.317l4.354-7.542c1.272-2.203 4.105-2.999 6.33-1.715m-1.297 2.247a2.06 2.06 0 0 0-2.808.753l-4.355 7.542a2.03 2.03 0 0 0 .753 2.808l1.78 1.027a2.044 2.044 0 0 0 2.807-.752l4.355-7.542a2.06 2.06 0 0 0-.753-2.808z"/></g><rect width="179.986" height="40.986" x="327.525" y="1029.54" stroke="#000" stroke-width="2.141" rx="7.493" transform="rotate(-150 327.525 1029.54)"/></g><g filter="url(#c)"><g clip-path="url(#d)"><rect width="197.127" height="43.127" x="874.281" y="932" fill="#FC0" rx="8.564" transform="rotate(150 874.281 932)"/><path fill="#000" d="M852.164 929.088a4.606 4.606 0 0 1-6.317-1.693l-.771-1.335a4.606 4.606 0 0 1 1.693-6.317l3.56-2.055-3.597-6.23 2.225-1.284 8.992 15.574-2.225 1.285zm-4.863-4.312.771 1.335a2.03 2.03 0 0 0 2.807.752l3.56-2.055-2.826-4.895-3.56 2.055a2.03 2.03 0 0 0-.752 2.808m-15.12 8.73a4.585 4.585 0 0 1 .692-5.532l-6.601-4.703 2.447-1.413 6.422 4.599 2.292-1.324-3.597-6.229 2.225-1.285 8.992 15.574-2.225 1.285-3.56 2.055a4.605 4.605 0 0 1-6.317-1.692zm2.224-1.285.771 1.335a2.03 2.03 0 0 0 2.808.752l3.56-2.055-2.826-4.895-3.56 2.056a2.03 2.03 0 0 0-.753 2.807m-17.024-3.817 1.78-1.027c2.202-1.272 5.058-.488 6.33 1.715l4.354 7.542a4.62 4.62 0 0 1-1.692 6.317l-1.78 1.028a4.605 4.605 0 0 1-6.317-1.693l-4.355-7.542c-1.272-2.203-.545-5.055 1.68-6.34m1.297 2.247a2.06 2.06 0 0 0-.752 2.808l4.355 7.542a2.03 2.03 0 0 0 2.807.753l1.78-1.028a2.045 2.045 0 0 0 .752-2.807l-4.354-7.543a2.06 2.06 0 0 0-2.808-.752zm-9.206 23.085-1.284-2.225 3.782-2.184-7.707-13.349 2.225-1.284 7.707 13.349 3.782-2.184 1.285 2.225-6.008 3.468zm-9.113 5.262-9.82-8.274-2.954-5.117 2.225-1.284 2.08 3.604 5.34-3.083-2.081-3.604 2.225-1.285 2.955 5.117 2.255 12.641zm-.895-4.171-1.35-7.527-4.538 2.621 5.843 4.932zm-18.802 8.571 2.225-1.284.706 1.223a2.03 2.03 0 0 0 2.808.753l1.78-1.028a2.046 2.046 0 0 0 .752-2.808l-4.354-7.542a2.06 2.06 0 0 0-2.808-.752l-1.78 1.027a2.06 2.06 0 0 0-.752 2.808l.706 1.224.527.912 3.337-1.927 1.285 2.225-5.562 3.211-1.812-3.137-.706-1.223c-1.272-2.203-.545-5.055 1.68-6.34l1.78-1.027c2.202-1.272 5.058-.488 6.33 1.715l4.354 7.542a4.62 4.62 0 0 1-1.693 6.317l-1.779 1.028a4.605 4.605 0 0 1-6.317-1.693zm-14.864-5.212 1.78-1.028c2.203-1.272 5.058-.488 6.33 1.715l4.354 7.542a4.62 4.62 0 0 1-1.692 6.317l-1.78 1.028a4.605 4.605 0 0 1-6.317-1.693l-4.355-7.542c-1.271-2.203-.545-5.055 1.68-6.339m1.297 2.247a2.06 2.06 0 0 0-.752 2.807l4.355 7.543a2.03 2.03 0 0 0 2.807.752l1.78-1.028a2.045 2.045 0 0 0 .753-2.807l-4.355-7.543a2.06 2.06 0 0 0-2.808-.752zm-6.981 21.8-2.225 1.284-8.991-15.574 3.226-1.862 11.172 9.331-6.834-11.836 2.225-1.285 8.992 15.574-3.226 1.863-11.172-9.332zm-16.405 6.505 3.782-2.184-6.422-11.124-3.783 2.183-1.284-2.225 6.007-3.468 3.782-2.184 1.285 2.225-3.782 2.184 6.422 11.125 3.783-2.184 1.284 2.225-6.007 3.468-3.782 2.184zm-7.91-6.528-2.225 1.285-.514-.89a2.225 2.225 0 0 0-3.018-.809l-1.491.861c-1.134.655-1.524 1.829-.959 2.808 1.773 3.07 9.5-.501 11.941 3.726 1.259 2.181.419 4.683-2.006 6.083l-1.046.603c-2.292 1.324-5.227.556-6.55-1.736l-.385-.667 2.225-1.285.385.668a2.216 2.216 0 0 0 3.041.796l1.045-.604c1.202-.694 1.592-1.661 1.066-2.573-1.362-2.359-9.231.968-11.941-3.726-1.285-2.225-.459-4.957 1.9-6.318l1.49-.861a4.77 4.77 0 0 1 6.528 1.749zm-14.372 22.36-2.225 1.28-8.991-15.571 2.224-1.284 6.166 10.679-.474-5.6 1.201-.694 4.613 3.211-6.166-10.679 2.225-1.285 8.992 15.573-2.225 1.29-6.023-4.27zm-20.107-9.158 1.78-1.027c2.202-1.272 5.058-.488 6.329 1.715l4.355 7.54a4.623 4.623 0 0 1-1.693 6.32l-1.78 1.03a4.607 4.607 0 0 1-6.317-1.7l-4.354-7.54c-1.272-2.201-.545-5.053 1.68-6.338m1.297 2.247a2.065 2.065 0 0 0-.752 2.811l4.354 7.54c.578 1 1.807 1.33 2.808.75l1.78-1.03a2.034 2.034 0 0 0 .752-2.8l-4.354-7.546a2.06 2.06 0 0 0-2.808-.752z"/></g><rect width="194.986" height="40.986" x="872.818" y="931.608" stroke="#000" stroke-width="2.141" rx="7.493" transform="rotate(150 872.818 931.608)"/></g><g filter="url(#e)"><g clip-path="url(#f)"><rect width="256.127" height="43.127" y="647.127" fill="#FC0" rx="8.564" transform="rotate(-90 0 647.127)"/><path fill="#000" d="M16.149 625.085v8.735h4.701v-7.707h2.57v7.707h5.574v-8.735h2.57v11.304H13.579v-11.304zm-2.57-10.266a4.62 4.62 0 0 1 4.625-4.624h8.71c2.543 0 4.65 2.081 4.65 4.624v6.68H13.58zm13.334-2.055h-8.709c-1.13 0-2.055.899-2.055 2.055v4.111h12.82v-4.111c0-1.13-.925-2.055-2.056-2.055m-13.333-17.46h13.333c2.544 0 4.65 2.081 4.65 4.624v2.056c0 2.569-2.106 4.624-4.65 4.624H13.58v-2.569h13.333c1.13 0 2.056-.925 2.056-2.055v-2.056c0-1.13-.925-2.055-2.056-2.055H13.58zm6.037-12.321h-1.413a2.03 2.03 0 0 0-2.055 2.055v2.055c0 1.156.925 2.055 2.055 2.055h8.71c1.13 0 2.055-.925 2.055-2.055v-2.055a2.06 2.06 0 0 0-2.056-2.055H25.5v-2.57h1.413c2.544 0 4.65 2.056 4.65 4.625v2.055c0 2.543-2.106 4.624-4.65 4.624h-8.709a4.62 4.62 0 0 1-4.624-4.624v-2.055a4.606 4.606 0 0 1 4.624-4.625h1.413zM13.58 569.89l12.075-4.367h5.909v2.569h-4.162v6.166h4.162v2.569h-5.91l-12.074-4.368zm4.059 1.31 7.194 2.595v-5.241l-7.194 2.595zm1.978-20.568v2.569h-1.413a2.03 2.03 0 0 0-2.055 2.055v2.056c0 1.156.925 2.055 2.055 2.055h8.71c1.13 0 2.055-.925 2.055-2.055v-2.056c0-1.13-.925-2.055-2.056-2.055H25.5v-2.569h1.413a4.676 4.676 0 0 1 4.65 4.316l.617.103v-.231c0-1.773 1.49-3.237 3.314-3.237 1.773 0 3.263 1.464 3.263 3.237v2.928h-2.57v-2.928c0-.334-.333-.668-.693-.668-.41 0-.745.308-.745.668v1.952l-2.08 1.105-1.105-.36c-.103 2.441-2.184 4.419-4.65 4.419h-8.71a4.62 4.62 0 0 1-4.624-4.624v-2.056a4.605 4.605 0 0 1 4.624-4.624zm-8.863-8.134c.026.642.231.822.848 1.053l-.822 2.415c-1.85-.642-2.672-1.901-2.595-4.007l1.182-2.801c-.026-.642-.232-.822-.848-1.053l.822-2.415c1.85.642 2.672 1.901 2.595 4.008zm2.826.18v-2.569l12.075-4.368h5.909v2.57h-4.162v6.165h4.162v2.569h-5.91zm4.059-1.259 7.194 2.595v-5.241l-7.194 2.595zm13.925-15.944v2.055c0 2.544-2.107 4.625-4.65 4.625h-8.71a4.62 4.62 0 0 1-4.624-4.625v-2.055a4.605 4.605 0 0 1 4.624-4.624h8.71c2.543 0 4.65 2.055 4.65 4.624m-2.595 0c0-1.13-.925-2.055-2.056-2.055h-8.709a2.03 2.03 0 0 0-2.055 2.055v2.055c0 1.157.925 2.056 2.055 2.056h8.71c1.13 0 2.055-.925 2.055-2.056zm-15.39-29.781a4.62 4.62 0 0 1 4.625-4.624h8.71c2.543 0 4.65 2.08 4.65 4.624v6.679H13.58zm13.334-2.055h-8.709c-1.13 0-2.055.899-2.055 2.055v4.11h12.82v-4.11a2.06 2.06 0 0 0-2.056-2.055m-10.764-17.46v4.367h12.845v-4.367h2.57v11.304h-2.57v-4.368H16.15v4.368h-2.57v-11.304zm3.468-14.891v2.569h-1.413a2.03 2.03 0 0 0-2.055 2.056v2.055c0 1.156.925 2.055 2.055 2.055h8.71c1.13 0 2.055-.925 2.055-2.055v-2.055a2.06 2.06 0 0 0-2.056-2.056h-2.466v3.854h-2.569v-6.423h5.035c2.544 0 4.65 2.055 4.65 4.625v2.055c0 2.543-2.106 4.624-4.65 4.624h-8.709a4.62 4.62 0 0 1-4.624-4.624v-2.055a4.605 4.605 0 0 1 4.624-4.625zm-3.468-14.89v4.367h12.845v-4.367h2.57v11.304h-2.57v-4.368H16.15v4.368h-2.57v-11.304zm-2.57-14.891h2.57v4.367h15.415v2.569H16.149v4.368h-2.57zm0-10.523 12.076-4.368h5.909v2.569h-4.162v6.166h4.162v2.569h-5.91l-12.074-4.367zm4.06 1.31 7.194 2.595v-5.241l-7.194 2.595zm11.355-11.833v-8.735h2.57v11.304H13.58v-2.569z"/></g><rect width="253.986" height="40.986" x="1.07" y="646.057" stroke="#000" stroke-width="2.141" rx="7.493" transform="rotate(-90 1.07 646.057)"/></g><g filter="url(#g)"><g clip-path="url(#h)"><rect width="167.127" height="43.127" x="1061.13" y="435" fill="#FC0" rx="8.564" transform="rotate(90 1061.13 435)"/><path fill="#000" d="M1041.51 454.644h1.41a2.03 2.03 0 0 0 2.06-2.055v-2.055c0-1.156-.93-2.055-2.06-2.055h-8.71c-1.13 0-2.05.925-2.05 2.055v2.055c0 1.131.92 2.055 2.05 2.055h1.42v2.57h-1.42c-2.54 0-4.65-2.056-4.65-4.625v-2.055c0-2.543 2.11-4.624 4.65-4.624h8.71c2.57 0 4.63 2.081 4.63 4.624v2.055a4.61 4.61 0 0 1-4.63 4.625h-1.41zm-11.95 12.836v-2.055c0-2.544 2.11-4.625 4.65-4.625h8.71c2.57 0 4.63 2.081 4.63 4.625v2.055a4.61 4.61 0 0 1-4.63 4.624h-8.71c-2.54 0-4.65-2.055-4.65-4.624m2.6 0c0 1.13.92 2.055 2.05 2.055h8.71a2.03 2.03 0 0 0 2.06-2.055v-2.055a2.05 2.05 0 0 0-2.06-2.056h-8.71c-1.13 0-2.05.925-2.05 2.056zm15.39 16.946v2.569h-17.99v-2.569h12.34l-5.09-2.39v-1.387l5.09-2.389h-12.34v-2.569h17.99v2.569l-6.71 3.083zm0 17.459h-13.34c-2.54 0-4.65-2.08-4.65-4.624v-2.055c0-2.569 2.11-4.624 4.65-4.624h13.34v2.569h-13.34c-1.13 0-2.05.924-2.05 2.055v2.055c0 1.131.92 2.055 2.05 2.055h13.34zm0 12.322v2.569h-17.99v-3.725l13.67-5.01h-13.67v-2.569h17.99v3.725l-13.67 5.01zm-2.57 17.46v-4.368h-12.85v4.368h-2.57v-11.304h2.57v4.367h12.85v-4.367h2.57v11.304zm2.57 10.266a4.626 4.626 0 0 1-4.63 4.624h-8.71c-2.54 0-4.65-2.081-4.65-4.624v-6.68h17.99zm-13.34 2.055h8.71c1.13 0 2.06-.899 2.06-2.055v-4.11h-12.82v4.11c0 1.13.92 2.055 2.05 2.055m13.34 13.093-12.08 4.367h-5.91v-2.569h4.17v-6.166h-4.17v-2.569h5.91l12.08 4.368zm-4.06-1.311-7.2-2.594v5.241l7.2-2.595zm4.06 15.944a4.626 4.626 0 0 1-4.63 4.625h-8.71c-2.54 0-4.65-2.081-4.65-4.625v-6.679h17.99zm-13.34 2.056h8.71c1.13 0 2.06-.9 2.06-2.056v-4.11h-12.82v4.11c0 1.131.92 2.056 2.05 2.056m10.77 17.459v-8.735h-4.7v7.708h-2.57v-7.708h-5.58v8.735h-2.57v-11.304h17.99v11.304z"/></g><rect width="164.986" height="40.986" x="1060.06" y="436.07" stroke="#000" stroke-width="2.141" rx="7.493" transform="rotate(90 1060.06 436.07)"/></g><g filter="url(#i)"><g clip-path="url(#j)"><rect width="182.127" height="43.127" x="720.563" y="1" fill="#FC0" rx="8.564" transform="rotate(30 720.563 1)"/><path fill="#000" d="m731.773 26.118-7.565-4.367-2.351 4.072 6.675 3.853-1.284 2.225-6.675-3.854-2.788 4.828 7.565 4.368-1.284 2.225-9.79-5.652 4.072-7.053 3.635-6.297 1.285-2.225 9.789 5.652zm8.936 9.165.707-1.224a2.03 2.03 0 0 0-.752-2.807l-1.78-1.028a2.045 2.045 0 0 0-2.808.752l-4.354 7.543a2.06 2.06 0 0 0 .752 2.807l1.78 1.028a2.06 2.06 0 0 0 2.807-.752l.707-1.224 2.225 1.284-.707 1.224c-1.271 2.203-4.105 3-6.33 1.715l-1.779-1.028c-2.203-1.272-2.952-4.136-1.68-6.339l4.354-7.542a4.62 4.62 0 0 1 6.317-1.693l1.78 1.028a4.606 4.606 0 0 1 1.693 6.317l-.707 1.223zm5.143 16.763-1.78-1.027c-2.202-1.272-2.951-4.137-1.68-6.34l4.355-7.542a4.62 4.62 0 0 1 6.317-1.693l1.78 1.028a4.606 4.606 0 0 1 1.693 6.317l-4.355 7.542c-1.272 2.203-4.105 3-6.33 1.715m1.298-2.247a2.06 2.06 0 0 0 2.807-.752l4.355-7.543a2.03 2.03 0 0 0-.753-2.807l-1.78-1.028a2.044 2.044 0 0 0-2.807.753l-4.355 7.542a2.06 2.06 0 0 0 .753 2.807zm8.716 1.325 2.225 1.284-.514.89a2.226 2.226 0 0 0 .809 3.018l1.491.86c1.134.656 2.346.406 2.911-.573 1.773-3.07-5.184-7.977-2.743-12.204 1.259-2.18 3.846-2.704 6.271-1.304l1.045.604c2.292 1.323 3.095 4.249 1.772 6.54l-.386.668-2.225-1.285.386-.667a2.215 2.215 0 0 0-.831-3.031l-1.046-.604c-1.201-.694-2.234-.548-2.761.364-1.362 2.358 5.454 7.51 2.743 12.204-1.284 2.225-4.063 2.875-6.421 1.514l-1.491-.861a4.77 4.77 0 0 1-1.749-6.528zm12.896 7.445 2.225 1.284-.514.89a2.226 2.226 0 0 0 .809 3.018l1.49.861c1.135.655 2.347.406 2.912-.573 1.773-3.07-5.184-7.977-2.743-12.204 1.259-2.18 3.845-2.705 6.27-1.304l1.046.603c2.292 1.323 3.094 4.249 1.771 6.54l-.385.668-2.225-1.284.385-.668a2.215 2.215 0 0 0-.831-3.03l-1.045-.605c-1.202-.693-2.235-.548-2.761.364-1.362 2.358 5.453 7.51 2.743 12.204-1.284 2.225-4.063 2.876-6.421 1.514l-1.491-.86a4.77 4.77 0 0 1-1.749-6.528zm27.489 4.776-3.782-2.184-6.423 11.125 3.782 2.183-1.284 2.225-6.007-3.468-3.783-2.184 1.285-2.225 3.782 2.184 6.423-11.124-3.782-2.184 1.284-2.225 6.007 3.468 3.783 2.184zm-1.698 10.114 2.225 1.285-.514.89a2.226 2.226 0 0 0 .809 3.018l1.491.86c1.134.656 2.346.406 2.912-.573 1.772-3.07-5.185-7.976-2.744-12.204 1.259-2.18 3.846-2.704 6.271-1.304l1.045.604c2.292 1.323 3.095 4.249 1.772 6.54l-.386.668-2.225-1.285.386-.667a2.215 2.215 0 0 0-.831-3.031l-1.046-.604c-1.201-.694-2.234-.548-2.761.364-1.362 2.358 5.454 7.51 2.743 12.204-1.284 2.225-4.063 2.875-6.421 1.514l-1.491-.861a4.77 4.77 0 0 1-1.749-6.528zm28.774 2.552-1.284 2.225-3.783-2.184-7.707 13.35-2.225-1.285 7.707-13.35-3.782-2.183 1.285-2.225 6.007 3.468zm11.611 9.67-7.564-4.367-2.351 4.071 6.675 3.854-1.285 2.225-6.675-3.854-2.787 4.828 7.565 4.367-1.285 2.225-9.79-5.652 4.072-7.053 3.636-6.296 1.284-2.225 9.79 5.652zm11.956 3.936 2.224 1.284-8.991 15.575-2.225-1.285 6.166-10.68-4.613 3.211-1.201-.693.474-5.6-6.166 10.679-2.225-1.284 8.992-15.575 2.225 1.285-.683 7.348zm11.338 6.546-2.255 12.641-2.955 5.117-2.225-1.285 2.081-3.604-5.339-3.083-2.081 3.605-2.225-1.285 2.954-5.117 9.82-8.273zm-3.164 2.86-5.844 4.933 4.538 2.62 1.35-7.527z"/></g><rect width="179.986" height="40.986" x="720.955" y="2.462" stroke="#000" stroke-width="2.141" rx="7.493" transform="rotate(30 720.955 2.462)"/></g><g filter="url(#k)"><g clip-path="url(#l)"><rect width="256.127" height="43.127" x="154" y="129" fill="#FC0" rx="8.564" transform="rotate(-30 154 129)"/><path fill="#000" d="M175.873 132.053a4.62 4.62 0 0 1 6.317 1.692l4.355 7.543c1.271 2.202.523 5.067-1.68 6.339l-4.227 2.441-1.558.899-8.992-15.574 2.225-1.285zm8.447 10.519-4.355-7.542a2.044 2.044 0 0 0-2.807-.752l-3.56 2.055 6.41 11.102 3.56-2.055a2.06 2.06 0 0 0 .752-2.808m9.738-18.052-7.564 4.368 2.35 4.071 6.675-3.854 1.285 2.225-6.675 3.854 2.787 4.828 7.565-4.367 1.284 2.224-9.789 5.652-4.072-7.052-3.635-6.297-1.285-2.225 9.79-5.652zm7.911 6.528 2.224-1.285.514.89a2.226 2.226 0 0 0 3.018.809l1.491-.861c1.135-.655 1.525-1.829.959-2.808-1.772-3.07-9.5.501-11.94-3.726-1.259-2.181-.42-4.683 2.006-6.083l1.045-.604c2.292-1.323 5.227-.555 6.55 1.737l.385.667-2.224 1.285-.386-.668c-.616-1.068-1.972-1.412-3.04-.796l-1.046.604c-1.201.694-1.592 1.661-1.065 2.573 1.361 2.359 9.23-.968 11.94 3.726 1.285 2.225.459 4.957-1.899 6.318l-1.491.861a4.77 4.77 0 0 1-6.528-1.749zm17.39-17.13-.707-1.224a2.03 2.03 0 0 0-2.807-.752l-1.78 1.027a2.045 2.045 0 0 0-.752 2.808l4.354 7.542a2.06 2.06 0 0 0 2.808.752l1.78-1.027a2.06 2.06 0 0 0 .752-2.808l-.707-1.223 2.225-1.285.707 1.224c1.272 2.202.545 5.054-1.68 6.339l-1.78 1.028c-2.203 1.271-5.058.487-6.33-1.715l-4.354-7.543a4.62 4.62 0 0 1 1.692-6.317l1.78-1.027a4.604 4.604 0 0 1 6.317 1.692l.707 1.224zm13.386-11.734-7.564 4.368 2.35 4.071 6.675-3.853 1.285 2.224-6.675 3.854 2.787 4.828 7.565-4.367 1.285 2.224-9.79 5.652-4.072-7.052-3.635-6.297-1.285-2.225 9.79-5.652zm9.386-8.385 2.225-1.285 8.992 15.574-3.226 1.863-11.172-9.332 6.834 11.837-2.225 1.284-8.992-15.574 3.226-1.863 11.172 9.332zm15.121-8.73 1.285 2.224-3.783 2.184 7.708 13.35-2.225 1.284-7.708-13.35-3.782 2.184-1.284-2.224 6.007-3.469zm15.979-2.106a4.586 4.586 0 0 1-.693 5.532l6.602 4.703-2.448 1.413-6.422-4.599-2.292 1.323 3.597 6.23-2.225 1.285-8.992-15.575 2.225-1.284 3.56-2.056a4.605 4.605 0 0 1 6.317 1.693zm-2.225 1.285-.771-1.335a2.03 2.03 0 0 0-2.808-.753l-3.559 2.056 2.826 4.894 3.559-2.055a2.03 2.03 0 0 0 .753-2.807m8.255-11.886 9.82 8.273 2.954 5.117-2.225 1.285-2.081-3.605-5.339 3.083 2.081 3.605-2.225 1.284-2.955-5.117-2.255-12.64zm.895 4.17 1.35 7.527 4.538-2.62-5.844-4.933zm15.926 3.917 7.564-4.367 1.285 2.225-9.79 5.652-8.991-15.574 2.224-1.285 7.708 13.35Zm14.037-22.937-3.782 2.184 6.423 11.124 3.782-2.183 1.285 2.225-6.008 3.468-3.782 2.183-1.284-2.224 3.782-2.184-6.423-11.125-3.782 2.184-1.285-2.225 6.007-3.468 3.783-2.184zm11.611-9.67 1.285 2.225-.719 15.248 7.142-4.124 1.284 2.225-9.789 5.652-1.285-2.225.742-15.26-7.165 4.136-1.284-2.225zm9.114-5.262 9.819 8.274 2.955 5.117-2.225 1.284-2.081-3.604-5.34 3.083 2.081 3.604-2.225 1.285-2.954-5.117-2.255-12.641zm.895 4.17 1.349 7.528 4.539-2.62-5.844-4.933-.044.026Zm18.802-8.57-2.225 1.284-.707-1.223a2.03 2.03 0 0 0-2.807-.753l-1.78 1.028a2.045 2.045 0 0 0-.753 2.808l4.355 7.542a2.06 2.06 0 0 0 2.808.752l1.779-1.027a2.06 2.06 0 0 0 .753-2.808l-.707-1.224 2.225-1.284.707 1.224a4.677 4.677 0 0 1-1.413 6.185l.219.585.2-.116c1.536-.886 3.549-.328 4.461 1.252.886 1.535.363 3.558-1.172 4.444l-2.537 1.464-1.284-2.224 2.536-1.465c.289-.167.412-.623.232-.934-.206-.356-.64-.492-.951-.312l-1.691.977-1.997-1.25-.241-1.137c-2.165 1.131-4.919.318-6.152-1.818l-4.355-7.542a4.62 4.62 0 0 1 1.693-6.317l1.78-1.027a4.605 4.605 0 0 1 6.317 1.692zm2.612-11.743c-.543.343-.596.611-.488 1.26l-2.503.496c-.368-1.923.311-3.264 2.174-4.25l3.016-.377c.543-.344.596-.612.488-1.261l2.503-.496c.368 1.923-.311 3.265-2.174 4.251zm1.257 2.537 2.225-1.284 9.82 8.273 2.954 5.117-2.225 1.285-2.081-3.605-5.339 3.083 2.081 3.605-2.225 1.284-2.955-5.117-2.255-12.64Zm3.12 2.886 1.35 7.527 4.538-2.62-5.843-4.933zm20.77 4.087-1.78 1.028c-2.202 1.271-5.058.487-6.33-1.715l-4.354-7.542a4.62 4.62 0 0 1 1.692-6.317l1.78-1.028a4.605 4.605 0 0 1 6.317 1.692l4.355 7.543c1.272 2.203.545 5.055-1.68 6.34Zm-1.297-2.247a2.06 2.06 0 0 0 .752-2.808L373.4 23.35a2.03 2.03 0 0 0-2.807-.752l-1.78 1.027a2.045 2.045 0 0 0-.752 2.808l4.354 7.542a2.06 2.06 0 0 0 2.808.753z"/></g><rect width="253.986" height="40.986" x="155.462" y="129.392" stroke="#000" stroke-width="2.141" rx="7.493" transform="rotate(-30 155.462 129.392)"/></g><defs><clipPath id="b"><rect width="182.127" height="43.127" x="327.917" y="1031" fill="#fff" rx="8.564" transform="rotate(-150 327.917 1031)"/></clipPath><clipPath id="d"><rect width="197.127" height="43.127" x="874.281" y="932" fill="#fff" rx="8.564" transform="rotate(150 874.281 932)"/></clipPath><clipPath id="f"><rect width="256.127" height="43.127" y="647.127" fill="#fff" rx="8.564" transform="rotate(-90 0 647.127)"/></clipPath><clipPath id="h"><rect width="167.127" height="43.127" x="1061.13" y="435" fill="#fff" rx="8.564" transform="rotate(90 1061.13 435)"/></clipPath><clipPath id="j"><rect width="182.127" height="43.127" x="720.563" y="1" fill="#fff" rx="8.564" transform="rotate(30 720.563 1)"/></clipPath><clipPath id="l"><rect width="256.127" height="43.127" x="154" y="129" fill="#fff" rx="8.564" transform="rotate(-30 154 129)"/></clipPath><filter id="a" width="183.572" height="132.694" x="170.19" y="902.588" color-interpolation-filters="sRGB" filterUnits="userSpaceOnUse"><feFlood flood-opacity="0" result="BackgroundImageFix"/><feColorMatrix in="SourceAlpha" result="hardAlpha" values="0 0 0 0 0 0 0 0 0 0 0 0 0 0 0 0 0 0 127 0"/><feOffset dx="4.282" dy="4.282"/><feComposite in2="hardAlpha" operator="out"/><feColorMatrix values="0 0 0 0 0 0 0 0 0 0 0 0 0 0 0 0 0 0 1 0"/><feBlend in2="BackgroundImageFix" result="effect1_dropShadow_2999_853"/><feBlend in="SourceGraphic" in2="effect1_dropShadow_2999_853" result="shape"/></filter><filter id="c" width="196.563" height="140.196" x="682" y="894.65" color-interpolation-filters="sRGB" filterUnits="userSpaceOnUse"><feFlood flood-opacity="0" result="BackgroundImageFix"/><feColorMatrix in="SourceAlpha" result="hardAlpha" values="0 0 0 0 0 0 0 0 0 0 0 0 0 0 0 0 0 0 127 0"/><feOffset dx="4.282" dy="4.282"/><feComposite in2="hardAlpha" operator="out"/><feColorMatrix values="0 0 0 0 0 0 0 0 0 0 0 0 0 0 0 0 0 0 1 0"/><feBlend in2="BackgroundImageFix" result="effect1_dropShadow_2999_853"/><feBlend in="SourceGraphic" in2="effect1_dropShadow_2999_853" result="shape"/></filter><filter id="e" width="47.409" height="260.409" x="0" y="391" color-interpolation-filters="sRGB" filterUnits="userSpaceOnUse"><feFlood flood-opacity="0" result="BackgroundImageFix"/><feColorMatrix in="SourceAlpha" result="hardAlpha" values="0 0 0 0 0 0 0 0 0 0 0 0 0 0 0 0 0 0 127 0"/><feOffset dx="4.282" dy="4.282"/><feComposite in2="hardAlpha" operator="out"/><feColorMatrix values="0 0 0 0 0 0 0 0 0 0 0 0 0 0 0 0 0 0 1 0"/><feBlend in2="BackgroundImageFix" result="effect1_dropShadow_2999_853"/><feBlend in="SourceGraphic" in2="effect1_dropShadow_2999_853" result="shape"/></filter><filter id="g" width="47.409" height="171.409" x="1018" y="435" color-interpolation-filters="sRGB" filterUnits="userSpaceOnUse"><feFlood flood-opacity="0" result="BackgroundImageFix"/><feColorMatrix in="SourceAlpha" result="hardAlpha" values="0 0 0 0 0 0 0 0 0 0 0 0 0 0 0 0 0 0 127 0"/><feOffset dx="4.282" dy="4.282"/><feComposite in2="hardAlpha" operator="out"/><feColorMatrix values="0 0 0 0 0 0 0 0 0 0 0 0 0 0 0 0 0 0 1 0"/><feBlend in2="BackgroundImageFix" result="effect1_dropShadow_2999_853"/><feBlend in="SourceGraphic" in2="effect1_dropShadow_2999_853" result="shape"/></filter><filter id="i" width="183.572" height="132.694" x="699" y="1" color-interpolation-filters="sRGB" filterUnits="userSpaceOnUse"><feFlood flood-opacity="0" result="BackgroundImageFix"/><feColorMatrix in="SourceAlpha" result="hardAlpha" values="0 0 0 0 0 0 0 0 0 0 0 0 0 0 0 0 0 0 127 0"/><feOffset dx="4.282" dy="4.282"/><feComposite in2="hardAlpha" operator="out"/><feColorMatrix values="0 0 0 0 0 0 0 0 0 0 0 0 0 0 0 0 0 0 1 0"/><feBlend in2="BackgroundImageFix" result="effect1_dropShadow_2999_853"/><feBlend in="SourceGraphic" in2="effect1_dropShadow_2999_853" result="shape"/></filter><filter id="k" width="247.658" height="169.696" x="154" y=".936" color-interpolation-filters="sRGB" filterUnits="userSpaceOnUse"><feFlood flood-opacity="0" result="BackgroundImageFix"/><feColorMatrix in="SourceAlpha" result="hardAlpha" values="0 0 0 0 0 0 0 0 0 0 0 0 0 0 0 0 0 0 127 0"/><feOffset dx="4.282" dy="4.282"/><feComposite in2="hardAlpha" operator="out"/><feColorMatrix values="0 0 0 0 0 0 0 0 0 0 0 0 0 0 0 0 0 0 1 0"/><feBlend in2="BackgroundImageFix" result="effect1_dropShadow_2999_853"/><feBlend in="SourceGraphic" in2="effect1_dropShadow_2999_853" result="shape"/></filter></defs></svg>