<svg xmlns="http://www.w3.org/2000/svg" width="214" height="215" fill="none"><path fill="#FFEEA8" d="M49.623 46.361 31.747 62.997C4.524 88.39 7.942 136.195 39.31 169.8c31.366 33.606 78.825 40.245 106.017 14.852l17.876-16.636"/><path stroke="#0E0333" stroke-miterlimit="10" d="M49.623 46.361 31.747 62.997C4.524 88.39 7.942 136.195 39.31 169.8c31.366 33.606 78.825 40.245 106.017 14.852l17.876-16.636"/><path fill="#FC0" stroke="#0E0333" stroke-miterlimit="10" d="M163.455 167.84c27.185-25.385 23.795-73.192-7.57-106.78S77.056 20.822 49.872 46.207s-23.795 73.193 7.57 106.781 78.829 40.238 106.013 14.852Z"/><path stroke="#0E0333" stroke-miterlimit="10" d="M32.226 79.496 13.534 96.948m18.84 7.093-18.693 17.468m24.389 1.938L19.377 140.9m27.232-.728L27.9 157.641m30.212-3.493L39.419 171.6m31.826-5.024-18.693 17.453m34.816-7.8L68.66 193.696m38.757-11.491-18.693 17.467m45.399-17.699-18.693 17.453"/><path fill="#5BF1CD" stroke="#0E0333" stroke-linecap="round" stroke-linejoin="round" d="M110.87 140.148a20.97 20.97 0 0 0 13.778 8.252 20.98 20.98 0 0 0 15.577-3.912 20.97 20.97 0 0 0 8.252-13.778 20.97 20.97 0 0 0-3.911-15.577l-17.529-23.592-33.681 25.029zm16.164-48.61L109.461 67.96a20.97 20.97 0 0 0-13.779-8.253 20.97 20.97 0 0 0-23.82 17.694 21 21 0 0 0 .41 8.176 21 21 0 0 0 3.508 7.397l17.514 23.594z"/><path fill="#11BC92" stroke="#0E0333" stroke-linecap="round" stroke-linejoin="round" d="M142.917 142.096c-8.938 4.537-15.713-1.603-21.884-9.921l-17.528-23.593-10.149 7.985 17.514 23.579a20.98 20.98 0 0 0 29.355 4.34 23 23 0 0 0 2.692-2.39"/><path fill="#11BC92" stroke="#0E0333" stroke-linecap="round" stroke-linejoin="round" d="M103.499 108.58 85.986 85.002c-6.171-8.318-9.664-16.016-2.753-23.275a22.5 22.5 0 0 0-3.025 1.89 21 21 0 0 0-8.244 13.782 20.98 20.98 0 0 0 3.919 15.573l17.513 23.593 5.762-4.28z"/></svg>