<svg xmlns="http://www.w3.org/2000/svg" width="197" height="215" fill="none"><g stroke="#000" clip-path="url(#a)"><path fill="#FC0" stroke-miterlimit="10" stroke-width=".71" d="M98.087 131.535v41.879c0 11.597-9.401 20.999-21 20.999-11.597 0-20.998-9.401-20.998-20.999v-41.879z"/><path fill="#FFEEA8" stroke-miterlimit="10" stroke-width=".71" d="M77.088 116.352c5.829 0 11.092 1.732 14.889 4.517 3.798 2.785 6.11 6.604 6.11 10.787s-2.312 8.002-6.11 10.787c-3.797 2.784-9.06 4.518-14.89 4.518-5.828 0-11.091-1.734-14.89-4.518-3.796-2.785-6.108-6.603-6.108-10.787 0-4.183 2.312-8.002 6.109-10.787 3.798-2.784 9.06-4.517 14.89-4.517Z"/><path stroke-miterlimit="10" stroke-width=".71" d="M78.038 131.539V85.984"/><path fill="#5BF1CD" stroke-linecap="round" stroke-linejoin="round" d="M108.849 55.83c.103 4.03-.606 8.04-2.087 11.793a30.2 30.2 0 0 1-6.528 10.06 30.4 30.4 0 0 1-9.946 6.747 30.5 30.5 0 0 1-11.8 2.372c-4.053 0-8.065-.806-11.8-2.372a30.4 30.4 0 0 1-9.945-6.748 30.2 30.2 0 0 1-6.53-10.06 30.1 30.1 0 0 1-2.086-11.792C48.127 39.136 78.479.436 78.479.436s30.37 38.7 30.37 55.394"/><path stroke-miterlimit="10" d="m78.678 107.962-13.3-9.85"/><path fill="#5BF1CD" stroke-linecap="round" stroke-linejoin="round" d="M64.33 87.896a6.35 6.35 0 0 1 1.824 1.97c.464.782.763 1.663.88 2.59.117.925.05 1.878-.2 2.802a7.7 7.7 0 0 1-1.247 2.576 7.7 7.7 0 0 1-2.101 1.945 7.3 7.3 0 0 1-2.623 1.008c-.92.157-1.85.128-2.734-.089a6.35 6.35 0 0 1-2.414-1.169c-3-2.222-5.644-13.185-5.644-13.185s11.262-.668 14.26 1.552Z"/><path fill="#FC0" stroke-miterlimit="10" d="M149.911 138.83v37.034c0 10.245 8.304 18.55 18.548 18.55 10.245 0 18.55-8.305 18.55-18.55V138.83z"/><path fill="#FFEEA8" stroke-miterlimit="10" d="M168.459 125.387c-5.152 0-9.803 1.532-13.157 3.992s-5.391 5.828-5.391 9.516 2.036 7.056 5.391 9.516 8.005 3.992 13.157 3.992c5.154 0 9.805-1.532 13.159-3.992 3.353-2.46 5.391-5.829 5.391-9.516s-2.038-7.056-5.391-9.516-8.005-3.992-13.159-3.992Z"/><path stroke-miterlimit="10" d="M167.621 138.796V98.465"/><path fill="#5BF1CD" stroke-linecap="round" stroke-linejoin="round" d="M140.343 71.766a26.6 26.6 0 0 0 1.847 10.44 26.7 26.7 0 0 0 5.78 8.907 26.9 26.9 0 0 0 8.805 5.974 27.02 27.02 0 0 0 20.893 0 26.9 26.9 0 0 0 8.804-5.974 26.7 26.7 0 0 0 5.78-8.906 26.6 26.6 0 0 0 1.847-10.441c0-14.78-26.87-49.04-26.87-49.04s-26.886 34.26-26.886 49.04"/><path stroke-miterlimit="10" d="m167.054 117.924 11.773-8.721"/><path fill="#5BF1CD" stroke-linecap="round" stroke-linejoin="round" d="M179.756 100.158a5.6 5.6 0 0 0-1.613 1.744 5.9 5.9 0 0 0-.779 2.292 6.4 6.4 0 0 0 .175 2.481c.22.819.597 1.594 1.106 2.281a6.8 6.8 0 0 0 1.859 1.722 6.4 6.4 0 0 0 2.323.891 5.95 5.95 0 0 0 2.42-.077 5.6 5.6 0 0 0 2.138-1.036c2.655-1.966 4.996-11.674 4.996-11.674s-9.97-.59-12.625 1.376"/><path fill="#FC0" stroke-miterlimit="10" d="M47.307 156.545v37.783c0 10.454-8.475 18.928-18.928 18.928s-18.928-8.474-18.928-18.928v-37.783z"/><path fill="#FFEEA8" stroke-miterlimit="10" d="M28.38 142.832c5.256 0 10.001 1.564 13.424 4.074s5.503 5.948 5.503 9.712c0 3.765-2.08 7.204-5.503 9.714-3.423 2.509-8.168 4.072-13.425 4.072s-10.003-1.562-13.426-4.072-5.502-5.949-5.502-9.714c0-3.764 2.08-7.202 5.502-9.712 3.423-2.51 8.168-4.073 13.426-4.074Z"/><path stroke-miterlimit="10" d="M29.237 156.518v-41.139"/><path fill="#5BF1CD" stroke-linecap="round" stroke-linejoin="round" d="M57.062 88.145a27.2 27.2 0 0 1-1.884 10.651 27.3 27.3 0 0 1-5.896 9.084 27.4 27.4 0 0 1-8.98 6.092 27.55 27.55 0 0 1-10.657 2.143c-3.66 0-7.283-.728-10.656-2.143a27.4 27.4 0 0 1-8.98-6.092 27.3 27.3 0 0 1-5.897-9.084 27.2 27.2 0 0 1-1.884-10.65c0-15.076 27.408-50.023 27.408-50.023S57.062 73.07 57.062 88.145"/><path stroke-miterlimit="10" d="m29.025 136.175-11.297-9.784"/><path fill="#5BF1CD" stroke-linecap="round" stroke-linejoin="round" d="M17.486 117.116a5.7 5.7 0 0 1 1.506 1.898 6.1 6.1 0 0 1 .615 2.393 6.6 6.6 0 0 1-.372 2.51 7 7 0 0 1-1.301 2.233 6.9 6.9 0 0 1-2.026 1.607 6.6 6.6 0 0 1-2.431.727 6.1 6.1 0 0 1-2.455-.267 5.7 5.7 0 0 1-2.094-1.219c-2.547-2.207-4.175-12.26-4.175-12.26s10.186.172 12.733 2.378"/><path stroke-miterlimit="10" d="m29.324 132.785 7.968-4.949"/><path fill="#5BF1CD" stroke-linecap="round" stroke-linejoin="round" d="M38.01 120.826a4.4 4.4 0 0 0-1.25 1.351 4.6 4.6 0 0 0-.604 1.777c-.08.636-.034 1.29.137 1.923a5.28 5.28 0 0 0 2.298 3.103 5 5 0 0 0 1.8.691 4.6 4.6 0 0 0 1.875-.06 4.4 4.4 0 0 0 1.657-.803c2.058-1.524 3.873-9.048 3.873-9.048s-7.727-.458-9.785 1.066Z"/><path fill="#FC0" stroke-miterlimit="10" d="M142.319 157.988v36.497c0 10.094-8.183 18.277-18.277 18.277s-18.278-8.183-18.278-18.277v-36.497z"/><path fill="#FFEEA8" stroke-miterlimit="10" d="M124.042 144.738c5.078 0 9.66 1.509 12.964 3.932 3.305 2.425 5.313 5.743 5.313 9.376s-2.008 6.952-5.313 9.376-7.886 3.933-12.964 3.933-9.661-1.51-12.966-3.933-5.312-5.743-5.312-9.376 2.007-6.951 5.312-9.376c3.305-2.423 7.888-3.932 12.966-3.932Z"/><path stroke-miterlimit="10" d="M124.87 157.944v-39.751"/><path fill="#5BF1CD" stroke-linecap="round" stroke-linejoin="round" d="M151.752 91.885c.09 3.516-.53 7.015-1.82 10.29a26.4 26.4 0 0 1-5.697 8.778 26.5 26.5 0 0 1-8.679 5.887 26.6 26.6 0 0 1-10.296 2.07c-3.536 0-7.036-.703-10.296-2.07a26.5 26.5 0 0 1-8.677-5.887 26.3 26.3 0 0 1-5.698-8.778 26.2 26.2 0 0 1-1.82-10.29c0-14.567 26.483-48.334 26.483-48.334s26.5 33.767 26.5 48.334"/><path stroke-miterlimit="10" d="m124.763 141.256-5.254-4.551"/><path fill="#5BF1CD" stroke-linecap="round" stroke-linejoin="round" d="M119.398 132.394c.292.24.531.54.7.883.17.343.266.721.286 1.113.02.39-.04.788-.173 1.167a3.25 3.25 0 0 1-1.547 1.786 3 3 0 0 1-1.131.337 2.8 2.8 0 0 1-1.142-.124 2.7 2.7 0 0 1-.973-.566c-1.185-1.026-1.942-5.703-1.942-5.703s4.737.081 5.922 1.107"/><path stroke-miterlimit="10" d="m124.95 135.014 7.7-4.782"/><path fill="#5BF1CD" stroke-linecap="round" stroke-linejoin="round" d="M133.343 123.457c-.489.342-.9.786-1.208 1.306a4.5 4.5 0 0 0-.584 1.716 4.8 4.8 0 0 0 .132 1.859 5.1 5.1 0 0 0 2.221 2.997 4.8 4.8 0 0 0 1.739.668c.61.105 1.226.085 1.812-.059a4.2 4.2 0 0 0 1.601-.775c1.988-1.472 3.742-8.741 3.742-8.741s-7.467-.444-9.455 1.029"/></g><defs><clipPath id="a"><path fill="#fff" d="M0 0h196.67v214.17H0z"/></clipPath></defs></svg>