<svg xmlns="http://www.w3.org/2000/svg" width="338" height="297" fill="none"><path fill="#000" fill-rule="evenodd" d="m53.294 206.463 4.133 78.867a2.82 2.82 0 0 1-2.671 2.966l-4.346.227a2.82 2.82 0 0 1-2.967-2.669l-4.133-78.868a2.825 2.825 0 0 1 2.671-2.969l4.346-.227a2.824 2.824 0 0 1 2.967 2.673" clip-rule="evenodd"/><path fill="#000" fill-rule="evenodd" d="m69.765 291.573.054 1.028a.265.265 0 0 1-.25.277l-33.419 1.751a.264.264 0 0 1-.277-.249l-.054-1.028c-.272-5.189 3.714-9.618 8.904-9.89l15.153-.794c5.19-.272 9.617 3.716 9.89 8.905Zm-53.2-87.892c.125 2.399 3.14 6.96 5.542 6.834l65.658-3.441c2.4-.126 4.393-3.828 4.267-6.23-.126-2.399-2.322-2.586-4.722-2.46l-65.659 3.441c-2.4.126-5.212-.543-5.086 1.856" clip-rule="evenodd"/><path fill="#FBEACC" fill-rule="evenodd" d="m95.279 173.99.933 17.794a8.823 8.823 0 0 1-8.35 9.272l-67.42 3.533a8.82 8.82 0 0 1-9.271-8.349l-.933-17.793c-.254-4.864-.427-19.856.884-29.195 1.312-9.338 2.987-17.775 18.717-17.054 15.731.719 65.185 36.929 65.44 41.792" clip-rule="evenodd"/><path fill="#000" d="m87.906 201.935-67.42 3.534c-5.344.28-9.919-3.839-10.199-9.184l-.932-17.793c-.235-4.474-.46-19.743.89-29.363 1.224-8.717 2.61-18.584 19.631-17.816 15.852.727 65.994 37.144 66.281 42.629l.933 17.794c.28 5.345-3.84 9.919-9.184 10.199M26.32 133.077c-12.129.636-13.2 8.262-14.327 16.298-1.332 9.491-1.109 24.596-.877 29.024l.933 17.794c.229 4.372 3.973 7.742 8.344 7.512l67.42-3.533c4.372-.229 7.742-3.971 7.513-8.343l-.932-17.79c-.497-4.014-48.36-40.22-64.599-40.963a36 36 0 0 0-3.475.001"/><path fill="#000" d="M48.002 183.002a1 1 0 0 1-.135-.004c-.017-.004-1.75-.163-4.146 0l-.336.025c-6.523.454-8.49.593-14.47-1.411-4.4-1.478-5.05-5.887-5.952-11.988-.217-1.468-.452-3.061-.759-4.769-.956-5.348-3.298-11.253-3.32-11.312a.882.882 0 0 1 1.638-.655c.1.249 2.431 6.129 3.42 11.656.309 1.728.546 3.338.765 4.821.87 5.886 1.394 9.44 4.77 10.574 5.648 1.894 7.213 1.789 13.785 1.322l.334-.023c2.558-.181 4.37-.003 4.447.003a.883.883 0 0 1-.041 1.761"/><path fill="#fff" fill-rule="evenodd" d="M322.344 80.916c-3.383-20.766-4.689-24.625-8.765-29.04-4.077-4.42-17.277-3.807-17.277-3.807s-3.833-3.003-5.196-4.733c-1.364-1.73-1.03-10.017-1.03-10.017s2.839.007 4.025-3.625c.693-2.12-.196-3.7-.197-3.757l-.159-5.294s.685-.418 1.012-.934c.324-.519.548-2.859-.751-7.56s-6.03-6.146-10.375-6.933c-4.343-.787-17.285 3.484-18.534 4.798-1.483 1.56.063 7.365 2.379 6.952l-1.052 3.225.446 1.338.419 10.1s-2.603 9.33-1.418 11.143c2.755 4.217 13.666 2.288 13.666 2.288l.702 1.673-1.87 2.511s-8.448 1.633-12.144 3.109c-3.696 1.479-10.474 7.441-10.474 7.441l-14.777 14.893-8.226-26.289s-1.254-9.15-3.823-13.405c-2.57-4.252-14.862.308-15.316.572-1.768 1.025-.005 2.007.502 2.794.507.793 7.745-1.58 8.487.144-3.003 1.867-3.496 5.042-3.496 5.042s-.459.77-1.242.721c-.785-.048-3.4.562-3.976.995-.576.435-.287 1.47 1.216 2.188 3.527 1.68 3.11 3.406 4.778 5.45 1.629 1.994 4.396 3.478 4.396 3.478s-.219 11.633 1.14 21.904c.699 5.281 2.748 11.337 3.511 12.89 2.243 4.57 9.611 2.498 9.611 2.498l24.263-11.754.7 21.223 5.351 158.832 2.15.594s-.313 4.579-.341 5.845c-.009.318-.271.765-.706 1.293q.228.072.442.159c.679-.01 1.357-.028 2.029-.075 4.527-.313 8.953-.792 13.469-.53l-.02-7.768 2.321.466-.931-76.206 17.344 76.995 2.894.145.495 6.095s-1.062 2.11-2.708 4.03c-3.117 3.636-2.533 7.199-2.533 7.199l25.236-1.676-24.545-132.325 1.696-4.741-3.857-2.801s17.505-16.924 22.584-23.029c5.08-6.11 2.107-12.432-1.525-34.724m-23.621 41.457s-6.525-18.202-4.159-22.039 9.072-13.431 9.072-13.431l5.544 20.379z" clip-rule="evenodd"/><path fill="#000" fill-rule="evenodd" d="m307.817 267.591.076 2.589s4.299-.352 7.187.032c2.888.387 5.781 5.825 5.781 5.825l2.854-.624 2.619-6.2-1.059-3.361zm-38.391 1.306-2.002 4.52s1.019.971 2.432 2.582c1.415 1.612 1.608 2.565 1.608 2.565l9.038-.591s1.348-1.568 2.044-2.58c.696-1.011 3.107-2.517 3.107-2.517l.315-4.08zm24.962-169.413c-1.124 1.891.463 9.926.463 9.926l-31.11 5.341-1.176-32.497s-21.502 10.183-27.173 11.84c-5.671 1.659-8.349-3.984-9-6.535s-1.714-13.496-1.217-12.964c.499.531 1.313 2.995 8.016 1.652 5.266-1.055 6.428-4.683 6.428-4.683l1.067 3.292s7.281-7.984 13.789-14.442c6.505-6.46 16.375-8.926 16.375-8.926s1.144 1.876 2.179 3.36c1.032 1.483 6.333 4.256 13.386 2.596 7.051-1.66 18.99-8.474 18.99-8.474s6.673.645 10.422 4.46c3.746 3.814 10.683 42.304 11.527 51.391.842 9.091-10.143 18.426-9.562 17.416.582-1.015.101-3.933-3.652-6.377-4.254-2.768-7.144-2.975-8.569-1.768s4.521-7.129 4.521-7.129l-6.436-21.686s-8.142 12.316-9.268 14.207" clip-rule="evenodd"/><path fill="#FC0" fill-rule="evenodd" d="M293.789 125.803s.521 3.589 1.09 5.067c2.093 5.423 6.137 8.098 6.137 8.098l3.904 2.564-1.736 5.097 21.318 115.031-19.779 1.54-18.044-75.311 1.523 74.062-20.774.26-3.589-148.031 30.759-4.831 3.531 12.751z" clip-rule="evenodd"/><path fill="#fff" fill-rule="evenodd" d="m264.453 114.875-.152 2.715 31.649-5.131-.732-2.729zm29.196-89.011c.291-.74.369-5.318.369-5.318l-7.112 1.375-3.717 7.732s-.374 1.031-.557 2.854c-.182 1.825-2.455 2.604-2.455 2.604s-2.029-1.506-3.248-2.423c-1.219-.915-3.424-.847-6.422-1.194-2.999-.346-2.348 2.42-2.348 2.42l-1.044-.83s-1.489 4.258-1.965 6.348c-.474 2.088 1.304 3.487 3.554 4.876s9.68 1.468 13.563-.77c3.884-2.235 4.568-7.246 4.568-7.246l-.179-4.523 2.345-5.836s4.357.676 4.648-.07Z" clip-rule="evenodd"/><path fill="#5BF1CD" d="M321.086 262.825a.73.73 0 0 1-.758-.592l-22.669-115.952a.74.74 0 0 1 .048-.431l2.783-6.448a.735.735 0 1 1 1.348.584l-2.691 6.235L321.77 261.95a.734.734 0 0 1-.58.864q-.05.01-.104.011"/><path fill="#000" d="M321.113 263.407a1.33 1.33 0 0 1-1.366-1.066l-22.668-115.953a1.3 1.3 0 0 1 .086-.778l2.782-6.445c.139-.323.397-.574.726-.705a1.315 1.315 0 0 1 1.718.744c.13.329.124.688-.017 1.012l-2.619 6.066 22.589 115.551c.068.346-.003.7-.202.995a1.3 1.3 0 0 1-1.029.579m-19.956-123.866c-.071.019-.11.041-.13.088l-2.784 6.449a.15.15 0 0 0-.009.088l22.668 115.95c.015.08.089.12.15.117.072-.01.101-.039.116-.062a.15.15 0 0 0 .023-.112l-22.659-115.908 2.764-6.403a.15.15 0 0 0 .002-.113.145.145 0 0 0-.141-.094"/><path fill="#5BF1CD" d="M283.582 262.593c-.437.003-.77-.323-.775-.728l-.908-90.401c-.005-.405.31-.714.726-.739a.73.73 0 0 1 .743.723l.911 90.402a.74.74 0 0 1-.697.743"/><path fill="#000" d="M283.613 263.178c-.784.007-1.384-.567-1.393-1.307l-.909-90.403c-.008-.714.541-1.287 1.279-1.331a1.32 1.32 0 0 1 1.367 1.303l.91 90.402a1.32 1.32 0 0 1-1.254 1.336m-.977-91.867c.007 0-.151.013-.149.143l.909 90.404c.001.082.069.141.167.145a.147.147 0 0 0 .128-.15l-.91-90.401a.14.14 0 0 0-.044-.101.14.14 0 0 0-.101-.04"/><path fill="#fff" fill-rule="evenodd" d="M289.616 6.287c-6.252-3.293-21.585 2.337-23.91 3.375s-1.105 2.49-1.049 3.589c.056 1.1 2.629 4.1 2.629 4.1l1.201-2.947s2.578 1.021 5.662 1.293c3.085.271 6.676-.514 8.241-.079 1.565.437 1.54 2.613 2.304 4.65.766 2.034 4.905 1.415 7.7.833s1.92-1.403 2.174-3.47c.253-2.066 1.299-8.045-4.952-11.344" clip-rule="evenodd"/><path fill="#000" fill-rule="evenodd" d="M294.147 25.377c.291-.74.387-2.505.387-2.505l-8.071-.129-3.007 5.355s-.752 3.095-.934 4.918c-.183 1.824-2.741 1.797-2.741 1.797s.05-.221-1.168-1.138c-1.22-.916-4.711-1.792-7.709-2.139s-2.708 1.714-2.708 1.714l.375.982s-2.429 5.435-2.906 7.525c.68.981 1.791 1.576 4.04 2.965 2.252 1.39 9.188.74 13.072-1.499 3.884-2.235 4.078-7.346 4.078-7.346l-.597-3.303 1.412-5.323s6.186-1.128 6.477-1.874" clip-rule="evenodd"/><path fill="#000" fill-rule="evenodd" d="M291.931 8.751c-6.252-3.293-23.383 2.202-25.707 3.24-2.326 1.038-1.105 2.49-1.049 3.589.056 1.1 2.135.64 2.135.64l1.46-1.848s2.975.937 6.06 1.21c3.085.27 6.631-.327 8.196.109s1.504 2.9 2.269 4.935 4.822 3.386 7.617 2.803c2.796-.581 1.211-1.509 1.466-3.576.253-2.066 3.805-7.803-2.447-11.102" clip-rule="evenodd"/><path fill="#000" fill-rule="evenodd" d="M212.897 45.617c-.049 1.75 2.408 2.686 3.768 3.335.569.272 1.289 1.374 1.757 2.089.936 1.42 1.699 2.892 2.812 4.208.469.555 1.479 1.182 1.681 1.737.224.612.138 1.692.197 2.638a627 627 0 0 0 1.436 18.414c.314 3.4.741 6.909 1.345 9.938.642 3.223 1.697 5.407 4.347 6.544 2.722 1.167 6.422.761 9.112-.3 8.046-3.18 15.005-6.886 22.653-10.433 1.622 30.328 1.74 59.995 2.724 90.178.363 11.13.584 22.369.821 33.635.234 11.181.742 22.362.881 33.69.067 5.377.143 11.107.411 16.819.07 1.492-.23 4.707.398 5.339.351.353.997.244 1.776.2-.277 1.81.229 3.709-.375 5.202-.185.458-.381.887-.599 1.289l1.919-.1c.132-.28.275-.513.42-.573.203-.084.42.021.649.022 4.212.034 9.834-.501 14.164-.507l.013.259 1.758-.093c-.02-2.037-.047-4.127-.093-6.374.932-.088 1.872.053 2.212-.47.361-.556.107-3.232.075-4.187-.698-21.413-.695-43.553-1.27-64.698 5.281 22.332 10.394 45.652 15.767 68.298.194.812.252 1.658.581 2.088.487.637 1.308.318 2.43.285.224 1.455.281 2.542.447 4.04.046.425.201.975.129 1.345-.079.417-.761.923-.998 1.173-2.147 2.263-3.955 4.431-4.514 8.243-.111.75-.341 1.896.469 2.214.616.239 2.16.005 3.235-.051 6.298-.333 13.376-.527 19.784-1.155 1.156-.115 2.861.038 3.215-.463.406-.577-.237-2.961-.454-4.158-3.751-20.622-7.634-41.7-11.446-62.223-3.949-21.259-7.763-42.981-11.795-64.385-.137-.73-.417-1.507-.401-2.037.022-.713.753-2.076 1.031-2.823.309-.831 1.059-2.193.905-2.932-.123-.594-1.14-.974-1.657-1.267-.713-.408-1.362-.776-1.822-1.082 6.211-6.161 12.292-12.172 18.471-18.337 3.101-3.095 6.401-6.198 6.76-11.424.189-2.73-.441-5.531-.906-8.313-1.363-8.173-2.863-16.146-4.336-24.324-.97-5.384-1.988-10.756-3.298-15.726-1.267-4.806-4.025-8.789-7.86-10.657-2.082-1.016-4.512-1.41-6.991-1.93-2.524-.53-5.259-.656-7.991-.819-.697-.04-1.733-.987-2.377-1.524-.856-.71-1.664-1.31-2.178-2.24-.668-1.206-.883-2.92-1.18-4.53a65 65 0 0 1-.731-4.967c1.508-.56 2.909-.84 3.789-1.848.792-.905 1.349-2.446 1.133-4.24-.069-.569-.381-.863-.427-1.39-.03-.352.151-.88.227-1.308.073-.417.143-.826.167-1.303.045-.968-.1-2.213.025-2.886.099-.535.488-.852.634-1.387.476-1.748.348-4.855-.116-6.707-.498-1.987-1.607-3.572-2.836-4.68-2.666-2.4-6.145-3.394-11.071-3.364-4.051.024-7.94 1.251-11.299 2.36-1.717.566-3.519 1.046-4.788 1.9-1.294.869-1.919 2.667-1.577 4.733.137.829.585 1.584.942 2.246.365.673.568 1.371 1.384 1.694-.326.631-.322 1.09-.677 1.683-.315.53-1.442.768-1.388 1.603.065 1.004 2.183 1.063 3.136 1.428 1.265.48 1.703 1.228 2.142 2.654.179.579.402 1.241.336 1.925-.093.95-1.091 1.334-1.115 2.295-.018.656.404.794.605 1.442-.341.253-.829.67-1.077.82-.092-.926-.49-1.764-.555-2.735-.089-1.328-.168-2.913-.45-4.1-1.007-.053-.997.997-1.092 1.646-.11.76-.267 1.63-.225 2.429.059 1.178.653 2.205.638 3.2-.012.873-.917 2.23-1.254 3.012-.411.952-.896 1.924-1.081 3.003-.619 3.625 1.81 6.166 4.094 7.32 2.585 1.305 6.252 1.118 10.103.648.008.4.24.712.228.99-.023.574-1.378 1.98-1.885 2.219-.885.412-2.011.58-2.958.86-2.934.863-5.955 1.752-8.688 2.752-3.668 1.344-6.622 3.137-9.301 5.67a285 285 0 0 0-14.647 14.897c-2.584-10.495-6.313-20.942-9.243-31.427-.962-3.444-2.176-7.114-4.638-8.71-1.965-1.27-5.581-.936-8.433-.264a35 35 0 0 0-3.941 1.21c-.791.288-2.933.898-3.134 1.99-.284 1.528 1.241 2.952 2.512 2.987 2.272.065 5.282-1.21 7.327-.62-1.805.993-3.387 2.37-3.438 5.187-1.919-.367-5.318.314-5.369 2.047Zm10.058-5.824c.26.497.59.918.73 1.549-1.123.873-1.789 2.156-2.841 3.094-.301-.08-.556-.213-.841-.31-.113-2.433 1.167-3.61 2.952-4.333m44.145-19.45c.711-1.558 1.294-3.236 1.986-4.814 1.315.19 3.232 1.121 5.411 1.012 2.022-.102 4.127-.673 6.385-.63 1.99.04 2.073 1.175 2.567 2.929.421 1.485 1.063 2.686 2.454 2.992a167 167 0 0 1-2.894 5.451c-.346.63-.887 1.281-.962 1.873-.169 1.34.419 2.432-.05 3.537-.284.668-1.276.948-1.87 1.393-2.068-2.154-4.678-3.71-8.786-3.601a17 17 0 0 1-.655-1.26c1.564-1.519.951-5.01-.363-6.93-.767-1.12-1.982-1.596-3.223-1.952m25.059-.49c-1.624.35-4.874.943-6.113.204-1.051-.624-1.042-3.073-1.754-4.265-1.754-2.931-6.67-.904-10.298-.99-1.607-.04-2.743-.599-4.29-.953-.203-.527-.336-.91-.93-.893-1.187.033-1.201 2.248-1.787 2.978-.997-1.274-1.933-4.28-.583-5.505.675-.61 2.272-1.01 3.459-1.415 3.692-1.272 7.504-2.673 12.106-2.698 5.655-.028 11.23 1.965 12.114 7.55.167 1.056.17 2.026.151 2.879-.014.598.079 2.054-.337 2.546-.268.32-1.084.424-1.738.563Zm.975 5.132c-1.117-.73-2.893.28-3.867.38-.331.036-.675-.154-.945-.07-.476.15-.817 1.31-1.076 1.94-.922 2.244-1.813 4.36-1.621 7.27.036.542.211 1.225.154 1.816-.058.592-.391 1.231-.609 1.86-.594 1.702-1.45 3.915-2.755 4.736-2.086 1.31-6.959 1.638-9.989 1.523-3.312-.125-6.006-2.155-6.374-4.786-.339-2.409.777-3.277 1.381-5.08.216.124.606.27 1.009.125.887-.322.794-2.008 1.524-2.376.81-.408 2.446-.057 3.063.016 2.26.266 3.472.833 4.879 2.099.572.514 1.217 1.509 1.848 1.551.733.048 1.966-.701 2.645-1.198 1.168-.854 1.525-2.158 1.504-3.905-.006-.402-.147-.997-.074-1.409.099-.565.621-1.257.962-1.877 1.073-1.954 1.973-3.65 3.066-5.518 1.887-.011 3.837-.264 5.44-.696.122 1.133.084 2.611-.165 3.599m10.524 24.414c-3.928 2.391-8.494 4.641-13.804 6.257-2.529.772-5.691 1.654-8.576 1.508-1.383-.068-2.703-.38-3.987-.788-2.421-.779-4.143-1.693-4.873-4.222.82-.275 1.744-.506 2.726-.79.868-.252 1.965-.404 2.726-.793.554-.278.969-1.01 1.394-1.485.422-.465 1.186-.97 1.272-1.598.088-.649-.267-1.238-.281-1.986 3.237-.556 4.671-2.289 5.814-4.778.619-1.352 1.383-2.979 1.478-4.377.103-1.513-.339-2.775-.157-4.113.258-1.897 1.23-3.332 1.739-5.036 1.302-.444 3.657-1.288 4.196.308.19 2.778-.58 3.643-2.72 4.265-.849.248-1.846.274-2.14.76-.328.55.026 1.784.135 2.584.397 2.853.713 5.472 1.468 7.754.487 1.472 1.392 2.484 2.478 3.463.791.712 2.463 2.183 3.482 2.407 1.189.259 2.59.1 3.896.207 1.303.107 2.539.31 3.734.453m20.261 213.551c.143.75.278 1.513.413 2.276-5.26.374-10.383.868-15.657 1.23-.01-.861-.217-1.825-.191-2.521 5.156-.318 10.191-.744 15.311-1.097-.006-.137.161.013.124.112m.236 8.996c-.302 1.018-.501 1.97-.789 2.928-.636.134-1.404.153-2.046.281-2.017-2.761-3.695-6.129-7.933-6.413-1.378-.092-2.965.118-4.407.17-.141-.111-.047-.486-.095-.701 5.222-.424 10.485-.813 15.654-1.292.075.022.123.069.126.172.701 1.984-.057 3.314-.51 4.855m-15.546-1.128c.537-.198 1.293-.151 1.872-.217 1.577-.183 3.248-.248 4.365.125 1.389.462 2.654 2.079 3.587 3.285.709.917 1.467 2.683 2.271 2.886.66.162 3.361-.2 3.802-.496.803-.537.732-2.727 1.234-3.42.316 1.658.717 3.553.916 5.134-7.797.364-15.43.877-23.191 1.273.339-3.265 1.865-5.283 3.741-7.26.415-.436 1.013-1.168 1.403-1.31m-38.024-3.072c.083-1.399.124-2.837.253-4.193 4.773-.248 9.458-.397 14.272-.688.055 1.484.088 2.952.051 4.353-4.91.233-9.673.304-14.576.528m-5.411-145.97c8.409-1.494 16.867-2.942 25.263-4.447.11 1.125.567 2.845.865 4.137.908 3.945 1.852 7.956 3.295 11.19 2.019 4.529 6.104 6.501 9.77 8.909-.361.763-.62 1.558-.934 2.403-.29.781-.85 1.731-.869 2.522-.024.977.434 2.325.657 3.552 6.726 36.983 13.668 74.42 20.364 111.041-5.964.486-12.048.864-18.006 1.356-4.689-20.562-9.528-41.34-14.336-62.307-4.434-19.342-9.085-38.963-13.425-58.411-.299-1.343-.457-2.816-.91-3.899-.235-.562-.865-1.088-1.32-1.579-.474-.512-.913-1.243-1.872-.903-1.139 1.145 1.236 2.491 1.588 3.333.341.816.448 1.889.682 2.909 3.256 14.142 6.574 28.223 9.76 42.409.112.499.35 1.052.371 1.453.014.315-.107.683-.125 1.009-.061 1.188.05 2.4.071 3.585.196 11.016.561 22.104.614 33.059.06 12.604.689 25.271.808 37.876-6.261.305-12.623.718-18.795.925-1.184-46.712-2.381-93.45-3.516-140.122m29.508-11.085c.106.463.245.886.309 1.397-9.985 1.679-19.946 3.376-29.943 5.042-.039-.611-.075-1.223-.034-1.764 9.815-1.664 19.777-3.193 29.6-4.848.069.006.069.091.068.173m.295-8.966c.163-1.908 1.471-3.1 2.535-4.432 2.345-2.928 3.957-6.513 6.166-9.331.002-.033.004-.069.055-.06.764 3.242 1.67 6.43 2.578 9.872.638 2.418 1.28 4.873 1.911 7.261.203.761.668 2.027.604 2.501-.053.389-.88 1.209-1.21 1.653a1097 1097 0 0 0-7.419 10.102c-.389.538-.754 1.141-1.275 1.541-1.057-4.588-2.352-9.149-3.262-13.962-.291-1.529-.826-3.46-.683-5.145m1.2 22.899c-.789-.177-1.534-.409-2.438-.46-.608-2.306-1.097-4.746-1.667-7.094 1.289-.239 2.572-.483 3.91-.676.561 2.483 2.484 6.519.195 8.23m-81.27-78.876c2.706-1.357 5.742.396 7.856 1.59.6.34 1.198.947 1.865.785.361-.087.617-.515.605-.856-.047-1.144-2.074-1.443-2.637-1.981.408-.787 1.095-1.326 1.601-2.026 1.693.59 1.572-1.366 1.16-2.594-.494-1.472-1.789-3.512-3.275-4.067-1.258-.471-3.268.049-4.581.24-1.391.205-3.289.93-3.845-.328 3.211-1.31 6.41-2.698 10.287-2.6.572.012 1.445.143 1.962.369 2.978 1.293 3.972 6.45 5.008 10.158.998 3.572 2.462 7.91 3.541 11.413 2.002 6.489 3.922 13.616 5.838 20.36.282.993.384 2.368 1.36 2.343 1.58-.04.334-2.238.242-3.25.323-.65.91-1.138 1.384-1.663.505-.56 1.038-1.076 1.564-1.612 3.185-3.237 6.09-6.732 9.437-9.8 2.246-2.052 4.3-4.179 6.997-5.841 2.717-1.675 5.884-2.532 9.465-3.675 1.029 3.122 3.019 4.38 5.932 5.343a16.8 16.8 0 0 0 4.577.82c3.275.097 6.668-.76 9.628-1.682 5.146-1.612 9.284-3.88 13.63-6.191.621-.33 1.434-.984 1.831-1.037.322-.046 1.091.206 1.606.327 5.964 1.397 8.903 6.129 10.305 12.353.517 2.297 1.049 4.706 1.484 6.988 2.305 12.092 4.717 23.843 6.479 35.988.378 2.603-.078 4.986-.937 6.821-.814 1.738-2.114 3.412-3.404 4.713-6.852 6.91-13.63 13.547-20.662 20.334-1.63-1.351-3.469-2.516-4.537-4.53-1.077-2.032-1.654-4.423-2.424-6.939.884-.056 1.63.588 2.553.398.654-.138 1.457-1.569 1.888-2.162 3.537-4.866 6.813-9.278 10.336-14.024.462-.622 1.718-1.922 1.632-2.557-.247-1.829-.926-3.71-1.41-5.579a849 849 0 0 0-1.472-5.577c-.994-3.725-2.062-7.45-2.825-11.215-.48-1.047-.772-2.446-1.216-4.116-.296-1.115-.467-3.616-1.661-3.621-1.51-.01-.342 2.848-.097 3.772.161.613.341 1.39.521 2.092.162.632.62 1.578.58 2.088-.025.325-.529.838-.815 1.282-.865 1.331-1.758 2.668-2.508 3.84-1.126 1.756-2.037 3.49-3.321 5.178-1.264 1.662-2.67 3.021-3.076 5.344-.419 2.392.579 5.184.932 7.662-9.779 1.586-19.584 3.143-29.309 4.776-.449-13.245-1.072-28.318-1.79-42.005-.051-.969.048-2.053-.151-2.877-.124-.518-.64-.969-1.019-1.476-.392-.528-.716-1.199-1.413-1.105a.866.866 0 0 0-.723.803c-.035.99 1.224 1.602 1.419 2.34.22.832.108 2.072.166 3.171.163 3.114.333 6.669.437 9.456-7.041 3.275-13.892 6.825-21.27 9.889-2.318.962-5.197 2.193-8.458 1.502-2.871-.608-3.967-2.5-4.595-5.648-1.781-8.93-1.856-19.525-2.77-29.235.556.044 1.226-.11 1.256-.772.031-.716-.583-.904-1.008-1.243-.436-.35-.843-.76-1.175-1.057-1.757-1.584-2.655-3.2-3.977-5.15-.682-1-1.253-2.02-2.019-2.544-.78-.535-1.845-.766-2.543-1.338-.189-.154-.558-.449-.441-.565" clip-rule="evenodd"/><path fill="#000" fill-rule="evenodd" d="M277.644 19.144c-1.05-.061-4.302.01-4.289 1.285.015 1.563 3.157.245 4.499.47 1.084.184 1.788.88 2.551 1.456.135.104.486.446.846.427.472-.025.842-.493.837-.868-.009-.953-2.412-2.31-3.255-2.596-.392-.135-.633-.141-1.189-.174m14.038 8.272c-.643-.21-2.908.927-2.856 1.68.084 1.241 1.504.355 2.179.003.336-.177 1.078-.385 1.128-.944.041-.461-.226-.666-.451-.739" clip-rule="evenodd"/><path fill="#fff" fill-rule="evenodd" d="M275.734 33.2c-.748-.244-.792.409-1.737.562-.981.16-2.528-.622-2.5.602.02.88 1.591.944 2.46.872 1.018-.081 2.208-.74 2.226-1.353.013-.49-.213-.606-.449-.683" clip-rule="evenodd"/><path fill="#000" fill-rule="evenodd" d="m296.364 115.738-5.061 1.207 1.93 7.612 3.385.53 1.743-2.682zM270.53 24.387l.095 1.821a1.234 1.234 0 1 1-2.467.13l-.095-1.822a1.23 1.23 0 0 1 1.169-1.295 1.233 1.233 0 0 1 1.298 1.166m7.563-.571.095 1.817a1.235 1.235 0 1 1-2.467.13l-.096-1.818a1.237 1.237 0 0 1 2.468-.13Z" clip-rule="evenodd"/><path fill="#fff" fill-rule="evenodd" d="M111.544 118.843c4.621 2.589 13.805-.667 13.805-.667l-5.051 41.838 5.264-1.806s-4.975 33.632-6.994 45.24c-2.017 11.605-4.138 18.795 7.705 36.869a62231 62231 0 0 1 15.812 24.14l1.888-1.041s3.597 5.246 2.684 7.396c-.912 2.151-4.706 6.67-5.912 9.672-1.206 3.004-1.557 5.33-.48 6.561 1.077 1.232 12.02.137 12.02.137l.451.743 29.248-2.654s-.518-3.975-4.116-5.496c-3.598-1.518-8.071-4.103-8.501-4.914-.433-.807-1.157-1.305-1.027-3.832.131-2.526 10.544-119.089 10.544-119.089l2.653-3.32-1.437-2.692s15.213-28.122 13.211-42.323c-1.666-11.823-10.453-42.047-16.495-45.07-6.042-3.022-14.302-3.193-14.302-3.193s-1.601-2.36-3.004-2.257l-2.641.195-.004-7.949s1.982-2.75 2.454-3.778c.47-1.028 1.215-3.775 1.215-3.775s2.533-.815 2.647-3.434c.112-2.62-.545-3.8-.958-3.662-.414.14-1.348 1.249-1.348 1.249s.287-3.171-.094-5.176c-.383-2.007-1.773-5.736-1.773-5.736l3.088-1.754s-.643-.981-2.287-2.059c-1.643-1.076-3.634-1.928-3.634-1.928l2.727-4.149s-2.196-.901-4.489-.235-7.045 2.668-7.045 2.668l-.401-3.16s-1.337 3.17-4.455 4.886c-3.117 1.715-8.262 3.227-8.511 8.395-.25 5.167 2.423 12.534 2.423 12.534s-1.876 1.435-1.505 2.73c.37 1.29 2.282 3.579 3.43 3.646 1.148.065 2.492-.777 2.492-.777s1.245 1.756 2.564 2.867a9.2 9.2 0 0 0 2.673 1.567l-.396 4.79s-1.077 2.007-3.716 3.257c-2.639 1.254-7.679 1.818-7.679 1.818s-12.853.162-16.145 8.794c-3.293 8.633-8.155 33.89-9.477 39.421-1.323 5.532-1.741 11.923 2.879 14.513m61.468-9.287.546-10.924 3.922 11.924-1.467 6.849zm-29.89 109.504 6.165-40.778-.474 57.261z" clip-rule="evenodd"/><path fill="#000" fill-rule="evenodd" d="m154.815 31.279.501 1.568a1.266 1.266 0 0 1-.819 1.59 1.27 1.27 0 0 1-1.59-.821l-.501-1.57a1.263 1.263 0 0 1 2.409-.767m-9.222 2.209.502 1.568a1.266 1.266 0 0 1-.82 1.59 1.267 1.267 0 0 1-1.59-.82l-.5-1.569a1.266 1.266 0 0 1 .82-1.59 1.263 1.263 0 0 1 1.588.821m-18.389 92.457c-2.502-.132-2.336-1.881-2.336-1.881l-4.482 36.98s3.828-1.389 7.625-3.992c3.794-2.603 6.847-6.424 6.847-6.424l2.359-25.797s-7.511 1.244-10.013 1.114m46.109-14.547.631-13.812 2.949 10.208s3.989-3.644 8.316-4.262c4.326-.62 8.365 4.565 8.365 4.565s-.409-2.283-.616-5.032c-.208-2.747-5.504-24.477-9.966-36.222s-15.005-10.637-17.891-11.017c-2.886-.378-2.945-.799-4.618-1.582-1.673-.786-2.993-.905-2.993-.905l.232 3.286 1.419.103s1.586 2.495 2.583 6.577c.994 4.085 3.203 16.299 2.673 29.658-.531 13.357.815 31.417 1.42 36.081s1.166 7.11 1.948 6.846c.783-.263 6.24-7.924 6.24-7.924l1.925-9.344zM141.518 55.18c-.689.423-5.645 1.391-11.896 2.273-6.251.88-10.082 5.083-11.5 9.79-1.419 4.703-9.804 39.063-10.341 44.292-.537 5.23 5.197 8.207 7.753 8.605 2.557.396 10.425-2.256 10.425-2.256s-2.928-1.306-4.358-6.72 2.81-8.214 2.81-8.214l-2.411.068s-3.286-24.782-3.469-26.849c-.184-2.065 2.932-1.618 8.302-2.257 5.371-.642 15.218-1.801 15.218-1.801s.663-7.657.936-11.356c.273-3.697 1.5-7.322 1.5-7.322s-2.282 1.323-2.969 1.747" clip-rule="evenodd"/><path fill="#FC0" fill-rule="evenodd" d="M171.927 130.225s-3.474 5.094-5.024 5.27c-1.55.171-1.707-7.863-1.707-7.863l-.705-1.081s-10.534 10.776-16.892 12.545c-6.358 1.768-11.499-2.519-11.499-2.519l-1.139 14.192-9.64 8.218s-7.878 51.463-8.61 58.22c-.73 6.758 4.33 15.202 4.33 15.202l21.234 32.099 6.214-3.919.065-24.618-5.485-17.024 6.442-47.858-.443 96.068 19.854.136 9.51-115.209 3.378-2.946-1.887-2.314s-2.675-3.122-5.047-7.509c-2.37-4.388-2.108-8.781-2.108-8.781z" clip-rule="evenodd"/><path fill="#000" fill-rule="evenodd" d="M177.973 279.598c3.656 1.093 4.36 6.779 4.36 6.779l-29.906 1.332s-10.389.404-12.25-.008c-1.861-.41-.656-3.69-.072-5.881.583-2.196 6.273-9.307 7.9-9.956 1.626-.648 4.741.575 4.741.575l.487 4.805 3.059 3.312 1.662.266s3.182-2.547 6.32-4.157c3.138-1.613 6.034-.611 6.034-.611s4.009 2.451 7.665 3.544" clip-rule="evenodd"/><path fill="#fff" fill-rule="evenodd" d="M138.147 24.632c.338-1.678 6.138-.798 9.251-1.012 3.114-.216 6.732-3.65 8.038-3.955 1.305-.307 2.7 4.333 2.7 4.333l1.646 8.923.451-.377s.401-3.891.094-7.188c-.305-3.297-2.112-4.366-2.112-4.366l3.978-1.621s-.708-1.089-2.118-2.185c-1.408-1.099-3.831-2.33-3.831-2.33l2.529-3.432s-1.601-.297-4.235.105c-2.376.363-6.869 2.655-6.869 2.655l-.337-3.043-1.999 2.283s-1.665 1.786-3.165 2.302c-1.501.517-6.78 3.458-8.061 7.118-1.282 3.66 2.797 12.926 2.797 12.926l2.067 1.248s-1.162-10.704-.824-12.384" clip-rule="evenodd"/><path fill="#000" fill-rule="evenodd" d="M138.27 26.98c.089-.445-.511-2.283.185-2.655 1.926-1.03 6.669-.312 8.956-.47 3.113-.215 6.593-3.292 7.899-3.598 1.304-.306 2.949 6.09 2.949 6.09l1.592 4.461.505 4.084s.401-3.89.094-7.188c-.305-3.297-2.112-4.365-2.112-4.365l2.437-3.326s-.038 1.564-1.038.085c-.935-1.384-3.37-2.896-3.37-2.896l1.003-1.36.22-1.982s-.295-.386-2.929.015c-2.375.363-6.869 2.655-6.869 2.655l-.231-2.089-1.098-1.852-.313 2.389s-2.359 2.578-3.859 3.094c-1.501.517-6.78 3.458-8.061 7.118-1.282 3.66 2.352 11.018 2.352 11.018l2.513 2.045c.001 0-1.163-9.593-.825-11.272Z" clip-rule="evenodd"/><path fill="#fff" fill-rule="evenodd" d="m154.122 71.607 6.363 47.861a1.764 1.764 0 0 1-1.516 1.982l-31.609 4.202a1.77 1.77 0 0 1-1.982-1.516l-6.363-47.863a1.76 1.76 0 0 1 1.516-1.98l31.609-4.201c.966-.13 1.854.55 1.982 1.515" clip-rule="evenodd"/><path fill="#000" d="M127.251 126.397a2.48 2.48 0 0 1-1.644-.509 2.5 2.5 0 0 1-.959-1.657l-6.365-47.86a2.504 2.504 0 0 1 2.149-2.807l31.61-4.201a2.516 2.516 0 0 1 2.809 2.148l6.362 47.86a2.503 2.503 0 0 1-2.147 2.808l-31.611 4.2a2 2 0 0 1-.204.018m25.065-55.584-.081.007-31.609 4.2c-.562.075-.96.595-.885 1.156l6.364 47.861c.037.274.176.516.394.681.218.167.5.238.762.205l31.611-4.199c.561-.077.958-.597.883-1.159l-6.363-47.86a1.03 1.03 0 0 0-1.076-.892"/><path fill="#fff" fill-rule="evenodd" d="m149.903 72.82 10.48 46.847c.13.969-.954 2.315-1.908 2.516l-31.22 6.557a1.763 1.763 0 0 1-2.09-1.364l-9.935-47.273a1.764 1.764 0 0 1 1.364-2.089l31.219-6.558c.954-.2 1.891.412 2.09 1.364" clip-rule="evenodd"/><path fill="#000" d="M127.02 129.512a2.51 2.51 0 0 1-2.577-1.981l-9.936-47.273a2.507 2.507 0 0 1 1.934-2.962l31.219-6.558a2.5 2.5 0 0 1 1.882.354c.557.362.94.92 1.078 1.573l10.479 46.844c.2 1.473-1.23 3.135-2.476 3.398l-31.217 6.557q-.195.038-.386.048m21.103-57.357a1 1 0 0 0-.161.023l-31.219 6.557a1.03 1.03 0 0 0-.796 1.22l9.936 47.272c.115.555.664.916 1.22.798l31.218-6.557c.61-.131 1.406-1.145 1.332-1.699l-10.469-46.786a1.03 1.03 0 0 0-1.061-.828"/><path fill="#fff" fill-rule="evenodd" d="M120.963 112.116c-.464-3.735 1.992-9.171 1.992-9.171s-1.102.09.987-.288c2.088-.377 15.305-3.467 17.471-4.862 2.168-1.393 2.42-3.696 3.865-6.032s2.579-1.92 3.488-2.01c.908-.084 2.137-1.586 3.178-2.285 1.04-.698.785.805.936 2.13.15 1.326-1.425 1.37-2.133 1.996-.709.626-1.533 2.2-1.533 2.2s9.225-2.686 10.438-3.078c1.212-.394.861 1.396.488 2.566-.375 1.17-1.448 1.606-1.448 1.606s.059 6.011-.57 8.215c-.628 2.204-1.628 2.968-3.509 3.834s-12.689 3.964-12.689 3.964l-17.481 6.923s-3.015-1.972-3.48-5.708" clip-rule="evenodd"/><path fill="#000" fill-rule="evenodd" d="M117.058 104.077c-.251-1.302 1.583-1.265 2.458-1.425 1.103-.201 2.132-.617 2.966-.685 1.694-.136 3.377-.568 5.073-.972 2.915-.697 5.824-1.416 8.654-2.28 1.34-.407 2.924-.783 3.987-1.443 1.155-.72 1.862-2.01 2.486-3.135.875-1.581 1.442-3.455 2.655-4.378 1.027-.783 2.229-.646 3.468-1.241 1.108-.534 2.218-2.509 3.818-2.437 1.615.071 1.554 3.387.929 4.25-.654.897-1.809.958-2.378 1.83.059-.003.068-.05.114-.065 2.075-.678 4.362-1.454 6.721-2.118.746-.21 1.781-.572 2.453-.363 1.576.484.946 3.62.058 4.472-.266.255-.635.429-.729.684-.126.34-.027.997-.041 1.476-.092 3.278-.204 7.041-1.758 9.157-1.378 1.881-3.935 2.464-6.71 3.415a69 69 0 0 1-3.883 1.204c-1.356.377-2.788.549-4.188.985-.983.306-1.994.926-3.047 1.396a495 495 0 0 1-9.384 4.084c-3.074 1.297-6.324 2.642-9.819 3.633-1.25.357-2.498.729-3.787.789-3.016.141-5.656-1.01-7.32-2.619-1.639-1.581-2.995-4.156-2.929-7.56.013-.648.173-1.412.3-2.135.129-.721.144-1.575.362-2.08.267-.617 1.35-1.555 1.775-2.096.166-.21.438-.59.563-.5-.312 2.286-1.183 4.348-1.238 6.719-.127 5.441 3.449 8.51 8.101 8.523 2.776.009 1.606-1.69 4.049-2.39-4.302-1.072-3.345-8.317-.899-11.333-1.04-.077-2.583.178-2.88-1.362m35.141-15.973c-1.034.842-2.159 1.91-3.821 2.379-.716.202-1.542.314-2.025.694-.772.609-1.446 2.539-1.938 3.457-.571 1.066-1.288 2.305-2.189 3.176-1.429 1.387-3.466 2-5.69 2.655-.706.209-1.481.341-2.145.642-.657.299-1.32 1.044-1.974 1.635-.602.539-1.298 1.164-1.671 1.853-.576 1.066-.945 3.312-.86 4.933.095 1.813.883 2.127 2.318 2.645.776.282 1.673.683 2.447.637.579-.033 1.307-.499 2.018-.812.696-.304 1.392-.619 1.957-.867 1.248-.549 2.677-1.325 3.913-1.736 1.17-.389 2.526-.597 3.721-.902 1.181-.302 2.375-.592 3.54-1.011 2.619-.934 5.955-1.464 7.056-3.549.677-1.284.709-3.132.994-4.643-.755.246-1.773.247-1.855-.552-.102-.997 1.16-1.07 1.987-1.4-.043-.634.076-1.125.026-1.767-.764.378-2.085.671-2.142-.416-.087-1.657 4.48-1.183 3.805-3.793-2.647.612-5.459 1.62-8.169 2.548-.915.316-3.185 1.497-3.408.122-.099-.617.584-1.392.902-1.874.832-1.264 1.807-2.12 3.143-2.932.159-.25.071-.722.06-1.122m-21.641 14.028c-.565 0-1.547.301-2.331.476-.789.178-1.66.264-2.271.472-.536.184-1.287.802-1.761 1.211-.534.458-1.075 1.01-1.333 1.541-1.078 2.221-.868 7.105.706 8.971.685.815 2.342 1.521 3.658 1.283.775-.142 1.639-.68 2.421-1.012.851-.361 1.646-.727 2.419-1.01-1.707-.713-3.497-1.312-3.837-3.566-.474-3.138.558-6.996 2.329-8.366" clip-rule="evenodd"/><path fill="#000" fill-rule="evenodd" d="M108.648 110.742c.052-1.488.48-3.169.811-4.752a920 920 0 0 1 7.227-31.761c1.542-6.261 2.724-11.727 8.191-14.502 2.546-1.292 5.618-2.219 9.099-2.773 3.405-.543 7.118-.25 9.535-2.327-.927 2.48-1.257 6.021-1.641 9.156a560 560 0 0 0-.855 7.453 3.6 3.6 0 0 1 1.78-.16c.2-1.922.407-3.83.631-5.726 1.142.463 2.333 1.218 3.908 1.561 1.489.325 3.164.508 4.803.631 1.885.144 3.571.112 4.976-.555 1.313-.624 2.347-1.44 3.413-2.298 2.329 8.614 2.351 19.717 2.4 30.08.037 7.641.026 15.095.45 23.173.09 1.719.352 3.9.536 5.741.069.688.229 1.449.157 1.875-.071.433-.711.994-1.155 1.535-1.24 1.506-2.504 2.928-3.844 4.204-1.967 1.879-3.964 3.271-6.237 4.565-2.261 1.291-5.05 2.911-8.342 2.618-3.043-.274-5.469-1.442-7.906-2.529q.418-4.912.853-9.802a3 3 0 0 1-1.425.454 2.4 2.4 0 0 1-.37-.007c-.631 7.059-1.24 14.283-1.904 21.338-.069.741-.017 1.602-.185 2.07-.143.396-.905.907-1.346 1.307-3.279 2.984-6.336 6-10.716 7.864 1.081-10.194 2.424-21.093 3.586-31.573.076-.682.34-1.68.244-2.071-.096-.404-.798-.678-1.007-1.242-.114-.309-.148-.656-.164-.876-.012-.184.258-.534-.096-.702-.335.006-.259.654-.299 1.019a6133 6133 0 0 1-4.029 35.478c-.104.891-.315 1.871.29 2.163.651.314 1.574-.287 2.206-.586.755-.358 1.458-.78 2.011-.989-2.486 17.112-5.546 34.345-7.699 51.981-.323 2.645-.782 5.301-.65 7.807.302 5.762 2.359 9.728 4.653 13.533 2.263 3.755 4.698 7.418 6.992 10.938 3.979 6.111 8.346 12.606 12.47 18.838.449.677 1.322 2.515 2.02 2.601.741.089.977-.489 1.493-.728.757 1.448 2.441 2.962 2.45 5.172.004.963-.746 2.024-1.154 2.709a53 53 0 0 1-1.466 2.374c-1.011 1.523-2.321 3.014-3.112 4.638-.373.763-.684 1.712-.98 2.641-.265.829-.686 1.934-.614 2.919.049.657.382 1.336.686 1.847.481.805 1.146 1.222 2.022 1.484 1.724.52 4.372.082 6.539.07 1.226-.008 2.426-.255 3.409-.12.439.059.797.431 1.143.469.536.058 1.258-.124 1.934-.159 8.359-.438 16.276-1.266 24.877-1.717 1.054-.055 3.136-.03 3.505-.537.419-.572-.174-2.008-.438-2.746-.307-.857-.794-1.743-1.121-2.295-.922-1.553-2.439-2.28-3.745-2.924-2.111-1.04-4.601-1.845-6.536-3.366-.62-.488-1.411-1.127-1.566-1.801-.211-.913.125-2.602.208-3.899 1.203-19.034 3.115-37.907 4.685-56.649 1.671-19.947 3.464-38.359 5.132-58.265.054-.65.052-1.372.198-1.835.185-.587.963-1.24 1.49-1.906.395-.496 1.307-1.343 1.308-2.011 0-1.142-1.259-1.293-1.65-2.268 3.74-8.576 8.096-17.609 11.55-26.805 1.166-3.108 2.065-6.607 2.038-10.528-.023-3.55-.625-6.831-1.28-9.827-1.902-8.707-4.356-17.86-6.948-25.838-1.934-5.955-2.974-10.991-7.231-14.399-2.845-2.275-6.802-3.636-11.405-4.11-1.42-.148-3.154-.053-4.616-.465-1.601-.453-2.785-2.411-5.287-2.021-.092-1.875.012-3.524.012-5.358.001-.586-.136-1.238-.033-1.764.087-.445.793-1.014 1.16-1.476 1.198-1.504 1.901-3.274 2.185-5.472.408-.206 1.062-.292 1.5-.607.785-.566 1.718-2.605 1.79-4.04.109-2.144-.739-4.516-2.826-3.384.217-3.4-.467-6.569-1.529-8.93.53-.75 3.039-.855 3.131-2.047.074-.955-1.602-2.082-2.258-2.647a9.1 9.1 0 0 0-3.034-1.728c.493-.68 3.864-3.782 1.397-4.782-1.499-.607-4.234.106-5.86.542-2.015.543-3.581 1.356-4.908 1.85-.139-.93.217-2.803-.911-2.78-.755.013-1.016.69-1.406 1.252-.39.557-.775 1.133-1.099 1.528-.84 1.027-1.975 1.626-3.124 2.165-2.692 1.266-4.751 2.261-6.37 4.28-1.724 2.148-2.591 4.86-2.175 7.945.428 3.18 1.3 5.738 2.386 8.469-.901 1.286-2.107 2.85-.995 4.588.719 1.125 2.548 3.02 4.051 3.145.864.067 1.541-.133 2.219-.352 1.419 1.281 2.696 2.722 4.264 3.838-.067 1.396-.034 2.877-.069 4.301-1.168 1.06-2.201 1.985-3.567 2.72-1.492.8-3.306.885-5.301 1.103-7.691.83-14.222 2.916-17.37 7.856-1.576 2.47-2.416 5.504-3.248 8.826a872 872 0 0 0-6.775 29.148c-.337 1.57-.711 3.252-1.036 4.941-.329 1.703-.812 3.5-.852 5.107-.11 4.504 2.153 7.61 5.071 9.096 1.52.776 3.615 1.313 5.652 1.116 2.023-.192 3.904-.938 5.692-1.475.083-.202-.429-.425-.682-.671-.271-.264-.455-.713-.741-.667-2.99 1.204-6.678 1.433-9.3.075-2.306-1.196-4.06-3.83-3.931-7.567m52.35-74.104c.035-.605.019-1.252.081-1.83.652-.387 1.491-1.711.245-2.075.312-.167.493-.45.854-.572.46 1.855-.037 3.704-1.18 4.477m-3.278-15.37c-.653-1.201-1.485-2.476-3.573-1.877-2.625.755-4.22 3.522-7.448 3.923-1.304.162-2.754.078-4.061.038-1.2-.038-2.751-.346-4.007-.026-1.047.265-1.738 1.646-1.795 2.802-.082 1.636.356 3.293.549 4.857.201 1.633.417 3.183.546 4.8-.798-.301-.936-1.276-1.227-2.054a29 29 0 0 1-.841-2.548c-.489-1.823-1.107-3.79-1.068-5.772.07-3.413 2.052-5.885 4.446-7.3 1.273-.75 2.724-1.312 4.078-1.978 1.214-.598 2.172-1.444 2.94-2.333.066-.078.058-.394.281-.25.025 2.27 1.771 1.101 3.031.548 2.453-1.08 5.129-2.068 8.367-2.148-.378.655-.858 1.133-1.551 1.847-.452.466-1.406 1.129-1.317 1.835.074.594.79.753 1.343.933 1.76.572 3.27 1.471 4.085 2.67-.982.626-2.572.704-2.778 2.032Zm-5.919 25.273c-1.904.225-3.5-.175-4.866-.748-1.712-.714-3.281-2.47-4.558-3.82-.455-.483-.98-1.24-1.651-1.154-.674.088-.79 1.083-2.079.76-.704-.49-2.714-1.763-2.797-2.799-.048-.588.439-1.422.921-1.52.482-.1.933.492 1.283.875-.54.145-.893.343-.834.926.132 1.324 2.956.205 3.028-.63.028-.31-.234-.761-.293-1.102-.46-2.69-.858-6.534-1.207-9.535-.122-1.057-.368-2.213.443-2.792 2.742-.04 5.118.372 7.542.076 1.764-.213 3.082-1 4.264-1.755 1.428-.905 2.572-2.107 4.357-2.285.07.024.136.054.181.107 2.716 3.41 3.941 9.368 3.718 14.76-.111 2.657-.405 5.15-1.872 6.985-1.334 1.671-3.227 3.367-5.58 3.65Zm38.935 72.145c-2.152-4.363-6.637-6.132-12.521-6.348.643-1.48-.041-3.069-.416-4.572 2.064-2.137 4.724-4.129 8.681-3.989 2.355.083 3.57 1.467 4.636 3.055.475.708 1.234 1.755 1.369 2.521.128.732-.02 1.739-.1 2.595-.237 2.544-.809 4.879-1.649 6.738m-11.333 26.443c-1.481-1.903-2.952-3.745-3.927-6.389-.694-1.885-1.205-3.999-1.676-6.152-.149-.683-.544-1.713-.469-2.212.041-.276.501-.649.717-.924.92-1.169 1.088-2.812 1.469-4.55a1337 1337 0 0 0 1.94-9.052c.125-.593.163-1.237.497-1.733 6.025 0 10.12 2.142 12.012 6.731a506 506 0 0 1-10.563 24.281m-3.828-29.24c-.238-1.818-1.35-3.517-1.47-5.573-.157-2.685.3-5.54.332-8.263.749 2.939 1.582 5.784 2.341 8.711-.445 1.667-.671 3.535-1.203 5.125m-22.292 171.269c.001-2.459.13-5.289.236-7.843.682.31.97 1.405 1.858 1.728.532.196 2.011.396 2.605.276.463-.093 1.233-.692 1.772-1.035 2.871-1.837 5.247-3.854 10.054-3.647 1.297 1.086 3.056 1.83 4.787 2.574 1.411.607 3.633 1.423 4.604 2.47.862.925 1.185 2.184 1.718 3.559-9.243.611-18.449 1.254-27.634 1.918m14.905-12.202c-5.033.185-7.402 2.768-10.592 4.616-.521-.043-.992-.14-1.539-.155-.384-.474-.801-.855-1.248-1.347-.325-.359-1.076-.994-1.196-1.467-.152-.605.039-1.476.062-2.184.076-2.25.128-4.547.182-6.661 4.727-.072 9.433-.12 14.067-.09.021 2.328-.944 5.437.264 7.288m-19.785-2.262c1.443-.257 2.567.682 3.52.876-.137 4.348-.243 8.681-.432 13.094-1.704.066-3.361.058-5.174.153-2.006.106-4.898.507-5.513-.713-.223-.441-.271-1.833-.185-2.401.116-.77.535-1.738.866-2.58.654-1.664 1.795-2.91 2.721-4.263.496-.727.878-1.548 1.36-2.134.588-.712 1.906-1.866 2.837-2.032m-3.413-8.948a69 69 0 0 1 3.122-2.221c-.003 1.879-.087 3.687.002 5.65.57 1.024 2.595.433 3.974.558.052 1.167-.075 2.653-.088 3.948-1.29-.36-2.881-1.12-4.502-.529.708-2.957-1.378-5.534-2.508-7.406m22.315-126.992c.651-.026 1.011-.54 1.422-.957.99-1.011 1.826-2.059 2.72-3.147.168-.202.315-.653.51-.38.15.208.145.903.248 1.343.705 3.01 1.518 5.998 2.789 8.275 1.589 2.845 3.37 4.631 5.372 7.017-.674 1.235-2.093 1.944-2.475 3.308-.278.994-.233 2.273-.348 3.494-.779 8.286-1.563 16.776-2.233 24.788-2.389 28.508-5.055 57.176-7.302 85.402-6.043.02-12.101.058-18.188.129.283-33.176.413-67.933.688-101.486.008-1.098.201-2.56-.052-3.235-.286-.762-1.676-1.221-2.564-1.749-.475-.281-.82-.506-1.339-.813-.669-.398-2.137-1.084-2.166.231-.02.87 1.444 1.441 2.036 1.778.904.515 1.685.829 2.37 1.406-.03 1.673-.004 3.38-.028 5.065-.027 1.716.111 3.436-.029 5.067-.165 1.904-.584 3.845-.874 5.815-1.891 12.851-3.588 25.462-5.472 38.261-.154 1.044-.455 2.19-.372 3.024.07.692.504 1.523.769 2.315 1.568 4.692 3.075 9.2 4.67 13.825.269.782.726 1.576.825 2.255.117.809-.025 1.777-.037 2.651-.097 6.432-.034 12.496-.129 18.908a537 537 0 0 1-5.733 4.067c-6.895-10.71-14.188-21.074-20.879-32.113-2.198-3.623-4.173-8.151-3.846-13.81.145-2.511.565-5.009.843-7.522.273-2.468.67-4.926 1.027-7.356 2.172-14.757 4.392-29.222 6.59-43.915 2.566-1.765 4.691-3.756 6.995-5.843.703-.637 1.886-1.396 2.124-2.172.275-.89.214-2.128.308-3.135.308-3.332.526-6.458.847-9.642 2.491.874 4.865 2.031 7.895 2.294 3.187.278 6.06-1.012 8.419-2.266a36.7 36.7 0 0 0 11.619-9.736c.001-.06.072-.051.062.056.036.001.07.006.062.055.423 2.046.335 4.912 1 6.72.322.879.976 1.762 1.856 1.728m-22.417 85.727c-.324-.978-1.054-2.404-1.118-3.359-.038-.565.195-1.341.303-2.076 1.512-10.26 3.029-21.679 4.532-31.502-.1 15.631-.111 31.341-.371 46.829-1.085-3.334-2.227-6.538-3.346-9.892m12.74-167.002c.076-.343-.255-1.051.119-1.127 2.172-.048 2.756 1.278 4.276 1.839 1.365.503 3.163.408 4.562.526 7.123.597 12.483 3.318 15.015 8.987 1.012 2.265 1.743 4.844 2.57 7.461 1.493 4.725 2.961 10.206 4.409 15.606 1.422 5.304 2.881 10.464 3.635 16.532-.533-.485-1.029-1.283-1.627-1.798-1.755-1.518-4.639-1.773-7.416-1.086-2.264.564-3.913 1.692-5.323 2.93-.149.131-.385.456-.631.328-.754-2.722-1.46-5.421-2.188-8.07-.104-.378-.364-.774-.41-1.097-.067-.444.05-1.168.083-1.77.159-2.96.327-5.97.478-8.858.065-1.276-.044-2.537.165-3.598.148-.767.607-1.605.983-2.585.328-.856 1.613-3.353-.112-3.233-.797.056-1.191 1.643-1.517 2.494-.45 1.177-.924 2.149-1.08 3-.191 1.054-.156 2.348-.226 3.545a816 816 0 0 0-.817 18.12c-.086 2.443-.443 5.01-.141 7.424.143 1.135.602 2.163.942 3.365.322 1.143.527 2.597.945 3.426.174.343.68.473.745.726-.521 2.349-.961 4.611-1.463 6.907-.17.772-.25 1.656-.526 2.324-.246.59-.956 1.179-1.438 1.782-1.264 1.582-2.387 3.026-3.654 4.429-.236.262-.547.726-.791.631-3.133-15.028-2.183-33.199-2.714-49.55-.111-3.384-.02-6.821-.359-10.227-.47-4.685-1.516-9.363-2.597-13.582-.344-1.339-.669-3.122-1.275-4.113-.553-.902-1.531-1.274-2.622-1.688m-13.729 6.55c.191-1.416.304-2.618.501-3.914 3.417-1.14 2.105-6.536 2.395-10.488 2.624.988 7.03.974 8.963-.882.225 2.312-.316 6.789.13 9.238.196 1.067 1.744 2.383 2.754 1.974.672 1.409 1.024 3.172 1.433 4.872-1.382.802-2.571 2.546-4.733 2.956-2.078.392-4.526-.092-6.499-.427-.925-.154-1.824-.29-2.806-.734-.591-.265-2.157-.89-2.308-1.352-.094-.283.118-.864.17-1.243" clip-rule="evenodd"/><path fill="#000" fill-rule="evenodd" d="M152.885 38.064c-.45.669-.488 1.925.512 1.915.513-.006.833-.544 1.067-.998.214-.413.602-.97.51-1.498-.108-.62-.895-.763-1.468-1.041-.529-.258-1.197-.607-1.467-1.042-.558-.898-.643-2.477-.6-3.561.053-1.288.726-2.596 1.664-3.09 1.171-.615 2.45-.3 4.108-.274.273-.283.505-.398.485-.85-.047-1.033-2.047-1.16-3.35-1.001-2.77.33-4.63 2.467-4.659 5.485-.025 2.718.907 5.396 3.198 5.955m-7.579-8.615c-1.029.003-2.599.363-3.369.883-.633.427-1.5 1.24-1.432 1.903.031.295.324.68.628.73 1.043.171 1.307-.912 1.935-1.28.61-.356 1.485-.506 2.151-.521.94-.026 2.777.658 2.547-.842-.149-.97-1.675-.873-2.46-.873m2.845 12.744c.477.066 3.298 1.085 3.891.094.187-.313.104-.806-.169-.994-.145-.096-.654-.051-1.182-.056-.492-.003-1.062-.12-1.666-.325-.974-.332-2.194-.962-2.639.197-.049 1.938 1.115 2.96 2.873 3.49.798.24 2.226.473 2.164-.382-.086-1.168-2.851-.91-3.272-2.024" clip-rule="evenodd"/><path fill="#fff" fill-rule="evenodd" d="m146.626 214.99.433 1.508 20.547 21.242 16.599-14.767.63.792 11.804-10.746 10.152 60-2.341 3.658s-7.917 2.267-9.811 4.931c-1.895 2.663-1.608 4.146-1.608 4.146l29.197-1.352-2.857-75.874 30.717 2.924s9.136 3.933 19.934 1.665 13.716-6.662 15.169-8.332c1.454-1.672 1.34-3.253 2.029-6.23.69-2.98-1.183-8.638-4.159-16.446-2.977-7.81-10.476-25.716-10.476-25.716s14.43-.609 15.687-.703c1.256-.099 10.208-.885 6.008-10.09s-25.956-23.552-30.99-23.875c-5.036-.322-5.061.089-5.061.089l-1.303-22.602s-2.011-11.282-8.944-13.371c-6.935-2.091-13.746-.712-19.363 2.488-5.617 3.198-9.923 5.52-11.492 11.083-1.568 5.566.247 15.36-1.926 17.178-2.173 1.82-4.78 2.335-5.537 5.589-.759 3.256 1.113 5.114.548 8.028-.87 4.487-4.521 5.929-4.75 8.445-.234 2.567 2.547 8.172 2.547 8.172l7.559-.75-4.289 8.057-16.831-15.49s-2.554-5.858-4.341-7.545-6.339-6.859-7.019-6.937c-.678-.072-2.049 1.905-1.298 3.308a52 52 0 0 0 1.555 2.689l.227 2.107s-4.3-.248-7.279-.678c-2.979-.433-9.553-2.895-10.005-2.128-.452.768-.172 2.308-.172 2.308s-1.854 1.215-1.123 2.177c.73.963 1.857 1.728 1.857 1.728s-.659 1.497.885 2.311c1.547.814 7.96 3.527 7.96 3.527l1.545 1.39 10.619.385.885 1.133s9.899 15.345 12.233 18.793a62 62 0 0 0 4.923 6.278s-21.047 27.172-25.858 33.621c-4.811 6.453-11.022 14.419-11.022 14.419l-1.676 1.736-1.565.494s-7.305-4.343-11.561-4.869c-4.258-.527-7.592.102-7.592.102m70.504-46.976 13.165-12.877 1.079.354s.636 2.008 2.483 3.579c1.848 1.573 7.32 1.444 7.32 1.444l1.724 2.559.057 7.83-2.135 7.59z" clip-rule="evenodd"/><path fill="#000" fill-rule="evenodd" d="m238.829 106.281-.302 1.259a1.175 1.175 0 0 1-1.42.866 1.174 1.174 0 0 1-.867-1.419l.305-1.255a1.175 1.175 0 1 1 2.284.549" clip-rule="evenodd"/><path fill="#000" fill-rule="evenodd" d="M228.843 114.404c-2.051-4.521-1.183-6.545-.92-8.548.265-2.004 1.099-4.626 1.099-4.626l-1.195-.61s.569-.927 3.706-3.432c3.138-2.507 9.994-1.466 9.994-1.466s.16 4.678.514 6.448c.355 1.774 3.211 6.194 3.211 6.194s3.156-1.124 4.119 1.08c2.156 4.932-4.768 5.665-4.768 5.665s2.349 8.405 2.632 9.756 2.433-.09 4.35-1.288c1.915-1.197 6.992-1.425 6.992-1.425s.18-17.345-1.992-25.63c-2.171-8.285-8.495-10.802-14.806-11.708-6.31-.905-14.859 5.142-19.627 8.25-4.768 3.11-6.189 10.398-5.898 17.112s-2.479 8.06-5.254 9.874c-2.774 1.816-.705 6.162-.456 9.272.249 3.104-4.253 6.769-5.303 10.051-1.05 3.284 3.167 7.607 3.167 7.607l6.963-.836s4.857-8.913 8.121-12.498c3.263-3.583 13.163-4.292 14.873-4.959 1.712-.669.672-2.922.672-2.922l-1.867-7.556s-5.546 2.331-8.327-3.805" clip-rule="evenodd"/><path fill="#fff" fill-rule="evenodd" d="m245.861 168.946 3.618-11.849 7.967-1.949s.114 2.187.114 3.293c0 1.104-1.237 3.694-2.039 6.055-.802 2.359.452 3.88.614 4.972.162 1.09-.504 2.713-1.216 3.773-.71 1.06-1.869-1.962-1.869-1.962s-.734 2.158-1.243 3.243c-.508 1.087-2.547-.277-2.547-.277z" clip-rule="evenodd"/><path fill="#000" fill-rule="evenodd" d="m219.613 208.675 31.038 2.32s6.652 3.823 21.777 1.98c13.416-1.638 15.031-14.334 15.031-14.334s-3.054-3.355-10.433-8.049c-7.38-4.695-25.024-7.759-25.024-7.759l-34.794-14.427s-2.736 1.377-5.382 1.813-6.334-.611-6.334-.611l-30.239 39.92 9.87 14.145 11.733-10.977 9.408 54.799 15.115-1.498z" clip-rule="evenodd"/><path fill="#000" d="M259.32 157.263a.74.74 0 0 1-.759-.592.74.74 0 0 1 .577-.866c1.85-.373 2.979-2.557 2.516-4.871-.256-1.277-.954-2.376-1.917-3.017-.723-.483-1.508-.656-2.276-.498a.743.743 0 0 1-.866-.576.737.737 0 0 1 .575-.866c1.139-.232 2.342.026 3.381.715 1.286.856 2.213 2.297 2.546 3.955.622 3.105-1.023 6.067-3.667 6.601a1 1 0 0 1-.11.015m-68.781-12.202a3.3 3.3 0 0 1-1.218-.144c-.651-.215-1.12-.657-1.323-1.249a.735.735 0 1 1 1.392-.473c.018.056.076.222.391.328.637.207 1.861.013 3.173-.891 1.315-.907 1.914-2.017 1.808-2.601-.016-.093-.057-.317-.492-.426a.74.74 0 0 1-.534-.895.733.733 0 0 1 .891-.532c.862.215 1.438.796 1.583 1.594.234 1.297-.716 2.896-2.422 4.071-1.077.741-2.233 1.165-3.249 1.218"/><path fill="#000" fill-rule="evenodd" d="m158.395 216.271.233 4.464-.283 3.853s3.694 3.068 4.255 3.6c.561.533 3.739 3.021 3.739 3.021l5.358-.827 2.437 1.328 5.206-3.731-9.278-11.423-1.587 2.707-2.238.724s-2.393-1.634-2.577-1.686c-.185-.051-5.265-2.03-5.265-2.03m48.184 55.012s.103 1.963.033 2.08-.61 1.357-1.138 2.103c-.529.746-2.506 2.327-2.962 2.502s2.29 1.545 2.29 1.545l2.544 2.062 1.186.959 8.25-.735 3.326-2.975s1.62-3.037 1.614-3.15-.112-5.747-.112-5.747z" clip-rule="evenodd"/><path fill="#000" fill-rule="evenodd" d="M207.748 147.029c-.661-.339-1.371-1.238-1.735-1.864-.517-.888-.923-1.599-1.172-2.491-.5-1.793-.296-3.583.292-5.104.571-1.48 1.352-3.049 2.254-4.179 1.014-1.273 2.276-2.37 2.313-4.186.04-2.003-.874-3.163-1.079-4.831-.275-2.242.623-4.052 1.613-5.205 1.063-1.24 2.925-1.607 4.021-3.039.561-.731.701-1.758.733-2.864.031-1.09.15-2.289.177-3.365.055-2.199-.106-4.855.168-6.896.57-4.23 2.425-7.054 5.095-9.51 2.57-2.368 5.552-4.305 8.928-6.063 3.348-1.744 7.592-3.44 12.131-3.343 8.747.182 12.93 4.374 15.658 11.13 1.403 3.477 1.358 7.919 1.599 12.516.233 4.461.369 8.94.64 13.334 3.795-.402 6.752.738 9.353 2.1 7.751 4.057 14.196 9.22 20.278 15.01 1.937 1.845 4.151 3.761 5.682 6.179 1.585 2.499 1.753 7.337.146 9.532-1.63 2.222-5.44 2.579-9.393 2.786-3.978.209-7.789.291-11.639.376 4.375 10.877 9.259 21.363 13.087 32.874.553 1.661 1.249 3.607 1.34 5.347.243 4.645-1.267 8.477-3.352 11.303-4.234 5.737-12.447 8.364-22.495 7.834-3.96-.209-8.006-.514-10.929-1.784-.313-.135-1.161-.67-1.387-.634-1.052.173-2.41-.099-3.662-.217-8.662-.819-17.428-1.64-25.856-2.358.285 12.664.896 25.125 1.166 37.976.128 6.156.549 12.495.583 18.986.024 4.533.192 9.464.388 14.17.057 1.347.387 4.016-.114 4.539-.476.495-2.58.407-3.684.489-7.918.571-15.449 1.102-23.342 1.813-1.302.115-3.059.418-3.486-.233-.4-.607.157-1.538.418-2.141.313-.715.569-1.348.844-1.869 1.471-2.778 3.058-3.986 6.031-5.145 1.336-.516 2.986-.905 4.095-1.627.471-.305.965-.898 1.395-1.487.375-.509 1.026-1.353 1.081-1.822.052-.429-.162-1.169-.271-1.81-3.179-18.767-6.346-37.949-9.271-56.686-3.1 2.742-6.502 5.985-9.719 8.929-.474.434-.999 1.095-1.527 1.201-.306.058-.803-.306-1.072-.241-.179.045-.617.583-.956.874-4.563 3.915-8.768 7.456-13.243 11.351-.621.541-1.506 1.62-2.213 1.591-.512-.025-1.123-.813-1.535-1.215-.526-.514-.97-.999-1.37-1.401-5.625-5.64-11.185-10.879-16.488-16.858-.581-.657-2.318-2.275-2.295-3.355.049-2.22 5.237-1.805 7.158-1.612 1.966.201 3.416.855 4.785 1.4 2.504.995 4.142 1.837 6.397 2.962.433.215 1.677 1.021 2.228.942.346-.051 1.032-.821 1.402-1.312a8029 8029 0 0 1 32.063-42.127c1.592-2.075 3.048-4.261 4.921-6.088-2.003-1.435-3.371-3.671-4.78-5.815-3.538-5.383-6.896-10.88-10.287-16.536-.38-.63-1.532-2.937-2.168-3.183-.579-.224-1.604-.139-2.423-.165-.871-.03-1.792-.014-2.594-.043-1.71-.056-3.677.047-5.074-.204-.739-.132-1.235-.973-2.2-1.534-.724-.418-1.814-.757-2.528-1.044-1.91-.772-3.645-1.333-4.945-2.214a3.5 3.5 0 0 1-.618-.556c-.291-.362-.414-.986-.723-1.436-.589-.855-2.201-1.314-2.052-3.189.067-.835.661-1.174.79-1.807.102-.509-.025-.998.043-1.415.063-.394.137-.789.411-1.143.948-1.227 3.608-.245 5.007.035 4.01.802 8.031 2.091 12.129 2.249-.184-1.578-1.706-2.443-1.75-4.206-.038-1.533.531-4.012 2.21-3.883 1.21.092 2.75 2.469 3.347 3.177 1.061 1.263 2.191 2.287 3.18 3.368 1.645 1.8 2.846 3.799 4.074 5.85.419.703.718 1.501 1.174 2.177.442.653 1.343 1.194 1.978 1.78 4.566 4.2 9.439 8.842 13.918 12.756.959-1.953 2.19-3.96 3.051-5.814-.229.57-3.527 1.666-6.348.213m.795-1.691c2.176-.074 4.496-.31 6.58-.283a204 204 0 0 1 3.663-6.493c1.264-2.129 2.345-4.359 4.221-5.99 2.83-2.463 6.742-3.661 11.55-4.316 1.472-.199 3.275-.062 3.997-1.269-.436-3.1-1.346-5.672-1.979-8.551-3.126.467-5.226-.084-6.83-1.114-1.829-1.173-2.93-2.952-3.208-6.133-.1-1.167-.112-2.148.709-2.216.974-.079.826.994.936 2.13.37 3.84 2.454 5.849 6.251 5.796 1.178-.016 2.954-.225 4.034-.564.854-.268 2.853-1.529 3.053-.16.205 1.402-2.54 1.452-3.314 1.94.522 2.167 1.163 4.253 1.7 6.565.235 1.019.568 2.08.27 2.928-.218.624-.961 1.547-1.673 1.796-1.892.662-5.008.504-7.123 1.139-.073 2.621.393 4.806 2.118 5.6 2.459 1.133 5.924.51 8.46-.384 2.564-.904 4.98-2.022 6.83-3.36 3.803-2.752 7.304-6.51 10.338-9.494-3.317.376-6.146.774-8.732 1.932-.702.312-1.812.956-2.664.846-1.54-.202-2.057-3.533-2.502-5.05-.304-1.033-.597-2.021-.863-2.959-.287-1.015-.762-1.994-.858-2.898-.028-.269.018-.99.174-1.186.314-.403 1.241-.325 2.037-.46 1.399-.243 3.218-.736 3.363-2.122.07-.663-.469-1.943-.995-2.125-.84-.288-1.952.361-2.929.271-.857-.077-1.166-1.038-1.509-1.804-.388-.873-.694-1.388-1.007-2.361-.834-.423-1.359-1.008-2.369-1.406-1.059-.42-3.828-.002-3.895-1.271-.061-1.169 1.595-.905 2.551-.779 1.154.15 1.972.399 2.75.798-.569-1.702-.597-4.22-.626-6.327-3.936-.516-7.903.422-10.311 2.13-.514.366-1.012.922-1.217 1.477 1.851.247 3.093 1.345 3.166 3.13.058 1.424-1.025 2.964-1.932 3.576-.606.41-1.326.647-2.543.899-.956.198-2.317.571-2.436-.401-.109-.887.83-.939 1.941-1.162.982-.198 1.736-.413 2.253-.824.366-.293 1.122-1.241 1.07-2.058-.047-.737-.685-1.32-1.196-1.47-1.03-.299-2.424.448-2.732-.443-.251-.729.53-1.594.89-2.11.479-.682.907-1.257 1.387-1.661 1.378-1.16 3.817-2.172 5.928-2.607 1.156-.239 2.433-.246 3.934-.206 1.213.03 3.057-.066 3.391.646.176.382.094 1.194.092 1.761-.022 4.735 1.201 7.588 2.741 10.749 2.988-1.023 5.451.693 5.257 3.671-.156 2.377-2.882 3.52-5.456 3.759.907 3.051 1.746 6.179 2.828 9.037 2.624-1.37 5.944-2.11 9.52-2.618-.227-4.398-.389-8.551-.615-12.864-.232-4.417-.116-8.746-1.344-12.176-.559-1.562-1.359-2.985-2.23-4.357-1.813-2.853-3.919-4.522-7.412-5.44-1.685-.445-3.687-.74-5.803-.639-4.381.206-7.806 1.984-10.88 3.631-3.138 1.681-5.937 3.563-8.287 5.911-2.471 2.468-3.911 5.367-4.143 9.697-.116 2.154.034 4.514-.126 6.599-.182 2.383-.001 4.042-1.178 5.598-.431.566-1.191 1.096-1.921 1.572-.667.436-1.588.847-2.104 1.406-.709.767-1.344 2.331-1.28 3.66.082 1.738 1.036 2.922 1.139 4.885.17 3.245-2.07 4.45-3.42 6.654-.018.029-.045.107-.053.121-.686 1.449-1.896 3.353-1.602 5.384.278 1.908 1.339 2.974 2.175 4.417m-25.249-19.99c-.273.695-.572 1.413-.473 2.205.117.952 1.045 1.425 1.414 2.281.339.785.374 1.819.553 2.679.184.885.397 1.721.55 2.622.323-.017.87.053 1.183.113.914.178 3.158.731 3.211 1.715.076 1.406-1.439.597-2.222.295-.714-.278-1.456-.554-2.435-.404-.967.148-1.88.786-2.822 1.209-1.161.523-2.36 1.516-3.935 1.325-2.434-.294-3.819-3.065-6.242-3.383-1.112.771.454 1.656.994 2.127 1.158 1.005 2.099 1.718 3.319 2.652.512.393 1.197 1.134 1.715 1.264.701.178 1.906.067 2.831.088.978.021 1.958.059 2.831.086 1.848.062 4.156-.156 5.216.669.79.616 1.396 2.105 2.053 3.191 3.939 6.527 7.751 12.893 12.126 19.03.721 1.01 1.459 2.185 2.326 2.822 2.007 1.477 6.24 2.051 9.216.577 1.506-.747 2.956-2.046 4.248-3.228 1.309-1.194 2.562-2.474 3.756-3.611 2.603-2.481 5.059-4.725 7.446-7.337-.903-3.384.422-6.021 1.64-8.034-.35-.886-1.975-1.465-2.015-2.484-.019-.482.281-.801.721-.863.87-.121 1.383.846 1.836 1.317.516.538 1.386 1.182 1.445 1.749.072.696-1.006 2.047-1.276 2.598-.385.783-.861 1.924-.91 2.873-.249 4.914 3.039 7.797 7.366 7.975 1.386.058 2.735-.188 3.236 1.067 1.322-2.16 2.583-4.42 3.955-6.565 1.339-2.095 2.726-4.308 4.761-5.785 4.176-3.033 10.998-3.341 17.984-4.003-1.787-.868-3.387-1.473-5.303-2.315-.557-.244-1.368-.538-1.415-1.159-.137-1.82 2.553-.324 3.178-.049 2.159.946 3.885 1.686 6.026 2.627.322.141.829.543 1.149.588.894.122 2.576-.237 3.635-.309 1.007-.069 2.918-.605 2.978.668.057 1.177-2.22 1.027-3.18 1.108-4.065.343-8.083.663-11.899 1.036-5.022.494-10.252 1.339-13.042 3.923-.822.759-1.397 1.779-2.038 2.698-1.966 2.808-3.591 5.504-5.377 8.641.159 3.057.514 6.198.839 9.261.1.932.018 2.547.834 2.428.432-.065.486-1.701.522-2.382.118-2.207.097-3.52-.351-5.576-.193-.885-.489-2.042.476-2.144.96-.102 1.07 1.102 1.29 2.111.47 2.158.734 3.514 1.29 5.524.232.842.415 1.82 1.001 2.246-.558-2.195-1.135-4.834-1.742-7.387-.216-.909-1.04-2.943.251-3.074 1.009-.106 1.059 1.249 1.295 2.225.673 2.802 1.443 5.736 2.037 8.549.424-.44.547-1.371.894-2.049.126-.242.313-.416.322-.605.016-.345-.494-1.571-.64-2.086-.406-1.417-.829-2.784-1.223-4.232-.258-.955-.951-2.689.326-2.785.986-.074 1.101 1.356 1.285 2.052.716 2.718 1.54 5.315 2.297 7.885 1.051-1.472-.044-4.094-.033-6.237.016-2.817 1.312-4.861 1.788-7.455.195-1.06.048-3.359 1.176-3.418.642-.034.834.464.942 1.129 7.191.059 15.016-.488 22.525-.533 2.54-.014 5.12-.051 7.519-.335 1.348-.159 2.905-.507 4.002-1.152 2.074-1.219 2.138-5.315 1.007-7.766-.642-1.391-2.032-2.735-3.087-3.843-3.344-3.508-7.07-6.797-10.818-9.793-3.706-2.966-7.993-5.565-12.543-7.88a14.7 14.7 0 0 0-2.406-.996c-.794-.243-2.149-.673-2.739-.563-.315.062-.904.74-1.295 1.128-4.415 4.399-8.613 9.098-14.622 12.014-2.192 1.063-4.686 2.169-7.347 2.504-5.405.679-9.409-1.312-9.042-7.357-2.823.972-5.287 2.097-6.84 4.303-1.454 2.068-2.727 4.451-4.059 6.809a463 463 0 0 0-6.715 12.304c-.341.644-.624 1.406-1.28 1.419-.797.019-1.076-.933-.612-1.555-4.678-4.334-9.305-8.77-14.112-13.098-.677-.61-1.452-1.247-1.984-1.897-.959-1.177-1.501-2.642-2.264-3.887-1.561-2.546-3.487-4.569-5.475-6.718-1.013-1.096-1.923-2.329-3.003-3.377m-16.106 5.026c-.29.187-.15.762-.236 1.131 2.822.509 5.815 1.332 9.053 1.939.88.165 2.201.188 2.289 1 .153 1.391-1.685.795-2.675.611a85 85 0 0 0-2.081-.361c.853.466 1.654.907 2.494 1.517.668.484 1.608 1.428 2.434 1.521.943.106 1.874-.673 2.715-1.028.96-.401 1.699-.797 2.528-1.192-.097-.72-.293-1.331-.402-2.038-5.718-.65-10.716-2.102-16.119-3.1m-.733 2.863c-.446.476-.2 1.346.318 1.576 1.027-1.118 3.024-.619 4.123.019.272-.183.474-.431.917-.463-1.744-.421-3.207-1.159-5.358-1.132m3.572 2.992c-.62-.104-1.26-.687-1.959-.306.127 1.679 1.587 1.881 2.663 2.506-.288-.441-1.071-1.189-.704-2.2m48.305 31.855c7.193 3.113 14.613 5.976 21.849 9.042.47-1.744 1.122-3.546 1.784-5.274.213-.557.574-1.217.619-1.683.075-.788-.186-1.787-.259-2.694-.121-1.465-.291-2.794-.348-4.397-.482-.646-.974-1.281-1.512-1.866-4.917.244-8.009-1.544-9.622-4.969-4.105 4.005-8.175 8.042-12.511 11.841m39.834-10.684c-.189 2.734-1.775 4.781-1.835 7.69-.035 1.702.698 3.274.504 5.097-.149 1.397-.871 4.19-2.437 4.074-.574-.045-.752-.429-.992-.951-.442.772-.647 1.597-1.366 2.017-1.801 1.049-4.203-.741-4.656-2.29-.288.792-.407 1.658-1.252 1.949-1.222.428-2.635-.186-3.005-1.194-.578 1.139-.852 2.553-1.211 3.89.823.543 1.797.897 2.718 1.271 2.759 1.124 5.582 2.379 8.647 3.199 4.086 1.085 8.273 2.156 12.361 3.296 8.215 2.287 15.409 5.679 20.831 10.978.038-1.987-.555-3.859-1.117-5.596-1.632-5.023-3.629-9.88-5.541-14.722-2.533-6.41-5.224-12.648-7.945-19.014-4.613.153-9.101.166-13.704.306m-41.535 11.951c-2.117 1.74-7.072 2.314-9.893 1.107-3.1 2.776-5.347 6.322-7.858 9.598a7541 7541 0 0 0-22.59 29.622c3.101 4.073 5.759 8.644 8.796 12.786 1.908-1.529 3.585-3.166 5.509-5.001 1.274-1.21 2.719-2.476 4.158-3.805.426-.397 1.214-.984 1.285-1.306.089-.396-.17-1.171-.271-1.811-.486-3.076-.854-5.957-1.247-9.179-.156-1.279-.424-2.564-.373-3.75.15-3.399 2.173-6.458 4.212-8.404 1.799-1.716 5.257-4.486 9.089-4.066 1.761.19 3.776 1.554 5.186 2.319 11.353 6.155 21.997 13.05 32.831 19.709 1.55.954 3.027 2.018 4.685 2.878 1.71.885 3.33 1.525 5.516 1.886 3.993.662 8.753 1.305 13.692.578 4.361-.641 8.557-1.835 11.441-4.132 2.059-1.638 3.713-3.763 4.718-6.604.277-.784.843-2.215.73-2.925-.065-.411-1.054-1.172-1.557-1.626-3.941-3.549-8.286-6.148-13.563-8.239-3.018-1.193-6.312-1.922-9.509-2.798-3.246-.889-6.428-1.931-9.618-2.618-.878-.187-1.598-.336-2.391-.698-2.046-.934-4.4-1.842-6.561-2.718-5.943-2.401-11.584-4.761-17.51-7.149-3.017-1.215-5.939-2.486-8.907-3.654m-10.05 96.971c4.687-.237 9.256-.582 13.911-.847-.2-14.179-1.155-28.99-1.277-43.446-.027-3.328-.257-7.234-.334-10.874-.024-1.184-.27-2.968.178-3.365.529-.469 2.477-.09 3.415-.003 8.025.74 16.158 1.499 24.085 2.27.06-.142-.672-.579-.983-.773-10.829-6.693-21.644-13.6-33.018-19.937a60 60 0 0 0-2.544-1.338c-.962-.474-2.192-1.184-3.183-1.186-3.175-.011-5.574 2.104-7.282 3.736-.948.905-1.74 1.813-2.375 3.01-.593 1.118-1.171 2.549-1.265 3.951-.095 1.436.274 3.018.475 4.569 2.804 21.705 6.886 43.116 10.197 64.233m-31.277-55.239c-1.548 1.796-2.91 3.758-4.356 5.644 2.632 3.312 5.412 6.46 8.048 9.765 1.449-1.138 2.799-2.365 4.171-3.575-2.56-4.011-5.293-7.83-7.863-11.834m-27.319 4.552c2.995 3.754 6.399 7.112 9.736 10.502 3.341 3.39 6.655 6.819 10.126 10.066 1.522-1.446 3.249-2.707 4.726-4.192-1.384-.957-2.792-1.291-4.799-.573-.579.206-1.34.767-1.962.75-.702-.02-1.63-1.243-2.276-1.823-1.603-1.444-2.688-2.551-4.159-4.08-.845-.883-1.962-1.686-2.106-3.13-.119-1.179.481-1.986.551-2.971.09-1.267-.524-2.356-.71-3.439-2.317-1.126-5.667-1.652-9.127-1.11m11.233 2.004c.049.525.376 1.645.362 2.392-.022 1.167-.703 2.118-.548 3.032.115.673 1.103 1.535 1.579 2.037 1.749 1.851 3.602 3.579 5.454 5.191 1.176-.489 2.438-1.116 3.888-1.086 1.631.029 2.941 1.046 3.974 1.676 1.328-1.043 2.539-2.189 3.833-3.265-2.278-2.669-4.626-5.399-6.968-8.229-.217-.265-.797-1.186-.945-1.189-.18 0-1.276 1.654-1.494 1.846-.465.413-1.245.897-2.014.871-1.055-.034-2.474-.982-3.554-1.52-1.337-.668-2.399-1.21-3.567-1.756m61.248 49.604c-4.563.233-9.019.569-13.558.827.104.857.231 1.691.423 2.451 4.39-.374 8.96-.588 13.314-.993l-.111-2.112c.002-.083.001-.168-.068-.173m-12.869 4.971c.392 1.501-.469 2.49-1.173 3.479-.774 1.083-1.536 1.954-2.754 2.498 2.121.668 3.624 2.023 5.068 3.443 2.984-.223 5.808-.589 8.789-.814.893-1.787 1.948-3.432 3.28-4.822-.007-1.483-.1-3.037-.119-4.53-.003-.097-.051-.147-.127-.17-4.274.35-8.605.648-12.964.916m-13.485 13.485c9.04-.608 17.885-1.392 26.923-2-.015-1.619-.08-3.28-.142-4.939-.148-.084-.281.175-.34.253-.314.424-.566.965-.862 1.517-.328.607-.691 1.659-1.255 1.891-.617.256-1.766.235-2.517.308-1.811.175-3.262.322-5.155.505-.838.083-1.889.328-2.58.197-.491-.097-1.076-.942-1.484-1.337-.463-.447-1.061-.997-1.48-1.277-1.087-.724-2.785-1.05-3.962-1.44-.057-.021-.118-.146-.241-.105-1.323.443-3.002 1.061-3.969 1.797-1.462 1.116-2.151 3.019-2.936 4.63" clip-rule="evenodd"/><path fill="#000" fill-rule="evenodd" d="M247.193 109.691c-.343-.085-.76.113-1.343.187-.949.125-2.036.009-2.017.874.032 1.369 3.901.648 3.929-.323.018-.618-.351-.684-.569-.738m-17.261 3.377c1.486.085 2.472-.752 3.958-.852-.022.566-.481 1.028-1.409 1.19-.87.154-2.091-.183-1.836.92.276 1.191 3.279.078 3.753-.314.698-.576.951-1.333.875-2.401-.531-1.305-2.606-.557-3.954-.145-1.097.334-2.288.609-1.387 1.602" clip-rule="evenodd"/><path fill="#fff" fill-rule="evenodd" d="M256.442 277.484a5.116 5.116 0 1 1-5.376-4.842 5.115 5.115 0 0 1 5.376 4.842m26.149-1.37a5.118 5.118 0 1 1-10.222.534 5.118 5.118 0 0 1 10.222-.534m11.04-.579a5.116 5.116 0 1 1-10.219.535 5.116 5.116 0 1 1 10.219-.535m-24.082 1.263a5.118 5.118 0 1 1-10.222.533 5.118 5.118 0 0 1 10.222-.533" clip-rule="evenodd"/><path fill="#000" d="M251.641 283.593a5.86 5.86 0 0 1-6.151-5.537 5.86 5.86 0 0 1 5.538-6.15 5.86 5.86 0 0 1 6.152 5.538 5.86 5.86 0 0 1-5.539 6.149m-.536-10.218a4.384 4.384 0 0 0-4.145 4.604 4.385 4.385 0 0 0 4.603 4.144 4.383 4.383 0 0 0 4.146-4.602 4.385 4.385 0 0 0-4.604-4.146m26.679 8.849a5.86 5.86 0 0 1-6.15-5.537 5.86 5.86 0 0 1 5.538-6.15 5.86 5.86 0 0 1 6.151 5.538 5.86 5.86 0 0 1-5.539 6.149m-.535-10.218a4.385 4.385 0 0 0-4.146 4.604 4.383 4.383 0 0 0 4.604 4.143 4.385 4.385 0 0 0 4.147-4.601 4.385 4.385 0 0 0-4.605-4.146"/><path fill="#000" d="M288.824 281.645a5.86 5.86 0 0 1-6.149-5.537 5.86 5.86 0 0 1 5.537-6.151 5.86 5.86 0 0 1 6.151 5.539 5.86 5.86 0 0 1-5.539 6.149m-.535-10.218a4.384 4.384 0 0 0-4.145 4.604 4.38 4.38 0 0 0 4.603 4.143 4.385 4.385 0 0 0 4.147-4.601 4.385 4.385 0 0 0-4.605-4.146m-23.542 11.48a5.86 5.86 0 0 1-6.15-5.537 5.86 5.86 0 0 1 5.537-6.151 5.86 5.86 0 0 1 6.15 5.538 5.86 5.86 0 0 1-5.537 6.15m-.536-10.218a4.384 4.384 0 0 0-4.145 4.604 4.383 4.383 0 0 0 4.604 4.143 4.385 4.385 0 0 0 4.146-4.602 4.386 4.386 0 0 0-4.605-4.145"/><path fill="#fff" fill-rule="evenodd" d="m296.219 161.718 1.222 23.316a7.057 7.057 0 0 1-6.678 7.414l-32.536 1.705a7.057 7.057 0 0 1-7.417-6.675l-1.222-23.317a7.055 7.055 0 0 1 6.678-7.414l32.537-1.705a7.055 7.055 0 0 1 7.416 6.676" clip-rule="evenodd"/><path fill="#000" d="m290.804 193.181-32.537 1.706c-4.29.224-7.965-3.086-8.19-7.376l-1.222-23.313c-.225-4.291 3.085-7.966 7.375-8.191l32.536-1.705c4.292-.225 7.966 3.084 8.19 7.375l1.222 23.313c.225 4.29-3.083 7.966-7.374 8.191m-34.497-35.704a6.327 6.327 0 0 0-5.981 6.644l1.221 23.313a6.33 6.33 0 0 0 6.643 5.984l32.537-1.705a6.33 6.33 0 0 0 5.982-6.646l-1.222-23.313a6.326 6.326 0 0 0-6.644-5.982z"/><path fill="#000" fill-rule="evenodd" d="m271.931 226.721 2.185 41.694a2.823 2.823 0 0 1-2.672 2.968l-4.345.227a2.82 2.82 0 0 1-2.967-2.672l-2.185-41.694a2.82 2.82 0 0 1 2.671-2.966l4.346-.228a2.823 2.823 0 0 1 2.967 2.671" clip-rule="evenodd"/><path fill="#000" fill-rule="evenodd" d="M291.139 268.845a2.294 2.294 0 0 1-2.171 2.41l-39.054 2.046a2.292 2.292 0 1 1-.24-4.578l39.054-2.047a2.29 2.29 0 0 1 2.411 2.169" clip-rule="evenodd"/><path fill="#000" fill-rule="evenodd" d="m254.245 271.473.105 1.998a2.94 2.94 0 0 1-2.784 3.092l-.586.031a2.94 2.94 0 0 1-3.091-2.784l-.104-1.998a2.94 2.94 0 0 1 2.782-3.089l.587-.031a2.94 2.94 0 0 1 3.091 2.781m37.005-1.938.105 1.998a2.94 2.94 0 0 1-2.782 3.092l-.587.03a2.94 2.94 0 0 1-3.091-2.783l-.104-1.999a2.94 2.94 0 0 1 2.782-3.088l.587-.031a2.94 2.94 0 0 1 3.09 2.781m-10.863.569.105 1.998a2.94 2.94 0 0 1-2.782 3.092l-.587.031a2.94 2.94 0 0 1-3.091-2.784l-.105-1.999a2.94 2.94 0 0 1 2.783-3.088l.587-.031a2.94 2.94 0 0 1 3.09 2.781m-13.035.683.105 1.998a2.94 2.94 0 0 1-2.783 3.092l-.587.03a2.94 2.94 0 0 1-3.09-2.783l-.105-1.999a2.94 2.94 0 0 1 2.783-3.088l.587-.031a2.94 2.94 0 0 1 3.09 2.781m27.849-51.561.123 2.348a4.704 4.704 0 0 1-4.451 4.943l-49.016 2.569a4.705 4.705 0 0 1-4.945-4.451l-.123-2.347a4.706 4.706 0 0 1 4.453-4.947l49.016-2.569a4.705 4.705 0 0 1 4.943 4.454" clip-rule="evenodd"/><path fill="#fff" fill-rule="evenodd" d="m296.197 215.583.268 5.11a2.35 2.35 0 0 1-2.225 2.471l-55.852 2.927a2.353 2.353 0 0 1-2.473-2.225l-.268-5.109a5.88 5.88 0 0 1 5.566-6.178l48.804-2.558a5.88 5.88 0 0 1 6.18 5.562" clip-rule="evenodd"/><path fill="#000" d="m294.285 224.047-55.851 2.927a3.24 3.24 0 0 1-3.4-3.061l-.268-5.11a6.77 6.77 0 0 1 6.401-7.107l48.804-2.558a6.77 6.77 0 0 1 7.108 6.399l.268 5.11a3.24 3.24 0 0 1-3.062 3.4m-53.026-10.59a5.005 5.005 0 0 0-4.731 5.253l.268 5.11a1.47 1.47 0 0 0 1.546 1.388l55.851-2.927a1.47 1.47 0 0 0 1.392-1.542l-.268-5.11a5.005 5.005 0 0 0-5.254-4.73z"/><path fill="#000" fill-rule="evenodd" d="m289.955 180.974.108 2.054a5.88 5.88 0 0 1-5.566 6.181l-7.927.415a5.88 5.88 0 0 1-6.182-5.565l-.108-2.054a5.883 5.883 0 0 1 5.566-6.181l7.928-.415a5.88 5.88 0 0 1 6.181 5.565m2.052 37.979.123 2.348a4.706 4.706 0 0 1-4.452 4.948l-8.105.425a4.706 4.706 0 0 1-4.944-4.455l-.123-2.349a4.704 4.704 0 0 1 4.452-4.941l8.105-.425a4.704 4.704 0 0 1 4.944 4.449" clip-rule="evenodd"/><path fill="#fff" fill-rule="evenodd" d="m286.621 183.5 1.795 34.237a3.941 3.941 0 0 1-7.871.412l-1.794-34.236a3.941 3.941 0 1 1 7.87-.413" clip-rule="evenodd"/><path fill="#000" d="M284.719 222.611a4.68 4.68 0 0 1-4.914-4.423l-1.795-34.236a4.68 4.68 0 0 1 4.425-4.914 4.683 4.683 0 0 1 4.916 4.425l1.794 34.236a4.68 4.68 0 0 1-4.426 4.912m-2.207-42.104a3.207 3.207 0 0 0-3.032 3.368l1.794 34.237a3.21 3.21 0 0 0 3.368 3.032 3.207 3.207 0 0 0 3.033-3.368l-1.794-34.236a3.21 3.21 0 0 0-3.369-3.033"/><path fill="#fff" fill-rule="evenodd" d="m16.421 181.849 1.363 1.282 2.179.004 1.224.878 2.368-.887.656 1.26 1.545-.848.869-3.637 5.27-.57s-1.624 2.778-.46 3.556c1.162.777 3.675.447 6.188.09 2.512-.363 4.562-.305 3.23-3.527-1.331-3.222-2.382-6.117-2.382-6.117l1.666-8.685s5.772 14.501 11.814 24.288c5.906 9.571 5.95 10.172 5.95 10.172s-.96 2.729-1.726 7.512c-.596 3.718-.23 3.485-.23 3.485s2.267-.479 4.112-1.334c1.823-.847 2.745-1.557 2.745-1.557l26.736 42.703s-2.15.647-2.256 1.886c-.107 1.235 3.825 9.338 5.128 9.093 1.305-.245 3.301-1.055 3.301-1.055l18.805 30.694s16.589-7.358 21.464-10.724c4.875-3.363 6.369-9.08 5.516-9.357-.853-.275-5.465-1.94-8.942-.943s-5.392 1.33-6.936 1.361c-1.544.034-3.922-.675-3.922-.675l-9.109-18.722s1.116-1.678-.45-4.096c-1.566-2.417-2.715-5.747-2.715-5.747l-1.277.361-18.463-41.017 1.136-.825s-.404 1.675 2.03 1.661 4.538.175 4.918-.553-.024-2.709-.024-2.709 22.608-2.718 25.644-6.232c3.036-3.512 4.713-11.756 2.511-15.026-2.204-3.274-10.282-10.769-10.282-10.769s.442-6.309-2.372-8.178c-2.815-1.872-6.204-2.62-6.204-2.62l-20.488-22.362s-.966-25.478-2.197-30.683-2.809-8.103-5.78-9.179C75.6 92.426 69.8 92.43 69.8 92.43l1.793-8.513s7.446-.814 9.102-4.954c3.278-8.186-3.182-14.671-3.182-14.671s4.078-3.224-.4-6.516c-4.479-3.293-11.65-5.47-17.448-3.68-5.799 1.79-6.808 2.714-6.808 2.714s-.681-3.816-3.294-4.42c-2.611-.606-9.205 1.802-10.533 6.91s-1.542 23.63-3.4 28.384c-1.857 4.758-3.816 7.22-7.782 8.828-3.965 1.61-6.674 3.908-7.818 7.005-1.146 3.1-2.542 6.196.038 8.597 2.58 2.398 4.939 3.214 4.939 3.214s-2.536 6.361 2.392 8.589c4.93 2.229 8.863.539 8.863.539s-3.061 9.503-5.114 20.405c-2.528 13.426-4.145 28.778-4.145 28.778l-3.095 1.636-3.081-.37-1.058 1.176-1.75.326zm61.126-7.916 18.204 6.878-1.174 1.182s-.503-1.721-2.943-1.085c-2.438.64-5.046 1.028-5.09 1.742a6.6 6.6 0 0 1-.173 1.186l-3.352 1.235zM54.764 79.675l3.931.853s.94.584 2.336.76c1.399.176 2.582-.194 2.582-.194s-.417 10.197-2.136 10.948c-1.717.751-5.807 1.54-5.807 1.54z" clip-rule="evenodd"/><path fill="#000" fill-rule="evenodd" d="m77.639 173.529 18.7 7.321-2.378.714 4.5 17.31s18.184-2.16 23.445-5.466c5.262-3.307 5.238-9.787 3.877-15.928-1.361-6.135-10.266-10.472-10.266-10.472s-.087.753-.78 1.986c-.691 1.23-2.153-.655-2.153-.655s.045.777-1.627.438c-1.67-.336-1.508-2.668-2.561-5.045-1.052-2.38-6.03-5.867-6.599-5.663-.567.207.553 2.368.903 3.723.351 1.355-.184 1.81-1.065 2.176-.879.367-.626-.287-.827-1.195-.2-.906-.648-.863-2.7-2.095-2.054-1.235-2.883-6.679-2.883-6.679l-14.4-6.195-2.69-5.276-9.099-11.772-19.69 1.268s-2.205 2.893-4.702 9.196c-3.64 9.195-4.282 22.779-4.282 22.779s4.243 11.637 5.245 13.563c1.002 1.925 6.044 10.467 11.112 18.203 5.07 7.734 33.415 54.367 33.415 54.367s8.418-4.204 12.108-6.054c3.691-1.846 6.217-2.737 6.217-2.737z" clip-rule="evenodd"/><path fill="#fff" fill-rule="evenodd" d="m54.525 79.018 1.186 14.777s-2.74.942-4.584 1.299c-1.843.359-4.565 2.115-6.713 6.771-2.146 4.657-4.813 20.509-4.813 20.509s-8.397 5.123-13.718.071c-3.22-3.058-.92-7.43-.92-7.43s-5.645-.227-5.775-7.943c-.13-7.711 7.226-9.877 11.516-11.732 4.291-1.854 4.535-5.412 5.783-9.9 1.248-4.492.957-19.643 3.033-26.422 2.074-6.781 7.331-7.189 9.59-6.922 2.256.266 3.99 4.207 3.99 4.207s.54-.743 7.51-2.307c6.971-1.567 13.496 1.075 17.346 3.535 3.85 2.464-.215 6.02-.215 6.02l-3.668-3.697s-2.868 6.041-5.352 9.115-7.133 6.616-7.133 6.616-2.277.14-2.998 1.217c-.723 1.076.308 3.635.308 3.635z" clip-rule="evenodd"/><path fill="#000" fill-rule="evenodd" d="m54.22 79.582 1.631 16.953s-2.74.943-4.584 1.3-4.565 2.114-6.713 6.771c-2.146 4.656-7.66 19.288-7.66 19.288s-5.834 4.15-11.155-.902c-3.22-3.058-.732-7.66-.732-7.66s-5.198-1.991-5.679-5.519c-.13-7.712 7.227-9.878 11.516-11.732 4.291-1.854 5.958-5.525 7.206-10.012 1.248-4.492.797-19.49 2.873-26.27s6.069-7.229 8.327-6.962c2.256.266 3.99 4.206 3.99 4.206s.54-.743 7.511-2.306c6.97-1.567 13.495 1.074 17.345 3.535 3.85 2.463-.583 4.023-.583 4.023l-3.387-3.908s-3.33 6.506-5.815 9.58c-2.484 3.074-5.95 5.965-5.95 5.965s-2.398-.95-3.745 1.452c-.633 1.13-.022 3.617-.022 3.617z" clip-rule="evenodd"/><path fill="#000" fill-rule="evenodd" d="M86.33 133.17s.18-9.613-.197-13.886c-.378-4.272-1.026-14.867-3.346-21.14-2.32-6.274-10.057-5.363-10.057-5.363s2.008 2.173 2.494 3.758c.485 1.58.55 2.897-1.423 5.433-1.973 2.533-3.134 1.869-6.627 1.642-3.495-.226-5.854-2.486-7.827-4.36-1.97-1.875-4.69-5.231-4.69-5.231s-2.868.931-5.886 2.31c-3.019 1.377-4.224 5.573-5.554 8.655-9.58 22.202-13.424 47.811-13.424 47.811s1.607 2.452 6.269 2.735c4.66.279 5.573-1.53 5.573-1.53s.532-6.932 2.142-11.947c2.015-6.282 5.198-10.934 5.198-10.934l19.908-.512 3.734-5.142 2.513 13.117 4.552 7.064 2.108 2.011s-.584-3.146 1.637-6.975c2.22-3.833 7.706-2.408 7.706-2.408z" clip-rule="evenodd"/><path fill="#FC0" fill-rule="evenodd" d="m69.266 131.542 4.361-7.824s6.916-.158 8.24-5.673c1.89-7.855-4.002-11.216-4.002-11.216l-2.78-5.86s-2.196 3.427-4.922 3.851c-2.727.423-7.53-2.08-7.53-2.08l-5.566 12.893-8.43 16.696z" clip-rule="evenodd"/><path fill="#fff" fill-rule="evenodd" d="M82.563 148.355c-.573-.817-.847-1.907-.712-3.169.35-3.253 3.268-6.369 6.484-6.886 1.682-.271 3.081.233 3.956 1.239z" clip-rule="evenodd"/><path fill="#000" d="M82.61 149.239a.89.89 0 0 1-.772-.377c-.72-1.031-1.017-2.334-.864-3.767.393-3.649 3.631-7.086 7.221-7.663 1.916-.31 3.65.248 4.762 1.533a.88.88 0 1 1-1.332 1.155c-.712-.822-1.826-1.155-3.15-.947-2.808.451-5.44 3.25-5.746 6.11-.107 1.004.084 1.894.557 2.571a.88.88 0 0 1-.22 1.226c-.14.1-.298.15-.457.159Zm-45.32 7.032c-2.27.119-4.742-.371-6.419-1.392-1.832-1.114-1.993-2.366-1.925-3.012.07-.677.514-1.927 2.693-2.698 2.709-.956 6.719-.591 9.127.835 1.864 1.102 2.058 2.358 2.007 3.008-.051.648-.435 1.852-2.442 2.647-.89.355-1.942.554-3.04.612Zm-2.762-5.859c-.83.043-1.62.181-2.302.422-1.072.378-1.49.875-1.526 1.214-.04.391.367.885 1.089 1.326 2.003 1.218 5.688 1.522 7.891.648.804-.32 1.303-.747 1.334-1.146.03-.399-.408-.919-1.145-1.354-1.375-.815-3.452-1.209-5.34-1.11Z"/><path fill="#000" fill-rule="evenodd" d="m77.83 70-.17 1.264c-.1.735-.7 1.258-1.345 1.172-.644-.088-1.085-.753-.987-1.489l.171-1.261c.098-.735.7-1.26 1.344-1.172.644.084 1.085.75.987 1.486m-7.941 1.356-.171 1.264c-.097.735-.7 1.26-1.345 1.173-.643-.09-1.084-.754-.986-1.488l.17-1.262c.1-.735.701-1.261 1.346-1.173.642.084 1.085.75.986 1.486m56.215 200.486c-1.309.223-4.638-.817-4.638-.817l-2.72-5.862-14.604 7.891 5.797 9.469s.819-.294 2.503.576 3.099 2.958 3.099 2.958l10.011-5.649s-.153-2.191.737-5.042 4.405-4.706 4.405-4.706-3.281.96-4.59 1.182" clip-rule="evenodd"/><path fill="#5BF1CD" d="M94.852 249.297a.74.74 0 0 1-.67-.359c-.288-.483-29.038-48.579-36.093-59.624-15.084-23.623-15.705-36.413-15.725-36.944-.013-.405.354-.732.709-.76a.74.74 0 0 1 .762.707c.004.127.663 12.981 15.492 36.207 7.068 11.064 35.828 59.177 36.118 59.661a.736.736 0 0 1-.593 1.112"/><path fill="#fff" d="M94.908 250.275a1.71 1.71 0 0 1-1.562-.834c-1.2-2.007-29.166-48.777-36.078-59.601-15.201-23.804-15.858-36.889-15.879-37.433-.03-.907.692-1.701 1.61-1.774.986-.035 1.783.704 1.819 1.645.006.125.752 12.872 15.338 35.718 6.718 10.516 33.084 54.586 36.068 59.576l.065.109a1.72 1.72 0 0 1-.589 2.352 1.75 1.75 0 0 1-.792.242"/><path fill="#5BF1CD" d="M96.989 189.52a.881.881 0 0 1-.204-1.748l14.619-2.685 1.126-.735-37.6-16.261a.877.877 0 0 1-.46-1.158.88.88 0 0 1 1.16-.461l39.106 16.912a.882.882 0 0 1 .131 1.549l-2.647 1.729a.9.9 0 0 1-.323.129l-14.793 2.716a1 1 0 0 1-.115.013"/><path fill="#fff" d="M97.026 190.308a1.67 1.67 0 0 1-1.724-1.362 1.67 1.67 0 0 1 1.337-1.939l14.066-2.584-36.091-15.607a1.64 1.64 0 0 1-.887-.911 1.65 1.65 0 0 1 .02-1.278c.175-.407.5-.724.915-.888a1.65 1.65 0 0 1 1.275.02l39.106 16.911a1.665 1.665 0 0 1 .248 2.925l-2.646 1.728a1.7 1.7 0 0 1-.599.243l-14.805 2.718a1.4 1.4 0 0 1-.215.024m-21.755-23.12c-.048.014-.072.028-.085.06a.095.095 0 0 0 .047.128l38.942 16.84-2.479 1.618-14.772 2.714a.1.1 0 0 0-.08.115c.01.054.058.082.1.08.02-.002 14.808-2.717 14.808-2.717.032-.012 2.682-1.744 2.682-1.744a.1.1 0 0 0 .045-.093.1.1 0 0 0-.057-.08l-39.107-16.913a.1.1 0 0 0-.044-.008"/><path fill="#000" fill-rule="evenodd" d="M71.495 76.487c-.4-.078-.933.051-1.032.524-.267 1.27 1.688 2.177 2.822 2.148.893-.022 2.247-.235 2.361-1.006.252-1.697-1.79-.578-2.746-.739-.644-.107-.778-.807-1.405-.927m-8.553.804c-.657-.119-3.264-.243-3.011.981.174.842 3.724.783 3.755-.255.02-.67-.451-.673-.744-.726" clip-rule="evenodd"/><path fill="#000" fill-rule="evenodd" d="M18.937 175.744c.091-.061.323-.21.458-.259.19-.074.435-.004.642-.095.537-.231.743-.835 1.599-.967a6 6 0 0 1 1.47-.018c.399.04.857.252 1.25.229.822-.048 1.69-.807 2.611-.726.724-8.762 1.526-17.294 2.849-25.407 1.322-8.118 3.416-15.7 5.63-22.904-1.621.599-3.47.431-5.114.151-1.496-.257-3.16-.643-4.197-1.429-2.027-1.542-3.59-5.053-2.199-8.248-3.135-1.008-5.458-3.18-5.624-7.301-.147-3.684 1.703-6.819 3.473-9.012 1.009-1.248 2.127-2.183 3.558-2.895 1.395-.694 2.949-1.152 4.55-1.947 2.864-1.421 4.366-4.397 5.141-7.513.808-3.24 1.305-7.004 1.43-10.906.124-3.818.118-7.842.755-11.464.555-3.165 1.341-6.935 3.162-9.292.909-1.168 2.166-2.035 3.683-2.782 1.466-.724 3.188-1.467 5.173-1.272 2.274.227 3.207 2.457 4.221 4.137 4.232-2.596 12.119-3.36 17.675-2.048 2.641.625 5.077 1.739 6.834 3.412.795.756 1.832 2.012 2.054 3.248.276 1.528-.209 2.826-.903 4.111.173.307.852.317.983.773.156.542-.27.8.067 1.292 4.839 7.073 1.566 18.079-7.61 17.71-.474 2.498-1.07 4.89-1.556 7.38 6.785.049 11.266 2.358 13.183 7.73.625 1.751 1.026 3.732 1.315 5.995.538 4.221.833 8.82 1.294 13.474.475 4.776.508 9.616.684 14.156 5.24 5.646 10.647 11.417 16.036 17.233.75.811 1.49 1.87 2.306 2.412.576.385 1.265.679 1.878 1.019 1.777.987 3.757 2.129 5.3 3.373 1.132.914 2.094 1.8 2.641 3.218.52 1.347.587 3.265.688 5.264.025.477.801.784 1.298 1.168 1.301 1 2.501 2.219 3.588 3.287 1.52 1.489 3.149 3.25 4.207 5.019 1.185 1.974 2.171 4.4 2.372 7.059.417 5.456-2.116 10.022-5.534 12.36-1.922 1.313-4.23 1.691-7.059 2.371-4.905 1.181-10.556 2.207-16.097 2.964-.125.755-.155 1.325-.672 1.8-1.03.953-4.005 1.284-5.477 1.112-.65-.075-1.09-.316-1.507-.684-.025-.023-.168-.223-.241-.106 5.6 12.059 11.072 24.469 16.705 36.748.367.799.694 1.888 1.127 2.411.277.335.894.489 1.221.823.864.875 1.423 2.621 2.04 4.072.74 1.744 1.772 3.227 1.212 5.175 2.884 6.244 5.635 12.632 8.527 18.865 1.784.346 3.543.842 5.439.422 1.744-.383 3.382-1.077 5.044-1.498 2.773-.706 5.762-.198 8.264.391.809.189 1.99.324 2.17.946.164.566-.399 1.627-.703 2.33-.922 2.141-1.964 4.172-3.351 5.711-.991 1.099-2.284 1.849-3.573 2.601-5.964 3.486-11.997 6.497-18.337 9.678-.734.367-1.645 1.018-2.246.942-.678-.09-1.015-1-1.442-1.693-6.04-9.796-11.988-19.289-17.957-29.144-.986.306-1.974 1.187-3.372.821-1.537-.399-2.333-2.175-3.198-3.717-.41-.729-.808-1.483-1.239-2.289-.395-.738-1.098-1.562-1.235-2.234-.431-2.11 1.465-2.518 2.54-3.193-8.534-13.926-17.132-27.782-25.734-41.632-.26-.082-.53.228-.746.392-1.227.931-2.797 1.479-4.723 2.013-.528.145-1.739.544-2.11.169-.492-.494.082-2.357.195-3.012.527-3.06.946-6.125 1.528-9.029-3.017-5.155-6.19-9.928-9.318-14.881-3.124-4.943-5.995-10.183-7.367-16.982-.35 1.502-.536 2.685-.782 4.162-.074.437-.256 1.022-.22 1.425.04.454.51 1.049.79 1.607.29.578.523 1.173.733 1.609.508 1.064 1.179 2.232 1.354 3.346.302 1.936-.332 3.688-1.715 4.387-1.12.567-2.937.57-4.503.588-1.983.024-4.872.271-5.48-1.184-.349-.836.035-1.775.23-2.366-.98.161-1.949.335-2.917.506-.02 2.123-.564 3.982-2.919 3.86-.708-.034-1.085-.309-1.501-.565-.592.087-1.123.322-1.871.272-.4-.026-.8-.399-1.381-.517-1.612-.324-3.245-.267-3.743-1.746l-.061-1.174c.484-2.373.622-4.429 2.357-5.598m17.22-52.306c1.842-5.956 3.872-12.247 6.062-18.04 1.123-2.969 2.132-5.9 4.174-7.989 2.062-2.114 5.048-3.01 8.562-4.042-.312-3.666-.726-7.784-1.026-11.722-.038-.5.026-1.282-.083-1.584-.11-.305-.946-.63-1.282-.875-2.753-2-4.858-5.64-5.304-10.202-.488-4.97 1.306-8.641 3.713-11.146.355-.37.768-.667 1.061-1.116-.906-1.223-1.492-3.316-3.297-3.359-2.155-.056-4.456 1.277-5.656 2.18-1.507 1.132-2.287 2.721-2.879 4.625-.578 1.857-1.124 3.873-1.396 5.96-.28 2.165-.391 4.475-.467 6.796-.3 9.062-.847 18.83-6.63 22.957-1.216.868-3.056 1.408-4.429 1.998-1.357.583-2.582 1.263-3.587 2.309-.976 1.014-1.712 2.208-2.35 3.479-.758 1.506-1.54 3.325-1.226 5.834.29 2.3 1.505 3.658 3.355 4.475.494.219 2.097.478 2.355 1.115.207.507-.209 1.32-.37 1.903-.177.631-.395 1.405-.366 2.021.08 1.7 1.135 3.413 2.394 4.112 1.1.611 2.725.887 4.179 1.077a7.66 7.66 0 0 0 4.493-.766M57.41 79.521c-.67-2.786.698-4.82 3.529-4.541.374.037.871.288 1.19.23.49-.087 1.39-1.357 1.846-1.864 3.542-3.934 6.371-7.927 8.985-12.834.382-.72.799-2.07 1.477-2.138 1.13-.116 1.086 1.436.457 1.978.991.991 1.987 1.977 2.982 2.966 1.798-3.679-2.172-6.098-4.734-7.172-5.012-2.103-13.77-1.625-18.497.97-2.675 1.467-4.495 4.007-5.292 6.872-.987 3.539-.26 7.3 1.24 10.178 1.435 2.76 3.487 4.54 6.816 5.355Zm-1.145 15.252c.279.585.836 1.03 1.316 1.518.475.483.95.98 1.435 1.516.897.993 1.64 2.214 2.696 3.155 1.072.954 2.51 1.427 3.984 1.854 1.714.494 4.512 1.223 6.135.206 1.004-.627 2.685-2.415 2.798-3.914.093-1.243-.518-2.413-.994-3.245-.52-.905-1.121-1.662-1.716-2.382-1.052-.143-2.523.231-2.802-.677-.168-.547.206-1.565.352-2.257.436-2.07.994-4.536 1.37-6.433-.83-.111-1.714-.1-1.813-.903-.175-1.431 1.554-.77 2.438-.66 5.622.709 9.207-3.28 9.28-8.317.04-2.75-.865-4.88-2.004-6.783-.224-.376-.57-1.128-.951-1.303-1.302-.601-3.213 1.077-3.496 1.83-.739 1.97.998 3.702 2.112 4.364.388.232 1.282.437 1.41 1.047.12.573-.3 1.103-.51 1.496-.229.43-.427.952-1.009.997-1.051.078-1.075-1.182-.509-1.86-.733-.642-1.58-.967-2.15-1.71-1.083-1.415-1.62-3.851-.697-5.44.686-1.182 1.927-2.003 3.466-2.418-.491-.846-1.587-1.883-2.365-2.41-2.569 5.023-6.015 9.29-9.72 13.403-.513.571-1.107 1.386-1.805 1.51-.883.153-2.33-.756-3.18-.01-.444.389-.529 1.557-.298 2.194.327.899 1.667 1.36 2.555 1.573 1.002.242 2.933.11 3.119 1.072.123.641-.173 1.806-.273 2.663-.294 2.521-.566 5.394-1.498 7.381-1.028 2.195-4.171 2.095-6.676 2.943m-.618-14.042c.186 3.958.69 8.099.989 12.138 1.43-.663 3.415-.358 4.407-1.292.753-.706 1.056-2.997 1.253-4.187a61 61 0 0 0 .577-4.741c-1.456-.185-2.809-.485-3.83-1.154-1.407.052-2.365-.396-3.396-.764m-1.471 14.621c-3.562 1.101-6.753 2.535-8.189 5.551 2.516 1.796 5.26 3.247 7.42 5.618 1.48 1.622 2.618 4.007 3.577 6.467.307.784.8 1.813.781 2.549-.014.567-.526 1.414-.835 2.045-2.168 4.427-4.522 9.01-6.483 13.351l18.379-.963c1.352-2.001 2.2-3.551 3.475-5.597.348-.558.835-1.49 1.323-1.719.534-.251 1.224-.266 1.747-.388 3.973-.921 7.212-3.754 6.603-8.822-.341-2.845-1.854-4.523-3.502-6.177-.34-.34-.862-.708-.888-1.189-.037-.705.817-1.279 1.151-1.652 1.016-1.127 1.615-1.903 2.547-3.077.32-.403 1.136-1.166 1.153-1.59.024-.585-.88-1.817-1.239-2.29-1.547-2.04-3.593-3.254-6.433-3.666-.47-.07-.403.007-.155.418.891 1.481 2.29 3.846 1.498 6.105-.641 1.827-2.73 4.474-5.046 4.855-2.517.418-4.904-.352-6.702-.943-1.629-.531-2.911-1.239-4.006-2.263-1.115-1.04-1.933-2.319-3.006-3.433-1.03-1.071-2.025-2.161-3.17-3.19m-8.823 6.938c-.05-.006-.053.027-.055.062-4.167 10.633-7.784 21.663-10.974 33.311-3.19 11.653-4.47 24.525-5.595 38.153 1.073.173 3.663-.472 3.925.739.348 1.611-2.29.939-3.484.944-1.578.014-3.508.194-4.136.868-.704.752-.578 2.521-.525 3.441.073 1.301.243 2.549.657 3.556 1.21.133 1.099-1.383 1.218-2.594.124-1.25-.058-2.766.97-2.82.68-.036.951.576.904 1.485 1.485-.128 3.347-.99 4.63-.419 1.109-.221 4.106-.931 4.204.485.115 1.617-2.692.512-3.94 1.208-.564.314-.612.839-.801 1.573 1.096.248 2.361.26 3.78.213 1.68-.055 3.77.151 4.37-.876.29-.495.324-1.602.18-2.187-.16-.659-.505-1.486-.886-2.309-.334-.722-.703-1.734-1.05-2.064-.302-.29-.932-.196-1.097-.711-.132-.409.126-1.447.242-2.131 1.482-8.756 2.833-17.226 4.35-25.958.235-1.35.308-2.772.675-3.98.327-1.073 1.074-2.27 1.645-3.442 3.603-7.398 7.132-14.565 10.797-22.058.282-.573.785-1.332.795-1.69.016-.557-.558-1.554-.821-2.194-.875-2.12-1.876-4.126-3.235-5.543-2.115-2.201-4.407-3.576-6.743-5.062M83 101.556c-1.292 1.316-2.02 3.141-3.36 4.414 2.619 2.269 5.134 6.611 3.77 11.283-1.115 3.826-4.325 6.306-8.88 6.941-.272.653-.995 1.086-1.085 1.766-.104.789.378 2.467.527 3.328.58 3.329 1.332 6.427 2.468 8.879 1.694 3.652 3.633 6.49 5.497 9.369a202 202 0 0 1 10.859 4.964c.486.243 1.041.597 1.51.745.26.083.713.005.95.129.599.312 1.186 2.975 1.489 3.689.448 1.06 1.15 2.379 1.933 3.196 1.069 1.114 2.427 1.744 3.007 3.435 1.127-1.338-.398-2.31-.899-3.664-.393-1.058-.62-2.946.604-3.093.964-.116 2.367 1.459 2.929 1.966 1.759 1.584 3.696 2.996 4.802 5.107.271.518.561 1.13.796 1.724.459 1.161.81 2.226 1.953 2.429-.26-2.865-.465-5.407-1.516-7.575-.352-.726-1.776-2.587-.142-2.7.981-.07 1.311 1.221 1.63 1.859 1.037 2.074 1.361 4.28 1.676 7.27.047.442-.014 1.284.423 1.332.538.061.517-.99.566-1.56.179-2.063.165-4.887-.688-6.383-.83-1.454-2.71-2.582-4.19-3.547-1.623-1.06-3.426-1.799-4.855-2.751-.842-.558-1.636-1.656-2.428-2.519-5.455-5.96-11.251-11.951-16.543-17.918-.192-7.998-.805-16.536-1.632-24.406-.284-2.689-.459-5.368-1.171-7.709m-10.968 26.657c-.733.982-1.289 2.122-2.016 3.107 0 0 2.336 2.793 3.46 4.236 0 0-1.1-4.786-1.444-7.343m-3.997 3.506c-6.232.3-12.384.674-18.552 1.031-1.242 2.508-2.418 4.986-3.668 7.553-.392.804-1.084 1.737-1.277 2.6-.366 1.624-.58 3.341-.854 5.046-.662 4.136-1.39 8.321-2.107 12.593-.141.839-.46 1.956-.4 2.494.024.225.243.48.333.75.26.775.393 1.764.608 2.615.847 3.344 1.888 6.84 3.215 9.664 1.83 3.897 4.218 7.286 6.328 10.622 13.1 20.708 25.886 42.088 38.788 62.615 2.74-1.412 5.472-2.773 8.204-4.14 2.742-1.371 5.466-2.83 8.512-3.861-10.386-23.06-21.319-47.109-31.96-70.51-1.008-2.218-2.344-5.055-3.457-7.53-.361-.808-1.019-1.998-1.019-2.598.001-.596.497-1.062.861-1.575.727-1.027 1.235-1.756 2.028-2.875.343-.485.717-1.156 1.353-1.131.27.014.648.22.732.494.282.906-1.097 2.228-1.447 2.724-.71 1.011-1.171 1.68-1.696 2.444q2.644 5.887 5.326 11.732c8.182 3.289 17.096 6.733 25.557 10.142.909.367 3.224.866 3.274 1.829.082 1.561-2.133.479-2.815.209-1.639-.654-2.733-1.074-4.389-1.715-.724-.28-1.58-.84-2.166-.886-.898-.069-1.382.523-2.268.53 1.602 4.52 2.874 9.941 3.7 15.528 4.896-.834 10.113-1.444 14.761-2.599 2.438-.605 4.959-.919 6.793-1.829 3.405-1.686 5.851-5.876 5.803-10.609-.024-2.442-.912-4.769-1.939-6.667-1.42-2.617-3.766-4.731-5.831-6.76-.68-.669-1.47-1.303-2.268-1.707-.148.879-.24 1.711-.955 1.993-.634.253-1.377-.022-2.061-.009-.392.006-.813.154-1.114.116-1.17-.146-2.296-1.012-2.799-1.737-.841-1.209-1.095-2.859-1.983-4.137-1.139-1.632-2.58-2.815-4.038-4.026-.144-.12-.428-.463-.548-.325.404.69 1.176 1.371 1.252 2.525.095 1.469-1.006 3.288-2.121 3.351-1.28.072-1.796-1.722-2.43-2.524-.462-.586-1.09-.969-1.67-1.561-1.527-1.548-2.665-4.013-3.399-6.414-3.742-2.05-7.688-3.774-11.774-5.566-.584-.256-1.313-.419-1.686-.736-.496-.419-1.025-1.567-1.475-2.278-.523-.829-1.12-1.486-1.526-2.157-2.813-4.66-6.344-8.768-9.736-12.738m-46.307 44.467c-.766 1.653-.322 5.018.184 6.877.466-.026.843-.135 1.224-.241-.364-2.134-.587-4.903.005-6.653-.432-.041-.97-.143-1.413.017m-2.112 1.288c-.918 1.076-1.135 2.782-1.292 4.542.433.265.965.42 1.613.445a28 28 0 0 1-.32-4.987Zm59.39-2.702c1.21 3.11 2.821 6.313 4.205 9.438a34 34 0 0 0 2.326-.537c-.61-1.469 1.193-1.717 2.595-2.193 1.474-.506 3.25-1.188 4.963-.793.559.131.986.614 1.428.279-5.126-2.114-10.378-4.093-15.516-6.194Zm8.352 8.806c1.682 5.9 3.241 11.935 5.384 17.325 1.31.209 3.475-.012 4.502-.591-.457-4.671-1.48-9.79-2.806-14.218-.344-1.148-.914-3.569-1.962-3.726-1.716-.258-3.62.781-5.118 1.21m-3.415 2.242c2.01 4.434 3.99 8.905 6.054 13.282.239-.172.02-.579-.04-.763-1.32-4.03-2.687-8.652-3.91-12.809 0-.082 0-.164-.068-.17-.672.157-1.333.329-2.036.46m-25.474 15.052c-.644 2.739-1.02 5.719-1.491 8.617 2.095-.501 4.05-1.129 5.291-2.396-1.235-2.107-2.555-4.122-3.8-6.221m29.563 51.736c.846 2.119 1.955 3.859 3.131 5.842.345.58.808 1.415 1.432 1.455.704.049 1.965-.75 2.651-1.08 2.448-1.181 4.953-2.481 7.287-3.68 3.397-1.742 6.626-3.385 9.507-5.091-.542-1.57-1.487-3.736-2.292-5.53-.307-.686-.581-1.543-1.205-1.647-.651-.107-1.456.161-1.925.337-1.552.582-3.125 1.524-4.708 2.309-4.576 2.263-9.723 4.659-13.878 7.085m8.862 7.308c2.379 4.027 4.893 7.902 7.278 11.926 4.502-2.438 8.901-4.968 13.391-7.417-1.812-4.138-3.641-8.258-5.532-12.307-4.977 2.662-10.066 5.222-15.137 7.798m8.239 13.406c1.523 2.552 3.115 5.031 4.638 7.589 2.78.513 4.386 2.333 5.877 4.283 3.003-1.697 5.927-3.465 8.853-5.234-.301-3.663 1.235-5.975 2.893-7.687-1.264.198-2.489.023-3.837-.213-.908-.158-2.113-.199-2.683-.622-.529-.392-.935-1.738-1.313-2.583-.499-1.119-.848-2.033-1.266-2.818-4.456 2.366-8.777 4.853-13.162 7.285m6.235 9.977c1.061 2.073 2.52 4.243 3.803 6.276 5.493-2.567 11.201-5.769 16.564-8.638 1.828-.979 3.765-1.916 5.255-3.104 2.051-1.635 2.784-4.318 4.01-6.626-2.441-.753-5.356-1.294-8.271-.509-.606.164-1.366.298-1.74.502-.554.306-1.1 1.093-1.622 1.615-1.631 1.632-3.18 3.296-3.204 6.295-.003.423.197 1.035.08 1.526-.183.777-1.835 1.42-2.553 1.838-2.432 1.423-4.441 2.687-6.853 4.071-.455.26-1.039.692-1.496.666-.799-.045-1.459-1.449-1.93-2.017-.669-.809-1.241-1.41-2.043-1.895" clip-rule="evenodd"/><path fill="#fff" fill-rule="evenodd" d="M49.604 60.823c.976-1.959 5.631-5.807 5.631-5.807s-1.211-1.591-3.2-.622c-1.089.532-2.686 1.156-4.632 4.764s.376 6.175.376 6.175.847-2.557 1.825-4.51" clip-rule="evenodd"/></svg>