<svg xmlns="http://www.w3.org/2000/svg" id="Camada_1" data-name="Camada 1" viewBox="0 0 987 987"><defs><style>.cls-1{fill:#ffcb00}.cls-2{fill:#1d1d1b}</style></defs><rect width="241.356" height="75.355" x="828.204" y="455.822" class="cls-1" rx="15.402" ry="15.402" transform="rotate(90 948.881 493.5)"/><path d="M910.763 600.599V386.402c0-7.731 6.289-14.02 14.02-14.02h48.197c7.73 0 14.02 6.289 14.02 14.02v214.197c0 7.73-6.29 14.02-14.02 14.02h-48.197c-7.731 0-14.02-6.29-14.02-14.02m75.355-214.197c0-7.245-5.894-13.14-13.138-13.14h-48.197c-7.245 0-13.139 5.895-13.139 13.14v214.197c0 7.244 5.894 13.138 13.139 13.138h48.197c7.244 0 13.138-5.894 13.138-13.138z" class="cls-2"/><path d="M939.896 397.086h6.887l14.076 5.09v2.995l-14.076 5.091h-6.887v-2.995h4.851v-7.186h-4.851zm7.846 9.642 8.385-3.024v-.06l-8.385-3.024zm-1.078 11.318h-1.198a2.595 2.595 0 0 0-2.576 2.576v2.006c0 1.527.959 2.605 2.276 2.605 4.133 0 5.031-9.883 10.721-9.883 2.935 0 4.972 2.306 4.972 5.571v1.407c0 3.085-2.486 5.6-5.57 5.6h-.9v-2.995h.9c1.437 0 2.575-1.167 2.575-2.605v-1.407c0-1.618-.749-2.576-1.977-2.576-3.174 0-4.402 9.883-10.72 9.883-2.995 0-5.271-2.426-5.271-5.6v-2.006a5.56 5.56 0 0 1 5.57-5.57h1.198zm0 17.966h-1.198a2.595 2.595 0 0 0-2.576 2.575v2.006c0 1.528.959 2.606 2.276 2.606 4.133 0 5.031-9.883 10.721-9.883 2.935 0 4.972 2.306 4.972 5.57v1.408c0 3.085-2.486 5.6-5.57 5.6h-.9v-2.995h.9c1.437 0 2.575-1.167 2.575-2.605v-1.407c0-1.618-.749-2.576-1.977-2.576-3.174 0-4.402 9.882-10.72 9.882-2.995 0-5.271-2.425-5.271-5.6v-2.006a5.56 5.56 0 0 1 5.57-5.57h1.198zm11.2 28.146v-10.181h-5.48v8.984h-2.995v-8.984h-6.499v10.181h-2.994v-13.177h20.963v13.177zm-3.594 7.784h-14.374v-2.995h20.963v2.995l-7.817 3.593 7.817 3.594v2.995h-20.963v-2.995h14.374l-5.93-2.785v-1.617zm-3.593 26.172a5.41 5.41 0 0 1-4.193 1.976h-1.198a5.37 5.37 0 0 1-5.39-5.39v-7.787h20.963v7.187a5.37 5.37 0 0 1-5.39 5.391h-1.199c-1.377 0-2.665-.51-3.593-1.377m1.197-4.014a2.365 2.365 0 0 0 2.396 2.396h1.198a2.364 2.364 0 0 0 2.396-2.396v-4.192h-5.99zm-8.984.6a2.365 2.365 0 0 0 2.396 2.395h1.198a2.365 2.365 0 0 0 2.396-2.395v-4.792h-5.99zm0 13.174v10.181h-2.994V504.88h20.963v2.995zm14.974 28.147V525.84h-5.48v8.983h-2.995v-8.983h-6.499v10.181h-2.994v-13.177h20.963v13.177zm2.995 17.966h-2.995v-5.091H942.89v5.09h-2.994V540.81h2.994v5.091h14.974v-5.091h2.995zm-20.963 4.789h6.887l14.076 5.09v2.995l-14.076 5.09h-6.887v-2.994h4.851v-7.187h-4.851zm7.846 9.642 8.385-3.025v-.06l-8.385-3.024zm-1.078 11.318h-1.198a2.595 2.595 0 0 0-2.576 2.575v2.006c0 1.528.959 2.606 2.276 2.606 4.133 0 5.031-9.883 10.721-9.883 2.935 0 4.972 2.306 4.972 5.57v1.408c0 3.085-2.486 5.6-5.57 5.6h-.9v-2.995h.9c1.437 0 2.575-1.167 2.575-2.605v-1.407c0-1.618-.749-2.576-1.977-2.576-3.174 0-4.402 9.882-10.72 9.882-2.995 0-5.271-2.425-5.271-5.6v-2.006a5.56 5.56 0 0 1 5.57-5.57h1.198z" class="cls-2"/><rect width="241.356" height="75.355" x="694.825" y="777.826" class="cls-1" rx="15.402" ry="15.402" transform="rotate(135 815.503 815.503)"/><path d="m712.819 864.28 151.46-151.46c5.467-5.467 14.362-5.467 19.828 0l34.08 34.08c5.467 5.466 5.466 14.36 0 19.827l-151.46 151.46c-5.466 5.467-14.36 5.467-19.828 0l-34.08-34.08c-5.466-5.466-5.466-14.361 0-19.827m204.745-98.176c5.122-5.123 5.122-13.458 0-18.581l-34.08-34.08c-5.123-5.123-13.459-5.123-18.581 0l-151.46 151.46c-5.123 5.123-5.123 13.458 0 18.58l34.08 34.08c5.123 5.123 13.458 5.124 18.58.001z" class="cls-2"/><path d="M859.964 778.663 849.8 768.499l2.118-2.118 14.823 14.823-2.118 2.118-8.067-2.987 2.985 8.068-2.117 2.118-14.823-14.823 2.117-2.118 10.165 10.165-2.224-6.162 1.144-1.144zm-17.361 22.444 7.199-7.2-3.875-3.874-6.353 6.352-2.117-2.118 6.352-6.352-4.595-4.595-7.2 7.2-2.117-2.118 9.318-9.318 14.823 14.823-9.318 9.318zm-8.046 2.963-10.164-10.164 2.118-2.118 14.823 14.823-2.118 2.118-8.068-2.986 2.986 8.068-2.118 2.117-14.823-14.823 2.118-2.117 10.164 10.164-2.223-6.162 1.144-1.144zm-9.739 11.433a5.387 5.387 0 0 1 .001 7.623l-1.694 1.694a5.37 5.37 0 0 1-7.624 0l-7.178-7.179c-2.096-2.096-2.139-5.526-.021-7.644l1.694-1.694c2.096-2.096 5.548-2.075 7.644.022zm-14.377.02 7.178 7.18a2.365 2.365 0 0 0 3.388 0l1.695-1.695a2.384 2.384 0 0 0-.001-3.388l-7.178-7.178a2.403 2.403 0 0 0-3.388 0l-1.694 1.694a2.403 2.403 0 0 0 0 3.388Zm16.707 15.522-2.88 2.88.17-6.607 2.456-2.456zm-33.032-6.862 8.619 3.24 2.18-2.18-5.929-5.93 2.118-2.118 14.823 14.823-5.506 5.506a5.37 5.37 0 0 1-7.623 0l-1.27-1.271a5.346 5.346 0 0 1-.89-6.437l-8.851-3.304 2.33-2.33Zm9.529 6.565a2.365 2.365 0 0 0 0 3.387l1.27 1.27a2.365 2.365 0 0 0 3.389.001l3.388-3.388-4.66-4.658zm-9.739 23.291-2.117-2.118 3.6-3.6-10.588-10.588-3.6 3.6-2.118-2.117 9.317-9.317 2.117 2.118-3.599 3.599 10.588 10.588 3.6-3.6 2.117 2.118zm-18.21-11.436 4.87 4.87 6.354 13.552-2.118 2.118-13.552-6.353-4.87-4.87 2.117-2.118 3.43 3.43 5.082-5.081-3.43-3.43zm-1.27 12.366 8.068 3.79.042-.042-3.79-8.068z" class="cls-2"/><rect width="241.356" height="75.355" x="372.822" y="911.204" class="cls-1" rx="15.402" ry="15.402" transform="rotate(180 493.5 948.882)"/><path d="M386.4 910.763h214.198c7.731 0 14.02 6.29 14.02 14.02v48.197c0 7.73-6.289 14.02-14.02 14.02H386.401c-7.73 0-14.02-6.29-14.02-14.02v-48.197c0-7.73 6.29-14.02 14.02-14.02Zm214.198 75.355c7.245 0 13.139-5.894 13.139-13.138v-48.197c0-7.244-5.894-13.139-13.139-13.139H386.401c-7.245 0-13.138 5.895-13.138 13.14v48.196c0 7.244 5.893 13.138 13.138 13.138z" class="cls-2"/><path d="M564.162 958.765h2.396a2.384 2.384 0 0 0 2.396-2.397v-10.152a2.4 2.4 0 0 0-2.396-2.395h-2.396a2.4 2.4 0 0 0-2.395 2.395v1.647h-2.995v-1.647c0-2.964 2.395-5.42 5.39-5.42h2.396c2.965 0 5.39 2.456 5.39 5.42v10.152a5.387 5.387 0 0 1-5.39 5.391h-2.396a5.37 5.37 0 0 1-5.39-5.39v-1.648h2.995v1.647a2.365 2.365 0 0 0 2.395 2.397m-10.18-2.396a5.387 5.387 0 0 1-5.39 5.39h-2.396a5.37 5.37 0 0 1-5.39-5.39v-10.153c0-2.964 2.396-5.42 5.39-5.42h2.396c2.965 0 5.39 2.456 5.39 5.42zm-10.181-10.153v10.153a2.365 2.365 0 0 0 2.395 2.396h2.397a2.384 2.384 0 0 0 2.395-2.396v-10.153a2.4 2.4 0 0 0-2.395-2.395h-2.397a2.4 2.4 0 0 0-2.395 2.395m-10.779 8.954v-14.374h2.995v20.963h-2.995l-3.593-7.816-3.594 7.816h-2.994v-20.963h2.994v14.375l2.786-5.93h1.617zm-28.146 6.59v-2.995h5.091V943.79h-5.091v-2.995h13.177v2.995h-5.091v14.974h5.09v2.994h-13.176Zm-7.784-14.195v-1.199a2.595 2.595 0 0 0-2.576-2.575h-2.006c-1.527 0-2.605.958-2.605 2.276 0 4.132 9.882 5.031 9.882 10.72 0 2.936-2.305 4.972-5.57 4.972h-1.407c-3.085 0-5.6-2.485-5.6-5.57v-.898h2.994v.898c0 1.437 1.168 2.576 2.606 2.576h1.407c1.618 0 2.576-.75 2.576-1.977 0-3.175-9.883-4.402-9.883-10.72 0-2.996 2.426-5.272 5.6-5.272h2.006a5.56 5.56 0 0 1 5.571 5.57v1.199zm-17.966 0v-1.199a2.595 2.595 0 0 0-2.575-2.575h-2.007c-1.527 0-2.605.958-2.605 2.276 0 4.132 9.883 5.031 9.883 10.72 0 2.936-2.306 4.972-5.571 4.972h-1.407c-3.085 0-5.6-2.485-5.6-5.57v-.898h2.995v.898c0 1.437 1.167 2.576 2.605 2.576h1.407c1.618 0 2.576-.75 2.576-1.977 0-3.175-9.883-4.402-9.883-10.72 0-2.996 2.426-5.272 5.6-5.272h2.007a5.56 5.56 0 0 1 5.57 5.57v1.199zm-14.97 8.804a5.387 5.387 0 0 1-5.391 5.39h-2.396a5.37 5.37 0 0 1-5.39-5.39v-10.153c0-2.964 2.395-5.42 5.39-5.42h2.396c2.964 0 5.39 2.456 5.39 5.42v10.153Zm-5.93 11.679-3.264-1.378c-.75.03-.958.27-1.228.989l-2.815-.959c.749-2.156 2.216-3.114 4.671-3.024l3.264 1.377c.75-.03.959-.27 1.228-.988l2.816.958c-.75 2.157-2.216 3.115-4.672 3.025m-4.253-21.832v10.153a2.365 2.365 0 0 0 2.396 2.396h2.396a2.384 2.384 0 0 0 2.395-2.396v-10.153a2.4 2.4 0 0 0-2.395-2.395h-2.396a2.4 2.4 0 0 0-2.396 2.395m-20.96 12.549h10.182v-5.48h-8.984v-2.995h8.983v-6.5h-10.18v-2.994h13.176v20.963h-13.177zm-7.784-11.2v-1.199a2.595 2.595 0 0 0-2.576-2.575h-2.006c-1.527 0-2.605.958-2.605 2.276 0 4.132 9.883 5.031 9.883 10.72 0 2.936-2.306 4.972-5.571 4.972h-1.407c-3.085 0-5.6-2.485-5.6-5.57v-.898h2.995v.898c0 1.437 1.167 2.576 2.605 2.576h1.407c1.618 0 2.576-.75 2.576-1.977 0-3.175-9.883-4.402-9.883-10.72 0-2.996 2.426-5.272 5.6-5.272h2.006a5.56 5.56 0 0 1 5.571 5.57v1.199z" class="cls-2"/><rect width="241.356" height="75.355" x="50.819" y="777.826" class="cls-1" rx="15.402" ry="15.402" transform="rotate(-135 171.496 815.503)"/><path d="m122.72 712.82 151.46 151.46c5.467 5.466 5.467 14.36 0 19.827l-34.08 34.08c-5.466 5.466-14.36 5.466-19.827 0l-151.46-151.46c-5.467-5.466-5.467-14.361 0-19.827l34.08-34.08c5.466-5.467 14.36-5.467 19.827 0m98.176 204.743c5.123 5.123 13.458 5.124 18.58.001l34.081-34.08c5.123-5.123 5.122-13.459 0-18.581l-151.46-151.46c-5.123-5.123-13.458-5.123-18.58 0l-34.081 34.08c-5.123 5.123-5.123 13.458 0 18.58z" class="cls-2"/><path d="m238.485 880.63.847-.848a2.595 2.595 0 0 0 0-3.642l-1.418-1.418c-1.08-1.08-2.52-1.165-3.452-.233-2.922 2.922 3.43 10.545-.593 14.569-2.075 2.075-5.145 1.884-7.454-.424l-.995-.995c-2.181-2.181-2.202-5.717-.021-7.898l.636-.636 2.117 2.118-.636.635c-1.016 1.016-.995 2.647.022 3.664l.995.994c1.144 1.144 2.35 1.292 3.219.424 2.245-2.245-3.875-10.1.592-14.568 2.118-2.118 5.443-2.012 7.687.232l1.419 1.419a5.56 5.56 0 0 1 0 7.877l-.848.847zm-29.94-9.866 2.117-2.118 3.6 3.6 10.588-10.588-3.6-3.6 2.118-2.117 9.317 9.317-2.118 2.117-3.6-3.6-10.587 10.589 3.6 3.6-2.118 2.117zm-5.865-19.544 4.152-4.15c2.096-2.096 5.526-2.139 7.643-.022l1.695 1.695c2.096 2.096 2.075 5.547-.021 7.644l-7.18 7.178a5.387 5.387 0 0 1-7.622 0l-1.695-1.694a5.37 5.37 0 0 1 .001-7.623l1.165-1.164 2.117 2.117-1.164 1.165a2.365 2.365 0 0 0-.001 3.388l1.694 1.694a2.383 2.383 0 0 0 3.388 0l7.179-7.179a2.4 2.4 0 0 0 0-3.387l-1.694-1.695a2.4 2.4 0 0 0-3.388 0l-2.033 2.033 3.176 3.176-2.118 2.119-5.293-5.294Zm-19.542-5.863 14.823-14.823 3.07 3.07L193.895 849l11.265-11.266 2.119 2.119-14.823 14.823-3.071-3.071 7.136-15.395-11.265 11.266zm-12.704-12.703 2.118-2.118 3.6 3.6 10.588-10.588-3.6-3.6 2.117-2.117 9.318 9.317-2.118 2.117-3.6-3.6-10.588 10.588 3.6 3.6-2.117 2.118zm-10.586-14.822 7.2 7.2 4.51-4.511-6.352-6.353 2.117-2.117 6.353 6.352 6.077-6.077 2.118 2.118-14.823 14.823-9.317-9.317zm-14.821-10.586 2.118-2.117 3.6 3.6 10.588-10.588-3.6-3.6 2.117-2.118 9.318 9.318-2.118 2.117-3.6-3.6-10.588 10.588 3.6 3.6-2.118 2.118zm-6.775-11.01 1.695 1.695a2.383 2.383 0 0 0 3.388-.001l7.178-7.179a2.4 2.4 0 0 0 0-3.387l-1.694-1.694a2.4 2.4 0 0 0-3.388 0l-1.164 1.164-2.118-2.117 1.165-1.165c2.096-2.096 5.526-2.139 7.644-.021l1.694 1.694c2.096 2.096 2.076 5.548-.02 7.645l-7.18 7.178a5.39 5.39 0 0 1-7.623 0l-1.694-1.694a5.37 5.37 0 0 1 0-7.623l1.165-1.165 2.117 2.117-1.164 1.165a2.365 2.365 0 0 0 0 3.388Zm5.508-19.903-4.87 4.87-13.553 6.353-2.117-2.117 6.352-13.553 4.87-4.87 2.118 2.117-3.43 3.43 5.081 5.083 3.43-3.431zm-12.367-1.27-3.79 8.067.042.042 8.068-3.79zm-20.665-9.739 7.18-7.179c2.095-2.096 5.547-2.117 7.643-.021l5.505 5.506-14.823 14.823-5.505-5.506a5.387 5.387 0 0 1 0-7.623m12.684-5.061a2.4 2.4 0 0 0-3.387 0l-7.179 7.178a2.383 2.383 0 0 0 0 3.388l3.387 3.389L126.8 763.65l-3.388-3.388Zm-16.07 1.674a5.387 5.387 0 0 1-7.623 0l-1.695-1.694a5.37 5.37 0 0 1 0-7.623l7.18-7.179c2.096-2.096 5.526-2.138 7.643-.02l1.695 1.694c2.096 2.096 2.074 5.547-.022 7.643zm-.021-14.378-7.179 7.179a2.365 2.365 0 0 0 0 3.388l1.694 1.694a2.383 2.383 0 0 0 3.388 0l7.179-7.179a2.4 2.4 0 0 0 0-3.388l-1.695-1.694a2.4 2.4 0 0 0-3.387 0" class="cls-2"/><rect width="241.356" height="75.355" x="-82.56" y="455.822" class="cls-1" rx="15.402" ry="15.402" transform="rotate(-90 38.118 493.5)"/><path d="M76.237 386.4v214.198c0 7.731-6.29 14.02-14.02 14.02H14.02c-7.73 0-14.02-6.289-14.02-14.02V386.401c0-7.73 6.29-14.02 14.02-14.02h48.197c7.73 0 14.02 6.29 14.02 14.02ZM.882 600.599c0 7.245 5.893 13.139 13.138 13.139h48.197c7.245 0 13.138-5.894 13.138-13.139V386.401c0-7.245-5.893-13.138-13.138-13.138H14.02c-7.245 0-13.138 5.893-13.138 13.138v214.197Z" class="cls-2"/><path d="M28.234 585.722v10.181h5.48v-8.984h2.995v8.984h6.499v-10.181h2.994v13.175H25.24v-13.175zm0-12.576v2.396a2.383 2.383 0 0 0 2.396 2.395h10.152a2.4 2.4 0 0 0 2.396-2.395v-2.396a2.4 2.4 0 0 0-2.396-2.395h-1.647v-2.995h1.647c2.965 0 5.42 2.395 5.42 5.39v2.396c0 2.964-2.455 5.39-5.42 5.39H30.63a5.387 5.387 0 0 1-5.39-5.39v-2.396a5.37 5.37 0 0 1 5.39-5.39h1.647v2.995H30.63a2.365 2.365 0 0 0-2.396 2.395m2.396-10.18a5.387 5.387 0 0 1-5.39-5.39v-2.396a5.37 5.37 0 0 1 5.39-5.39h10.152c2.965 0 5.42 2.395 5.42 5.39v2.396c0 2.965-2.455 5.39-5.42 5.39zm10.152-10.181H30.63a2.365 2.365 0 0 0-2.396 2.395v2.396a2.383 2.383 0 0 0 2.396 2.396h10.152a2.4 2.4 0 0 0 2.396-2.396v-2.396a2.4 2.4 0 0 0-2.396-2.395m-1.348-10.778h1.198a2.595 2.595 0 0 0 2.576-2.576v-2.006c0-1.527-.958-2.605-2.277-2.605-4.132 0-5.03 9.883-10.72 9.883-2.935 0-4.971-2.306-4.971-5.571v-1.407c0-3.085 2.485-5.6 5.57-5.6h.898v2.995h-.899c-1.437 0-2.575 1.167-2.575 2.605v1.407c0 1.618.75 2.576 1.977 2.576 3.174 0 4.402-9.883 10.72-9.883 2.996 0 5.271 2.426 5.271 5.6v2.006a5.56 5.56 0 0 1-5.57 5.571h-1.198zm0-17.966h1.198a2.595 2.595 0 0 0 2.576-2.575v-2.006c0-1.528-.958-2.606-2.277-2.606-4.132 0-5.03 9.883-10.72 9.883-2.935 0-4.971-2.306-4.971-5.57v-1.408c0-3.085 2.485-5.6 5.57-5.6h.898v2.995h-.899c-1.437 0-2.575 1.167-2.575 2.605v1.407c0 1.618.75 2.576 1.977 2.576 3.174 0 4.402-9.882 10.72-9.882 2.996 0 5.271 2.425 5.271 5.6v2.006a5.56 5.56 0 0 1-5.57 5.57h-1.198zM25.24 495.894h2.994v5.091h14.974v-5.091h2.994v13.177h-2.994v-5.091H28.234v5.09H25.24zm14.194-7.784h1.198a2.595 2.595 0 0 0 2.576-2.576v-2.006c0-1.527-.958-2.605-2.277-2.605-4.132 0-5.03 9.882-10.72 9.882-2.935 0-4.971-2.305-4.971-5.57v-1.407c0-3.085 2.485-5.6 5.57-5.6h.898v2.994h-.899c-1.437 0-2.575 1.168-2.575 2.606v1.407c0 1.617.75 2.576 1.977 2.576 3.174 0 4.402-9.883 10.72-9.883 2.996 0 5.271 2.426 5.271 5.6v2.006a5.56 5.56 0 0 1-5.57 5.571h-1.198zM25.24 459.962h2.994v5.092h17.968v2.994H28.234v5.091H25.24zm2.994-17.965v10.181h5.48v-8.983h2.995v8.983h6.499v-10.181h2.994v13.177H25.24v-13.177zm3.594-7.784h14.374v2.995H25.24v-2.995l7.817-3.593-7.817-3.594v-2.994h20.963v2.995H31.828l5.93 2.785v1.617zm14.374-14.971h-6.888l-14.074-5.09v-2.995l14.074-5.09h6.888v2.994h-4.851v7.187h4.851zm-7.846-9.642-8.384 3.024v.06l8.384 3.025v-6.11Zm1.078-11.318h1.198a2.595 2.595 0 0 0 2.576-2.575V393.7c0-1.527-.958-2.605-2.277-2.605-4.132 0-5.03 9.883-10.72 9.883-2.935 0-4.971-2.306-4.971-5.571V394c0-3.085 2.485-5.6 5.57-5.6h.898v2.995h-.899c-1.437 0-2.575 1.167-2.575 2.605v1.407c0 1.618.75 2.576 1.977 2.576 3.174 0 4.402-9.883 10.72-9.883 2.996 0 5.271 2.426 5.271 5.6v2.007a5.56 5.56 0 0 1-5.57 5.57h-1.198z" class="cls-2"/><rect width="241.356" height="75.355" x="50.819" y="133.819" class="cls-1" rx="15.402" ry="15.402" transform="rotate(-45 171.497 171.496)"/><path d="M274.18 122.72 122.72 274.18c-5.466 5.467-14.361 5.467-19.827 0l-34.08-34.08c-5.467-5.466-5.467-14.36 0-19.827l151.46-151.46c5.466-5.467 14.361-5.467 19.827 0l34.08 34.08c5.467 5.466 5.467 14.36 0 19.827M69.437 220.896c-5.122 5.123-5.123 13.458 0 18.58l34.08 34.081c5.123 5.123 13.458 5.122 18.581 0l151.46-151.46c5.123-5.123 5.123-13.458 0-18.58l-34.08-34.081c-5.123-5.123-13.458-5.123-18.58 0l-151.46 151.46Z" class="cls-2"/><path d="m114.543 214.474-1.695 1.695a2.383 2.383 0 0 0 .001 3.388l7.179 7.178a2.4 2.4 0 0 0 3.387 0l1.695-1.694a2.4 2.4 0 0 0 0-3.388l-1.165-1.164 2.117-2.118 1.165 1.165c2.096 2.096 2.139 5.526.021 7.644l-1.694 1.694c-2.096 2.096-5.548 2.075-7.644-.021l-7.178-7.179a5.387 5.387 0 0 1-.001-7.623l1.694-1.694a5.37 5.37 0 0 1 7.623 0l1.165 1.165-2.117 2.118-1.165-1.165a2.365 2.365 0 0 0-3.388 0Zm14.397-18.632 2.118 2.117-3.6 3.6 10.588 10.588 3.6-3.6 2.117 2.118-9.317 9.317-2.117-2.118 3.6-3.6-10.589-10.587-3.6 3.6-2.117-2.118zm16.516-8.892 7.178 7.179c2.097 2.096 2.118 5.547.022 7.643l-5.506 5.506-14.823-14.823 5.506-5.506a5.387 5.387 0 0 1 7.623 0Zm5.06 12.684a2.4 2.4 0 0 0 0-3.388l-7.178-7.179a2.383 2.383 0 0 0-3.388 0l-3.388 3.388 10.567 10.567 3.388-3.388Zm9.336-5.059-4.87-4.87-6.353-13.553 2.118-2.117 13.552 6.352 4.871 4.87-2.117 2.118-3.431-3.43-5.082 5.081 3.43 3.431-2.117 2.118Zm1.271-12.367-8.067-3.79-.042.043 3.79 8.067zm9.739-20.665 7.179 7.179c2.096 2.096 2.118 5.547.021 7.644l-5.506 5.506-14.823-14.823 5.506-5.506a5.387 5.387 0 0 1 7.623 0m5.062 12.684a2.4 2.4 0 0 0 0-3.388l-7.179-7.178a2.383 2.383 0 0 0-3.388 0l-3.388 3.387 10.566 10.567zm9.336-5.059-4.87-4.87-6.353-13.553 2.117-2.117 13.553 6.352 4.87 4.87-2.117 2.118-3.43-3.43-5.083 5.081 3.431 3.43zm1.27-12.367-8.067-3.79-.042.042 3.79 8.068zm5.928-24.477 14.823 14.823-3.07 3.07-15.395-7.136 11.266 11.265-2.118 2.118-14.823-14.823 3.07-3.07 15.395 7.136-11.265-11.265zm12.704-12.704 2.117 2.118-3.6 3.6 10.588 10.588 3.6-3.6 2.118 2.117-9.318 9.318-2.117-2.118 3.6-3.6-10.588-10.588-3.6 3.6-2.118-2.117zm18.208 11.437-4.87-4.87-6.352-13.553 2.117-2.117 13.553 6.352 4.87 4.87-2.117 2.118-3.43-3.43-5.083 5.081 3.431 3.43-2.118 2.119Zm1.272-12.367-8.068-3.79-.042.042 3.79 8.068z" class="cls-2"/><rect width="241.356" height="75.355" x="372.822" y=".441" class="cls-1" rx="15.402" ry="15.402"/><path d="M600.599 76.237H386.402c-7.731 0-14.02-6.29-14.02-14.02V14.02c0-7.73 6.289-14.02 14.02-14.02h214.197c7.73 0 14.02 6.29 14.02 14.02v48.197c0 7.73-6.29 14.02-14.02 14.02M386.402.882c-7.245 0-13.14 5.893-13.14 13.138v48.197c0 7.245 5.895 13.138 13.14 13.138h214.197c7.244 0 13.138-5.893 13.138-13.138V14.02c0-7.245-5.894-13.138-13.138-13.138z" class="cls-2"/><path d="M408.286 35.423a5.41 5.41 0 0 1 1.976 4.192v1.198a5.367 5.367 0 0 1-5.39 5.39h-7.786V25.24h7.187a5.37 5.37 0 0 1 5.39 5.391v1.198c0 1.377-.51 2.665-1.377 3.594m-4.013-1.198a2.366 2.366 0 0 0 2.396-2.396V30.63a2.366 2.366 0 0 0-2.396-2.396h-4.192v5.99h4.192Zm.599 8.984a2.365 2.365 0 0 0 2.395-2.397v-1.197a2.364 2.364 0 0 0-2.395-2.396h-4.792v5.99zm23.356-17.969v2.995h-5.092v14.974h5.092v2.994h-13.176V43.21h5.09V28.235h-5.09V25.24zm4.789 5.391a5.387 5.387 0 0 1 5.39-5.39h2.397a5.37 5.37 0 0 1 5.39 5.39v10.152c0 2.965-2.396 5.42-5.39 5.42h-2.397c-2.964 0-5.39-2.455-5.39-5.42zM443.2 40.783V30.631a2.365 2.365 0 0 0-2.396-2.396h-2.396a2.383 2.383 0 0 0-2.395 2.396v10.152a2.4 2.4 0 0 0 2.395 2.395h2.396a2.4 2.4 0 0 0 2.396-2.395m17.664 5.42-3.803-8.385h-3.084v8.385h-2.996V25.24h7.787a5.37 5.37 0 0 1 5.39 5.391v1.797a5.35 5.35 0 0 1-3.922 5.18l3.922 8.595zm-2.096-11.38a2.364 2.364 0 0 0 2.396-2.395v-1.797a2.365 2.365 0 0 0-2.396-2.396h-4.791v6.588zm20.062 11.38-3.803-8.385h-3.084v8.385h-2.996V25.24h7.787a5.37 5.37 0 0 1 5.39 5.391v1.797a5.35 5.35 0 0 1-3.923 5.18l3.923 8.595zm-2.096-11.38a2.364 2.364 0 0 0 2.395-2.395v-1.797a2.365 2.365 0 0 0-2.395-2.396h-4.792v6.588zm23.356-6.588h-10.182v5.48h8.984v2.995h-8.984v6.499h10.182v2.994h-13.177V25.24h13.177zm17.965 6.678v5.87c0 2.964-2.395 5.42-5.39 5.42h-2.396c-2.964 0-5.39-2.456-5.39-5.42V30.631a5.39 5.39 0 0 1 5.39-5.39h2.396a5.37 5.37 0 0 1 5.39 5.39v1.647h-2.994v-1.647a2.365 2.365 0 0 0-2.396-2.396h-2.396a2.383 2.383 0 0 0-2.395 2.396v10.152a2.4 2.4 0 0 0 2.395 2.395h2.396a2.4 2.4 0 0 0 2.396-2.395v-2.875h-4.492v-2.995zm17.966-9.673v2.995h-5.091v14.974h5.091v2.994h-13.177V43.21h5.091V28.235h-5.09V25.24zm4.789 5.391a5.39 5.39 0 0 1 5.39-5.39h2.397a5.37 5.37 0 0 1 5.39 5.39v10.152c0 2.965-2.396 5.42-5.39 5.42H546.2c-2.965 0-5.391-2.455-5.391-5.42zm5.93-11.68 3.264 1.378c.749-.03.958-.27 1.227-.988l2.816.958c-.75 2.156-2.216 3.114-4.672 3.025l-3.264-1.378c-.749.03-.958.27-1.228.989l-2.815-.959c.749-2.156 2.216-3.114 4.672-3.024Zm4.252 21.832V30.631a2.365 2.365 0 0 0-2.395-2.396H546.2a2.383 2.383 0 0 0-2.396 2.396v10.152a2.4 2.4 0 0 0 2.396 2.395h2.396a2.4 2.4 0 0 0 2.395-2.395Zm20.96-12.548H561.77v5.48h8.984v2.995h-8.984v6.499h10.182v2.994h-13.176V25.24h13.176zm7.784 11.2v1.198a2.595 2.595 0 0 0 2.575 2.576h2.006c1.528 0 2.606-.959 2.606-2.277 0-4.132-9.883-5.03-9.883-10.72 0-2.935 2.306-4.972 5.57-4.972h1.408c3.085 0 5.6 2.486 5.6 5.57v.899h-2.995v-.899c0-1.437-1.167-2.575-2.605-2.575h-1.407c-1.618 0-2.576.749-2.576 1.977 0 3.174 9.882 4.402 9.882 10.72 0 2.996-2.425 5.271-5.6 5.271h-2.006a5.56 5.56 0 0 1-5.57-5.57v-1.198z" class="cls-2"/><rect width="241.356" height="75.355" x="694.826" y="133.819" class="cls-1" rx="15.402" ry="15.402" transform="rotate(45 815.503 171.497)"/><path d="m864.28 274.181-151.46-151.46c-5.467-5.467-5.467-14.362 0-19.828l34.08-34.08c5.466-5.467 14.36-5.467 19.828 0l151.46 151.46c5.466 5.466 5.466 14.36 0 19.827l-34.08 34.08c-5.468 5.467-14.362 5.467-19.828.001M766.104 69.436c-5.123-5.122-13.459-5.122-18.581 0l-34.08 34.08c-5.123 5.123-5.123 13.459 0 18.581l151.46 151.46c5.123 5.123 13.458 5.122 18.58 0l34.08-34.08c5.123-5.123 5.124-13.458.001-18.58l-151.46-151.46Z" class="cls-2"/><path d="m748.599 116.026 3.24-8.618-2.181-2.181-5.93 5.93-2.117-2.118 14.823-14.823 5.506 5.505a5.37 5.37 0 0 1 0 7.623l-1.272 1.271a5.35 5.35 0 0 1-6.437.89l-3.303 8.85-2.33-2.329Zm6.564-9.528a2.365 2.365 0 0 0 3.388 0l1.27-1.271a2.365 2.365 0 0 0 .001-3.388l-3.388-3.388-4.659 4.658zm21.174 11.856-7.2-7.2-3.874 3.876 6.352 6.352-2.118 2.118-6.352-6.353-4.595 4.596 7.199 7.199-2.118 2.117-9.316-9.316 14.823-14.823 9.317 9.316zm7.982 17.426-4.151 4.15c-2.096 2.097-5.526 2.14-7.644.022l-1.694-1.695c-2.097-2.096-2.075-5.547.021-7.644l7.179-7.178a5.387 5.387 0 0 1 7.623 0l1.694 1.694a5.37 5.37 0 0 1 0 7.623l-1.165 1.164-2.118-2.117 1.165-1.165a2.365 2.365 0 0 0 0-3.388l-1.694-1.694a2.383 2.383 0 0 0-3.388 0l-7.179 7.179a2.4 2.4 0 0 0 0 3.387l1.695 1.695a2.4 2.4 0 0 0 3.387 0l2.033-2.033-3.176-3.176 2.118-2.118 5.294 5.293Zm17.425 7.98-7.2-7.199-3.875 3.875 6.353 6.353-2.118 2.117-6.352-6.352-4.595 4.595 7.199 7.2-2.118 2.117-9.317-9.317 14.823-14.823 9.317 9.317zm14.821 10.587-14.823 14.823-3.07-3.07 7.136-15.395-11.265 11.265-2.118-2.118 14.823-14.823 3.07 3.071-7.136 15.395 11.266-11.266zm10.586 14.821-7.2-7.2-3.874 3.876 6.352 6.352-2.117 2.118-6.353-6.353-4.595 4.596 7.2 7.199-2.118 2.117-9.318-9.317 14.823-14.823 9.318 9.317zm-2.331 23.08 3.24-8.619-2.18-2.18-5.93 5.929-2.118-2.118 14.823-14.823 5.506 5.506a5.37 5.37 0 0 1 0 7.623l-1.271 1.27a5.35 5.35 0 0 1-6.437.89l-3.304 8.85zm6.565-9.53a2.365 2.365 0 0 0 3.388 0l1.27-1.27a2.365 2.365 0 0 0 0-3.388l-3.387-3.388-4.66 4.659zm-.849 15.245 4.87-4.87 13.553-6.353 2.117 2.118-6.352 13.552-4.87 4.87-2.118-2.117 3.43-3.43-5.081-5.082-3.431 3.43zm12.367 1.27 3.79-8.067-.042-.042-8.068 3.79zm18.548 4.235-1.694-1.695a2.383 2.383 0 0 0-3.388 0l-7.18 7.18a2.4 2.4 0 0 0 0 3.387l1.695 1.694a2.4 2.4 0 0 0 3.388 0l1.165-1.164 2.117 2.117-1.165 1.165a5.45 5.45 0 0 1-7.39.275l-.593.424.191.19c1.461 1.461 1.44 3.896-.064 5.4-1.46 1.46-3.896 1.482-5.357.021l-2.414-2.414 2.118-2.117 2.414 2.414c.275.275.826.274 1.122-.022.339-.339.36-.868.064-1.164l-1.61-1.61.805-2.625 1.207-.615c-1.927-2.096-1.843-5.442.19-7.475l7.179-7.178a5.39 5.39 0 0 1 7.623 0l1.695 1.694a5.37 5.37 0 0 1 0 7.623l-1.165 1.165-2.118-2.118 1.165-1.164a2.365 2.365 0 0 0 0-3.388m-5.508 19.902 4.87-4.87 13.552-6.353 2.118 2.117-6.353 13.553-4.87 4.87-2.118-2.117 3.431-3.43-5.082-5.083-3.43 3.431zm23.462-15.077 1.334 3.282c.551.509.868.487 1.567.17l1.313 2.668c-2.054.995-3.769.635-5.442-1.165l-1.334-3.282c-.55-.508-.868-.487-1.567-.17l-1.313-2.668c2.054-.994 3.77-.635 5.442 1.165m-11.096 16.348 3.79-8.068-.042-.042-8.067 3.79zm11.349.422a5.387 5.387 0 0 1 7.623 0l1.694 1.694a5.37 5.37 0 0 1 0 7.623l-7.179 7.179c-2.096 2.096-5.526 2.138-7.644.02l-1.694-1.694c-2.096-2.096-2.075-5.547.021-7.643zm.02 14.378 7.18-7.179a2.365 2.365 0 0 0 0-3.388l-1.695-1.694a2.383 2.383 0 0 0-3.388 0l-7.178 7.18a2.4 2.4 0 0 0 0 3.387l1.694 1.694a2.4 2.4 0 0 0 3.387 0" class="cls-2"/></svg>