<svg xmlns="http://www.w3.org/2000/svg" width="215" height="215" fill="none"><g clip-path="url(#a)"><path fill="#FC0" stroke="#0E0333" stroke-linecap="round" stroke-linejoin="round" d="m127.489.658-2.657 37.29a2.72 2.72 0 0 0 .706 2.036 2.64 2.64 0 0 0 3.904 0 2.73 2.73 0 0 0 .707-2.036zm-19.063 15.994 3.888 20.21a1.48 1.48 0 0 0 .672.981 1.49 1.49 0 0 0 2.195-1.75l-6.755-19.44ZM75.408 35.719l13.464 15.553a1.5 1.5 0 0 0 1.071.513 1.5 1.5 0 0 0 1.44-.943 1.49 1.49 0 0 0-.41-1.67L75.407 35.719ZM179.577 139.89l-13.464-15.564a1.5 1.5 0 0 0-1.071-.515 1.5 1.5 0 0 0-1.439.942 1.5 1.5 0 0 0-.104.598 1.5 1.5 0 0 0 .514 1.072zm19.064-33.017-19.441-6.746a1.48 1.48 0 0 0-1.184.091 1.48 1.48 0 0 0-.775 1.535 1.48 1.48 0 0 0 1.19 1.24zm0-38.135-20.21 3.89a1.475 1.475 0 0 0-1.19 1.241 1.48 1.48 0 0 0 .307 1.146 1.495 1.495 0 0 0 1.652.478zm-19.064-33.019-15.553 13.464a1.485 1.485 0 0 0 .43 2.51 1.49 1.49 0 0 0 1.669-.412zm-33.02-19.067-6.746 19.441a1.485 1.485 0 0 0 .48 1.653 1.48 1.48 0 0 0 2.153-.324c.115-.169.195-.359.233-.56zm-62.739-4.509 16.219 33.746a2.7 2.7 0 0 0 1.631 1.404 2.685 2.685 0 0 0 2.949-.984 2.72 2.72 0 0 0 .48-2.112 2.7 2.7 0 0 0-.418-1.022zM51.833 44.13l31.032 20.862a2.73 2.73 0 0 0 2.128.396 2.72 2.72 0 0 0 1.742-1.276c.187-.32.305-.673.347-1.04a2.68 2.68 0 0 0-1.503-2.723zm119.331 119.335-16.216-33.746a2.7 2.7 0 0 0-.672-.873 2.7 2.7 0 0 0-2.053-.631 2.68 2.68 0 0 0-1.857 1.085 2.72 2.72 0 0 0-.063 3.134zm31.989-31.989-31.034-20.86a2.72 2.72 0 0 0-3.131.062c-.3.219-.55.498-.735.818a2.7 2.7 0 0 0-.35 1.04 2.68 2.68 0 0 0 1.505 2.722zm11.481-43.674-37.305-2.658a2.71 2.71 0 0 0-2.66 1.598 2.635 2.635 0 0 0 .634 3.008 2.7 2.7 0 0 0 2.026.713zM203.153 44.13l-33.745 16.22a2.7 2.7 0 0 0-1.405 1.632 2.67 2.67 0 0 0 .248 2.131 2.7 2.7 0 0 0 1.741 1.276 2.72 2.72 0 0 0 2.127-.396l31.034-20.861Zm-31.989-31.987-20.861 31.033a2.73 2.73 0 0 0-.395 2.128 2.7 2.7 0 0 0 1.275 1.742c.32.186.674.304 1.04.347a2.68 2.68 0 0 0 2.052-.63c.281-.242.509-.54.672-.873z"/><path fill="#02E2AC" d="m117.612 150.62 37.658-36.913a37.62 37.62 0 0 0 11.283-26.49 37.67 37.67 0 0 0-10.741-26.726 37.68 37.68 0 0 0-26.496-11.301 37.63 37.63 0 0 0-26.72 10.724L64.937 96.827"/><path stroke="#0E0333" stroke-miterlimit="10" d="m117.612 150.62 37.658-36.913a37.62 37.62 0 0 0 11.283-26.49 37.67 37.67 0 0 0-10.741-26.726 37.68 37.68 0 0 0-26.496-11.301 37.63 37.63 0 0 0-26.72 10.724L64.937 96.827"/><path fill="#FC0" stroke="#0E0333" stroke-miterlimit="10" d="M90.233 93.854a2.33 2.33 0 0 0-3.29-.001 2.328 2.328 0 0 0 3.292 3.292 2.327 2.327 0 0 0-.002-3.291Zm23.257 29.699a2.328 2.328 0 1 0-3.292 3.291 2.328 2.328 0 0 0 3.292-3.291Zm33.153-24.46a2.327 2.327 0 1 0 .001 3.29 2.325 2.325 0 0 0-.001-3.29Zm.056-32.847a2.33 2.33 0 0 0-3.291 0 2.328 2.328 0 1 0 3.291.001Zm-20.341-4.306a2.32 2.32 0 0 0-3.29-.001 2.323 2.323 0 0 0 0 3.292 2.327 2.327 0 1 0 3.29-3.29Zm-1.251 30.378a2.32 2.32 0 0 0-3.29-.001 2.32 2.32 0 0 0-.682 1.645 2.33 2.33 0 0 0 3.973 1.646 2.32 2.32 0 0 0-.001-3.29ZM108.438 74.53a2.33 2.33 0 0 0-3.291-.001 2.327 2.327 0 1 0 3.291 0Zm49.433 8.836a2.328 2.328 0 0 0-3.972 1.644 2.33 2.33 0 0 0 2.328 2.328 2.327 2.327 0 0 0 1.644-3.972Zm-18.903-6.864a2.328 2.328 0 1 0-3.292 3.291 2.328 2.328 0 0 0 3.292-3.29Zm-.709-19.46a2.33 2.33 0 0 0-3.291-.002 2.326 2.326 0 0 0 .001 3.291 2.33 2.33 0 0 0 3.291.002 2.326 2.326 0 0 0-.001-3.29Zm-12.597 17.646a2.33 2.33 0 0 0-3.291-.001 2.323 2.323 0 0 0 .001 3.29 2.33 2.33 0 0 0 3.29.002 2.33 2.33 0 0 0 0-3.291ZM108.993 92.74a2.33 2.33 0 0 0-3.291-.002 2.328 2.328 0 1 0 3.291.002Zm26.46-27.583a2.327 2.327 0 1 0-1.644 3.973 2.325 2.325 0 0 0 1.644-3.973Zm22.974 7.007a2.327 2.327 0 1 0-3.293 3.29 2.327 2.327 0 0 0 3.293-3.29Zm-12.182 14.423a2.325 2.325 0 0 0-3.972 1.644 2.328 2.328 0 1 0 3.972-1.644Zm12.19 8.834a2.327 2.327 0 1 0 .001 3.29 2.323 2.323 0 0 0-.001-3.29Zm6.723-5.888a2.327 2.327 0 0 0-3.29-.001 2.325 2.325 0 0 0 0 3.29 2.326 2.326 0 1 0 3.29-3.29Zm-22.295 21.131a2.326 2.326 0 1 0-1.644 3.972c.617 0 1.208-.245 1.645-.68a2.33 2.33 0 0 0-.001-3.292Zm-21.536-5.589a2.328 2.328 0 0 0-3.973 1.644 2.329 2.329 0 0 0 3.974 1.647 2.327 2.327 0 0 0-.001-3.291Zm8.551 18.07a2.325 2.325 0 1 0-3.29 3.29 2.324 2.324 0 0 0 3.972-1.644 2.33 2.33 0 0 0-.682-1.646Zm-8.399 13.709a2.323 2.323 0 0 0-3.291-.001 2.33 2.33 0 0 0 .001 3.291 2.33 2.33 0 0 0 3.292.001 2.327 2.327 0 0 0-.002-3.291Zm-27.884-27.599a2.33 2.33 0 0 0-3.291-.001 2.325 2.325 0 0 0 .002 3.291 2.33 2.33 0 0 0 3.291.001 2.33 2.33 0 0 0-.002-3.291Zm13.877-2.375a2.326 2.326 0 1 0-3.29 3.289 2.33 2.33 0 0 0 3.291.002 2.323 2.323 0 0 0-.001-3.291ZM77.071 94.417a2.34 2.34 0 0 0-1.646-.68 2.32 2.32 0 0 0-2.326 2.325 2.328 2.328 0 0 0 4.654.001 2.33 2.33 0 0 0-.682-1.646ZM90.93 74.942a2.326 2.326 0 1 0-1.644 3.972 2.327 2.327 0 0 0 1.644-3.972Zm19.325-12.588a2.33 2.33 0 0 0-3.292-.001 2.327 2.327 0 1 0 3.292 0Zm8.706-10.334a2.327 2.327 0 1 0-3.293 3.29 2.327 2.327 0 0 0 3.293-3.29Zm12.714-1.565a2.33 2.33 0 0 0-3.291 0 2.324 2.324 0 0 0 .001 3.29 2.323 2.323 0 0 0 3.972-1.644c0-.617-.245-1.209-.682-1.646ZM98.917 82.928a2.33 2.33 0 0 0-3.29 0 2.329 2.329 0 0 0 1.646 3.974c.618 0 1.209-.246 1.645-.683a2.323 2.323 0 0 0-.001-3.29Zm35.436 4.359a2.326 2.326 0 1 0-3.29 3.29 2.328 2.328 0 0 0 3.972-1.644 2.33 2.33 0 0 0-.682-1.647Zm-3.637 16.802a2.325 2.325 0 0 0-3.972 1.644 2.33 2.33 0 0 0 2.328 2.328 2.33 2.33 0 0 0 1.646-.681 2.33 2.33 0 0 0-.002-3.291Zm21.972-44.205c0-.618.245-1.209.68-1.646l3.293 3.292a2.328 2.328 0 0 1-3.973-1.646Zm-6.598-5.362a2.323 2.323 0 0 0-3.291-.001 2.327 2.327 0 0 0 1.648 3.973 2.327 2.327 0 0 0 1.643-3.972ZM97.945 122.29a2.327 2.327 0 1 0-1.644 3.971 2.327 2.327 0 0 0 1.644-3.971Zm20.117-38.62a2.328 2.328 0 1 0-3.292 3.291 2.328 2.328 0 0 0 3.292-3.29Zm37.791 25.97a2.33 2.33 0 0 0-3.291-.001 2.33 2.33 0 0 0 1.647 3.973 2.33 2.33 0 0 0 2.327-2.326c0-.618-.246-1.209-.683-1.646Zm-13.085 12.663a2.323 2.323 0 0 0-3.29-.001 2.329 2.329 0 0 0 3.292 3.293 2.33 2.33 0 0 0-.002-3.292Zm-26.999-8.025a2.324 2.324 0 0 0-3.291-.001 2.327 2.327 0 1 0 3.291.001Zm-35.613-8.945a2.327 2.327 0 1 0-3.29 3.291 2.327 2.327 0 0 0 3.29-3.291Zm18.625-6.573a2.33 2.33 0 0 0-3.29-.002 2.326 2.326 0 0 0 0 3.291 2.33 2.33 0 0 0 3.291.002 2.33 2.33 0 0 0 0-3.292ZM80.426 84.07a2.34 2.34 0 0 1-1.646-.682l3.29-3.29a2.33 2.33 0 0 1 0 3.29 2.33 2.33 0 0 1-1.644.682Zm19.036-17.662a2.325 2.325 0 1 0-3.289 3.29 2.33 2.33 0 0 0 3.29 0 2.327 2.327 0 0 0 0-3.29Zm7.175 65.956a2.328 2.328 0 0 0-3.973 1.644 2.329 2.329 0 0 0 3.973 1.647 2.327 2.327 0 0 0 0-3.291Zm-79.391 1.365a37.63 37.63 0 0 0-11.283 26.488 37.68 37.68 0 0 0 10.74 26.728A37.68 37.68 0 0 0 53.2 198.247a37.63 37.63 0 0 0 26.72-10.725l37.659-36.913-52.718-53.793zm90.942-67.084a2.327 2.327 0 1 0-3.293 3.29 2.327 2.327 0 0 0 3.293-3.29Zm14.886 65.466a2.327 2.327 0 1 0-3.29 3.288 2.327 2.327 0 0 0 3.29-3.288Zm-5.151-16.908a2.325 2.325 0 0 0-3.972 1.644 2.33 2.33 0 0 0 3.973 1.647 2.324 2.324 0 0 0-.001-3.291Zm9.89-19.043a2.328 2.328 0 1 0-3.292 3.292 2.328 2.328 0 0 0 3.292-3.291Zm10.445-21.289a2.33 2.33 0 0 0-3.291 0 2.331 2.331 0 0 0 1.647 3.973 2.325 2.325 0 0 0 1.644-3.972Zm-29.386 69.924a2.326 2.326 0 1 0-1.644 3.972 2.33 2.33 0 0 0 2.327-2.326c0-.617-.246-1.21-.683-1.646Zm-14.25-28.811a2.327 2.327 0 1 0-3.29 3.291 2.327 2.327 0 0 0 3.29-3.291Zm12.391-18.976a2.33 2.33 0 0 0-3.291 0 2.328 2.328 0 1 0 3.974 1.647 2.33 2.33 0 0 0-.683-1.647Zm47.454-20.149a2.323 2.323 0 0 0-3.971 1.644c0 .617.246 1.209.681 1.646a2.329 2.329 0 0 0 3.973-1.645c0-.617-.246-1.21-.683-1.645Z"/><path stroke="#0E0333" stroke-miterlimit="10" d="m117.612 150.62 37.658-36.913a37.62 37.62 0 0 0 11.283-26.49 37.67 37.67 0 0 0-10.741-26.726 37.68 37.68 0 0 0-26.496-11.301 37.63 37.63 0 0 0-26.72 10.724L64.937 96.827"/><path fill="#02E2AC" stroke="#0E0333" stroke-miterlimit="10" d="M64.156 116.266a2.324 2.324 0 0 0-3.29-.001 2.327 2.327 0 1 0 3.29.001Zm46.871 28.489a2.326 2.326 0 1 0-1.644 3.971 2.33 2.33 0 0 0 1.645-.68 2.33 2.33 0 0 0-.001-3.291ZM22.8 171.409a2.323 2.323 0 0 0-3.972 1.645A2.329 2.329 0 0 0 22.8 174.7a2.325 2.325 0 0 0-.002-3.291Zm66.17 2.756a2.33 2.33 0 0 0-3.292-.002 2.33 2.33 0 0 0 .002 3.292 2.33 2.33 0 0 0 3.291.001 2.324 2.324 0 0 0-.001-3.291Zm-.919-27.57a2.327 2.327 0 1 0-1.644 3.972 2.327 2.327 0 0 0 1.644-3.972Zm-37.681-2.758a2.33 2.33 0 0 0-3.291-.001 2.325 2.325 0 0 0 .001 3.291 2.326 2.326 0 1 0 3.29-3.29Zm7.352 33.086a2.327 2.327 0 1 0-3.29 3.293 2.327 2.327 0 0 0 3.29-3.293Zm12.868-23.895a2.328 2.328 0 0 0-3.973 1.644A2.33 2.33 0 0 0 68.945 157a2.327 2.327 0 0 0 1.644-3.972Zm-38.6-2.757a2.33 2.33 0 0 0-3.29-.002 2.325 2.325 0 0 0 0 3.292 2.327 2.327 0 0 0 3.29-3.29Zm45.032-18.382a2.323 2.323 0 0 0-3.291-.001 2.328 2.328 0 1 0 3.974 1.647 2.33 2.33 0 0 0-.683-1.646Zm-7.352 58.819a2.327 2.327 0 1 0-3.29 3.291 2.327 2.327 0 0 0 3.29-3.291Zm-25.733-22.975a2.323 2.323 0 0 0-3.972 1.645 2.328 2.328 0 0 0 4.654.001c0-.617-.245-1.209-.682-1.646Zm-13.786 15.624a2.33 2.33 0 0 0-3.29-.001 2.325 2.325 0 0 0 0 3.291 2.33 2.33 0 0 0 3.292.001 2.33 2.33 0 0 0-.002-3.291Zm46.871-14.704a2.328 2.328 0 0 0-3.972 1.644 2.33 2.33 0 0 0 2.328 2.328 2.327 2.327 0 0 0 1.644-3.972Zm-11.947-34.925a2.33 2.33 0 0 0-3.291 0 2.325 2.325 0 0 0 .001 3.29 2.33 2.33 0 0 0 3.291.001 2.325 2.325 0 0 0-.001-3.291Zm1.837-29.41a2.327 2.327 0 1 0-3.29 3.291 2.327 2.327 0 0 0 3.29-3.291ZM31.99 164.975a2.328 2.328 0 1 0-3.292 3.291 2.328 2.328 0 0 0 3.292-3.291Zm11.028 15.624a2.327 2.327 0 1 0-3.29 3.291 2.327 2.327 0 0 0 3.29-3.291Zm16.542-21.137a2.328 2.328 0 1 0-3.292 3.289 2.328 2.328 0 0 0 3.293-3.289Zm11.948 19.298a2.328 2.328 0 1 0-3.292 3.291 2.328 2.328 0 0 0 3.292-3.291Zm16.543-18.381a2.326 2.326 0 1 0-1.644 3.972 2.327 2.327 0 0 0 1.644-3.972Zm5.514-23.893a2.327 2.327 0 1 0-1.644 3.972 2.328 2.328 0 0 0 1.644-3.972Zm-16.543 6.432a2.328 2.328 0 0 0-3.972 1.644 2.33 2.33 0 0 0 2.328 2.328 2.327 2.327 0 0 0 1.644-3.972Zm-1.838-24.815a2.33 2.33 0 0 0-3.291-.001 2.328 2.328 0 0 0 3.292 3.292 2.325 2.325 0 0 0-.001-3.291Zm-28.491 36.763a2.328 2.328 0 0 0-3.972 1.644 2.33 2.33 0 0 0 2.328 2.328 2.33 2.33 0 0 0 2.327-2.326 2.33 2.33 0 0 0-.683-1.646Zm-5.513-14.705a2.324 2.324 0 0 0-3.291-.001 2.327 2.327 0 0 0 .001 3.291 2.323 2.323 0 0 0 3.972-1.644c0-.618-.245-1.209-.682-1.646Zm-20.22 12.867a2.33 2.33 0 0 0-3.29-.001 2.327 2.327 0 1 0 3.29.001Zm26.653 40.438a2.325 2.325 0 0 0-3.972 1.644 2.33 2.33 0 0 0 3.973 1.647 2.324 2.324 0 0 0-.001-3.291Zm0-64.334a2.325 2.325 0 0 0-3.972 1.644c0 .616.246 1.209.682 1.646a2.327 2.327 0 1 0 3.29-3.29Zm39.519-9.19a2.328 2.328 0 1 0-3.292 3.291 2.328 2.328 0 0 0 3.292-3.291Zm15.624 36.761a2.328 2.328 0 0 0-3.973 1.644c0 .617.246 1.209.683 1.645a2.326 2.326 0 1 0 3.29-3.289Zm-52.677-45.275a2.328 2.328 0 0 1 .002 4.654 2.33 2.33 0 0 1-2.328-2.328zM30.78 130.727a2.33 2.33 0 0 1 2.327 2.328 2.323 2.323 0 0 1-3.972 1.644 2.33 2.33 0 0 1-.682-1.645l2.326-2.327Z"/></g><defs><clipPath id="a"><path fill="#fff" d="M0 0h215v215H0z"/></clipPath></defs></svg>