<svg xmlns="http://www.w3.org/2000/svg" width="215" height="215" fill="none"><path fill="#FFEEA8" stroke="#0E0333" stroke-miterlimit="10" d="M85.03 110.619c.131-.098.256-.21.374-.315l.171-.151q.167-.166.308-.355c.053-.059.112-.118.158-.177.047-.059.138-.229.21-.341s.112-.178.158-.263q.072-.147.124-.302.087-.177.152-.361a2 2 0 0 0 .065-.282c.033-.132.073-.257.093-.381a4 4 0 0 0 0-.355 4 4 0 0 0 0-.355q.009-.18 0-.361a3 3 0 0 0 0-.348 4 4 0 0 0-.093-.381 2 2 0 0 0-.065-.283.1.1 0 0 0 0-.032 4 4 0 0 0-.152-.368 2 2 0 0 0-.124-.296c-.046-.091-.11-.184-.164-.275a5 5 0 0 0-.204-.329l-.164-.191a4 4 0 0 0-.302-.347c-.052-.053-.118-.098-.177-.152a5 5 0 0 0-.368-.308L14.97 53.595l78.085 35.812c.138.06.276.105.413.15l.264.093c.125.032.25.046.381.072s.21.046.315.06q.157.007.315 0h.664c.151 0 .295-.034.44-.06.085 0 .163-.052.25-.079a4 4 0 0 0 .406-.118 3 3 0 0 0 .302-.144q.173-.074.335-.164c.105-.06.197-.132.296-.198l.295-.203a5 5 0 0 0 .276-.263c.092-.09.151-.13.216-.203l.23-.303c.066-.085.145-.177.204-.269l.131-.236c.073-.13.145-.256.204-.388.06-.13.04-.118.066-.177.06-.165.125-.329.17-.493 0-.059 0-.118.033-.177a5 5 0 0 0 .092-.532L107.378.242l8.02 85.5q.037.356.124.703v.066q.082.31.211.604l.039.098q.128.29.301.552l.04.06q.167.259.368.492l.039.045v.034l.223.203c.093.092.178.178.276.263s.198.138.296.203c.098.066.19.138.289.197q.165.092.341.165.147.082.303.144.197.07.4.118c.085 0 .165.06.256.08.145 0 .296.038.44.058h.664q.158.01.315 0c.111 0 .216-.04.321-.059.106-.02.257-.039.382-.072l.256-.092c.137-.046.282-.092.413-.152l78.08-35.81-70.054 49.714-.125.098a6 6 0 0 0-.368.316l-.15.157c-.1.105-.198.224-.29.342l-.125.158a5 5 0 0 0-.328.545v.039q-.135.278-.23.571a.4.4 0 0 0 0 .066v.112c-.039.151-.079.302-.105.459a2 2 0 0 0 0 .178q-.045.326-.046.656.004.31.046.618v.184c0 .065.066.302.105.452v.185q.095.293.23.571.144.288.335.545.05.083.112.158.145.178.301.348l.145.151q.18.168.368.315l.125.098 70.061 49.722-78.087-35.818a3 3 0 0 0-.413-.151 2 2 0 0 0-.256-.092 4 4 0 0 0-.388-.079c-.105 0-.204-.046-.309-.053s-.216 0-.321 0h-.395q-.135.007-.269.033-.222.015-.44.059c-.091 0-.171.053-.256.079s-.269.073-.4.125c-.132.053-.204.092-.303.138l-.341.164c-.099.059-.197.132-.289.197s-.203.131-.296.21c-.091.079-.183.171-.276.256-.091.086-.15.132-.223.21l-.039.046a4 4 0 0 0-.368.487l-.04.059a5 5 0 0 0-.301.557l-.039.1a5 5 0 0 0-.211.597v.072a4 4 0 0 0-.118.696l-8.026 85.507-8.025-85.533c0-.171-.052-.335-.085-.499q-.025-.105-.04-.21c-.045-.151-.105-.302-.157-.454-.053-.151-.046-.144-.079-.216s-.124-.236-.19-.361-.093-.178-.145-.263c-.053-.086-.138-.177-.204-.263a4 4 0 0 0-.236-.302v-.032c-.065-.073-.144-.132-.217-.204a3.3 3.3 0 0 0-.57-.466c-.1-.066-.192-.139-.297-.198s-.223-.111-.335-.164l-.3-.137a4 4 0 0 0-.409-.125c-.086 0-.164-.06-.249-.08a3 3 0 0 0-.44-.059c-.092 0-.177-.032-.27-.039-.092-.007-.262 0-.393 0h-.316a2.4 2.4 0 0 0-.315.053c-.125 0-.256.04-.38.079a2 2 0 0 0-.263.091c-.139.046-.276.085-.415.145L14.97 160.374l70.061-49.755Z"/><path fill="#FC0" stroke="#0E0333" stroke-miterlimit="10" d="M111.155 129.365a4 4 0 0 0-.315-.381c-.047-.052-.093-.111-.145-.164-.053-.052-.237-.21-.354-.309-.119-.098-.119-.112-.184-.158a3 3 0 0 0-.342-.21c-.085-.052-.171-.118-.263-.164s-.197-.078-.295-.125l-.368-.151-.289-.065c-.125 0-.249-.065-.374-.085s-.237 0-.355-.034c-.118-.032-.236 0-.361 0h-.355c-.118 0-.236 0-.354.034-.119.032-.25.059-.374.085l-.29.065h-.033l-.361.151c-.098.047-.203.079-.296.125-.091.046-.183.112-.275.171a4 4 0 0 0-.329.203c-.071.053-.131.112-.196.165-.066.052-.237.19-.342.295l-.151.178a5 5 0 0 0-.316.374l-49.721 70.061 35.819-78.086v-.033c.059-.131.098-.269.15-.414.053-.145.066-.17.086-.256s.052-.256.079-.381c.026-.125.046-.21.059-.315s0-.21 0-.315v-.394c0-.132 0-.184-.04-.269q-.016-.226-.058-.447c0-.086-.053-.171-.08-.256-.025-.086-.071-.27-.124-.401s-.092-.204-.138-.302c-.046-.099-.105-.23-.164-.342s-.132-.19-.197-.288c-.066-.099-.132-.198-.211-.296s-.171-.184-.256-.276-.131-.151-.203-.223h-.033c-.092-.085-.197-.151-.295-.23-.1-.079-.178-.144-.27-.204-.092-.059-.164-.085-.243-.131a3 3 0 0 0-.387-.204l-.171-.065a4 4 0 0 0-.5-.171l-.17-.033a4 4 0 0 0-.532-.091L.71 106.977l85.5-8.025a4 4 0 0 0 .697-.12h.072c.204-.058.4-.13.597-.21l.1-.044q.289-.13.558-.297l.059-.038q.256-.168.486-.37l.046-.038h.039c.072-.072.132-.151.203-.223.073-.073.178-.178.257-.276.078-.099.144-.197.21-.295.066-.1.137-.191.197-.29.059-.099.11-.23.164-.341.052-.112.099-.197.138-.302s.085-.27.125-.4c.039-.132.059-.171.078-.257q.045-.221.06-.447c0-.086.033-.176.04-.27.005-.091 0-.261 0-.393v-.315c0-.105-.047-.21-.06-.316a2.3 2.3 0 0 0-.08-.38c-.038-.125-.058-.171-.084-.257a5 5 0 0 0-.151-.42L54.15 14.566l49.715 70.061c0 .04.066.08.098.12q.148.195.316.374l.151.144q.17.157.348.296l.158.118q.259.187.545.334h.032q.278.137.572.236l.072.034h.111q.223.07.454.111l.184.034q.307.042.617.044.314-.002.624-.044l.177-.034q.234-.04.46-.112h.112l.066-.032q.296-.098.577-.237.284-.148.545-.334l.158-.118q.178-.14.348-.297l.151-.143a5 5 0 0 0 .315-.374l.099-.12 49.702-70.191-35.812 78.086c-.059.138-.105.275-.152.413-.046.138-.065.177-.091.263s-.046.257-.073.38c-.026.126-.046.21-.059.316-.013.105 0 .218 0 .323a4 4 0 0 0 0 .386c0 .093 0 .185.033.27s0 .295.059.44c0 .085.053.17.079.256s.072.269.118.4c.047.132.099.204.145.304q.072.17.164.334c.059.106.131.197.197.296l.203.294c.086.1.178.184.264.276.085.093.13.152.203.218h.039l.046.039q.23.2.487.367l.059.04q.268.166.557.296l.093.044q.294.122.604.206h.066q.346.088.702.118l85.501 8.025-85.527 8.025a4 4 0 0 0-.5.086q-.105.014-.21.039a5 5 0 0 0-.453.157c-.072 0-.144.046-.217.08q-.185.084-.36.19l-.263.145c-.092.059-.177.13-.27.203-.092.072-.203.144-.302.23 0 0-.138.144-.203.217-.066.072-.177.177-.263.275l-.204.296c-.065.099-.137.19-.196.295q-.093.163-.164.335a3 3 0 0 0-.145.303 5 5 0 0 0-.119.4c-.032.131-.058.171-.078.256a.1.1 0 0 1 0 .033c0 .145-.039.289-.059.44s0 .177-.033.269a4 4 0 0 0 0 .388 3 3 0 0 0 0 .321c0 .105.039.211.059.316s.04.256.072.381c.033.124.066.171.093.262.025.092.091.276.15.414l35.812 78.08z"/><path fill="#02E2AC" stroke="#0E0333" stroke-miterlimit="10" d="M146.408 99.863a21.127 21.127 0 0 0 0-29.875 21.13 21.13 0 0 0-29.875 0L95.616 90.905l29.875 29.875z"/><path fill="#5BF1CD" stroke="#0E0333" stroke-miterlimit="10" d="m95.63 90.904-20.91 20.918a21.12 21.12 0 0 0 29.867 29.868l20.918-20.911z"/><path fill="#11BC92" stroke="#0E0333" stroke-miterlimit="10" d="M143.644 67.63a21.126 21.126 0 0 1-2.331 27.098l-20.917 20.917 5.109 5.109 20.917-20.916a21.127 21.127 0 0 0 0-29.875 22 22 0 0 0-2.778-2.332Zm-23.25 48.042-20.916 20.91a21.124 21.124 0 0 1-27.098 2.338 21 21 0 0 0 2.338 2.772 21.125 21.125 0 0 0 29.869 0l20.917-20.911z"/></svg>