<svg xmlns="http://www.w3.org/2000/svg" id="Camada_1" data-name="Camada 1" viewBox="0 0 584.357 584.507"><defs><style>.cls-1{fill:#ffcb00}.cls-2{fill:#1d1d1b}</style></defs><rect width="200.496" height="59.525" x="453.689" y="262.491" class="cls-1" rx="9.69" ry="9.69" transform="rotate(90 553.937 292.253)"/><path d="M523.517 382.69V201.816c0-5.772 4.696-10.469 10.469-10.469h39.902c5.773 0 10.469 4.697 10.469 10.469v180.872c0 5.773-4.696 10.47-10.47 10.47h-39.901c-5.773 0-10.469-4.696-10.469-10.47Zm59.526-180.873c0-5.048-4.107-9.155-9.155-9.155h-39.902c-5.048 0-9.155 4.107-9.155 9.155v180.872c0 5.048 4.107 9.156 9.155 9.156h39.902c5.048 0 9.155-4.108 9.155-9.156z" class="cls-2"/><path d="M554.173 232.036a4.28 4.28 0 0 1-3.312 1.562h-.947a4.24 4.24 0 0 1-4.258-4.259v-6.152h16.562v5.678a4.24 4.24 0 0 1-4.26 4.26h-.945c-1.089 0-2.106-.403-2.84-1.089m.947-3.17c0 1.065.828 1.892 1.892 1.892h.947a1.87 1.87 0 0 0 1.893-1.893v-3.312h-4.732zm-7.099.473a1.87 1.87 0 0 0 1.893 1.893h.947a1.87 1.87 0 0 0 1.893-1.893v-3.786h-4.733zm0 10.406v8.043h-2.365v-10.41h16.562v2.367zm9.938 11.825a4.256 4.256 0 0 1 4.259 4.26v1.892a4.24 4.24 0 0 1-4.26 4.26h-8.02c-2.342 0-4.282-1.895-4.282-4.26v-1.893c0-2.343 1.94-4.259 4.282-4.259zm-8.021 8.045h8.02a1.87 1.87 0 0 0 1.894-1.893v-1.893a1.883 1.883 0 0 0-1.893-1.893h-8.021c-1.04 0-1.893.851-1.893 1.893v1.893a1.9 1.9 0 0 0 1.893 1.893m9.914 12.298v-1.892a1.883 1.883 0 0 0-1.893-1.893h-8.021a1.9 1.9 0 0 0-1.893 1.893v1.892c0 1.041.852 1.893 1.893 1.893h1.302v2.365h-1.302c-2.342 0-4.282-1.891-4.282-4.257v-1.893c0-2.343 1.94-4.26 4.282-4.26h8.02a4.256 4.256 0 0 1 4.26 4.26v1.893a4.24 4.24 0 0 1-4.26 4.257h-1.3v-2.365h1.3a1.87 1.87 0 0 0 1.894-1.892Zm-14.196 8.04h16.562v2.366h-7.098v.899l7.098 4.354v2.792l-8.281-5.088-8.281 5.088v-2.792l7.098-4.354v-.899h-7.098zm14.196 20.343v-1.892a1.883 1.883 0 0 0-1.893-1.893h-8.021a1.9 1.9 0 0 0-1.893 1.893v1.892c0 1.041.852 1.893 1.893 1.893h1.302v2.365h-1.302c-2.342 0-4.282-1.891-4.282-4.257v-1.893c0-2.343 1.94-4.26 4.282-4.26h8.02a4.256 4.256 0 0 1 4.26 4.26v1.893a4.24 4.24 0 0 1-4.26 4.257h-1.3v-2.365h1.3a1.87 1.87 0 0 0 1.894-1.893m-4.259 10.406v5.679h6.625v2.366h-16.562v-2.366h7.57v-5.679h-7.57v-2.366h16.562v2.366zm-9.937 11.826h5.441l11.121 4.021v2.367l-11.12 4.021h-5.442v-2.365h3.833v-5.678h-3.833zm6.199 7.618 6.624-2.39v-.047l-6.624-2.389zm10.363 16.984h-2.366v-4.023h-11.83v4.023h-2.366v-10.41h2.365v4.02h11.83v-4.02h2.367zm0 14.19h-16.562v-3.43l12.586-4.613h-12.586v-2.366h16.562v3.43l-12.587 4.614h12.587z" class="cls-2"/><rect width="200.574" height="59.82" x="-69.716" y="262.344" class="cls-1" rx="10.108" ry="10.108" transform="rotate(-90 30.57 292.254)"/><path d="M61.141 201.827V382.68c0 5.8-4.72 10.52-10.52 10.52h-40.1C4.719 393.2 0 388.48 0 382.68V201.827c0-5.8 4.72-10.52 10.52-10.52h40.1c5.802 0 10.521 4.72 10.521 10.52M1.321 382.68c0 5.073 4.127 9.2 9.2 9.2h40.1c5.072 0 9.2-4.127 9.2-9.2V201.828c0-5.074-4.128-9.2-9.2-9.2h-40.1c-5.073 0-9.2 4.126-9.2 9.2z" class="cls-2"/><path d="M28.907 352.154v-5.706h-6.659v-2.378h16.645v2.378h-7.609v5.706h7.609v2.378H22.248v-2.378zm9.986-11.884h-5.469l-11.176-4.041v-2.378l11.176-4.042h5.469v2.377H35.04v5.707h3.852v2.378Zm-6.23-7.656-6.657 2.401v.048l6.657 2.401zm.856-8.984h.951a2.06 2.06 0 0 0 2.045-2.043v-1.594c0-1.213-.76-2.069-1.807-2.069-3.282 0-3.995 7.847-8.512 7.847-2.33 0-3.948-1.83-3.948-4.423v-1.117c0-2.449 1.974-4.446 4.423-4.446h.714v2.378h-.714a2.05 2.05 0 0 0-2.045 2.068v1.117c0 1.284.595 2.045 1.57 2.045 2.52 0 3.495-7.847 8.512-7.847 2.377 0 4.185 1.927 4.185 4.447v1.594a4.414 4.414 0 0 1-4.423 4.422h-.951zm-4.612-14.261v-5.707h-6.659v-2.376h16.645v2.376h-7.609v5.707h7.609v2.378H22.248v-2.378zm1.022-22.347h4.66c2.354 0 4.304 1.904 4.304 4.28v1.903c0 2.355-1.95 4.28-4.304 4.28h-8.06a4.277 4.277 0 0 1-4.28-4.28v-1.902a4.263 4.263 0 0 1 4.28-4.28h1.307v2.377H26.53a1.88 1.88 0 0 0-1.903 1.903v1.902c0 1.07.857 1.902 1.903 1.902h8.06a1.907 1.907 0 0 0 1.903-1.902v-1.902a1.91 1.91 0 0 0-1.903-1.903h-2.282v3.568H29.93v-5.946Zm8.964-11.645-6.658 3.02v2.448h6.658v2.378H22.248v-6.182a4.26 4.26 0 0 1 4.28-4.28h1.427a4.244 4.244 0 0 1 4.114 3.115l6.824-3.114zm-9.036 1.664c0-1.07-.832-1.902-1.902-1.902h-1.426c-1.07 0-1.903.833-1.903 1.902v3.804h5.231zm9.036-8.08h-5.469l-11.176-4.041v-2.378l11.176-4.043h5.469v2.378H35.04v5.706h3.852v2.378Zm-6.23-7.656-6.657 2.401v.048l6.657 2.401zm-.428-12.788v3.805h6.658v2.378H22.248v-6.183a4.26 4.26 0 0 1 4.28-4.279h1.427a4.26 4.26 0 0 1 4.28 4.28Zm-2.378 0a1.88 1.88 0 0 0-1.902-1.902h-1.426c-1.07 0-1.903.833-1.903 1.902v3.805h5.231zm-.95-10.457v-5.707h-6.659v-2.378h16.645v2.378h-7.609v5.707h7.609v2.378H22.248v-2.378z" class="cls-2"/><rect width="200.574" height="59.82" x="191.966" y=".66" class="cls-1" rx="10.387" ry="10.387"/><path d="M382.68 61.141H201.828c-5.801 0-10.521-4.72-10.521-10.52v-40.1c0-5.802 4.72-10.521 10.52-10.521H382.68c5.8 0 10.52 4.72 10.52 10.52v40.1c0 5.802-4.72 10.521-10.52 10.521M201.827 1.321c-5.073 0-9.2 4.127-9.2 9.2v40.1c0 5.072 4.127 9.2 9.2 9.2H382.68c5.073 0 9.2-4.128 9.2-9.2v-40.1c0-5.073-4.127-9.2-9.2-9.2z" class="cls-2"/><path d="M232.353 28.907h5.707v-6.659h2.378v16.645h-2.378v-7.609h-5.707v7.609h-2.378V22.248h2.378zm11.884-2.378a4.277 4.277 0 0 1 4.28-4.28h1.902a4.26 4.26 0 0 1 4.28 4.28v8.06c0 2.354-1.902 4.304-4.28 4.304h-1.902c-2.355 0-4.28-1.95-4.28-4.304zm8.085 8.06v-8.06a1.88 1.88 0 0 0-1.903-1.903h-1.902c-1.07 0-1.902.857-1.902 1.903v8.06c0 1.046.856 1.903 1.902 1.903h1.902a1.91 1.91 0 0 0 1.903-1.903m8.555 1.926h8.084v2.378H258.5V22.248h2.378zm11.883-9.986a4.277 4.277 0 0 1 4.28-4.28h1.903a4.26 4.26 0 0 1 4.279 4.28v8.06c0 2.354-1.901 4.304-4.279 4.304h-1.902c-2.355 0-4.28-1.95-4.28-4.304v-8.06Zm8.085 8.06v-8.06c0-1.07-.833-1.903-1.902-1.903h-1.902c-1.07 0-1.902.857-1.902 1.903v8.06c0 1.046.856 1.903 1.902 1.903h1.902a1.91 1.91 0 0 0 1.902-1.903m12.36-9.963h-1.902c-1.07 0-1.903.857-1.903 1.903v8.06c0 1.046.855 1.903 1.903 1.903h1.902a1.91 1.91 0 0 0 1.902-1.903v-1.308h2.378v1.308c0 2.354-1.904 4.304-4.28 4.304h-1.902c-2.355 0-4.28-1.95-4.28-4.304v-8.06a4.277 4.277 0 0 1 4.28-4.28h1.902a4.263 4.263 0 0 1 4.28 4.28v1.307h-2.378V26.53c0-1.07-.833-1.903-1.902-1.903Zm10.457 4.281h5.707v-6.659h2.377v16.645h-2.377v-7.609h-5.707v7.609h-2.378V22.248h2.378zm11.884 9.986v-5.469l4.042-11.176h2.378l4.042 11.176v5.469h-2.378V35.04h-5.706v3.852h-2.378Zm7.656-6.23-2.4-6.657h-.049l-2.4 6.657h4.85Zm17.068-10.415v2.378h-4.042v11.89h4.041v2.377h-10.461v-2.378h4.042V24.626h-4.042v-2.378zm14.262 0v16.645h-3.448l-4.636-12.65v12.65h-2.378V22.248h3.447l4.637 12.65v-12.65z" class="cls-2"/><rect width="201.49" height="59.82" x="191.508" y="524.026" class="cls-1" rx="9.625" ry="9.625" transform="rotate(180 292.253 553.936)"/><path d="M201.369 523.367h181.77c5.8 0 10.52 4.718 10.52 10.52v40.1c0 5.8-4.72 10.52-10.52 10.52h-181.77c-5.8 0-10.52-4.72-10.52-10.52v-40.1c0-5.802 4.72-10.52 10.52-10.52m181.77 59.82c5.073 0 9.2-4.128 9.2-9.2v-40.1c0-5.073-4.127-9.2-9.2-9.2h-181.77c-5.073 0-9.2 4.127-9.2 9.2v40.1c0 5.072 4.127 9.2 9.2 9.2z" class="cls-2"/><path d="M369.742 559.881h1.902c1.07 0 1.902-.856 1.902-1.902v-8.06a1.907 1.907 0 0 0-1.902-1.903h-1.902a1.91 1.91 0 0 0-1.902 1.902v1.308h-2.378v-1.308c0-2.353 1.903-4.303 4.28-4.303h1.902c2.355 0 4.28 1.95 4.28 4.303v8.06a4.277 4.277 0 0 1-4.28 4.281h-1.902a4.263 4.263 0 0 1-4.28-4.28v-1.308h2.378v1.308c0 1.07.833 1.902 1.902 1.902m-15.925-14.266 3.019 6.657h2.449v-6.657h2.378v16.644h-6.183a4.26 4.26 0 0 1-4.279-4.28v-1.426a4.244 4.244 0 0 1 3.115-4.114l-3.115-6.824zm1.663 9.035a1.88 1.88 0 0 0-1.902 1.903v1.426c0 1.07.833 1.902 1.902 1.902h3.804v-5.23h-3.804Zm-18.542 7.61v-2.379h4.043v-11.889h-4.043v-2.377h10.463v2.377h-4.042v11.89h4.042v2.377h-10.463Zm-9.981-9.988h3.804v-6.657h2.378v16.644h-6.183a4.26 4.26 0 0 1-4.278-4.28v-1.426a4.26 4.26 0 0 1 4.278-4.28Zm0 2.378c-1.07 0-1.903.832-1.903 1.903v1.426c0 1.07.833 1.902 1.903 1.902h3.804v-5.23h-3.805Zm-18.543 7.61v-2.379h4.043v-14.266h2.378v14.266h4.042v2.378zm-3.799-4.281a4.277 4.277 0 0 1-4.28 4.28h-1.902a4.26 4.26 0 0 1-4.279-4.28v-8.06c0-2.354 1.9-4.304 4.279-4.304h1.902c2.355 0 4.28 1.95 4.28 4.303zm-8.084-8.06v8.06c0 1.07.833 1.902 1.902 1.902h1.902c1.07 0 1.902-.856 1.902-1.902v-8.06a1.91 1.91 0 0 0-1.902-1.903h-1.902a1.91 1.91 0 0 0-1.902 1.902Zm-8.556 7.109v-11.413h2.378v16.644h-2.378l-2.852-6.206-2.854 6.206h-2.378v-16.644h2.378v11.413l2.212-4.708h1.284zm-11.883.951a4.277 4.277 0 0 1-4.28 4.28h-1.903a4.26 4.26 0 0 1-4.279-4.28v-8.06c0-2.354 1.901-4.304 4.28-4.304h1.902c2.354 0 4.28 1.95 4.28 4.303zm-8.085-8.06v8.06c0 1.07.833 1.902 1.902 1.902h1.902c1.07 0 1.903-.856 1.903-1.902v-8.06a1.91 1.91 0 0 0-1.903-1.903h-1.902a1.91 1.91 0 0 0-1.902 1.902Zm-16.64 9.962h8.085v-4.351h-7.133v-2.378h7.133v-5.16h-8.085v-2.377h10.463v16.644h-10.463zm-14.26-1.902v-8.06c0-2.354 1.925-4.304 4.279-4.304h6.182v16.644h-6.182a4.277 4.277 0 0 1-4.28-4.28Zm4.279-9.963a1.91 1.91 0 0 0-1.903 1.902v8.06c0 1.047.834 1.903 1.903 1.903h3.804v-11.865zm-8.08-2.401v5.468l-4.041 11.176h-2.378l-4.043-11.176v-5.468h2.378v3.852h5.706v-3.852zm-7.656 6.23 2.401 6.657h.048l2.401-6.658zm-8.984-.856v-.952a2.06 2.06 0 0 0-2.044-2.045h-1.594c-1.212 0-2.068.761-2.068 1.808 0 3.28 7.847 3.994 7.847 8.512 0 2.33-1.831 3.947-4.423 3.947h-1.117c-2.449 0-4.447-1.974-4.447-4.423v-.713h2.378v.713a2.05 2.05 0 0 0 2.069 2.045h1.117c1.284 0 2.045-.594 2.045-1.57 0-2.52-7.846-3.494-7.846-8.511 0-2.378 1.925-4.185 4.445-4.185h1.594a4.414 4.414 0 0 1 4.422 4.422v.952z" class="cls-2"/></svg>