<svg xmlns="http://www.w3.org/2000/svg" viewBox="0 0 338 451" fill="none">
<path d="M 316.5 125.5 C 324.5 144.166 331.7 197 296.5 259 C 277.56 292.359 256.398 320.901 239.511 346.5 M 316.5 125.5 C 311.833 144.666 294.8 189 264 213 M 316.5 125.5 C 306.5 143.666 271.9 183.3 213.5 196.5 C 155.1 209.7 117.5 223.333 106 228.5 M 316.5 125.5 C 305.924 133.47 276.236 147.501 237 145.038 M 316.5 125.5 C 299.5 127.166 256.3 126 219.5 108 M 316.5 125.5 C 304.833 120.666 272.6 103.9 237 75.5 C 232.803 71.691 225.562 65.933 217 60.547 M 316.5 125.5 C 295.667 87.166 221.8 9.6 93 6 C 79.833 5.667 51.2 4 42 0 M 210 437 C 202.311 409.091 217.167 380.372 239.511 346.5 M 239.511 346.5 C 238.507 358.5 239.9 387.4 253.5 407 M 264 213 C 264 215 211 274.5 194 329.5 M 264 213 C 252.833 216.666 225.4 225.4 205 231 C 179.5 238 146.5 237.5 128.5 299 C 127.748 301.567 127.027 304.066 126.331 306.5 M 47.5 405 C 107.39 383.439 110.35 362.338 126.331 306.5 M 126.331 306.5 C 129.721 328.333 134.9 376.7 128.5 395.5 M 106 228.5 C 95.167 227.166 71.3 222.8 62.5 216 C 51.5 207.5 23.5 210 20.5 213 M 106 228.5 C 96.667 234.333 77.2 247.3 74 252.5 M 128.5 151 C 142.667 146.166 182.1 138 226.5 144 C 230.069 144.482 233.571 144.823 237 145.038 M 237 145.038 C 227.667 147.359 207.5 155 201.5 167 C 195.5 179 184.333 180.666 179.5 180 M 219.5 108 C 173.5 85.499 140.5 61.499 59 80.499 M 219.5 108 C 191.24 94.828 137.927 82.619 96.5 106.756 M 55.5 154 C 65.86 131.252 80.267 116.214 96.5 106.756 M 96.5 106.756 C 83.833 106.837 48.4 113.7 8 140.5 M 185 47 C 195.674 48.707 207.202 54.383 217 60.547 M 217 60.547 C 207.833 66.031 181.4 72.2 149 53 C 116.6 33.8 100.5 37.333 96.5 41.5 M 93 8 C 85.833 9 67.1 14.6 49.5 29 C 31.9 43.4 9.167 35 0 29" fill="none" stroke="#686374" stroke-linecap="round" stroke-linejoin="round" stroke-width="14" transform="translate(7 7)"/>
</svg>
