<svg xmlns="http://www.w3.org/2000/svg" width="628" height="668" fill="none"><path fill="#FFDB4C" stroke="#000" stroke-miterlimit="10" d="M14.962 507.629c0-18.276 14.816-33.091 33.092-33.091s33.09 14.815 33.09 33.091-14.814 33.092-33.09 33.092-33.092-14.816-33.092-33.092Zm266.934 125.125c0-18.276 14.816-33.091 33.092-33.091s33.091 14.815 33.091 33.091-14.815 33.092-33.091 33.092-33.092-14.816-33.092-33.092Z"/><path fill="#000" d="M33.455 507.212c0-8.292 6.722-15.015 15.015-15.015s15.015 6.723 15.015 15.015-6.722 15.015-15.015 15.015-15.015-6.722-15.015-15.015M300.39 632.338c0-8.293 6.723-15.015 15.016-15.015s15.015 6.722 15.015 15.015-6.723 15.015-15.015 15.015-15.016-6.722-15.016-15.015"/><path fill="#11BC92" stroke="#000" stroke-linecap="round" stroke-miterlimit="10" d="M283.707 620.243c117.452 7.341 134.023-45.601 127.628-72.99-4.671-16.349-39.207-13.764-55.89-10.427C240.33 550.59 94.765 404.192 88.51 398.354c-6.256-5.84-54.221-39.623-56.723 30.029-2.503 69.654 105.106 182.684 251.92 191.86Z"/><path fill="#fff" stroke="#000" stroke-linecap="round" stroke-miterlimit="10" d="M179.436 560.182c8.342 1.002 11.261-8.202 11.678-12.93-72.406-17.016-100.24-53.525-105.105-69.653-7.675 4.338-7.091 13.208-5.84 17.101 13.347 38.789 88.84 64.231 99.267 65.482Z"/><path fill="#FC0" stroke="#000" stroke-linecap="round" stroke-miterlimit="10" d="m191.531 546.835 9.176-38.372c-20.02 0-37.538-13.625-43.793-20.437-8.676 1.668-23.079-5.144-29.197-8.758 2.336 16.349-8.202 27.944-13.764 31.698 12.68 18.018 57.003 31.421 77.578 35.869Z"/><path fill="#fff" stroke="#000" stroke-linecap="round" stroke-miterlimit="10" d="M257.014 555.177c-6.007-3.337-4.171-10.288-2.503-13.347 7.34 10.01 26.694 7.507 35.453 5.005l8.342-5.005 6.673-6.673 16.683-17.101c3.615-5.005 11.262-14.765 12.93-13.764 2.085 1.252 6.256 6.674 5.422 10.011s-30.864 37.12-44.629 42.959c-13.763 5.84-30.864 2.086-38.371-2.085Z"/><path fill="#FFEEA8" stroke="#000" stroke-linecap="round" stroke-miterlimit="10" d="M255.762 538.91c4.672-9.009 16.128-11.261 21.272-11.261 8.675-.668 16.683 9.176 19.603 14.18-9.176 11.678-46.714 8.342-40.875-2.919Z"/><path fill="#FC0" stroke="#000" stroke-linecap="round" stroke-miterlimit="10" d="M333.34 503.04c.334-1.334-12.651-13.623-19.186-19.602l-1.668 1.251-6.674 3.754-8.759 5.005-19.603 15.432 2.503 7.508-3.753 10.844c8.675-1.668 17.517 8.759 20.853 14.181 6.257-1.252 35.87-36.705 36.287-38.373Z"/><path fill="#000" stroke="#000" stroke-linecap="round" stroke-miterlimit="10" d="M350.441 235.272c-14.348-37.705-37.955-49.356-47.965-50.468-19.019-8.342-25.998-3.475-27.111 0-8.759 4.45-25.608 17.351-22.939 33.367s-4.727 18.074-8.759 17.101c-17.656-1.669-61.145 6.423-93.845 52.136s23.079 41.847 55.056 34.2c6.117-4.171 31.615-5.171 84.669 24.191 66.316 36.704 78.829-63.397 60.894-110.527Z"/><path fill="#fff" stroke="#000" stroke-linecap="round" stroke-miterlimit="10" d="M370.461 150.603c9.009-4.338 40.178 14.32 54.637 24.191l91.759-58.809 18.352-58.81c1.947-7.09 7.925-20.603 16.267-17.933 8.342 2.669 6.534 33.644 4.588 48.799 3.058-14.181 11.261-39.54 19.603-27.528s1.529 50.607-2.92 68.403c20.437-55.473 54.638-60.895 15.849 45.878-38.789 106.774-107.608 95.93-128.463 100.935s-52.552-19.603-55.471-43.376c-2.919-23.774-15.85-48.8-25.86-54.639s-19.603-21.688-8.341-27.111Z"/><path fill="#FC0" d="M401.326 219.006c-4.004-1.334-55.89 16.127-81.332 25.026 10.01 94.261 58.808 133.467 69.236 132.633 10.427-.834 39.206-34.619 38.372-50.885s-46.714-38.789-31.699-36.703c12.013 1.668 36.704-8.759 47.548-14.181-21.021-8.342-32.394-24.331-35.452-31.281l-3.337-9.594-1.669-10.844zm-96.764 98.849-11.679-67.15c-25.359 7.674-41.709 21.549-46.714 27.527l36.704 24.191z"/><path stroke="#000" stroke-linecap="round" stroke-miterlimit="10" d="M401.326 219.006c-4.004-1.334-55.89 16.127-81.332 25.026 10.01 94.261 58.808 133.467 69.236 132.633 10.427-.834 39.206-34.619 38.372-50.885s-46.714-38.789-31.699-36.703c12.013 1.668 36.704-8.759 47.548-14.181-21.021-8.342-32.394-24.331-35.452-31.281l-3.337-9.594-1.669-10.844zm-96.764 98.849-11.679-67.15c-25.359 7.674-41.709 21.549-46.714 27.527l36.704 24.191z"/><path fill="#fff" stroke="#000" stroke-miterlimit="10" d="m317.073 229.882 3.337 14.597v9.176l-12.929 10.844-12.513-2.919c-.556-4.171-1.668-12.68-1.668-13.347 14.347-2.002 21.827-13.068 23.773-18.351Z"/><path fill="#fff" stroke="#000" stroke-linecap="round" stroke-miterlimit="10" d="M285.792 248.618c-33.7-1.668-25.998-37.12-17.934-54.638 13.013 0 26.276-5.005 31.281-7.507.333 13.68 13.208 23.217 19.603 26.276 3.197-1.251 9.677-1.585 10.01 7.091s-8.203 9.732-12.512 9.175c-3.003 16.016-21.55 19.742-30.448 19.603Zm-94.678-29.195c2.336 4.671 5.978 35.035 7.508 49.633v2.92c-.695.834-2.252 2.503-2.919 2.503s-6.396 9.175-9.176 13.763l-6.257 8.342c-12.095-3.754-42.543-33.785-40.457-38.372 1.668-3.67 11.539-.139 16.266 2.085-5.561-11.4-15.349-34.785-10.01-37.121 5.66-2.476 12.821 14.851 14.101 18.134-1.458-4.067-8.565-27.742-2.839-28.56 3.821-.546 9.766 10.971 13.629 19.974-3.041-8.711-5.249-20.496-1.535-22.06 4.589-1.933 21.689 36.286 18.77 26.277-2.92-10.011 0-23.357 2.919-17.518Z"/><path fill="#02E2AC" stroke="#000" stroke-linecap="round" stroke-miterlimit="10" d="M301.224 158.528c22.356 3.003 25.165 25.999 23.775 37.121-31.365-22.356-53.943-12.373-61.311-4.588 3.197-12.096 15.181-35.535 37.536-32.533Z"/><path fill="#000" d="M480.997 303.35c-5.621 2.066-11.852-.816-13.918-6.437L383.377 69.166c-2.066-5.621.818-11.853 6.439-13.92l115.08-42.293c5.62-2.066 11.852.816 13.918 6.438l83.701 227.746c2.066 5.622-.817 11.854-6.438 13.92z"/><path fill="#fff" stroke="#000" stroke-miterlimit="10" d="M489.954 296.162c-6.703 2.463-14.133-.973-16.597-7.676l-83.7-227.746c-2.463-6.703.973-14.133 7.676-16.597L512.411 1.85c6.703-2.463 14.133.973 16.597 7.676l83.7 227.746c2.463 6.703-.973 14.133-7.676 16.597z"/><path fill="#000" d="M442.933 52.983a5.061 5.061 0 0 1-3.491-9.5l45.291-16.646a5.06 5.06 0 0 1 3.492 9.5z"/><path stroke="#000" stroke-miterlimit="10" stroke-width=".83" d="M294.134 254.49c4.171 6.117 15.265 13.597 26.276-5.423"/><path stroke="#000" stroke-linecap="round" stroke-linejoin="round" d="M282.45 206.116c-.973 2.085-3.169 6.507-4.171 7.507-1.251 1.252-4.588 7.508 2.503 8.342m11.261-13.347c1.668-2.78 6.173-6.423 10.845 1.252m-26.688 0c-2.364-1.113-7.342-1.919-8.342 3.753m18.346 24.191c8.39-1.864 9.714-9.662 9.295-14.093-.047-.495-.537-.804-1.016-.669l-14.762 4.164a.824.824 0 0 0-.601.808c.197 9.42 4.771 10.47 7.084 9.79"/><path fill="#11BC92" stroke="#000" stroke-miterlimit="10" d="M251.175 158.112c-13.68 14.014 2.815 28.621 12.825 33.766 10.242-11.031 25.26-11.501 38.477-7.452-11.401-14.61-37.621-40.329-51.302-26.314Z"/><path stroke="#000" stroke-linecap="round" stroke-miterlimit="10" d="M325.416 195.65c-5.411-3.816-13.767-8.413-22.939-11.224m0 0c-13.217-4.049-28.235-3.579-38.477 7.452-10.01-5.145-26.505-19.752-12.825-33.766 13.681-14.015 39.901 11.704 51.302 26.314Z"/><path stroke="#000" stroke-linecap="round" stroke-linejoin="round" d="m320.411 218.143 3.754 3.753m-3.754.835 3.336-5.78"/><path fill="#FFEEA8" d="M86.425 477.598c10.01-12.012 31.142-3.893 40.457 1.669 5.005 10.343-6.256 25.72-12.512 32.115-28.362-20.854-27.945-32.95-27.945-33.784"/><path stroke="#000" stroke-linecap="round" stroke-miterlimit="10" d="m152.742 488.442 6.256 15.432m-32.116-24.607c-9.315-5.562-30.447-13.681-40.457-1.669 0 .834-.417 12.93 27.945 33.784 6.256-6.395 17.517-21.772 12.512-32.115Zm153.071 33.367 11.261-2.503"/><path fill="#11BC92" stroke="#000" stroke-miterlimit="10" d="M320.827 248.65c-12.346 17.018-22.939 11.54-26.693 6.674 2.224 20.02 7.424 60.728 10.427 63.397s37.398 32.533 54.221 47.13l10.844-1.667c-31.365-26.695-45.601-88.145-48.799-115.534Z"/><path fill="#002624" d="M263.687 289.108c12.012 4.672 72.295 56.724 100.935 82.167l-2.919-4.171-.835-1.669 1.252-.834h7.09l.834.834 4.588 2.919 6.256 5.423 6.256 2.919 4.171-.834 2.92-1.251 5.422-3.336 4.588-4.171v7.507l-.417 10.844-4.171 11.678-5.422 12.513-3.337 6.256-5.839 7.925-7.924 7.091-11.679 4.171-9.176 1.667-14.18 1.252-15.433-2.919-10.844-1.669-13.347-3.337-10.01-2.502-2.086 2.502v5.006l2.086 5.838 2.919 5.006 6.257 4.588 4.171 2.919 3.337 2.503 4.171 5.839 2.502 6.673 1.251 8.342-5.422 7.507-6.673 5.005-9.594 5.006-12.095 8.341-5.005 5.423-3.337.833-39.206-45.879-1.251-4.171-1.251 1.668-9.176 24.608-6.674 12.93-9.592 7.091-7.508 2.92-10.845-2.086-19.603-7.925-11.261-9.176-6.256-7.09.834-14.598 2.92-43.377 3.754-35.87 5.421-29.612 6.257-30.448 4.588-17.1 7.091-17.518 9.176-15.015 7.924-7.924 9.176-3.338h5.422l7.925 1.252 13.347 4.171z"/><path stroke="#000" stroke-linecap="round" stroke-miterlimit="10" d="M404.663 366.237c.833 11.679-2.503 40.04-22.523 60.061-20.02 20.02-68.402 8.341-90.09 0-1.947 4.588-3.754 15.014 4.587 20.02 10.428 6.256 33.783 28.779 10.01 41.709-23.774 12.929-27.528 20.02-30.864 20.853-2.67.667-27.806-30.03-40.041-45.462l-1.668-9.176v-6.673l-1.668-8.759-2.503-12.512 3.337-13.765 13.764-41.708 2.503-10.427 5.004 8.341 22.523 25.86 17.1 12.513 32.116 16.682 16.266 4.589"/><path stroke="#000" stroke-linecap="round" stroke-miterlimit="10" d="M364.622 371.659c-41.43-39.206-131.049-115.032-158.076-104.689-33.783 12.93-49.216 109.694-54.221 215.634 10.705 10.705 36.537 30.364 54.221 23.357 17.685-7.007 26.277-40.735 28.362-56.724-1.947-5.84-5.673-19.27-5.005-26.276.728-7.645 14.482-38.482 19.357-63.398m0 0c.71-3.631 1.232-7.137 1.497-10.426-1.112-4.728-5.088-18.269-12.095-34.619m10.598 45.045c8.285 16.962 38.535 54.472 93.256 68.82"/><path fill="#002624" d="m531.698 128.548 6.738 18.819 10.664-3.818 1.123 3.136-13.8 4.941-7.862-21.955zm-19.433 6.958 13.8-4.941 1.123 3.136-5.332 1.91 5.616 15.682 5.332-1.909 1.123 3.136-13.801 4.941-1.123-3.136 5.332-1.909-5.615-15.682-5.332 1.909zm-10.975 20.703 3.137-1.124.449 1.255a2.887 2.887 0 0 0 3.663 1.732l2.102-.753c1.599-.572 2.369-1.98 1.875-3.36-1.55-4.328-12.238-1.564-14.371-7.523-1.101-3.074.551-6.072 3.97-7.296l1.474-.528c3.23-1.156 6.797.504 7.954 3.735l.337.94-3.137 1.123-.337-.941c-.539-1.505-2.189-2.259-3.694-1.72l-1.474.528c-1.694.606-2.417 1.75-1.957 3.036 1.191 3.324 12.001.904 14.371 7.523 1.123 3.136-.564 6.429-3.889 7.62l-2.101.752a6.184 6.184 0 0 1-7.922-3.745zm-10.623 11.801-3.137 1.123-2.583-7.215.054-16.65 3.137-1.123 10.61 12.832 2.582 7.215-3.136 1.123-1.819-5.082-7.528 2.695zm-2.378-8.42 6.399-2.291-6.313-7.648-.063.022zm-3.255 10.436-3.45 1.235-7.128-7.355-3.23 1.157 3.144 8.782-3.136 1.123-7.861-21.956 8.154-2.92a5.973 5.973 0 0 1 7.667 3.625l.674 1.882a5.946 5.946 0 0 1-2.166 6.897zm-14.931-8.1 5.018-1.797a2.63 2.63 0 0 0 1.61-3.407l-.673-1.882a2.63 2.63 0 0 0-3.407-1.611l-5.019 1.796zm-7.384-.895c.516 1.443.466 2.983-.096 4.281a6.02 6.02 0 0 1 3.642 3.649l.449 1.255a5.97 5.97 0 0 1-3.624 7.667l-8.155 2.92-7.861-21.955 7.528-2.695a5.97 5.97 0 0 1 7.667 3.624zm-5.77 15.513 5.018-1.797a2.63 2.63 0 0 0 1.611-3.408l-.449-1.254a2.63 2.63 0 0 0-3.407-1.612l-5.019 1.798zm-3.369-9.41 4.391-1.572a2.63 2.63 0 0 0 1.61-3.408l-.448-1.254a2.63 2.63 0 0 0-3.408-1.611l-4.391 1.572zm78.571-61.912 5.787-2.072.501 1.397-2.195.786 1.929 5.389-1.397.5-1.929-5.389-2.196.786zm9.215 4.357-2.429-6.787 1.597-.571 3.104 3.009.488-4.296 1.597-.572 2.43 6.787-1.397.5-1.551-4.331-.407 3.456-1.077.386-2.508-2.413 1.551 4.332zm-17.59-1.358 4.288 11.976 6.786-2.43.715 1.996-8.782 3.144-5.003-13.971zm-10.371 3.713 4.287 11.976 6.787-2.43.715 1.996-8.783 3.145-5.002-13.972zm-12.368 4.429 8.782-3.145.714 1.996-3.392 1.215 3.573 9.98 3.393-1.215.714 1.996-8.782 3.144-.715-1.996 3.394-1.214-3.573-9.981-3.394 1.215zm.126 5.359a3.8 3.8 0 0 1-2.305 4.879l-3.194 1.143 2.001 5.589-1.996.715-5.003-13.972 5.19-1.858a3.8 3.8 0 0 1 4.879 2.306zm-6.214 4.026 3.194-1.144a1.674 1.674 0 0 0 1.025-2.168l-.429-1.198a1.674 1.674 0 0 0-2.168-1.024l-3.194 1.143zm-7.868-4.388 1.996-.715 5.002 13.972-2.894 1.036-7.693-9.225 3.802 10.618-1.997.715-5.002-13.971 2.894-1.037 7.694 9.225zm-8.375 2.998.715 1.996-6.786 2.43 1.308 3.652 5.987-2.144.715 1.997-5.987 2.144 1.551 4.33 6.785-2.429.715 1.995-8.782 3.145-5.003-13.972zm-10.371 3.713.715 1.997-6.787 2.43 1.308 3.652 5.988-2.144.714 1.996-5.987 2.144 1.55 4.331 6.787-2.43.715 1.996-8.783 3.144-5.002-13.971zm-5.369 17.686-2.196.786-4.536-4.682-2.055.737 2.001 5.589-1.996.715-5.003-13.973 5.19-1.858a3.8 3.8 0 0 1 4.879 2.307l.429 1.198a3.785 3.785 0 0 1-1.379 4.389zm-9.502-5.155 3.194-1.144a1.674 1.674 0 0 0 1.025-2.168l-.429-1.198a1.675 1.675 0 0 0-2.169-1.024l-3.193 1.143zm-8.553 3.13 4.99-1.787 1.401 3.912c.708 1.976-.304 4.185-2.299 4.899l-1.597.572c-1.976.707-4.179-.35-4.886-2.326l-2.423-6.766a3.815 3.815 0 0 1 2.307-4.88l1.596-.571a3.8 3.8 0 0 1 4.879 2.306l.393 1.098-1.996.715-.393-1.098a1.674 1.674 0 0 0-2.168-1.026l-1.597.572a1.69 1.69 0 0 0-1.025 2.169l2.423 6.766a1.7 1.7 0 0 0 2.169 1.025l1.596-.572a1.7 1.7 0 0 0 1.025-2.168l-.687-1.916-2.993 1.072z"/></svg>