<svg xmlns="http://www.w3.org/2000/svg" width="185" height="214" fill="none"><g stroke="#0E0333" stroke-linecap="round" stroke-linejoin="round" clip-path="url(#a)"><path fill="#02E2AC" d="m92.496 213.188 28.834-47.799-28.834-17.028zm0-93.856v23.576l28.834 17.018z"/><path fill="#11BC92" d="m121.33 165.389-28.834-17.028v30.123z"/><path fill="#02E2AC" d="M92.497 178.484v-30.123L63.66 165.389l28.837 47.799zM63.66 159.926l28.837-17.018v-23.576z"/><path fill="#11BC92" d="M92.497 178.484v-30.123L63.66 165.389z"/><path fill="#FFDB4C" d="m.102 159.89 55.852 1.05.344-33.463-26.11 15.062L.101 159.89Z"/><path fill="#FC0" d="m81.462 112.963-20.439 11.788-.335 33.457z"/><path fill="#E1B815" d="m55.953 160.946.344-33.46-26.111 15.058z"/><path fill="#FFDB4C" d="m30.187 142.543 26.111-15.058-29.178-16.436L.102 159.895z"/><path fill="#FC0" d="m31.852 108.316 29.171 16.436 20.44-11.788z"/><path fill="#E1B815" d="m30.19 142.543 26.11-15.061-29.178-16.433 3.067 31.494Z"/><path fill="#02E2AC" d="m.102 53.31 27.018 48.85 29.178-16.436-26.11-15.062L.101 53.31Zm81.36 46.926L61.023 88.449l-29.17 16.439z"/><path fill="#11BC92" d="M27.122 102.161 56.3 85.725l-26.11-15.06z"/><path fill="#02E2AC" d="m30.187 70.66 26.111 15.062-.344-33.46L.102 53.309zm30.501-15.668.335 33.457 20.439 11.787z"/><path fill="#11BC92" d="m30.186 70.66 26.111 15.062-.344-33.46z"/><path fill="#FFDB4C" d="M92.498.018 63.66 47.817l28.838 17.028z"/><path fill="#FC0" d="M92.497 93.868V70.293L63.66 53.275z"/><path fill="#E1B815" d="m63.66 47.82 28.837 17.025v-30.12z"/><path fill="#FFDB4C" d="M92.496 34.722v30.123l28.834-17.028L92.496.017z"/><path fill="#FC0" d="M121.33 53.275 92.496 70.293v23.575z"/><path fill="#E1B815" d="M92.496 34.725v30.12L121.33 47.82z"/><path fill="#02E2AC" d="m184.895 53.309-55.853-1.047-.341 33.46 26.112-15.061zm-81.366 46.927 20.437-11.787.334-33.457z"/><path fill="#11BC92" d="m129.042 52.262-.341 33.46 26.112-15.061z"/><path fill="#02E2AC" d="m154.813 70.662-26.112 15.061 29.178 16.437 27.016-48.85zm-1.676 34.226-29.171-16.439-20.437 11.787z"/><path fill="#11BC92" d="m154.813 70.664-26.112 15.061 29.178 16.436z"/><path fill="#FFDB4C" d="m184.895 159.895-27.016-48.846-29.178 16.436 26.112 15.058z"/><path fill="#FC0" d="m103.529 112.964 20.437 11.788 29.171-16.436z"/><path fill="#E1B815" d="m157.879 111.049-29.178 16.436 26.112 15.058z"/><path fill="#FFDB4C" d="m154.813 142.539-26.112-15.062.341 33.463 55.853-1.05z"/><path fill="#FC0" d="m124.3 158.211-.334-33.46-20.437-11.788z"/><path fill="#E1B815" d="m154.813 142.544-26.112-15.058.341 33.46z"/></g><defs><clipPath id="a"><path fill="#fff" d="M0 0h185v213.33H0z"/></clipPath></defs></svg>